<svg id="Layer_1" data-name="Layer 1" xmlns="http://www.w3.org/2000/svg" viewBox="0 0 2721.25 1960.79">
  <defs>
    <style>
      .cls-1, .cls-10, .cls-11, .cls-2, .cls-3, .cls-4, .cls-5, .cls-6, .cls-7, .cls-8 {
        fill: none;
      }

      .cls-1, .cls-2, .cls-3, .cls-4, .cls-5, .cls-6, .cls-7, .cls-8 {
        stroke: #000;
      }

      .cls-1, .cls-11, .cls-12, .cls-2, .cls-3, .cls-4, .cls-5, .cls-6, .cls-7, .cls-8 {
        stroke-linecap: round;
        stroke-linejoin: round;
      }

      .cls-1 {
        stroke-width: 1px;
      }

      .cls-2 {
        stroke-width: 0.25px;
      }

      .cls-3 {
        stroke-width: 1px;
      }

      .cls-4 {
        stroke-width: 0.25px;
      }

      .cls-6 {
        stroke-width: 0.25px;
      }

      .cls-7 {
        stroke-width: 1px;
      }

      .cls-8 {
        stroke-width: 0.25px;
      }

      .cls-9 {
        opacity: 0.26;
      }

      .cls-10 {
        stroke: aqua;
        stroke-miterlimit: 10;
      }

      .cls-11, .cls-12 {
        stroke: #222;
      }

      .cls-12 {
        fill: #333;
        opacity: 0.15;
      }
    </style>
  </defs>
  <g>
    <polygon class="cls-1" points="669.93 545.38 669.93 545.37 639.94 528.06 669.93 510.74 699.93 528.06 669.93 545.38"/>
    <polygon class="cls-1" points="669.93 545.37 669.93 580.01 639.94 562.69 639.94 528.06 669.93 545.37"/>
    <polygon class="cls-1" points="699.93 528.06 699.93 562.69 669.93 580.01 669.93 545.38 699.93 528.06"/>
    <path class="cls-2" d="M-365.46,46.92" transform="translate(1035.39 498.46)"/>
  </g>
  <g>
    <polygon class="cls-3" points="464.47 415.75 464.47 415.74 434.47 398.43 464.47 381.1 494.47 398.43 464.47 415.75"/>
    <polygon class="cls-3" points="464.47 415.74 464.47 450.38 434.47 433.06 434.47 398.43 464.47 415.74"/>
    <polygon class="cls-3" points="494.47 398.43 494.47 433.06 464.47 450.38 464.47 415.75 494.47 398.43"/>
    <path class="cls-4" d="M-570.92-82.71" transform="translate(1035.39 498.46)"/>
  </g>
  <g>
    <polygon class="cls-1" points="669.93 476.1 669.93 476.09 639.93 458.78 669.93 441.46 699.93 458.78 669.93 476.1"/>
    <polygon class="cls-1" points="669.93 476.09 669.93 510.73 639.93 493.41 639.93 458.78 669.93 476.09"/>
    <polygon class="cls-1" points="699.93 458.78 699.93 493.41 669.93 510.73 669.93 476.1 699.93 458.78"/>
    <path class="cls-2" d="M-365.47-22.36" transform="translate(1035.39 498.46)"/>
  </g>
  <g>
    <polygon class="cls-1" points="669.93 510.74 669.93 510.73 639.93 493.42 669.93 476.1 699.93 493.42 669.93 510.74"/>
    <polygon class="cls-1" points="669.93 510.73 669.93 545.37 639.93 528.05 639.93 493.42 669.93 510.73"/>
    <polygon class="cls-1" points="699.93 493.42 699.93 528.05 669.93 545.37 669.93 510.74 699.93 493.42"/>
    <path class="cls-2" d="M-365.47,12.28" transform="translate(1035.39 498.46)"/>
  </g>
  <g>
    <polygon class="cls-1" points="524.28 633.05 524.28 633.04 494.29 615.73 524.28 598.4 554.28 615.73 524.28 633.05"/>
    <polygon class="cls-1" points="524.28 633.04 524.28 667.68 494.29 650.36 494.29 615.73 524.28 633.04"/>
    <polygon class="cls-1" points="554.28 615.73 554.28 650.36 524.28 667.68 524.28 633.05 554.28 615.73"/>
    <path class="cls-2" d="M-511.11,134.59" transform="translate(1035.39 498.46)"/>
  </g>
  <g>
    <polygon class="cls-1" points="524.27 598.4 524.27 598.39 494.28 581.08 524.27 563.76 554.28 581.08 524.27 598.4"/>
    <polygon class="cls-1" points="524.27 598.39 524.27 633.04 494.28 615.72 494.28 581.08 524.27 598.39"/>
    <polygon class="cls-1" points="554.28 581.08 554.28 615.72 524.27 633.04 524.27 598.4 554.28 581.08"/>
    <path class="cls-2" d="M-511.12,99.94" transform="translate(1035.39 498.46)"/>
  </g>
  <g>
    <polygon class="cls-5" points="587.54 476.26 587.54 476.25 557.67 459.01 587.54 441.76 617.42 459.01 587.54 476.26"/>
    <polygon class="cls-5" points="587.54 476.25 587.54 510.75 557.67 493.5 557.67 459.01 587.54 476.25"/>
    <polygon class="cls-5" points="617.42 459.01 617.42 493.5 587.54 510.75 587.54 476.26 617.42 459.01"/>
    <path class="cls-6" d="M-447.85-22.2" transform="translate(1035.39 498.46)"/>
  </g>
  <g>
    <polygon class="cls-5" points="587.54 441.76 587.54 441.75 557.67 424.51 587.54 407.26 617.42 424.51 587.54 441.76"/>
    <polygon class="cls-5" points="587.54 441.75 587.54 476.25 557.67 459 557.67 424.51 587.54 441.75"/>
    <polygon class="cls-5" points="617.42 424.51 617.42 459 587.54 476.25 587.54 441.76 617.42 424.51"/>
    <path class="cls-6" d="M-447.85-56.7" transform="translate(1035.39 498.46)"/>
  </g>
  <g>
    <polygon class="cls-7" points="479.46 510.68 479.46 510.67 449.47 493.36 479.46 476.04 509.47 493.36 479.46 510.68"/>
    <polygon class="cls-7" points="479.46 510.67 479.46 545.31 449.47 527.99 449.47 493.36 479.46 510.67"/>
    <polygon class="cls-7" points="509.47 493.36 509.47 527.99 479.46 545.31 479.46 510.68 509.47 493.36"/>
    <path class="cls-8" d="M-555.93,12.22" transform="translate(1035.39 498.46)"/>
  </g>
  <g>
    <polygon class="cls-7" points="479.47 545.32 479.47 545.31 449.48 528 479.47 510.68 509.47 528 479.47 545.32"/>
    <polygon class="cls-7" points="479.47 545.31 479.47 579.95 449.48 562.63 449.48 528 479.47 545.31"/>
    <polygon class="cls-7" points="509.47 528 509.47 562.63 479.47 579.95 479.47 545.32 509.47 528"/>
    <path class="cls-8" d="M-555.92,46.86" transform="translate(1035.39 498.46)"/>
  </g>
  <g class="cls-9">
    <g>
      <line class="cls-10" x1="995.73" y1="232.31" x2="995.73" y2="1644.38"/>
      <line class="cls-10" x1="1026.16" y1="232.63" x2="1026.16" y2="1644.71"/>
      <line class="cls-10" x1="1056.59" y1="232.95" x2="1056.59" y2="1645.03"/>
      <line class="cls-10" x1="1087.02" y1="233.28" x2="1087.02" y2="1645.35"/>
      <line class="cls-10" x1="1117.45" y1="233.6" x2="1117.45" y2="1645.68"/>
      <line class="cls-10" x1="1147.88" y1="233.93" x2="1147.88" y2="1646"/>
      <line class="cls-10" x1="1178.31" y1="234.25" x2="1178.31" y2="1646.33"/>
      <line class="cls-10" x1="1208.74" y1="234.57" x2="1208.74" y2="1646.65"/>
      <line class="cls-10" x1="1239.17" y1="234.9" x2="1239.17" y2="1646.97"/>
      <line class="cls-10" x1="1269.6" y1="235.22" x2="1269.6" y2="1647.3"/>
      <line class="cls-10" x1="1300.03" y1="235.54" x2="1300.03" y2="1647.62"/>
      <line class="cls-10" x1="1330.46" y1="235.87" x2="1330.46" y2="1647.94"/>
      <line class="cls-10" x1="1360.89" y1="236.19" x2="1360.89" y2="1648.27"/>
      <line class="cls-10" x1="1391.32" y1="236.52" x2="1391.32" y2="1648.59"/>
      <line class="cls-10" x1="1421.75" y1="236.84" x2="1421.75" y2="1648.92"/>
      <line class="cls-10" x1="1452.18" y1="237.16" x2="1452.18" y2="1649.24"/>
      <line class="cls-10" x1="1482.61" y1="237.49" x2="1482.61" y2="1649.56"/>
      <line class="cls-10" x1="1513.04" y1="237.81" x2="1513.04" y2="1649.89"/>
      <line class="cls-10" x1="1543.47" y1="238.13" x2="1543.47" y2="1650.21"/>
      <line class="cls-10" x1="1573.9" y1="238.46" x2="1573.9" y2="1650.53"/>
      <line class="cls-10" x1="1604.33" y1="238.78" x2="1604.33" y2="1650.86"/>
      <line class="cls-10" x1="1634.76" y1="239.11" x2="1634.76" y2="1651.18"/>
      <line class="cls-10" x1="1665.19" y1="239.43" x2="1665.19" y2="1651.51"/>
      <line class="cls-10" x1="1695.62" y1="239.75" x2="1695.62" y2="1651.83"/>
      <line class="cls-10" x1="1726.05" y1="240.08" x2="1726.05" y2="1652.15"/>
      <line class="cls-10" x1="1756.48" y1="240.4" x2="1756.48" y2="1652.48"/>
      <line class="cls-10" x1="1786.91" y1="240.72" x2="1786.91" y2="1652.8"/>
      <line class="cls-10" x1="1817.34" y1="241.05" x2="1817.34" y2="1653.12"/>
      <line class="cls-10" x1="1847.77" y1="241.37" x2="1847.77" y2="1653.45"/>
      <line class="cls-10" x1="1878.2" y1="241.7" x2="1878.2" y2="1653.77"/>
      <line class="cls-10" x1="1908.63" y1="242.02" x2="1908.63" y2="1654.1"/>
      <line class="cls-10" x1="1939.06" y1="242.34" x2="1939.06" y2="1654.42"/>
      <line class="cls-10" x1="1969.49" y1="242.67" x2="1969.49" y2="1654.74"/>
      <line class="cls-10" x1="1999.92" y1="242.99" x2="1999.92" y2="1655.07"/>
      <line class="cls-10" x1="2030.35" y1="243.31" x2="2030.35" y2="1655.39"/>
      <line class="cls-10" x1="2060.78" y1="243.64" x2="2060.78" y2="1655.71"/>
      <line class="cls-10" x1="2091.21" y1="243.96" x2="2091.21" y2="1656.04"/>
      <line class="cls-10" x1="2121.64" y1="244.29" x2="2121.64" y2="1656.36"/>
      <line class="cls-10" x1="2152.07" y1="244.61" x2="2152.07" y2="1656.69"/>
      <line class="cls-10" x1="2182.5" y1="244.93" x2="2182.5" y2="1657.01"/>
      <line class="cls-10" x1="2212.93" y1="245.26" x2="2212.93" y2="1657.33"/>
      <line class="cls-10" x1="2243.36" y1="245.58" x2="2243.36" y2="1657.66"/>
    </g>
    <g>
      <line class="cls-10" x1="542.97" y1="1072.59" x2="2074.99" y2="1957.11"/>
      <line class="cls-10" x1="558.53" y1="1046.44" x2="2090.56" y2="1930.96"/>
      <line class="cls-10" x1="574.1" y1="1020.29" x2="2106.12" y2="1904.81"/>
      <line class="cls-10" x1="589.66" y1="994.14" x2="2121.69" y2="1878.66"/>
      <line class="cls-10" x1="605.23" y1="967.99" x2="2137.25" y2="1852.51"/>
      <line class="cls-10" x1="620.8" y1="941.84" x2="2152.82" y2="1826.36"/>
      <line class="cls-10" x1="636.36" y1="915.69" x2="2168.39" y2="1800.21"/>
      <line class="cls-10" x1="651.93" y1="889.54" x2="2183.95" y2="1774.06"/>
      <line class="cls-10" x1="667.49" y1="863.39" x2="2199.52" y2="1747.91"/>
      <line class="cls-10" x1="683.06" y1="837.24" x2="2215.08" y2="1721.76"/>
      <line class="cls-10" x1="698.63" y1="811.09" x2="2230.65" y2="1695.61"/>
      <line class="cls-10" x1="714.19" y1="784.94" x2="2246.22" y2="1669.46"/>
      <line class="cls-10" x1="729.76" y1="758.79" x2="2261.78" y2="1643.3"/>
      <line class="cls-10" x1="745.33" y1="732.64" x2="2277.35" y2="1617.15"/>
      <line class="cls-10" x1="760.89" y1="706.49" x2="2292.92" y2="1591"/>
      <line class="cls-10" x1="776.46" y1="680.34" x2="2308.48" y2="1564.85"/>
      <line class="cls-10" x1="792.02" y1="654.19" x2="2324.05" y2="1538.7"/>
      <line class="cls-10" x1="807.59" y1="628.04" x2="2339.61" y2="1512.55"/>
      <line class="cls-10" x1="823.16" y1="601.89" x2="2355.18" y2="1486.4"/>
      <line class="cls-10" x1="838.72" y1="575.74" x2="2370.75" y2="1460.25"/>
      <line class="cls-10" x1="854.29" y1="549.59" x2="2386.31" y2="1434.1"/>
      <line class="cls-10" x1="869.85" y1="523.44" x2="2401.88" y2="1407.95"/>
      <line class="cls-10" x1="885.42" y1="497.29" x2="2417.44" y2="1381.8"/>
      <line class="cls-10" x1="900.99" y1="471.14" x2="2433.01" y2="1355.65"/>
      <line class="cls-10" x1="916.55" y1="444.99" x2="2448.58" y2="1329.5"/>
      <line class="cls-10" x1="932.12" y1="418.84" x2="2464.14" y2="1303.35"/>
      <line class="cls-10" x1="947.69" y1="392.69" x2="2479.71" y2="1277.2"/>
      <line class="cls-10" x1="963.25" y1="366.54" x2="2495.28" y2="1251.05"/>
      <line class="cls-10" x1="978.82" y1="340.39" x2="2510.84" y2="1224.9"/>
      <line class="cls-10" x1="994.38" y1="314.24" x2="2526.41" y2="1198.75"/>
      <line class="cls-10" x1="1009.95" y1="288.09" x2="2541.97" y2="1172.6"/>
      <line class="cls-10" x1="1025.52" y1="261.94" x2="2557.54" y2="1146.45"/>
      <line class="cls-10" x1="1041.08" y1="235.79" x2="2573.11" y2="1120.3"/>
      <line class="cls-10" x1="1056.65" y1="209.64" x2="2588.67" y2="1094.15"/>
      <line class="cls-10" x1="1072.22" y1="183.48" x2="2604.24" y2="1068"/>
      <line class="cls-10" x1="1087.78" y1="157.33" x2="2619.8" y2="1041.85"/>
      <line class="cls-10" x1="1103.35" y1="131.18" x2="2635.37" y2="1015.7"/>
      <line class="cls-10" x1="1118.91" y1="105.03" x2="2650.94" y2="989.55"/>
      <line class="cls-10" x1="1134.48" y1="78.88" x2="2666.5" y2="963.4"/>
      <line class="cls-10" x1="1150.05" y1="52.73" x2="2682.07" y2="937.25"/>
      <line class="cls-10" x1="1165.61" y1="26.58" x2="2697.64" y2="911.1"/>
      <line class="cls-10" x1="1181.18" y1="0.43" x2="2713.2" y2="884.95"/>
    </g>
    <g>
      <line class="cls-10" x1="2721" y1="1075.84" x2="1188.98" y2="1960.36"/>
      <line class="cls-10" x1="2705.43" y1="1049.69" x2="1173.41" y2="1934.21"/>
      <line class="cls-10" x1="2689.87" y1="1023.54" x2="1157.84" y2="1908.06"/>
      <line class="cls-10" x1="2674.3" y1="997.39" x2="1142.28" y2="1881.91"/>
      <line class="cls-10" x1="2658.73" y1="971.24" x2="1126.71" y2="1855.76"/>
      <line class="cls-10" x1="2643.17" y1="945.09" x2="1111.15" y2="1829.61"/>
      <line class="cls-10" x1="2627.6" y1="918.94" x2="1095.58" y2="1803.46"/>
      <line class="cls-10" x1="2612.04" y1="892.79" x2="1080.01" y2="1777.31"/>
      <line class="cls-10" x1="2596.47" y1="866.64" x2="1064.45" y2="1751.16"/>
      <line class="cls-10" x1="2580.9" y1="840.49" x2="1048.88" y2="1725"/>
      <line class="cls-10" x1="2565.34" y1="814.34" x2="1033.31" y2="1698.85"/>
      <line class="cls-10" x1="2549.77" y1="788.19" x2="1017.75" y2="1672.7"/>
      <line class="cls-10" x1="2534.21" y1="762.04" x2="1002.18" y2="1646.55"/>
      <line class="cls-10" x1="2518.64" y1="735.89" x2="986.62" y2="1620.4"/>
      <line class="cls-10" x1="2503.07" y1="709.74" x2="971.05" y2="1594.25"/>
      <line class="cls-10" x1="2487.51" y1="683.59" x2="955.48" y2="1568.1"/>
      <line class="cls-10" x1="2471.94" y1="657.44" x2="939.92" y2="1541.95"/>
      <line class="cls-10" x1="2456.37" y1="631.29" x2="924.35" y2="1515.8"/>
      <line class="cls-10" x1="2440.81" y1="605.14" x2="908.78" y2="1489.65"/>
      <line class="cls-10" x1="2425.24" y1="578.99" x2="893.22" y2="1463.5"/>
      <line class="cls-10" x1="2409.68" y1="552.84" x2="877.65" y2="1437.35"/>
      <line class="cls-10" x1="2394.11" y1="526.69" x2="862.09" y2="1411.2"/>
      <line class="cls-10" x1="2378.54" y1="500.54" x2="846.52" y2="1385.05"/>
      <line class="cls-10" x1="2362.98" y1="474.39" x2="830.95" y2="1358.9"/>
      <line class="cls-10" x1="2347.41" y1="448.24" x2="815.39" y2="1332.75"/>
      <line class="cls-10" x1="2331.85" y1="422.09" x2="799.82" y2="1306.6"/>
      <line class="cls-10" x1="2316.28" y1="395.94" x2="784.26" y2="1280.45"/>
      <line class="cls-10" x1="2300.71" y1="369.79" x2="768.69" y2="1254.3"/>
      <line class="cls-10" x1="2285.15" y1="343.64" x2="753.12" y2="1228.15"/>
      <line class="cls-10" x1="2269.58" y1="317.49" x2="737.56" y2="1202"/>
      <line class="cls-10" x1="2254.01" y1="291.34" x2="721.99" y2="1175.85"/>
      <line class="cls-10" x1="2238.45" y1="265.18" x2="706.42" y2="1149.7"/>
      <line class="cls-10" x1="2222.88" y1="239.03" x2="690.86" y2="1123.55"/>
      <line class="cls-10" x1="2207.32" y1="212.88" x2="675.29" y2="1097.4"/>
      <line class="cls-10" x1="2191.75" y1="186.73" x2="659.73" y2="1071.25"/>
      <line class="cls-10" x1="2176.18" y1="160.58" x2="644.16" y2="1045.1"/>
      <line class="cls-10" x1="2160.62" y1="134.43" x2="628.59" y2="1018.95"/>
      <line class="cls-10" x1="2145.05" y1="108.28" x2="613.03" y2="992.8"/>
      <line class="cls-10" x1="2129.49" y1="82.13" x2="597.46" y2="966.65"/>
      <line class="cls-10" x1="2113.92" y1="55.98" x2="581.9" y2="940.5"/>
      <line class="cls-10" x1="2098.35" y1="29.83" x2="566.33" y2="914.35"/>
      <line class="cls-10" x1="2082.79" y1="3.68" x2="550.76" y2="888.2"/>
    </g>
  </g>
  <g>
    <polygon class="cls-5" points="213.25 899.65 183.12 882.3 183.12 847.12 213.25 864.51 213.25 899.65"/>
    <polygon class="cls-5" points="243.97 882.25 213.25 899.65 213.25 864.51 244.05 847.12 243.97 882.25"/>
    <polygon class="cls-5" points="183.12 847.12 213.55 829.59 244.05 847.12 213.25 864.51 183.12 847.12"/>
    <polygon class="cls-5" points="243.97 882.25 213.25 864.51 213.55 829.59 244.05 847.12 243.97 882.25"/>
    <polygon class="cls-5" points="183.12 882.3 213.25 864.51 213.55 829.59 183.12 847.12 183.12 882.3"/>
    <polygon class="cls-5" points="213.25 864.51 244.05 847.12 244.05 812.02 213.55 829.59 213.25 864.51"/>
    <polygon class="cls-5" points="183.12 847.12 213.55 829.59 213.25 794.24 183.12 812.02 183.12 847.12"/>
    <polygon class="cls-5" points="213.25 864.51 183.12 847.12 183.12 812.02 213.55 829.59 213.25 864.51"/>
    <polygon class="cls-5" points="244.05 812.02 213.25 794.24 183.12 812.02 213.55 829.59 244.05 812.02"/>
  </g>
  <polygon class="cls-5" points="121.92 847.09 91.79 829.74 91.79 794.56 121.92 811.96 121.92 847.09"/>
  <polygon class="cls-5" points="152.65 829.7 121.92 847.09 121.92 811.96 152.72 794.56 152.65 829.7"/>
  <polygon class="cls-5" points="91.79 794.56 122.22 777.03 152.72 794.56 121.92 811.96 91.79 794.56"/>
  <polygon class="cls-5" points="152.65 829.7 121.92 811.96 122.22 777.03 152.72 794.56 152.65 829.7"/>
  <polygon class="cls-5" points="91.79 829.74 121.92 811.96 122.22 777.03 91.79 794.56 91.79 829.74"/>
  <polygon class="cls-5" points="121.92 811.96 152.72 794.56 152.72 759.47 122.22 777.03 121.92 811.96"/>
  <polygon class="cls-5" points="91.79 794.56 122.22 777.03 121.92 741.68 91.79 759.47 91.79 794.56"/>
  <polygon class="cls-5" points="121.92 811.96 91.79 794.56 91.79 759.47 122.22 777.03 121.92 811.96"/>
  <polygon class="cls-5" points="152.72 759.47 121.92 741.68 91.79 759.47 122.22 777.03 152.72 759.47"/>
  <polygon class="cls-5" points="121.92 777.03 91.79 759.68 91.79 724.5 121.92 741.9 121.92 777.03"/>
  <polygon class="cls-5" points="152.65 759.64 121.92 777.03 121.92 741.9 152.72 724.5 152.65 759.64"/>
  <polygon class="cls-5" points="91.79 724.5 122.22 706.97 152.72 724.5 121.92 741.9 91.79 724.5"/>
  <polygon class="cls-5" points="152.65 759.64 121.92 741.9 122.22 706.97 152.72 724.5 152.65 759.64"/>
  <polygon class="cls-5" points="91.79 759.68 121.92 741.9 122.22 706.97 91.79 724.5 91.79 759.68"/>
  <polygon class="cls-5" points="121.92 741.9 152.72 724.5 152.72 689.4 122.22 706.97 121.92 741.9"/>
  <polygon class="cls-5" points="91.79 724.5 122.22 706.97 121.92 671.62 91.79 689.4 91.79 724.5"/>
  <polygon class="cls-5" points="121.92 741.9 91.79 724.5 91.79 689.4 122.22 706.97 121.92 741.9"/>
  <polygon class="cls-5" points="152.72 689.4 121.92 671.62 91.79 689.4 122.22 706.97 152.72 689.4"/>
  <g>
    <polygon class="cls-5" points="30.63 935.09 0.5 917.73 0.5 882.55 30.63 899.95 30.63 935.09"/>
    <polygon class="cls-5" points="61.36 917.69 30.63 935.09 30.63 899.95 61.43 882.55 61.36 917.69"/>
    <polygon class="cls-5" points="0.5 882.55 30.93 865.03 61.43 882.55 30.63 899.95 0.5 882.55"/>
    <polygon class="cls-5" points="61.36 917.69 30.63 899.95 30.93 865.03 61.43 882.55 61.36 917.69"/>
    <polygon class="cls-5" points="0.5 917.73 30.63 899.95 30.93 865.03 0.5 882.55 0.5 917.73"/>
    <polygon class="cls-5" points="30.63 899.95 61.43 882.55 61.43 847.46 30.93 865.03 30.63 899.95"/>
    <polygon class="cls-5" points="0.5 882.55 30.93 865.03 30.63 829.67 0.5 847.46 0.5 882.55"/>
    <polygon class="cls-5" points="30.63 899.95 0.5 882.55 0.5 847.46 30.93 865.03 30.63 899.95"/>
    <polygon class="cls-5" points="61.43 847.46 30.63 829.67 0.5 847.46 30.93 865.03 61.43 847.46"/>
    <polygon class="cls-5" points="30.63 865.03 0.5 847.67 0.5 812.49 30.63 829.89 30.63 865.03"/>
    <polygon class="cls-5" points="61.36 847.63 30.63 865.03 30.63 829.89 61.43 812.49 61.36 847.63"/>
    <polygon class="cls-5" points="0.5 812.49 30.93 794.97 61.43 812.49 30.63 829.89 0.5 812.49"/>
    <polygon class="cls-5" points="61.36 847.63 30.63 829.89 30.93 794.97 61.43 812.49 61.36 847.63"/>
    <polygon class="cls-5" points="0.5 847.67 30.63 829.89 30.93 794.97 0.5 812.49 0.5 847.67"/>
    <polygon class="cls-5" points="30.63 829.89 61.43 812.49 61.43 777.4 30.93 794.97 30.63 829.89"/>
    <polygon class="cls-5" points="0.5 812.49 30.93 794.97 30.63 759.61 0.5 777.4 0.5 812.49"/>
    <polygon class="cls-5" points="30.63 829.89 0.5 812.49 0.5 777.4 30.93 794.97 30.63 829.89"/>
    <polygon class="cls-5" points="61.43 777.4 30.63 759.61 0.5 777.4 30.93 794.97 61.43 777.4"/>
  </g>
  <g>
    <polygon class="cls-5" points="426.63 846.95 396.49 829.59 396.49 794.41 426.63 811.81 426.63 846.95"/>
    <polygon class="cls-5" points="457.35 829.55 426.63 846.95 426.63 811.81 457.43 794.41 457.35 829.55"/>
    <polygon class="cls-5" points="396.49 794.41 426.92 776.88 457.43 794.41 426.63 811.81 396.49 794.41"/>
    <polygon class="cls-5" points="457.35 829.55 426.63 811.81 426.92 776.88 457.43 794.41 457.35 829.55"/>
    <polygon class="cls-5" points="396.49 829.59 426.63 811.81 426.92 776.88 396.49 794.41 396.49 829.59"/>
    <polygon class="cls-5" points="426.63 811.81 457.43 794.41 457.43 759.32 426.92 776.88 426.63 811.81"/>
    <polygon class="cls-5" points="396.49 794.41 426.92 776.88 426.63 741.53 396.49 759.32 396.49 794.41"/>
    <polygon class="cls-5" points="426.63 811.81 396.49 794.41 396.49 759.32 426.92 776.88 426.63 811.81"/>
    <polygon class="cls-5" points="457.43 759.32 426.63 741.53 396.49 759.32 426.92 776.88 457.43 759.32"/>
  </g>
  <g>
    <polygon class="cls-5" points="243.64 776.71 213.51 759.36 213.51 724.18 243.64 741.58 243.64 776.71"/>
    <polygon class="cls-5" points="274.37 759.32 243.64 776.71 243.64 741.58 274.44 724.18 274.37 759.32"/>
    <polygon class="cls-5" points="213.51 724.18 243.94 706.65 274.44 724.18 243.64 741.58 213.51 724.18"/>
    <polygon class="cls-5" points="274.37 759.32 243.64 741.58 243.94 706.65 274.44 724.18 274.37 759.32"/>
    <polygon class="cls-5" points="213.51 759.36 243.64 741.58 243.94 706.65 213.51 724.18 213.51 759.36"/>
    <polygon class="cls-5" points="243.64 741.58 274.44 724.18 274.44 689.08 243.94 706.65 243.64 741.58"/>
    <polygon class="cls-5" points="213.51 724.18 243.94 706.65 243.64 671.3 213.51 689.08 213.51 724.18"/>
    <polygon class="cls-5" points="243.64 741.58 213.51 724.18 213.51 689.08 243.94 706.65 243.64 741.58"/>
    <polygon class="cls-5" points="274.44 689.08 243.64 671.3 213.51 689.08 243.94 706.65 274.44 689.08"/>
  </g>
  <polygon class="cls-5" points="121.92 706.76 91.79 689.4 91.79 654.23 121.92 671.62 121.92 706.76"/>
  <polygon class="cls-5" points="152.65 689.36 121.92 706.76 121.92 671.62 152.72 654.23 152.65 689.36"/>
  <polygon class="cls-5" points="91.79 654.23 122.22 636.7 152.72 654.23 121.92 671.62 91.79 654.23"/>
  <polygon class="cls-5" points="152.65 689.36 121.92 671.62 122.22 636.7 152.72 654.23 152.65 689.36"/>
  <polygon class="cls-5" points="91.79 689.4 121.92 671.62 122.22 636.7 91.79 654.23 91.79 689.4"/>
  <g>
    <polygon class="cls-5" points="335.13 724.43 365.93 707.04 365.93 671.94 335.43 689.51 335.13 724.43"/>
    <polygon class="cls-5" points="305 707.04 335.43 689.51 335.13 654.16 305 671.94 305 707.04"/>
    <polygon class="cls-5" points="335.13 724.43 305 707.04 305 671.94 335.43 689.51 335.13 724.43"/>
    <polygon class="cls-5" points="365.93 671.94 335.13 654.16 305 671.94 335.43 689.51 365.93 671.94"/>
    <polygon class="cls-5" points="335.43 689.51 365.93 707.04 365.93 671.94 335.13 654.16 335.43 689.51"/>
  </g>
  <g>
    <g>
      <polygon class="cls-11" points="1482.6 1017.64 1482.6 1017.63 1452.17 1000.32 1482.6 983 1513.03 1000.32 1482.6 1017.64"/>
      <polygon class="cls-11" points="1482.6 1017.63 1482.6 1052.28 1452.17 1034.96 1452.17 1000.32 1482.6 1017.63"/>
      <polygon class="cls-11" points="1513.03 1000.32 1513.03 1034.96 1482.6 1052.28 1482.6 1017.64 1513.03 1000.32"/>
      <path class="cls-11" d="M447.2,519.18" transform="translate(1035.39 498.46)"/>
    </g>
    <polygon class="cls-12" points="1482.6 1017.64 1482.6 1052.28 1452.17 1034.96 1452.17 1000.32 1482.6 1017.64"/>
  </g>
  <g>
    <g>
      <polygon class="cls-11" points="1482.6 983.1 1482.6 983.09 1452.17 965.78 1482.6 948.46 1513.03 965.78 1482.6 983.1"/>
      <polygon class="cls-11" points="1482.6 983.09 1482.6 1017.74 1452.17 1000.41 1452.17 965.78 1482.6 983.09"/>
      <polygon class="cls-11" points="1513.03 965.78 1513.03 1000.41 1482.6 1017.74 1482.6 983.1 1513.03 965.78"/>
      <path class="cls-11" d="M447.2,484.64" transform="translate(1035.39 498.46)"/>
    </g>
    <polygon class="cls-12" points="1482.6 983.1 1482.6 1017.74 1452.17 1000.41 1452.17 965.78 1482.6 983.1"/>
  </g>
  <g>
    <g>
      <polygon class="cls-11" points="1726.45 913.05 1726.45 913.04 1696.02 895.72 1726.45 878.4 1756.88 895.72 1726.45 913.05"/>
      <polygon class="cls-11" points="1726.45 913.04 1726.45 947.68 1696.02 930.36 1696.02 895.72 1726.45 913.04"/>
      <polygon class="cls-11" points="1756.88 895.72 1756.88 930.36 1726.45 947.68 1726.45 913.05 1756.88 895.72"/>
      <path class="cls-11" d="M691.06,414.59" transform="translate(1035.39 498.46)"/>
    </g>
    <polygon class="cls-12" points="1726.45 913.05 1726.45 947.68 1696.02 930.36 1696.02 895.72 1726.45 913.05"/>
  </g>
  <g>
    <g>
      <polygon class="cls-11" points="1786.9 1052.31 1786.9 1052.3 1756.48 1034.98 1786.9 1017.66 1817.34 1034.98 1786.9 1052.31"/>
      <polygon class="cls-11" points="1786.9 1052.3 1786.9 1086.94 1756.48 1069.62 1756.48 1034.98 1786.9 1052.3"/>
      <polygon class="cls-11" points="1817.34 1034.98 1817.34 1069.62 1786.9 1086.94 1786.9 1052.31 1817.34 1034.98"/>
      <path class="cls-11" d="M751.51,553.85" transform="translate(1035.39 498.46)"/>
    </g>
    <polygon class="cls-12" points="1786.9 1052.31 1786.9 1086.94 1756.48 1069.62 1756.48 1034.98 1786.9 1052.31"/>
  </g>
  <g>
    <g>
      <polygon class="cls-11" points="1878.19 826.54 1878.19 826.53 1847.77 809.22 1878.19 791.89 1908.63 809.22 1878.19 826.54"/>
      <polygon class="cls-11" points="1878.19 826.53 1878.19 861.17 1847.77 843.85 1847.77 809.22 1878.19 826.53"/>
      <polygon class="cls-11" points="1908.63 809.22 1908.63 843.85 1878.19 861.17 1878.19 826.54 1908.63 809.22"/>
      <path class="cls-11" d="M842.8,328.08" transform="translate(1035.39 498.46)"/>
    </g>
    <polygon class="cls-12" points="1878.19 826.54 1878.19 861.17 1847.77 843.85 1847.77 809.22 1878.19 826.54"/>
  </g>
  <g>
    <g>
      <polygon class="cls-11" points="1513.03 1034.96 1513.03 1034.95 1482.61 1017.63 1513.03 1000.31 1543.46 1017.63 1513.03 1034.96"/>
      <polygon class="cls-11" points="1513.03 1034.95 1513.03 1069.59 1482.61 1052.27 1482.61 1017.63 1513.03 1034.95"/>
      <polygon class="cls-11" points="1543.46 1017.63 1543.46 1052.27 1513.03 1069.59 1513.03 1034.96 1543.46 1017.63"/>
      <path class="cls-11" d="M477.64,536.5" transform="translate(1035.39 498.46)"/>
    </g>
    <polygon class="cls-12" points="1513.03 1034.96 1513.03 1069.59 1482.61 1052.27 1482.61 1017.63 1513.03 1034.96"/>
  </g>
  <g>
    <g>
      <polygon class="cls-11" points="1330.33 1069.69 1330.33 1069.68 1299.9 1052.37 1330.33 1035.05 1360.76 1052.37 1330.33 1069.69"/>
      <polygon class="cls-11" points="1330.33 1069.68 1330.33 1104.33 1299.9 1087.01 1299.9 1052.37 1330.33 1069.68"/>
      <polygon class="cls-11" points="1360.76 1052.37 1360.76 1087.01 1330.33 1104.33 1330.33 1069.69 1360.76 1052.37"/>
      <path class="cls-11" d="M294.93,571.24" transform="translate(1035.39 498.46)"/>
    </g>
    <polygon class="cls-12" points="1330.33 1069.69 1330.33 1104.33 1299.9 1087.01 1299.9 1052.37 1330.33 1069.69"/>
  </g>
  <g>
    <g>
      <polygon class="cls-11" points="1269.37 999.43 1269.37 999.42 1238.95 982.11 1269.37 964.78 1299.81 982.11 1269.37 999.43"/>
      <polygon class="cls-11" points="1269.37 999.42 1269.37 1034.06 1238.95 1016.74 1238.95 982.11 1269.37 999.42"/>
      <polygon class="cls-11" points="1299.81 982.11 1299.81 1016.74 1269.37 1034.06 1269.37 999.43 1299.81 982.11"/>
      <path class="cls-11" d="M234,501" transform="translate(1035.39 498.46)"/>
    </g>
    <polygon class="cls-12" points="1269.37 999.43 1269.37 1034.06 1238.95 1016.74 1238.95 982.11 1269.37 999.43"/>
  </g>
  <g>
    <g>
      <polygon class="cls-11" points="2152.06 1121.96 2152.06 1121.95 2121.64 1104.64 2152.06 1087.32 2182.5 1104.64 2152.06 1121.96"/>
      <polygon class="cls-11" points="2152.06 1121.95 2152.06 1156.6 2121.64 1139.27 2121.64 1104.64 2152.06 1121.95"/>
      <polygon class="cls-11" points="2182.5 1104.64 2182.5 1139.27 2152.06 1156.6 2152.06 1121.96 2182.5 1104.64"/>
      <path class="cls-11" d="M1116.67,623.5" transform="translate(1035.39 498.46)"/>
    </g>
    <polygon class="cls-12" points="2152.06 1121.96 2152.06 1156.6 2121.64 1139.27 2121.64 1104.64 2152.06 1121.96"/>
  </g>
  <g>
    <g>
      <polygon class="cls-11" points="2061.82 1103.9 2061.82 1103.89 2031.4 1086.58 2061.82 1069.26 2092.26 1086.58 2061.82 1103.9"/>
      <polygon class="cls-11" points="2061.82 1103.89 2061.82 1138.54 2031.4 1121.22 2031.4 1086.58 2061.82 1103.89"/>
      <polygon class="cls-11" points="2092.26 1086.58 2092.26 1121.22 2061.82 1138.54 2061.82 1103.9 2092.26 1086.58"/>
      <path class="cls-11" d="M1026.43,605.44" transform="translate(1035.39 498.46)"/>
    </g>
    <polygon class="cls-12" points="2061.82 1103.9 2061.82 1138.54 2031.4 1121.22 2031.4 1086.58 2061.82 1103.9"/>
  </g>
  <g>
    <g>
      <polygon class="cls-11" points="2061.82 1034.63 2061.82 1034.62 2031.4 1017.3 2061.82 999.98 2092.26 1017.3 2061.82 1034.63"/>
      <polygon class="cls-11" points="2061.82 1034.62 2061.82 1069.26 2031.4 1051.94 2031.4 1017.3 2061.82 1034.62"/>
      <polygon class="cls-11" points="2092.26 1017.3 2092.26 1051.94 2061.82 1069.26 2061.82 1034.63 2092.26 1017.3"/>
      <path class="cls-11" d="M1026.43,536.17" transform="translate(1035.39 498.46)"/>
    </g>
    <polygon class="cls-12" points="2061.82 1034.63 2061.82 1069.26 2031.4 1051.94 2031.4 1017.3 2061.82 1034.63"/>
  </g>
  <g>
    <g>
      <polygon class="cls-11" points="2212.92 1053.84 2212.92 1053.83 2182.5 1036.52 2212.92 1019.2 2243.36 1036.52 2212.92 1053.84"/>
      <polygon class="cls-11" points="2212.92 1053.83 2212.92 1088.48 2182.5 1071.16 2182.5 1036.52 2212.92 1053.83"/>
      <polygon class="cls-11" points="2243.36 1036.52 2243.36 1071.16 2212.92 1088.48 2212.92 1053.84 2243.36 1036.52"/>
      <path class="cls-11" d="M1177.53,555.38" transform="translate(1035.39 498.46)"/>
    </g>
    <polygon class="cls-12" points="2212.92 1053.84 2212.92 1088.48 2182.5 1071.16 2182.5 1036.52 2212.92 1053.84"/>
  </g>
  <g>
    <g>
      <polygon class="cls-11" points="2061.82 1069.27 2061.82 1069.26 2031.4 1051.95 2061.82 1034.63 2092.26 1051.95 2061.82 1069.27"/>
      <polygon class="cls-11" points="2061.82 1069.26 2061.82 1103.9 2031.4 1086.58 2031.4 1051.95 2061.82 1069.26"/>
      <polygon class="cls-11" points="2092.26 1051.95 2092.26 1086.58 2061.82 1103.9 2061.82 1069.27 2092.26 1051.95"/>
      <path class="cls-11" d="M1026.43,570.81" transform="translate(1035.39 498.46)"/>
    </g>
    <polygon class="cls-12" points="2061.82 1069.27 2061.82 1103.9 2031.4 1086.58 2031.4 1051.95 2061.82 1069.27"/>
  </g>
  <g>
    <g>
      <polygon class="cls-11" points="1878.19 861.18 1878.19 861.17 1847.77 843.86 1878.19 826.54 1908.63 843.86 1878.19 861.18"/>
      <polygon class="cls-11" points="1878.19 861.17 1878.19 895.82 1847.77 878.5 1847.77 843.86 1878.19 861.17"/>
      <polygon class="cls-11" points="1908.63 843.86 1908.63 878.5 1878.19 895.82 1878.19 861.18 1908.63 843.86"/>
      <path class="cls-11" d="M842.8,362.72" transform="translate(1035.39 498.46)"/>
    </g>
    <polygon class="cls-12" points="1878.19 861.18 1878.19 895.82 1847.77 878.5 1847.77 843.86 1878.19 861.18"/>
  </g>
  <g>
    <g>
      <polygon class="cls-11" points="1604.33 913.75 1604.33 913.74 1573.9 896.43 1604.33 879.11 1634.76 896.43 1604.33 913.75"/>
      <polygon class="cls-11" points="1604.33 913.74 1604.33 948.39 1573.9 931.07 1573.9 896.43 1604.33 913.74"/>
      <polygon class="cls-11" points="1634.76 896.43 1634.76 931.07 1604.33 948.39 1604.33 913.75 1634.76 896.43"/>
      <path class="cls-11" d="M568.93,415.29" transform="translate(1035.39 498.46)"/>
    </g>
    <polygon class="cls-12" points="1604.33 913.75 1604.33 948.39 1573.9 931.07 1573.9 896.43 1604.33 913.75"/>
  </g>
  <g>
    <g>
      <polygon class="cls-11" points="1604.33 879.21 1604.33 879.2 1573.9 861.89 1604.33 844.57 1634.76 861.89 1604.33 879.21"/>
      <polygon class="cls-11" points="1604.33 879.2 1604.33 913.85 1573.9 896.52 1573.9 861.89 1604.33 879.2"/>
      <polygon class="cls-11" points="1634.76 861.89 1634.76 896.52 1604.33 913.85 1604.33 879.21 1634.76 861.89"/>
      <path class="cls-11" d="M568.93,380.75" transform="translate(1035.39 498.46)"/>
    </g>
    <polygon class="cls-12" points="1604.33 879.21 1604.33 913.85 1573.9 896.52 1573.9 861.89 1604.33 879.21"/>
  </g>
  <g>
    <g>
      <polygon class="cls-11" points="1908.62 1123.02 1908.62 1123.01 1878.2 1105.7 1908.62 1088.38 1939.06 1105.7 1908.62 1123.02"/>
      <polygon class="cls-11" points="1908.62 1123.01 1908.62 1157.66 1878.2 1140.34 1878.2 1105.7 1908.62 1123.01"/>
      <polygon class="cls-11" points="1939.06 1105.7 1939.06 1140.34 1908.62 1157.66 1908.62 1123.02 1939.06 1105.7"/>
      <path class="cls-11" d="M873.23,624.56" transform="translate(1035.39 498.46)"/>
    </g>
    <polygon class="cls-12" points="1908.62 1123.02 1908.62 1157.66 1878.2 1140.34 1878.2 1105.7 1908.62 1123.02"/>
  </g>
  <g>
    <g>
      <polygon class="cls-11" points="1908.62 1088.48 1908.62 1088.47 1878.2 1071.16 1908.62 1053.84 1939.06 1071.16 1908.62 1088.48"/>
      <polygon class="cls-11" points="1908.62 1088.47 1908.62 1123.12 1878.2 1105.8 1878.2 1071.16 1908.62 1088.47"/>
      <polygon class="cls-11" points="1939.06 1071.16 1939.06 1105.8 1908.62 1123.12 1908.62 1088.48 1939.06 1071.16"/>
      <path class="cls-11" d="M873.23,590" transform="translate(1035.39 498.46)"/>
    </g>
    <polygon class="cls-12" points="1908.62 1088.48 1908.62 1123.12 1878.2 1105.8 1878.2 1071.16 1908.62 1088.48"/>
  </g>
  <g>
    <g>
      <polygon class="cls-11" points="2031.4 910.84 2031.4 910.83 2000.97 893.52 2031.4 876.2 2061.83 893.52 2031.4 910.84"/>
      <polygon class="cls-11" points="2031.4 910.83 2031.4 945.48 2000.97 928.15 2000.97 893.52 2031.4 910.83"/>
      <polygon class="cls-11" points="2061.83 893.52 2061.83 928.15 2031.4 945.48 2031.4 910.84 2061.83 893.52"/>
      <path class="cls-11" d="M996,412.38" transform="translate(1035.39 498.46)"/>
    </g>
    <polygon class="cls-12" points="2031.4 910.84 2031.4 945.48 2000.97 928.15 2000.97 893.52 2031.4 910.84"/>
  </g>
  <g>
    <g>
      <polygon class="cls-11" points="2031.4 876.3 2031.4 876.29 2000.97 858.98 2031.4 841.66 2061.83 858.98 2031.4 876.3"/>
      <polygon class="cls-11" points="2031.4 876.29 2031.4 910.94 2000.97 893.61 2000.97 858.98 2031.4 876.29"/>
      <polygon class="cls-11" points="2061.83 858.98 2061.83 893.61 2031.4 910.94 2031.4 876.3 2061.83 858.98"/>
      <path class="cls-11" d="M996,377.84" transform="translate(1035.39 498.46)"/>
    </g>
    <polygon class="cls-12" points="2031.4 876.3 2031.4 910.94 2000.97 893.61 2000.97 858.98 2031.4 876.3"/>
  </g>
  <g>
    <g>
      <polygon class="cls-11" points="1634.76 1034.63 1634.76 1034.62 1604.33 1017.31 1634.76 999.99 1665.19 1017.31 1634.76 1034.63"/>
      <polygon class="cls-11" points="1634.76 1034.62 1634.76 1069.26 1604.33 1051.94 1604.33 1017.31 1634.76 1034.62"/>
      <polygon class="cls-11" points="1665.19 1017.31 1665.19 1051.94 1634.76 1069.26 1634.76 1034.63 1665.19 1017.31"/>
      <path class="cls-11" d="M599.36,536.17" transform="translate(1035.39 498.46)"/>
    </g>
    <polygon class="cls-12" points="1634.76 1034.63 1634.76 1069.26 1604.33 1051.94 1604.33 1017.31 1634.76 1034.63"/>
  </g>
  <g>
    <g>
      <polygon class="cls-11" points="1634.76 1000.09 1634.76 1000.08 1604.33 982.77 1634.76 965.45 1665.19 982.77 1634.76 1000.09"/>
      <polygon class="cls-11" points="1634.76 1000.08 1634.76 1034.72 1604.33 1017.4 1604.33 982.77 1634.76 1000.08"/>
      <polygon class="cls-11" points="1665.19 982.77 1665.19 1017.4 1634.76 1034.72 1634.76 1000.09 1665.19 982.77"/>
      <path class="cls-11" d="M599.36,501.63" transform="translate(1035.39 498.46)"/>
    </g>
    <polygon class="cls-12" points="1634.76 1000.09 1634.76 1034.72 1604.33 1017.4 1604.33 982.77 1634.76 1000.09"/>
  </g>
  <g>
    <g>
      <polygon class="cls-11" points="1452.17 1139.23 1452.17 1139.22 1421.75 1121.91 1452.17 1104.59 1482.61 1121.91 1452.17 1139.23"/>
      <polygon class="cls-11" points="1452.17 1139.22 1452.17 1173.87 1421.75 1156.54 1421.75 1121.91 1452.17 1139.22"/>
      <polygon class="cls-11" points="1482.61 1121.91 1482.61 1156.54 1452.17 1173.87 1452.17 1139.23 1482.61 1121.91"/>
      <path class="cls-11" d="M416.78,640.77" transform="translate(1035.39 498.46)"/>
    </g>
    <polygon class="cls-12" points="1452.17 1139.23 1452.17 1173.87 1421.75 1156.54 1421.75 1121.91 1452.17 1139.23"/>
  </g>
  <g>
    <g>
      <polygon class="cls-11" points="1452.17 1104.69 1452.17 1104.68 1421.75 1087.37 1452.17 1070.05 1482.61 1087.37 1452.17 1104.69"/>
      <polygon class="cls-11" points="1452.17 1104.68 1452.17 1139.33 1421.75 1122 1421.75 1087.37 1452.17 1104.68"/>
      <polygon class="cls-11" points="1482.61 1087.37 1482.61 1122 1452.17 1139.33 1452.17 1104.69 1482.61 1087.37"/>
      <path class="cls-11" d="M416.78,606.23" transform="translate(1035.39 498.46)"/>
    </g>
    <polygon class="cls-12" points="1452.17 1104.69 1452.17 1139.33 1421.75 1122 1421.75 1087.37 1452.17 1104.69"/>
  </g>
  <g>
    <g>
      <polygon class="cls-11" points="1239.17 1121.18 1239.17 1121.17 1208.74 1103.86 1239.17 1086.53 1269.6 1103.86 1239.17 1121.18"/>
      <polygon class="cls-11" points="1239.17 1121.17 1239.17 1155.81 1208.74 1138.49 1208.74 1103.86 1239.17 1121.17"/>
      <polygon class="cls-11" points="1269.6 1103.86 1269.6 1138.49 1239.17 1155.81 1239.17 1121.18 1269.6 1103.86"/>
      <path class="cls-11" d="M203.77,622.72" transform="translate(1035.39 498.46)"/>
    </g>
    <polygon class="cls-12" points="1239.17 1121.18 1239.17 1155.81 1208.74 1138.49 1208.74 1103.86 1239.17 1121.18"/>
  </g>
  <g>
    <g>
      <polygon class="cls-11" points="1239.17 1086.64 1239.17 1086.63 1208.74 1069.32 1239.17 1051.99 1269.6 1069.32 1239.17 1086.64"/>
      <polygon class="cls-11" points="1239.17 1086.63 1239.17 1121.27 1208.74 1103.95 1208.74 1069.32 1239.17 1086.63"/>
      <polygon class="cls-11" points="1269.6 1069.32 1269.6 1103.95 1239.17 1121.27 1239.17 1086.64 1269.6 1069.32"/>
      <path class="cls-11" d="M203.77,588.18" transform="translate(1035.39 498.46)"/>
    </g>
    <polygon class="cls-12" points="1239.17 1086.64 1239.17 1121.27 1208.74 1103.95 1208.74 1069.32 1239.17 1086.64"/>
  </g>
  <g>
    <g>
      <polygon class="cls-11" points="2152.06 982.18 2152.06 982.17 2121.64 964.86 2152.06 947.54 2182.5 964.86 2152.06 982.18"/>
      <polygon class="cls-11" points="2152.06 982.17 2152.06 1016.82 2121.64 999.5 2121.64 964.86 2152.06 982.17"/>
      <polygon class="cls-11" points="2182.5 964.86 2182.5 999.5 2152.06 1016.82 2152.06 982.18 2182.5 964.86"/>
      <path class="cls-11" d="M1116.67,483.72" transform="translate(1035.39 498.46)"/>
    </g>
    <polygon class="cls-12" points="2152.06 982.18 2152.06 1016.82 2121.64 999.5 2121.64 964.86 2152.06 982.18"/>
  </g>
  <g>
    <g>
      <polygon class="cls-11" points="2152.06 947.64 2152.06 947.63 2121.64 930.32 2152.06 913 2182.5 930.32 2152.06 947.64"/>
      <polygon class="cls-11" points="2152.06 947.63 2152.06 982.28 2121.64 964.96 2121.64 930.32 2152.06 947.63"/>
      <polygon class="cls-11" points="2182.5 930.32 2182.5 964.96 2152.06 982.28 2152.06 947.64 2182.5 930.32"/>
      <path class="cls-11" d="M1116.67,449.18" transform="translate(1035.39 498.46)"/>
    </g>
    <polygon class="cls-12" points="2152.06 947.64 2152.06 982.28 2121.64 964.96 2121.64 930.32 2152.06 947.64"/>
  </g>
  <g>
    <g>
      <polygon class="cls-11" points="1969.48 1017.37 1969.48 1017.36 1939.06 1000.04 1969.48 982.72 1999.92 1000.04 1969.48 1017.37"/>
      <polygon class="cls-11" points="1969.48 1017.36 1969.48 1052 1939.06 1034.68 1939.06 1000.04 1969.48 1017.36"/>
      <polygon class="cls-11" points="1999.92 1000.04 1999.92 1034.68 1969.48 1052 1969.48 1017.37 1999.92 1000.04"/>
      <path class="cls-11" d="M934.09,518.91" transform="translate(1035.39 498.46)"/>
    </g>
    <polygon class="cls-12" points="1969.48 1017.37 1969.48 1052 1939.06 1034.68 1939.06 1000.04 1969.48 1017.37"/>
  </g>
  <g>
    <g>
      <polygon class="cls-11" points="1969.48 982.82 1969.48 982.81 1939.06 965.5 1969.48 948.18 1999.92 965.5 1969.48 982.82"/>
      <polygon class="cls-11" points="1969.48 982.81 1969.48 1017.46 1939.06 1000.14 1939.06 965.5 1969.48 982.81"/>
      <polygon class="cls-11" points="1999.92 965.5 1999.92 1000.14 1969.48 1017.46 1969.48 982.82 1999.92 965.5"/>
      <path class="cls-11" d="M934.09,484.37" transform="translate(1035.39 498.46)"/>
    </g>
    <polygon class="cls-12" points="1969.48 982.82 1969.48 1017.46 1939.06 1000.14 1939.06 965.5 1969.48 982.82"/>
  </g>
  <g>
    <g>
      <polygon class="cls-11" points="1726.45 982.23 1726.45 982.22 1696.02 964.91 1726.45 947.59 1756.88 964.91 1726.45 982.23"/>
      <polygon class="cls-11" points="1726.45 982.22 1726.45 1016.87 1696.02 999.54 1696.02 964.91 1726.45 982.22"/>
      <polygon class="cls-11" points="1756.88 964.91 1756.88 999.54 1726.45 1016.87 1726.45 982.23 1756.88 964.91"/>
      <path class="cls-11" d="M691.06,483.77" transform="translate(1035.39 498.46)"/>
    </g>
    <polygon class="cls-12" points="1726.45 982.23 1726.45 1016.87 1696.02 999.54 1696.02 964.91 1726.45 982.23"/>
  </g>
  <g>
    <g>
      <polygon class="cls-11" points="1726.45 947.69 1726.45 947.68 1696.02 930.37 1726.45 913.05 1756.88 930.37 1726.45 947.69"/>
      <polygon class="cls-11" points="1726.45 947.68 1726.45 982.32 1696.02 965 1696.02 930.37 1726.45 947.68"/>
      <polygon class="cls-11" points="1756.88 930.37 1756.88 965 1726.45 982.32 1726.45 947.69 1756.88 930.37"/>
      <path class="cls-11" d="M691.06,449.23" transform="translate(1035.39 498.46)"/>
    </g>
    <polygon class="cls-12" points="1726.45 947.69 1726.45 982.32 1696.02 965 1696.02 930.37 1726.45 947.69"/>
  </g>
  <g>
    <g>
      <polygon class="cls-11" points="1696.02 1105.75 1696.02 1105.74 1665.59 1088.43 1696.02 1071.1 1726.45 1088.43 1696.02 1105.75"/>
      <polygon class="cls-11" points="1696.02 1105.74 1696.02 1140.38 1665.59 1123.06 1665.59 1088.43 1696.02 1105.74"/>
      <polygon class="cls-11" points="1726.45 1088.43 1726.45 1123.06 1696.02 1140.38 1696.02 1105.75 1726.45 1088.43"/>
      <path class="cls-11" d="M660.63,607.29" transform="translate(1035.39 498.46)"/>
    </g>
    <polygon class="cls-12" points="1696.02 1105.75 1696.02 1140.38 1665.59 1123.06 1665.59 1088.43 1696.02 1105.75"/>
  </g>
  <g>
    <g>
      <polygon class="cls-11" points="1696.02 1174.93 1696.02 1174.92 1665.59 1157.61 1696.02 1140.29 1726.45 1157.61 1696.02 1174.93"/>
      <polygon class="cls-11" points="1696.02 1174.92 1696.02 1209.57 1665.59 1192.24 1665.59 1157.61 1696.02 1174.92"/>
      <polygon class="cls-11" points="1726.45 1157.61 1726.45 1192.24 1696.02 1209.57 1696.02 1174.93 1726.45 1157.61"/>
      <path class="cls-11" d="M660.63,676.47" transform="translate(1035.39 498.46)"/>
    </g>
    <polygon class="cls-12" points="1696.02 1174.93 1696.02 1209.57 1665.59 1192.24 1665.59 1157.61 1696.02 1174.93"/>
  </g>
  <g>
    <g>
      <polygon class="cls-11" points="1696.02 1140.39 1696.02 1140.38 1665.59 1123.07 1696.02 1105.75 1726.45 1123.07 1696.02 1140.39"/>
      <polygon class="cls-11" points="1696.02 1140.38 1696.02 1175.03 1665.59 1157.7 1665.59 1123.07 1696.02 1140.38"/>
      <polygon class="cls-11" points="1726.45 1123.07 1726.45 1157.7 1696.02 1175.03 1696.02 1140.39 1726.45 1123.07"/>
      <path class="cls-11" d="M660.63,641.93" transform="translate(1035.39 498.46)"/>
    </g>
    <polygon class="cls-12" points="1696.02 1140.39 1696.02 1175.03 1665.59 1157.7 1665.59 1123.07 1696.02 1140.39"/>
  </g>
  <g>
    <g>
      <polygon class="cls-11" points="2061.82 858.99 2061.82 858.98 2031.4 841.67 2061.82 824.35 2092.26 841.67 2061.82 858.99"/>
      <polygon class="cls-11" points="2061.82 858.98 2061.82 893.62 2031.4 876.3 2031.4 841.67 2061.82 858.98"/>
      <polygon class="cls-11" points="2092.26 841.67 2092.26 876.3 2061.82 893.62 2061.82 858.99 2092.26 841.67"/>
      <path class="cls-11" d="M1026.43,360.53" transform="translate(1035.39 498.46)"/>
    </g>
    <polygon class="cls-12" points="2061.82 858.99 2061.82 893.62 2031.4 876.3 2031.4 841.67 2061.82 858.99"/>
  </g>
  <g>
    <g>
      <polygon class="cls-11" points="2061.82 928.17 2061.82 928.16 2031.4 910.85 2061.82 893.53 2092.26 910.85 2061.82 928.17"/>
      <polygon class="cls-11" points="2061.82 928.16 2061.82 962.81 2031.4 945.49 2031.4 910.85 2061.82 928.16"/>
      <polygon class="cls-11" points="2092.26 910.85 2092.26 945.49 2061.82 962.81 2061.82 928.17 2092.26 910.85"/>
      <path class="cls-11" d="M1026.43,429.72" transform="translate(1035.39 498.46)"/>
    </g>
    <polygon class="cls-12" points="2061.82 928.17 2061.82 962.81 2031.4 945.49 2031.4 910.85 2061.82 928.17"/>
  </g>
  <g>
    <g>
      <polygon class="cls-11" points="2061.82 893.63 2061.82 893.62 2031.4 876.31 2061.82 858.99 2092.26 876.31 2061.82 893.63"/>
      <polygon class="cls-11" points="2061.82 893.62 2061.82 928.27 2031.4 910.95 2031.4 876.31 2061.82 893.62"/>
      <polygon class="cls-11" points="2092.26 876.31 2092.26 910.95 2061.82 928.27 2061.82 893.63 2092.26 876.31"/>
      <path class="cls-11" d="M1026.43,395.17" transform="translate(1035.39 498.46)"/>
    </g>
    <polygon class="cls-12" points="2061.82 893.63 2061.82 928.27 2031.4 910.95 2031.4 876.31 2061.82 893.63"/>
  </g>
  <g>
    <g>
      <polygon class="cls-11" points="1878.19 895.83 1878.19 895.82 1847.77 878.5 1878.19 861.18 1908.63 878.5 1878.19 895.83"/>
      <polygon class="cls-11" points="1878.19 895.82 1878.19 930.46 1847.77 913.14 1847.77 878.5 1878.19 895.82"/>
      <polygon class="cls-11" points="1908.63 878.5 1908.63 913.14 1878.19 930.46 1878.19 895.83 1908.63 878.5"/>
      <path class="cls-11" d="M842.8,397.37" transform="translate(1035.39 498.46)"/>
    </g>
    <polygon class="cls-12" points="1878.19 895.83 1878.19 930.46 1847.77 913.14 1847.77 878.5 1878.19 895.83"/>
  </g>
  <g>
    <g>
      <polygon class="cls-11" points="1878.19 965.01 1878.19 965 1847.77 947.69 1878.19 930.37 1908.63 947.69 1878.19 965.01"/>
      <polygon class="cls-11" points="1878.19 965 1878.19 999.65 1847.77 982.32 1847.77 947.69 1878.19 965"/>
      <polygon class="cls-11" points="1908.63 947.69 1908.63 982.32 1878.19 999.65 1878.19 965.01 1908.63 947.69"/>
      <path class="cls-11" d="M842.8,466.55" transform="translate(1035.39 498.46)"/>
    </g>
    <polygon class="cls-12" points="1878.19 965.01 1878.19 999.65 1847.77 982.32 1847.77 947.69 1878.19 965.01"/>
  </g>
  <g>
    <g>
      <polygon class="cls-11" points="1878.19 930.47 1878.19 930.46 1847.77 913.15 1878.19 895.83 1908.63 913.15 1878.19 930.47"/>
      <polygon class="cls-11" points="1878.19 930.46 1878.19 965.11 1847.77 947.78 1847.77 913.15 1878.19 930.46"/>
      <polygon class="cls-11" points="1908.63 913.15 1908.63 947.78 1878.19 965.11 1878.19 930.47 1908.63 913.15"/>
      <path class="cls-11" d="M842.8,432" transform="translate(1035.39 498.46)"/>
    </g>
    <polygon class="cls-12" points="1878.19 930.47 1878.19 965.11 1847.77 947.78 1847.77 913.15 1878.19 930.47"/>
  </g>
  <g>
    <g>
      <polygon class="cls-11" points="1391.32 861.09 1391.32 861.08 1360.89 843.77 1391.32 826.45 1421.75 843.77 1391.32 861.09"/>
      <polygon class="cls-11" points="1391.32 861.08 1391.32 895.72 1360.89 878.4 1360.89 843.77 1391.32 861.08"/>
      <polygon class="cls-11" points="1421.75 843.77 1421.75 878.4 1391.32 895.72 1391.32 861.09 1421.75 843.77"/>
      <path class="cls-11" d="M355.92,362.63" transform="translate(1035.39 498.46)"/>
    </g>
    <polygon class="cls-12" points="1391.32 861.09 1391.32 895.72 1360.89 878.4 1360.89 843.77 1391.32 861.09"/>
  </g>
  <g>
    <g>
      <polygon class="cls-11" points="1391.32 895.73 1391.32 895.72 1360.89 878.41 1391.32 861.09 1421.75 878.41 1391.32 895.73"/>
      <polygon class="cls-11" points="1391.32 895.72 1391.32 930.37 1360.89 913.05 1360.89 878.41 1391.32 895.72"/>
      <polygon class="cls-11" points="1421.75 878.41 1421.75 913.05 1391.32 930.37 1391.32 895.73 1421.75 878.41"/>
      <path class="cls-11" d="M355.92,397.27" transform="translate(1035.39 498.46)"/>
    </g>
    <polygon class="cls-12" points="1391.32 895.73 1391.32 930.37 1360.89 913.05 1360.89 878.41 1391.32 895.73"/>
  </g>
  <g>
    <g>
      <polygon class="cls-11" points="1391.32 964.92 1391.32 964.91 1360.89 947.6 1391.32 930.27 1421.75 947.6 1391.32 964.92"/>
      <polygon class="cls-11" points="1391.32 964.91 1391.32 999.55 1360.89 982.23 1360.89 947.6 1391.32 964.91"/>
      <polygon class="cls-11" points="1421.75 947.6 1421.75 982.23 1391.32 999.55 1391.32 964.92 1421.75 947.6"/>
      <path class="cls-11" d="M355.92,466.46" transform="translate(1035.39 498.46)"/>
    </g>
    <polygon class="cls-12" points="1391.32 964.92 1391.32 999.55 1360.89 982.23 1360.89 947.6 1391.32 964.92"/>
  </g>
  <g>
    <g>
      <polygon class="cls-11" points="1391.32 930.38 1391.32 930.37 1360.89 913.06 1391.32 895.73 1421.75 913.06 1391.32 930.38"/>
      <polygon class="cls-11" points="1391.32 930.37 1391.32 965.01 1360.89 947.69 1360.89 913.06 1391.32 930.37"/>
      <polygon class="cls-11" points="1421.75 913.06 1421.75 947.69 1391.32 965.01 1391.32 930.38 1421.75 913.06"/>
      <path class="cls-11" d="M355.92,431.92" transform="translate(1035.39 498.46)"/>
    </g>
    <polygon class="cls-12" points="1391.32 930.38 1391.32 965.01 1360.89 947.69 1360.89 913.06 1391.32 930.38"/>
  </g>
</svg>
