<svg id="Layer_1" data-name="Layer 1" xmlns="http://www.w3.org/2000/svg" viewBox="0 0 32 32"><defs><style>.cls-1{fill:none;stroke:#000;stroke-miterlimit:10;stroke-width:0.25px;}</style></defs><path d="M6.68,23.08H2.31V8.93H6.65v3.94a3.84,3.84,0,0,0,.3-.25c1.14-1.16,2.27-2.32,3.42-3.48a.78.78,0,0,1,.42-.24h4.6l-5.81,5.9,6.58,8.27a3.25,3.25,0,0,1-.36,0c-1.42,0-2.83,0-4.24,0a.82.82,0,0,1-.56-.28c-1.27-1.62-2.53-3.27-3.79-4.9l-.38-.47a3.16,3.16,0,0,0-.15.62c0,1.51,0,3,0,4.53Z"/><path d="M25.19,12.61V23.08H20.82V12.63H16.44V8.92H29.69v3.69Z"/><rect class="cls-1" width="32" height="32"/></svg>