<svg xmlns="http://www.w3.org/2000/svg" viewBox="0 0 207.98 294.83"><defs><style>.cls-1{fill:#333;}</style></defs><g id="Layer_2" data-name="Layer 2"><g id="Layer_1-2" data-name="Layer 1"><path class="cls-1" d="M66.05,28.23a.85.85,0,0,1-.4-.62l.06.58.25.07.25.06ZM68.76,3.16l-.18,0,.28,0Z"/><path class="cls-1" d="M66.05,28.23a.85.85,0,0,1-.4-.62l.06.58.25.07.25.06ZM68.76,3.16l-.18,0,.28,0Zm1,95.54V99s0-.07,0-.11A1.27,1.27,0,0,0,69.8,98.7Z"/><path class="cls-1" d="M206.38,179.61a102.84,102.84,0,0,0-12.1-33.21,109.57,109.57,0,0,0-10-14.52c-.94-1.11-1.88-2.22-2.87-3.34L179.92,127c-.5-.55-1-1.1-1.52-1.61l-.33-.33c-.9-.92-1.83-1.88-2.79-2.76l-1.61-1.52L172,119.29a106.19,106.19,0,0,0-29.7-18.35,3.8,3.8,0,0,1-1.44-1,1.37,1.37,0,0,1-.43-1v-.24l0-.16c-.64-4.17-1.12-8.38-1.42-12.51s-.48-8.45-.49-12.59c0-7.6.32-15.63,1.13-25.25.34-4.22.75-8.46,1.2-12.61l.79-7.11.53-.17a9.34,9.34,0,0,0,1-.39,9.44,9.44,0,0,0,.9-.45l.09-.05a11.74,11.74,0,0,0,5.77-8.52A6,6,0,0,0,150,18l0-.27c0-.25,0-.43,0-.62l.06-2.76,0-1a12,12,0,0,0-11.55-11C132.08,1.59,126.39,1,121.14.7,115.32.32,109.41.09,103.57,0c-6.24,0-12,0-17.59.33S74.79,1,68.62,1.66A12.85,12.85,0,0,0,56.08,13.33l0,1.11,0,2.41,0,1.2c0,.31,0,.61.07.85a12.46,12.46,0,0,0,.5,2.29,12.81,12.81,0,0,0,5.77,7.23c.33.18.66.37.95.49a7.5,7.5,0,0,0,.94.4l.63,6.35c.48,4.86.84,8.86,1.12,12.61C66.85,58,67.22,66,67.25,73.43a175.29,175.29,0,0,1-1.62,25,2.34,2.34,0,0,0,0,.59.45.45,0,0,1-.08.16,2.55,2.55,0,0,1-.76.67l-.19.11-3.44,1.54c-1.32.64-2.64,1.27-4,2-.44.24-.88.48-1.33.71-.83.44-1.7.9-2.51,1.39a112.07,112.07,0,0,0-14.53,10,105.58,105.58,0,0,0-12.63,12.23c-.66.73-1.29,1.49-1.89,2.22l-1,1.16c-.66.8-1.28,1.62-1.91,2.44l-.81,1.06c-1.42,2-3.25,4.54-4.92,7.29A104.35,104.35,0,0,0,.79,209.78a93.64,93.64,0,0,0,10.84,33.85A94.81,94.81,0,0,0,34.54,271,102.37,102.37,0,0,0,49.39,281.1a108.67,108.67,0,0,0,16.37,7.3,114.13,114.13,0,0,0,35.11,6.38c1.18,0,2.35.05,3.53.05a114.38,114.38,0,0,0,31.92-4.46,103.85,103.85,0,0,0,32.31-15.6,96.69,96.69,0,0,0,24.77-26.08,90.67,90.67,0,0,0,8.16-16.13,93.39,93.39,0,0,0,4.89-17.37c.07-.5.16-1,.25-1.51.16-.94.33-1.93.44-2.92l.5-4.47.26-4.38c0-.65.06-1.28.06-1.89l0-2.65A104.71,104.71,0,0,0,206.38,179.61ZM69.81,98.9s0,.07,0,.11V98.7A1.27,1.27,0,0,1,69.81,98.9Zm-1-95.74h.1l-.28,0ZM66,28.26l-.25-.07-.06-.58a.85.85,0,0,0,.4.62l.16.09Zm134.25,169c0,.56-.06,1.11-.08,1.67,0,.85-.06,1.66-.14,2.48l-.39,4.1L199,209.6c-.13.84-.3,1.67-.48,2.55-.1.5-.21,1-.29,1.46a92.28,92.28,0,0,1-4.85,15.67,88.71,88.71,0,0,1-7.62,14.46,87.34,87.34,0,0,1-22.63,23.35,96.23,96.23,0,0,1-29.43,14.21,113.68,113.68,0,0,1-16.14,3.4,107.8,107.8,0,0,1-16.48.93,111.14,111.14,0,0,1-16.46-1.48,106.51,106.51,0,0,1-16-4,100.1,100.1,0,0,1-15.13-6.51,95.37,95.37,0,0,1-13.77-9,88.75,88.75,0,0,1-21.6-24.66,86.73,86.73,0,0,1-11-31.05,95.55,95.55,0,0,1,48.82-98.75c.75-.43,1.53-.82,2.35-1.23l1.33-.68c1.27-.61,2.54-1.2,3.78-1.76L67,105a7.06,7.06,0,0,0,.67-.35,8,8,0,0,0,2.48-2.14A5.9,5.9,0,0,0,71.31,99a191.38,191.38,0,0,0,2.51-25.49c.26-7.9.17-16.32-.29-25.74-.18-3.79-.42-7.86-.76-12.78q-.21-3.19-.47-6.39L72.17,27a5.72,5.72,0,0,0-2.7-4.4,5.52,5.52,0,0,0-1.32-.6l-.48-.13a1.73,1.73,0,0,1-.32-.11l-.12,0a2.09,2.09,0,0,1-.3-.14l-.11-.05a1.18,1.18,0,0,1-.19-.11l-.11-.06a4.62,4.62,0,0,1-2-2.63,4,4,0,0,1-.16-.87v-.12c0-.1,0-.21,0-.25v-.07l0-2.91a4.36,4.36,0,0,0,0-.51,4.49,4.49,0,0,1,4.45-4,2.88,2.88,0,0,0,.42,0c5.3-.53,10.9-1,17.12-1.32s11.8-.52,17.18-.56c5.69-.08,11.47,0,17.17.19,6.62.25,12.08.57,17.27,1h.27a5.34,5.34,0,0,1,5.37,4.58l.11,3.22c0,.14,0,.27,0,.37s0,.2,0,.3a1.07,1.07,0,0,1,0,.18v.11a4.92,4.92,0,0,1-.18,1,5.65,5.65,0,0,1-2.4,3.25l-.12.07a1.78,1.78,0,0,1-.3.17l-.09.05a2.57,2.57,0,0,1-.41.19l-.1,0c-.14.06-.29.1-.45.15l-.45.14a3.93,3.93,0,0,0-1,.46,4.55,4.55,0,0,0-2.12,3.51l-.87,14.33c-.13,2.13-.23,4.26-.32,6.39-.19,4.06-.32,8.37-.39,12.79s0,9,0,12.82a202.92,202.92,0,0,0,2.22,25.41,5,5,0,0,0,1.36,3.46,7.41,7.41,0,0,0,2.77,1.92h0a96.05,96.05,0,0,1,58.53,76.39A97.79,97.79,0,0,1,200.21,197.21Z"/><path class="cls-1" d="M103.56,276.81h0c48.45,0,87.73-34,87.73-82.46a88.37,88.37,0,0,0-1.31-15,6.84,6.84,0,0,0-6.73-5.67H23.87a6.84,6.84,0,0,0-6.73,5.67,87.19,87.19,0,0,0-1.31,15C15.83,242.8,55.1,276.81,103.56,276.81Z"/></g></g></svg>