<?xml version="1.0" encoding="utf-8"?>
<!-- Generator: Adobe Illustrator 25.3.1, SVG Export Plug-In . SVG Version: 6.00 Build 0)  -->
<svg version="1.1" id="Layer_1" xmlns="http://www.w3.org/2000/svg" xmlns:xlink="http://www.w3.org/1999/xlink" x="0px" y="0px"
	 viewBox="0 0 382.4 800.8" style="enable-background:new 0 0 382.4 800.8;" xml:space="preserve" preserveAspectRatio="xMidYMid meet">
<style type="text/css">
	.st0{fill:none;stroke:#000000;stroke-width:0.6867;stroke-miterlimit:10;}
	.st1{opacity:0.2;fill:none;stroke:#000000;stroke-width:0.6867;stroke-miterlimit:10;enable-background:new    ;}
	.st2{opacity:0.64;fill:none;stroke:#000000;stroke-width:0.6867;stroke-miterlimit:10;enable-background:new    ;}
	.st3{opacity:0.29;fill:none;stroke:#000000;stroke-width:0.6867;stroke-miterlimit:10;enable-background:new    ;}
	.st4{fill:none;stroke:#000000;stroke-width:0.6867;stroke-miterlimit:9.9998;}
	.st5{opacity:0.13;fill:none;stroke:#000000;stroke-width:0.6867;stroke-miterlimit:10;enable-background:new    ;}
	.st6{opacity:0.14;fill:none;stroke:#000000;stroke-width:0.6867;stroke-miterlimit:10;enable-background:new    ;}
	.st7{fill:none;stroke:#000000;stroke-width:0.6867;stroke-miterlimit:10.0002;}
	.st8{opacity:0.1;fill:none;stroke:#000000;stroke-width:0.6867;stroke-miterlimit:10;enable-background:new    ;}
	.st9{opacity:0.45;fill:none;stroke:#000000;stroke-width:0.6867;stroke-miterlimit:10;enable-background:new    ;}
	.st10{opacity:0.46;fill:none;stroke:#000000;stroke-width:0.6867;stroke-miterlimit:10;enable-background:new    ;}
	.st11{opacity:0.18;fill:none;stroke:#000000;stroke-width:0.6867;stroke-miterlimit:10;enable-background:new    ;}
	.st12{opacity:0.15;fill:none;stroke:#000000;stroke-width:0.6867;stroke-miterlimit:10;enable-background:new    ;}
	.st13{opacity:0.3;fill:none;stroke:#000000;stroke-width:0.6867;stroke-miterlimit:10;enable-background:new    ;}
	.st14{fill:none;stroke:#000000;stroke-width:0.6867;stroke-miterlimit:9.9995;}
	.st15{opacity:0.4;fill:none;stroke:#000000;stroke-width:0.6867;stroke-miterlimit:10;enable-background:new    ;}
	.st16{fill:none;stroke:#000000;stroke-width:1.1194;stroke-linecap:round;stroke-miterlimit:10;}
</style>
<g>
	<path class="st0" d="M315.3,479.7c-6.4,2.7-107.3-12.5-110.9-16.2c-7.4-20.7-1.4-34.3,0.9-37.2l37.4-178.4
		c5.2-25.8,24.2-35.8,29.5-37.4c0.7-6.5,14.3-48.8,14.3-48.8c-2-3.4,1.9-13,3.1-14.4c8.5-16.6,26.8-10.8,27.4,5.8
		c0.4,3.2-0.2,9-1.5,9.9l0.8,53.7c4.6,1.5,21.2,18.5,18.3,42L324.8,442C324.8,447.8,326.9,467.6,315.3,479.7z"/>
	<path class="st1" d="M285.9,475.1c-32.7-4-69.7-10.4-77.9-12.9c-5.7-17.6-0.8-29,0.8-31c0.5-0.6,0.8-1.3,1-2.1l37.7-179.9
		c2.1-10.3,4.2-21.2,11.1-27.9c5.4-5.3,10.8-9.6,12.9-10.2c1.9-0.6,4.9-1.5,5.1-3.4c0.5-4.4,4.7-19,8.2-30.3
		c1.1-0.8,7.4-1.4,14.6-0.6c6.4,0.8,10.5,2.5,11.3,3.3c0.2,0.2,0.4,0.5,0.6,0.7l0.7,36c0,2,1.4,3.8,3.3,4.5
		c1.1,0.5,5.7,4.2,9.7,11.1c4.6,7.9,6.5,17,5.5,26.1v0.3l-9.8,184.8v0.4c0,0.5,0,1.1,0.1,1.9c0.3,6.6,1.1,21.8-7.2,31.5
		C311.3,477.5,304.7,477.4,285.9,475.1z"/>
	<path class="st2" d="M223.6,430.1l24.6-179.3c5.2-25.8,19.2-39.5,29.8-39c0.7-6.5,13.2-57.6,13.2-57.6c-2.4,1.7-2.3-6.1,2.3-6.2
		c-4-0.4,0.6-5.2,0.6-5.2l-4.8,4.7c-1.1,1.5-5.1,11-3.1,14.4c0,0-13.6,42.3-14.3,48.8c-5.3,1.6-24.3,11.6-29.5,37.4L205,426.3
		c-2.3,2.9-8.3,16.5-0.9,37.2c1.1,1.1,10.6,3.2,23.6,5.5C216.5,467.6,215.6,434.3,223.6,430.1z"/>
	<path class="st0" d="M304.3,432.4h0.2c2.2,0.1,4.1-1.5,4.4-3.6l17.3-176.2c0-6.9-12.6-13.7-12.8-3.4l-12.9,179
		C300.3,430.4,302,432.3,304.3,432.4L304.3,432.4z"/>
	<path class="st0" d="M237.7,271.4c13.9-24.3,89.9-19.6,95.4,12.7L325.6,425c-22-12.6-102.6-20.9-116.7-16.2L237.7,271.4z"/>
	<path class="st0" d="M314,152.9c-1.2-1.4-2.5-2.7-3.9-3.9c-0.2-0.1-0.2-0.4,0-0.6l0,0l0.1-0.1l0.3-0.1c0.4-0.2,0.9-0.1,1.3,0.2
		c1,0.8,1.9,1.7,2.7,2.7c0.3,0.3,0.4,0.7,0.3,1.1l-0.1,0.6c-0.1,0.2-0.3,0.3-0.5,0.3C314.1,153,314,153,314,152.9z"/>
	<path class="st0" d="M312.1,154.8c-1-1.1-2.2-2-3.4-2.8c-0.1-0.1-0.2-0.3,0-0.5l0.1-0.1l0.3-0.2c0.3-0.2,0.7-0.2,1,0
		c0.8,0.5,1.6,1.2,2.3,1.9c0.2,0.2,0.3,0.6,0.3,0.9l-0.1,0.5C312.6,154.7,312.4,154.8,312.1,154.8L312.1,154.8
		C312.2,154.9,312.1,154.9,312.1,154.8z"/>
	<path class="st0" d="M316.9,153.2c-1.1-6.9-8.5-13.9-16.5-13.1c-8,0.8-10.1,6.5-12.2,9.9c-1.4-7.2,3.5-13.7,13.8-14.8
		C311.4,134.3,321.7,147.1,316.9,153.2z"/>
	<path class="st0" d="M224.6,373.4c-1.9-1.5-0.4-11.5,1.7-13.9c1.1,0.4,2,1.4,3.4,3.8C227.7,368.4,226.3,371.1,224.6,373.4
		 M244.3,343.3c13.6-30.5,21.7-49,28.1-52.6C275.9,294.3,265.2,331.8,244.3,343.3 M270.3,286.6c-3.9,0.2-11.9,0.6-33.7,57.5
		c-15.1-5.2,2.5-43.5,5.9-46.4c2.6,3.4-8,28.7-8.2,28.9c-0.6,1.2-0.8,1.6,0.1,2.3c5.9-1.6,17.5-29.9,10-33.6
		c-10.6-5-18.9,36.7-15.9,46.6c1.3,4.4,4.7,5.1,6.9,5.5c-1.5,4-3,8-4.5,12c-8.9-9.3-9.2,6.7-9.3,12.7c-0.2,7.9,5.9,2.5,6.2,2.2
		c1.7-1.7,3.2-3.6,4.4-5.8c2.8,6.3,4.8,8.3,8.2,8.7v0.1c10.6-0.1,13.8-12.6,12.5-14.3c-0.3-0.2-0.6-0.4-1-0.4
		c-5.4,10.7-13,5.3-17.2,1.2c1.2-2.3,1.2-2.3,7.5-16.6c25.3-7.3,48.9-50.6,32.5-59.5C273.3,287.1,271.8,286.7,270.3,286.6"/>
	<path class="st0" d="M285.1,314.3c3.1-2.2,6.7-3.6,9.8-5.9c2.4-1.7,3.1-2.9,3.4-3.7c1.5-3.8-3.1-4.6-7.1-5.2l0,0
		c-1.5,3.6-3.3,7-5.5,10.2c-0.6,0.8-1.2,1.7-1.7,2.6c-0.3,0.7-0.1,1.5,0.6,1.9C284.7,314.2,284.9,314.3,285.1,314.3z"/>
	<path class="st0" d="M322.3,356.7c-5.2,6.9-5.2,6.9-7.4,7.7c-2.1,0.8-4.7,1.7-5.3-3.2c-0.1-1.6,0-3.3,0.4-4.9
		c10.4,5.9,19.5-17.2,17-26c-0.5-2.1-2-3.9-4-4.7c-5.5-1.7-13.6,9.2-17.8,20.2c-4.3,6.5-9.3,12.7-14.7,15.4
		c-2.1-2.9-2.5-3.5,15.3-36c5.5,1,7.9,1.1,7.2-1.5c-0.8-0.4-5.5-1.5-5.5-1.5c3.7-6,6.1-9.9-1.7-11.7l-0.6-0.1
		c-0.5,0.5-0.9,1.1-6.2,10.1c-4.5-0.8-5-0.7-5.1-0.7c-1.4,0.3-1.2,1.9-1.2,1.9c0.1,0.3,0.2,0.5,4.8,1.5c-2.1,3.6-3.9,7-5.6,10.1
		c-5.9,9-14.4,20.7-22.8,25.2c4.3-12.8,14.1-22.8,18.4-35.6c0.4-1.2,1.5-4.5-4.9-5.4c-0.6-0.1-1.3-0.1-1.9-0.1
		c-4.1,13.5-16,23.2-19,37.3c-1.6,7.5,5.3,9.3,9.4,7c3.6-2,8.8-7.8,13.6-14.1c-1.5,3-2.6,6.1-3.4,9.4c-0.8,4.4,4.5,9.2,8.8,8.2
		c5-1.2,11.1-9.1,12.8-11.6c0.1-0.1,0.2-0.3,0.3-0.4c-0.8,4.1-0.8,7.8,0.6,10.2c6.2,10.5,16.5,6.1,18.9-4.9
		C322.9,357,322.6,356.9,322.3,356.7z M324.3,329.5c1,2.5-4.4,23.2-13.6,24.4C313.8,344.5,321.2,329.8,324.3,329.5L324.3,329.5z"/>
	<path class="st3" d="M244.4,450.8c0.4,2.7,0.2,3.8-0.5,5.1c-0.9,1.6-2.6,6,2.1,6.8c2.5,0.4,3.4-2.6,3.4-4.6
		c-0.1-4.2,1.6-4.3,2.5-4.2c1.3,0.1,2.3,1.3,2.2,2.6l0,0c0,0.3-0.1,0.5-0.2,0.7c-0.3,0.8-1.6,2.7,0.1,3.8c1.3,0.9,5,0.4,4.4-2.3
		c-0.5-1.9-0.8-3.6-0.3-5.1c0.6-1.7,1.2-2.2,2.6-2.4c2.1-0.3,2.1,5.5,6.3-0.3C270.2,446.5,244.8,450.5,244.4,450.8z"/>
	<path class="st0" d="M235.2,431c-10.3-1.4-17.4-10.9-16-21.2c1.4-10.3,10.9-17.4,21.2-16c10.2,1.4,17.3,10.7,16.1,20.9
		c-1.3,10.3-10.6,17.6-20.9,16.3C235.4,431,235.3,431,235.2,431z"/>
	<path class="st0" d="M287.3,461.6c-0.3,2.1-10.3-9.4-23.4-11c-13.1-1.6-20.6,1.4-21.5,0.9c-1.9-1.1,8.9-5.6,21.9-3.9
		C277.3,449.1,287.5,459.4,287.3,461.6z"/>
	
		<ellipse transform="matrix(0.1229 -0.9924 0.9924 0.1229 -199.7429 596.5786)" class="st4" cx="237.6" cy="411.3" rx="16.2" ry="16.4"/>
	
		<ellipse transform="matrix(0.1229 -0.9924 0.9924 0.1229 -196.4784 594.3817)" class="st4" cx="238" cy="408.3" rx="13.5" ry="13.7"/>
	<path class="st0" d="M305.4,452.6c-10.3-1.4-17.4-10.9-16-21.2c1.4-10.3,10.9-17.4,21.2-16c10.2,1.4,17.3,10.7,16.1,20.9
		c-1.3,10.3-10.6,17.6-20.9,16.3C305.6,452.6,305.5,452.6,305.4,452.6z"/>
	
		<ellipse transform="matrix(0.1229 -0.9924 0.9924 0.1229 -159.0056 685.7886)" class="st4" cx="308.5" cy="432.9" rx="16.2" ry="16.4"/>
	
		<ellipse transform="matrix(0.1229 -0.9924 0.9924 0.1229 -156.5297 684.1079)" class="st4" cx="308.8" cy="430.6" rx="13.5" ry="13.7"/>
	<path class="st0" d="M309.9,216l-2.9-1.4c-0.6-0.4-0.9-1.2-0.8-2l3.6-53.9c0-0.3,0.2-0.4,0.6-0.3c0.6,0.2,1.1,0.6,1.5,1
		c0.2,0.2,0.3,0.4,0.3,0.6l-1,55.2C311.2,216.2,310.6,216.5,309.9,216z"/>
	<path class="st1" d="M246.1,263.2c-3.7,2-6.8,4.9-9,8.5l-28.6,137.4c5.8-2,11.9-3.1,18.1-3L246.1,263.2z"/>
	<path class="st0" d="M123,529.6c-3.8-2.7-12-4.8-16-3.1L9.4,568c-5.4,2.3-10.1,8.4-8.8,14.3C13.7,639.7,21.5,698.2,24,757.1
		c0.6,8.2,5.7,13.3,13.9,15c28.7,3.4,59.3,5.7,88.1,9c2.3,0.3,4.7-0.3,6.7-1.6c4.4-2.9,7.6-4.8,7.7-9.4
		c2.2-58.8-0.5-118.8-6.9-177.3c-2.1-19-5-36.4-7.9-55.3C125,533.9,124.2,530.4,123,529.6z"/>
	<path class="st0" d="M26.9,759.2c-2.4-59.8-10.2-119.3-23.1-177.8c-0.8-3.9,2.1-8,5.7-9.4l94.9-39.6c4.1-1.6,8,1.3,8.6,5.5
		c3,18.7,5.6,37.4,7.8,56.2c6.7,57.6,9.3,115.6,7.8,173.6c0,3.7-2.7,7.8-6.9,7.5l-87.9-8.9C30.1,765.9,27.2,762.9,26.9,759.2z"/>
	<path class="st0" d="M111.2,564.8c8.4,59.1,12.6,118.8,12.4,178.6c0.1,1.2-0.8,2.3-2.1,2.4l0,0l0,0l-90.6-3.4
		c-1.1,0-2.1-0.9-2.2-2.1c-1.6-27.7-4.3-55.3-8.1-82.8c-2.1-15.3-4.6-30.5-7.4-45.7c-0.8-4.2-1.6-8.3-2.4-12.4
		c-0.1-1.2,0.6-2.4,1.8-2.7l21.2-7.4L97,567.2l11.6-4.1c1-0.3,2.1,0.2,2.5,1.3C111.2,564.5,111.3,564.7,111.2,564.8L111.2,564.8z"/>
	<path class="st0" d="M23.8,603l3.5-1.1c4,5.6,7.9,11.3,11.6,17H39c1.8-7.5,3.5-15,5.1-22.4l3.5-1.1c1.3,8,2.6,16.1,3.8,24.1
		l-2.8,0.7c-0.9-6.2-1.9-12.3-2.9-18.5l-1.4,0.4c0.8-1.9,1.7-3.9,2.5-5.8c-1.9,8.7-3.9,17.3-6,25.9l-2.5,0.7
		c-4.3-6.6-8.8-13.1-13.4-19.6c1.4,1.2,2.7,2.3,4.1,3.5l-1.4,0.4c1,5.9,2,11.8,3,17.6l-2.8,0.7C26.4,618.1,25.1,610.5,23.8,603z"/>
	<path class="st0" d="M60,615.7c-1.8-0.6-3.4-1.8-4.5-3.3c-1.3-1.9-2-4.1-2.3-6.3l0,0c-0.4-2.4-0.3-4.8,0.3-7.1
		c1.2-4.3,4.5-7.8,8.8-9.1c2-0.7,4.1-0.8,6.2-0.3c1.9,0.6,3.5,1.7,4.5,3.3c1.3,2,2.1,4.3,2.4,6.6l0,0c0.3,2.5,0.2,5-0.4,7.4
		c-0.6,2.1-1.7,4-3.2,5.6c-1.6,1.6-3.5,2.6-5.7,3.2C64.2,616.3,62,616.3,60,615.7z M69.8,610.4c1.1-1.2,1.9-2.7,2.3-4.3
		c0.4-1.9,0.5-3.8,0.2-5.7l0,0c-0.2-1.8-0.8-3.6-1.8-5.1c-0.8-1.2-2-2.1-3.3-2.7c-1.5-0.4-3-0.4-4.4,0.1c-1.6,0.5-3,1.4-4.1,2.6
		c-1.1,1.2-1.9,2.7-2.3,4.3c-0.4,1.8-0.5,3.7-0.2,5.5l0,0c0.2,1.7,0.8,3.4,1.8,4.9c0.8,1.2,2,2.1,3.3,2.7c1.4,0.5,3,0.5,4.4,0.1
		C67.3,612.4,68.7,611.6,69.8,610.4L69.8,610.4z"/>
	<path class="st0" d="M77.3,585.8l3.5-1.1c3.9,6.5,7.7,13.1,11.4,19.8h0.1c1.9-8.4,3.7-16.8,5.3-25.2l3.5-1.1
		c1.3,9.1,2.5,18.3,3.5,27.4l-2.8,0.7c-0.8-7-1.7-14-2.7-21l-1.4,0.4l2.5-6.5c-2,9.7-4,19.4-6.2,29.1l-2.5,0.7
		c-4.3-7.7-8.8-15.2-13.3-22.7c1.4,1.4,2.7,2.7,4,4.2l-1.4,0.4c1,6.7,1.9,13.5,2.7,20.2l-2.8,0.7C79.8,603.1,78.6,594.4,77.3,585.8z
		"/>
	<path class="st0" d="M82.2,641.9c-0.4,0.4-0.6,0.9-0.4,1.5c0.8,3.2,4.3,5.9,6.7,7.8c2.3,1.8,5.8,4.8,8.9,4.7c0.5,0,1-0.4,1.1-0.9
		l0,0c3.4-10.1,6.6-20.2,9.8-30.3c0.9-2.2-1.6-4.4-3.5-2.7C97.4,628.8,89.9,635.4,82.2,641.9L82.2,641.9z"/>
	<path class="st0" d="M52.4,640.1c0.5,0.1,0.7,0.5,0.7,1c-0.3,3.3-3,6.7-5,9.3s-4.5,6-7.6,7.1c-0.4,0.2-0.9,0-1.1-0.3l0,0
		c-4.3-6.5-8.7-13-13.2-19.3c-0.6-1.3-0.1-2.8,1.2-3.4c0.5-0.2,1-0.3,1.6-0.2C36.8,636,44.7,638,52.4,640.1L52.4,640.1z"/>
	<path class="st0" d="M98.1,657c-3.2-9.4-14.4-11-19.5-18.8c-2-2.9-5.2-4.6-8.7-4.6c-1.9,0-5,0.4-6,2.3c-7.1-0.8-13.6,6.1-17.3,11.3
		c-4.9,6.9-8.4,15.7-7.4,24.1c0.9,7.4,4.4,14.2,9.8,19.2c6.2,5.8,14.9,9.3,23.5,8.6c8.6-0.6,15.7-6.4,20.5-13.2
		C98.7,677.9,101.3,666.6,98.1,657z"/>
	<path class="st0" d="M105.3,664.1c-2.7-10.8-6.2-22.1-12.8-31.2c-3.1-4.3-7.4-8.5-12.9-9.5c-6.4-1.2-12.8,2.6-16.8,7.3
		c-9.7-5.4-17.7,4.7-21.4,12.5c-4.7,9.6-7.3,21.8-4.8,32.3c0.4,1.8,3.8,12.2,0.8,13.5c-1.2,0.6-2.7-1.2-3.6-2
		c-1.2,7.8,8.2,7.7,12.8,4.6c0.7-0.5,1.5-0.8,2.3-1.1c-5.4-5-8.9-11.9-9.8-19.2c-1-8.5,2.5-17.3,7.4-24.1
		c3.7-5.2,10.2-12.1,17.3-11.3c1.1-1.9,4.1-2.3,6-2.3c3.5,0,6.7,1.7,8.7,4.6c2.8,6.2,5.8,12.7,10.8,17.6c2.8,2.7,5.1,4.8,6.4,8.6
		c1.2,3.5,2.3,7.4,1.9,11.2c-0.5,3.8-2.6,7.3-4.7,10.5c10,4.3,17.4-2.3,21.2-11.3C110,679.2,105.9,665.7,105.3,664.1z"/>
	<path class="st0" d="M66.6,660.4c0.4,4.4,4.6,8.1,9.1,7.5c4.8-0.6,7.9-5.7,7.5-10.2s-4.5-8.4-9.2-7.5
		C69.5,651.1,66.2,655.9,66.6,660.4z"/>
	<path class="st0" d="M69,657.8c0.1,1.7,1.7,3,3.4,2.9l0,0h0.2c1.8-0.4,3-2.1,2.9-3.9c-0.2-1.8-1.8-3.1-3.6-2.9l0,0
		C70,654.1,68.8,656.1,69,657.8z"/>
	<path class="st0" d="M77.4,661.9c0,0.9,0.8,1.5,1.6,1.5h0.1c0.9-0.2,1.5-1,1.4-2c0-0.9-0.8-1.5-1.6-1.5l0,0h-0.1
		C77.9,660.1,77.3,661,77.4,661.9z"/>
	<path class="st0" d="M36.8,663.7c0.7,4.4,4.8,7.4,9.2,6.8c4.6-0.8,7.8-4.9,7.4-9.6c-0.5-4.3-4.5-7.4-8.8-6.9l0,0
		c-0.2,0-0.3,0-0.5,0.1C39.8,655,36.1,659.3,36.8,663.7z"/>
	<path class="st0" d="M39.1,661.3c0.2,1.7,1.8,2.9,3.5,2.6l0,0h0.1c1.8-0.3,3-1.9,2.9-3.7c-0.2-1.7-1.8-2.8-3.4-2.6h-0.1
		C40.2,657.9,38.9,659.5,39.1,661.3z"/>
	<path class="st0" d="M47.6,665c0.1,0.8,0.8,1.5,1.7,1.4l0,0h0.1c0.9-0.1,1.5-1,1.5-1.9c-0.1-0.8-0.8-1.5-1.7-1.4H49
		C48.1,663.3,47.5,664.1,47.6,665z"/>
	<path class="st0" d="M51.9,678.5c1.6,2.4,3.4,4.7,5.4,6.8c1.3,1.5,2.9,2.7,4.7,3.6c0.2,0.2,1.2,0.2,1.4-0.4c1-1.9,1.7-3.9,2.2-6
		c0.5-1.9,0.6-3.9,0.4-5.8c-0.1-0.3-0.3-0.6-0.6-0.8c-1.1-0.5-2.4-0.8-3.7-0.8s-2.5,0-3.8,0.2c-0.8,0.1-1.5,0.2-2.3,0.4
		c-1.2,0.3-2.3,0.7-3.3,1.3l-0.2,0.1C51.7,677.5,51.5,678.1,51.9,678.5z"/>
	<path class="st0" d="M61.8,675c0.6,1.5,1.2,3,1.8,4.5c0.1,0.3,0.5,0.4,0.8,0.3c0.2-0.1,0.3-0.2,0.3-0.4c0.3-1.4,0.4-2.1,0.7-3.5
		C64.3,675.2,63,675,61.8,675z"/>
	<path class="st0" d="M52.4,677c0.5,1.3,0.8,1.9,1.3,3.1c0.1,0.3,0.5,0.4,0.8,0.3c0.2-0.1,0.3-0.3,0.4-0.5c0.3-1.4,0.6-2.9,0.9-4.4
		C54.5,675.9,53.4,676.4,52.4,677z"/>
	<path class="st0" d="M57.3,685.2c1.4,1.5,2.9,2.7,4.7,3.6c0.2,0.2,1.2,0.2,1.4-0.4c0.9-1.9,1.7-3.9,2.2-6c-0.7-0.3-1.4-0.5-2.2-0.6
		c-0.4,0-0.8,0-1.2,0c-0.5,0.1-0.9,0.2-1.4,0.3C59.4,682.7,58.1,683.8,57.3,685.2z"/>
	<path class="st0" d="M56,669.9c1.5,0.9,2.9,1.8,4.4,2.7l-6.2,0.1C54.9,671.6,55.2,671,56,669.9z"/>
	<path class="st0" d="M56,669.9l2-4.1l-1.8,4.3l4.2,2.5C58.9,671.7,57.5,670.8,56,669.9z"/>
	<path class="st0" d="M69.3,651c0.3-0.3,0.6-0.6,0.9-0.9c1.5-1.4,3.4-2.3,5.5-2.5c0.3-0.2,0.5-0.4,0.8-0.7c1.1-1.1,1.9-2.4,2.5-3.8
		c-0.1,0.3-0.1,0.6-0.2,0.9c-0.3,1.3-0.9,2.5-1.8,3.6l0,0c1,0.1,1.9,0.4,2.7,0.8l0.2-0.2c1.1-1.1,1.9-2.4,2.5-3.8
		c0,0.3-0.1,0.6-0.2,0.9c-0.3,1.3-0.9,2.5-1.7,3.6c0.9,0.6,1.7,1.4,2.3,2.3c1.1-1.1,1.9-2.4,2.5-3.8c0,0.3-0.1,0.6-0.2,0.9
		c-0.3,1.4-1,2.6-1.9,3.7c0.8,1.7,1.1,3.6,0.8,5.5c0,0.3-0.1,0.6-0.2,0.9c0.1-1.9-0.4-3.9-1.4-5.5c-0.2-0.3-0.4-0.5-0.6-0.8
		c-1.3-1.5-3.1-2.4-5.1-2.6c-2.1-0.2-4.1,0.4-5.8,1.6c-0.4,0.3-0.7,0.6-1.1,0.9c-1.3,1.2-2.2,2.8-2.7,4.6c0-0.3,0-0.6,0.1-0.9
		C67.4,654,68.2,652.4,69.3,651z"/>
	<path class="st0" d="M50.3,654.1c-0.3-0.3-0.6-0.5-0.9-0.7c-1.6-1.1-3.6-1.6-5.5-1.3c-0.3-0.1-0.5-0.3-0.8-0.5
		c-1.1-0.8-2-1.8-2.6-3.1c0.1,0.3,0.1,0.5,0.2,0.8c0.4,1.2,1.1,2.2,2,3l0,0c-1,0.3-1.9,0.7-2.7,1.2l-0.2-0.1c-1.1-0.8-2-1.8-2.6-3
		c0,0.3,0.1,0.5,0.2,0.8c0.4,1.1,1.1,2.1,1.9,2.9c-0.8,0.7-1.6,1.6-2.1,2.5c-1.1-0.7-2-1.8-2.6-3c0,0.3,0.1,0.5,0.2,0.7
		c0.4,1.2,1.1,2.2,2,3c-0.7,1.6-0.9,3.4-0.6,5.1c0,0.3,0.1,0.5,0.2,0.7c-0.2-1.8,0.2-3.7,1.2-5.2c0.2-0.3,0.4-0.6,0.6-0.8
		c1.2-1.6,2.9-2.7,4.8-3.3s4-0.4,5.8,0.5c0.4,0.2,0.7,0.4,1.1,0.7c1.4,1,2.3,2.4,2.8,4c0-0.3-0.1-0.6-0.1-0.8
		C52.3,656.7,51.5,655.2,50.3,654.1z"/>
	<path class="st0" d="M85.4,557.3l-53.8,20.4c-0.5,0.2-1.1,0-1.3-0.4c0-0.1-0.1-0.1-0.1-0.2l0,0c-0.1-0.7,0.3-1.3,0.9-1.5l53.8-20.7
		c0.5-0.2,1.1,0,1.3,0.5c0,0.1,0.1,0.2,0.1,0.3l0,0C86.4,556.3,86,557,85.4,557.3z"/>
	<path class="st5" d="M113.1,578.6c-25.7,40.6-54.7,79.2-88.2,113.9c0.2,2.2,0.4,4.3,0.7,6.5c33.6-34,62.8-72,88.6-112.1
		C113.8,584.1,113.5,581.4,113.1,578.6z"/>
	<path class="st5" d="M123.6,743.3c0.1-14.9-0.2-29.7-0.6-44.6c-13.5,15.8-27.7,31-42.6,45.4l41.2,1.5
		C122.8,745.6,123.7,744.6,123.6,743.3L123.6,743.3z"/>
	<path class="st6" d="M89.4,569.6c-20.6,30.3-38.7,55.5-68.8,87.9c-2.1-15.3-4.6-30.5-7.4-45.7c7.4-7.1,14.3-14.7,20.6-22.7
		C54.9,581.8,68.3,577,89.4,569.6z"/>
	<path class="st0" d="M144.9,384.2l-3.1-1c-1.1-0.3-2.1-0.8-3.1-1.5c-7.7-3.3-8.8-18.7-9.7-25.9c-5.9-33.6-22.1-65.8-35.5-96.9
		c7.5-7.2-3.6-17.6-6.9-24.1c0-0.2,0-0.5,0.1-0.7c3.4-2.7,0.9-6.5-2.6-8.7c-7.1-1.9-18,3.5-24.6,5.9c-7.1,2.6-17.6,5.3-22.7,10.3
		c-1.8,1.9-2.3,5.1-1.4,6.7c2.2,0.5,2.4,1.3,2.5,1.7c-0.3,5.2-3.2,21.3,4.9,22.4c2.9,21.6,7.2,43.1,12.8,64.2
		c3.5,13.3,6.9,27.5,13.5,39.7c0,0,2.7,4.9,3.9,6.9c2.9,5.7,9.7,15.8,5.2,22.5l-1,1.2l-0.3,0.3l0,0c-11.4,14.4-10.3,31.7-5.8,48.2
		c15.9,38.3,30,77.3,45,116c7.6,19.2,27.4,32.5,48.7,26.2c23.2-6.9,45.8-28.3,43.8-53.3c-8.7-42-18.6-83.4-29.7-124.8
		C172.5,404,162.3,389.1,144.9,384.2z"/>
	<path class="st0" d="M144.9,384.2l-3.1-1c-1.1-0.3-2.1-0.8-3.1-1.5c-7.7-3.3-8.8-18.7-9.7-25.9c-5.9-33.6-22.1-65.8-35.5-96.9
		c7.5-7.2-3.6-17.6-6.9-24.1c0-0.2,0-0.5,0.1-0.7c3.4-2.7,0.9-6.5-2.6-8.7c-6.9-1.5-18.3,2.7-24.9,5.1c-7.1,2.6-17.3,6.1-22.4,11.1
		c-1.8,1.9-2.3,5.1-1.4,6.7c2.2,0.5,2.4,1.3,2.5,1.7c-0.3,5.2-3.2,21.3,4.9,22.4c2.9,21.6,7.2,43.1,12.8,64.2
		c3.5,13.3,6.9,27.5,13.5,39.7c0,0,2.7,4.9,3.9,6.9c2.9,5.7,9.7,15.8,5.2,22.5l-1,1.2l-0.3,0.3l0,0c-11.4,14.4-10.3,31.7-5.8,48.2
		c15.9,38.3,30,77.3,45,116c7.6,19.2,27.4,32.5,48.7,26.2c23.2-6.9,45.8-28.3,43.8-53.3c-8.7-42-18.6-83.4-29.7-124.8
		C172.5,404,162.3,389.1,144.9,384.2z"/>
	<path class="st1" d="M168.9,590.5c-1.8,0.7-3.6,1.4-5.5,2c-8.3,2.5-17.3,1.4-24.7-3c-7.6-4.5-13.5-11.5-16.8-19.8
		c-5-12.9-10-26.1-14.9-38.8c-9.6-25.3-19.5-51.4-30.1-76.9c-5-18.7-3.5-32.3,4.8-42.6l0.1-0.1l0.1-0.2c0.3-0.4,0.6-0.7,0.9-1.1
		c0.2-0.2,0.3-0.4,0.5-0.6c5.9-8.7,0.3-19.1-3.4-25.9c-0.5-0.9-0.9-1.7-1.3-2.5l-0.1-0.3c-1.1-1.9-3.6-6.4-3.8-6.8
		c-5.8-10.8-9.1-23.5-12.3-35.7l-0.7-2.7c-1.8-7-3.6-14.1-5.1-21c0.3-6.2,44.8-23.9,47.7-16.4c7.4,17.5,15.4,38,19.2,59.1
		c0.1,0.5,0.1,1.1,0.2,1.7c1,8.9,2.7,23.6,12.4,28.3c1.3,0.9,2.8,1.5,4.3,2c1.3,0.4,2.9,0.9,3,0.9l0.2,0.1
		c12.9,3.6,22.8,14,30.2,31.7c11.1,41.3,21,83,29.5,123.7c0.8,11.4-4.5,20.7-9.1,26.5C187.3,580.3,178.7,586.6,168.9,590.5z"/>
	<path class="st2" d="M135.7,574.6c-20.8-39.3-93.7-156-36-174.6c-23.4-3.1-64-107.7-40.3-132.1c-11.2,0-6.6-15.3-6.2-20.6
		c-0.1-0.4-0.3-1.4-2.5-1.9c-2.7-4.4,6.9-7.5,10.1-9.7c6.6-4.4,13.7-8,21.2-10.7c-6.9-0.2-16.4,3.2-22.2,5.4
		c-7.3,2.7-17.5,6.1-22.5,11.1c-1.8,1.8-2.3,5.1-1.4,6.7c2.2,0.5,2.4,1.3,2.5,1.7c-0.3,5.2-3.2,21.3,4.9,22.4
		c2.9,21.6,7.2,43.1,12.8,64.2c3.5,13.3,6.9,27.5,13.5,39.7c0,0,2.7,4.9,3.9,6.9c2.9,5.7,9.7,15.8,5.2,22.5l-1,1.2l-0.3,0.3l0,0
		c-11.4,14.4-10.3,31.7-5.8,48.2c15.9,38.3,30,77.3,45,116c7.6,19.2,27.4,32.5,48.7,26.2c3.7-1.1,7.4-2.6,10.8-4.3
		C160,592.3,145.9,594.3,135.7,574.6z"/>
	<path class="st0" d="M83.2,249.5c0,3.9-2.1,7.6-5.5,9.6c-1.1,0.7-2.6,0.4-3.4-0.7c-1.4-4.1-3.3-8-5.6-11.7
		c-0.4-0.6,0.3-2.1,1.6-2.5l7.3-2.2c1-0.4,2.1,0,2.7,0.8l2.8,5.9C83.1,249,83.2,249.2,83.2,249.5z"/>
	<path class="st0" d="M77.9,235.3c-2.5,1.4-5.2,2.6-8,3.5c-1.1,0.4-2.8,0.6-3.1-0.4l-0.1-0.1c-0.3-0.7,0.2-1.7,1.3-2.1
		c2.9-1.1,5.7-2.3,8.5-3.7c0.9-0.5,2-0.2,2.5,0.6v0.1C79.2,234.1,78.7,235,77.9,235.3z"/>
	<path class="st0" d="M199,548.3l0.3-0.1c1.7-0.6,3-1.8,2.3-4.3l-31.2-119.4c-0.7-2.5-3.3-3.9-5.7-3.2l0,0l0,0l-0.3,0.1
		c-2.5,0.7-4,3.2-3.3,5.7L196.7,545C197.4,547.5,198,548.4,199,548.3z"/>
	<path class="st0" d="M122.8,378.4l0.2-0.1c1.6-0.5,2.7-2,2.6-3.6c-1.5-25.1-11.5-57.9-29.9-98.5c-0.8-1.6-2.6-2.4-4.3-1.9l0,0
		c-1.9,0.5-3,2.5-2.4,4.4c0,0.2,0.1,0.3,0.2,0.5c15.4,33.5,25.3,65.7,29.2,96.3c0.3,1.9,2,3.3,4,3
		C122.3,378.6,122.6,378.5,122.8,378.4z"/>
	<path class="st0" d="M137.6,388.3c-0.6-0.2-3.9,0.2-5,1.6l0,0c-1.4,1.7,1.6,3.1,2.3,3.3c12.2,3.2,15.8,8,19.9,17.9
		c0.7,1.8,3.2,1.5,4.6-0.2l0.1-0.1l0,0c1.2-1.5,1.1-3.4,0.5-5.1C156.7,395.8,147.9,389,137.6,388.3z"/>
	<path class="st0" d="M208.3,524.2c-11.8,16.1-30.1,36.2-50.6,41.5c-18.1,4.7-35.9-4.8-51.3-12.5C95,524.4,83.8,495.8,72,467.4
		c20.5,2.8,42.8,3.2,63-2.9c18.5-5.6,35.7-18,49.7-30.8C193.2,463.6,201.2,493.7,208.3,524.2z"/>
	
		<ellipse transform="matrix(0.9255 -0.3788 0.3788 0.9255 -179.846 70.8961)" class="st7" cx="90.3" cy="492.5" rx="23.2" ry="22.6"/>
	
		<ellipse transform="matrix(0.9255 -0.3788 0.3788 0.9255 -176.4203 71.5561)" class="st7" cx="93.7" cy="484.2" rx="10.4" ry="10.1"/>
	<ellipse transform="matrix(0.9255 -0.3788 0.3788 0.9255 -183.8537 68.1503)" class="st7" cx="81.3" cy="501.4" rx="6" ry="5.8"/>
	
		<ellipse transform="matrix(0.9255 -0.3788 0.3788 0.9255 -164.8218 101.2742)" class="st7" cx="175" cy="469.5" rx="23.2" ry="22.6"/>
	
		<ellipse transform="matrix(0.9255 -0.3788 0.3788 0.9255 -161.3747 101.9653)" class="st7" cx="178.5" cy="461.1" rx="10.4" ry="10.1"/>
	<ellipse transform="matrix(0.9255 -0.3788 0.3788 0.9255 -169.1465 98.6983)" class="st7" cx="166.3" cy="479.3" rx="6" ry="5.8"/>
	<path class="st0" d="M166.7,499.2c-18.3,7.5-36.2,11.2-55.5,15.1c-1.7,0.4-2.7,2.1-2.3,3.7c0.1,0.3,0.2,0.7,0.4,0.9
		c5.5,8.7,14.1,16.8,24.4,18.9c-2.8-7.3,3.7-16.8,14.6-21.3c6.9-2.8,13.9-3,18.9-0.9c1.6-4.3,2.7-8.8,3.3-13.4
		c0.3-1.5-0.7-2.9-2.2-3.2C167.8,498.8,167.2,498.9,166.7,499.2L166.7,499.2z"/>
	<path class="st0" d="M133.6,537.9c3.4,0.7,6.9,0.8,10.3,0.1c11.7-2.2,19.2-11.7,23.3-22.3c-5-2.1-12.1-1.9-18.9,0.9
		C137.3,521.1,130.8,530.6,133.6,537.9z"/>
	<path class="st0" d="M39.6,240.9c0-0.8,7.9-5.6,19.1-9.5c11.3-3.9,21.1-5.7,21.7-4.6c0.7,1.4-8.2,5.7-19.5,9.6
		C49.6,240.2,40.1,242.3,39.6,240.9z"/>
	<path class="st0" d="M42,239.9c-0.3-0.7,7.9-4.8,16.3-7.7c9.5-3.3,17.9-5,18.3-3.9c0.4,1.1-8.4,4.8-16.7,7.6S42.5,241,42,239.9z"/>
	<path class="st8" d="M87.9,306.1c-2.2,0.9-4.5,1.9-6.9,2.7c-5.4,2-10.9,3.8-16.5,5.2c-5.2,1.2-7.9,1.3-8.2,0.1
		c-0.6-2.1,6.8-6.2,21.9-12.3c10.5-4.3,20.5-6.9,23.7-6.2c0.6,0.1,1,0.4,1.1,0.8l0,0c0.3,1.2-1.8,3-6.2,5.5
		C94.3,303.2,91.3,304.7,87.9,306.1z M74,305.3c-13,5.5-16.3,8.1-16.1,8.8c0.1,0.4,1.9,0.5,6.8-0.8c5.5-1.5,10.9-3.3,16.2-5.3
		c5.3-1.9,10.4-4.2,15.4-6.8c4.3-2.3,5.6-3.6,5.5-4.1l0,0c0-0.1-0.2-0.2-0.5-0.3c-2.4-0.4-11.4,1.9-22.4,6.4
		C77,304,75.4,304.7,74,305.3z"/>
	<path class="st0" d="M217.9,132.1L217.9,132.1c-0.1,0-0.2-0.1-0.3-0.2l-0.5-0.2l0,0c-16.4-8.3-30.5-19.4-43.7-31.6l0,0
		c-8.8-8.2-17.2-16.8-25.5-25.6c-7.1-7.4-14-14.2-21.4-20.1c-12.5-10-26.2-17.3-43.7-19.8c-2.1-0.3-1.2-5.3-0.4-8c0-0.1,0-0.1,0-0.2
		c2.3-2,3.4-2.9,5.7-4.8c12.4-7.5,24.5-12.9,37.1-15.8l0,0c2.9-0.7,5.8-1.2,8.8-1.6l0,0c11.1-1.5,22.4-1.1,33.4,1.2
		c1.4,0.3,2.8,0.6,4.2,0.9c7.1,1.7,14,3.4,20.7,5c2.8,0.7,5.5,1.3,8.3,1.9c2.3,0.5,4.7,1,7.1,1.4c11.3,2.1,22.8,3.4,35.1,3l1.8,0.1
		l0,0v0.1l0,0c-0.8,2-1.4,4.1-1.8,6.3c-7.8,34-15.5,68.1-23.2,102.2l-0.1,0.4l0,0C218.8,128.5,218.3,130.3,217.9,132.1z"/>
	<path class="st0" d="M233.6,93.3c-3.7,11.7-8.3,23-14,33.8l-0.8-0.4h-0.1c-15.1-7.6-28.2-17.5-40.8-28.7c-1.2-1.2-2.5-2.3-3.7-3.5
		c-9.1-8.8-17.8-18.1-26.5-27.3c-6.9-7.2-13.6-13.7-20.7-19.3c-12.7-9.9-26.5-17-44.5-19.7c-0.6-0.1-0.8-0.7-0.6-1.4
		c0-0.1,0-0.1,0-0.2c0.3-0.9,0.9-1.7,1.6-2.2c13.2-9.1,26.5-16.5,42-21c2.8-0.6,5.6-1.1,8.4-1.6c10.6-1.6,21.4-1.6,32,0.1
		c9.2,1.6,18,3.6,26.8,5.3c16.6,3.2,33,5.8,50.8,4.7V12c0.1,2,0.1,3.9,0.2,5.8v0c0.4,15.7-0.7,31.5-3.3,47
		C238.8,74.4,236.5,84,233.6,93.3z"/>
	<path class="st0" d="M247,127.6c-0.9,2.1-1.8,3.5-2.5,4.1c-2,1.4-2.6,1.8-4.4,2.1c-7.2,1.2-16.2,1-23-2.1c-0.3-0.2,0.6-2.1,1.9-5.2
		c2.4-5.6,4.6-11.3,6.5-17c8-24.9,13.7-50.6,16.9-76.6c0.9-6.9-1-16.3,1.4-21.1c2.6-5.2,18.5-3,21.6,3.4c6.8,13-0.9,38.3-3.2,51.7
		C258.7,87.2,255.2,108.9,247,127.6z"/>
	<path class="st9" d="M222.6,126.4c-0.9-0.5,0.6-3.7,0.8-4c2.4-5.5,4.1-7.9,5.8-13.3c8.1-25.1,13.8-51,17.1-77.2
		c0.3-3.1,0.4-6.2,0.2-9.3c0-2-0.1-4,0-5.8c0.2-3.4,3.1-6.1,6.5-6h0.2c1.4,0.1,2.7,0.4,4.1,0.8c2.9,0.9,5.1,2.2,5.7,3.6
		c0,0,0,0.1,0.1,0.1c5,9.4,1.1,27.5-1.8,40.8c-0.7,3.2-1.3,6.2-1.8,8.8L259,68c-3.4,19.4-6.9,39.4-14.5,56.8
		c-0.2,0.5-0.4,0.9-0.6,1.3c-0.5,1-0.4,0.8-1.3,1.4c-0.5,0.4-1,0.6-1.6,0.7C234.7,129.1,223.1,127.2,222.6,126.4z"/>
	<path class="st0" d="M236.1,46.5c-2.4,10.4-12.8,16.9-23.3,14.5c-0.9-0.2-1.7-0.5-2.6-0.8c-11.8-4.7-17.6-18.9-14.4-30.8
		c3-11.3,14.6-15.3,24.7-10.5C230.5,23.7,238.6,35.1,236.1,46.5z"/>
	<path class="st10" d="M176.5,96.1c-8.8-8.2-16.3-16.5-24.7-25.2c-7-7.4-15.7-16.4-23.1-22.3c8.1-28.6,9-41,5.9-47
		C145.2,0,156,0,166.6,1.7c9.2,1.7,18,3.6,26.8,5.3C190.9,40,187.8,67.4,176.5,96.1z"/>
	<path class="st0" d="M166.7,21.1c-3,9.4-11.5,14.3-20.4,13.6c-2.4-0.2-4.8-0.8-7-1.7c-3.3-1.3-6.2-3.4-8.6-6
		c-5.3-5.7-7.3-13.7-5.4-21.2c0.2-0.6,0.3-1.2,0.5-1.8c0.1-0.3,0.2-0.6,0.3-0.9c2.8-0.6,5.6-1.1,8.4-1.6c10.6-1.6,21.4-1.6,32,0.1
		c0.4,1.2,0.7,2.5,1,3.7c0.9,4.5,0.9,9.1-0.1,13.6L166.7,21.1z"/>
	<path class="st0" d="M190.3,85.1c-1.5,6-6,10.9-12,12.8C167.8,88,158,77.6,148.2,67.1c0.2-1,0.4-2,0.8-3
		c3.8-11.6,16.2-17.3,26.9-10.7C186.1,59.6,193.4,73.1,190.3,85.1z"/>
	<path class="st0" d="M154.7,40.1c-8-1.4-13-10.4-12.4-17.7c0.5-6.6,6.9-15.6,14.8-13.6c7.6,2,12,11.4,11.6,18.9
		C168.4,34.9,162.2,41.4,154.7,40.1z"/>
	<path class="st0" d="M158.1,25c-2.8-0.6-5-3.8-4.7-7.2s2.8-5.7,5.6-5.1s4.8,4,4.6,7.4C163.3,23.5,160.9,25.6,158.1,25z"/>
	<path class="st0" d="M148.5,29.3c-1.6-0.4-2.6-1.8-2.4-3.4c0.1-1.7,1.4-2.9,2.9-2.7c1.5,0.2,2.5,1.8,2.4,3.5
		C151.3,28.4,150,29.6,148.5,29.3z"/>
	<path class="st0" d="M205,42.6c-8.1-1.2-12.5-10.5-12.5-17.7c0-6.7,5.3-13.6,12.5-11.4c6.8,2.1,12.6,9.5,12.8,16.9
		C217.8,37.4,212.3,43.7,205,42.6z"/>
	<path class="st0" d="M207,28.6c-2.7-0.5-4.9-3.6-4.9-6.9c0-3.2,2.2-5.2,4.9-4.5c2.7,0.7,4.9,3.6,5,6.7S209.7,29.1,207,28.6z"/>
	<path class="st0" d="M198.3,32.4c-1.4-0.3-2.4-1.9-2.4-3.5s1.1-2.6,2.5-2.3c1.5,0.5,2.4,2,2.4,3.5
		C200.8,31.7,199.7,32.7,198.3,32.4z"/>
	<path class="st0" d="M174.5,49.6L174.5,49.6c-2.2-3.3-0.7-7.7,2.5-7.4c6.1,0.5,12.2,0.9,18.3,1.3c3.2,0.1,5.7,4.3,4.3,7.3l0,0
		C194.3,62.3,180.1,58.4,174.5,49.6z"/>
	<path class="st11" d="M247,127.6c-0.9,2.1-1.8,3.5-2.5,4.1c-2,1.4-2.6,1.8-4.4,2.1c-7.2,1.2-16.2,1-23-2.1
		c-0.3-0.2,0.6-2.1,1.9-5.2C226.1,130.7,239.8,131.6,247,127.6z"/>
	<path class="st0" d="M326.4,478c-0.6-3.4-3.4-6-6.9-6.4l-97-9.9c-3.4-0.4-6.7,1.6-8,4.8L94.9,771.1L382,800.4L326.4,478z"/>
	<path class="st12" d="M319.9,794.1l-182-18.5l78.7-301c1.2-4.5,5.5-7.5,10.2-7l81.3,8.3c4.8,0.5,8.5,4.5,8.6,9.3L319.9,794.1z"/>
	<path class="st0" d="M302.9,500.1l-5.8,57.3c-2.6,25.3-24.2,43.8-48.3,41.3c-23.7-2.4-40.9-24.2-39.1-48.9c0-0.4,0.1-0.9,0.1-1.3
		l5.8-57.3C244.7,488,273.8,491.3,302.9,500.1z"/>
	<path class="st13" d="M293.3,526.1c-3.9,38.3-20.9,68-51.7,64.8c-15-1.5-25.1-15.3-30.4-35.1l-0.9-11.1l4.2-41.3
		c25.9-3.3,52.3-0.7,79,6.5C294,515.2,293.9,520.7,293.3,526.1z"/>
	<path class="st0" d="M296.1,486.5l-16.9-1.7l-48.7-5l-5.3-0.5l0,0c-4.4-0.5-8.4,2.7-8.9,7.2l-0.5,5.2l-1.2,11.7
		c25.9-3.3,52.3-0.7,79,6.5c2.7,0.7,5.4,1.5,8.2,2.3l1.7-16.9l0,0C303.8,490.8,300.5,486.9,296.1,486.5z"/>
	
		<ellipse transform="matrix(0.1014 -0.9948 0.9948 0.1014 -309.5625 682.6298)" class="st14" cx="223.1" cy="512.7" rx="3.9" ry="4"/>
	
		<ellipse transform="matrix(0.1014 -0.9948 0.9948 0.1014 -282.9176 726.4953)" class="st14" cx="260.7" cy="519.9" rx="3.9" ry="4"/>
	<path class="st0" d="M233.7,508.4l-15-7.4c-0.8-0.4-1.1-1.4-0.8-2.2l0,0l0.7-1.5c0.4-0.8,1.4-1.1,2.2-0.7l0,0l15,7.4
		c0.8,0.4,1.1,1.4,0.7,2.2l0,0l0,0l-0.7,1.5C235.5,508.5,234.5,508.8,233.7,508.4L233.7,508.4L233.7,508.4z"/>
	<path class="st0" d="M249.9,510.4l16.2-4.2c0.9-0.2,1.4-1.1,1.2-1.9l0,0l0,0l-0.4-1.6c-0.2-0.9-1.1-1.4-2-1.2l0,0l0,0l-16.2,4.2
		c-0.9,0.2-1.4,1.1-1.2,1.9l0,0l0,0l0.4,1.6C248.1,510.2,249,510.7,249.9,510.4L249.9,510.4z"/>
	<path class="st0" d="M249.1,533c-0.5-0.1-0.9-0.4-1-0.9c-0.8-3-3.9-6.2-9.2-6.7c-7.4-0.8-9.2,2.4-10.4,4.8c-0.3,0.6-1,0.8-1.6,0.5
		s-0.8-1-0.5-1.6c0,0,0,0,0-0.1l0,0c1.3-2.4,3.7-6.9,12.7-6c6.5,0.7,10.3,4.8,11.3,8.5c0.2,0.6-0.2,1.3-0.9,1.4l0,0l0,0
		C249.4,533,249.2,533,249.1,533z"/>
	<path class="st0" d="M226.3,555.2c0.4,0,0.8,0.2,1,0.5c0.8,1.6,3.9,3.4,8.9,3.9c7,0.7,8.4-0.9,9.5-2c0.4-0.3,1-0.4,1.5-0.2
		s0.8,0.6,0.5,0.8c-1.1,1.2-3.1,3.4-11.6,2.6c-6.1-0.6-9.8-2.9-10.9-4.9c-0.2-0.3,0.2-0.6,0.7-0.7
		C226,555.2,226.2,555.2,226.3,555.2z"/>
	<path class="st0" d="M223.4,561.3c0.5,0,1,0.2,1.4,0.6c1.1,1.9,5.2,4.2,12,4.9c9.4,1,11.4-1,12.8-2.4c0.6-0.4,1.3-0.4,2-0.2
		s1.1,0.7,0.7,1c-1.5,1.5-4.2,4.2-15.6,3c-8.2-0.8-13.3-3.7-14.7-6.1c-0.2-0.4,0.2-0.8,1-0.8C223.1,561.3,223.2,561.3,223.4,561.3z"
		/>
	<path class="st0" d="M310.3,683.1l-7,4.4c-3.2,2.1-7.5,1.1-9.6-2.1l0,0c-2.1-3.2-1.2-7.4,2-9.5l0.1-0.1l6.9-4.5
		c3.2-2,7.5-1.1,9.6,2.1l0,0C314.3,676.7,313.4,680.9,310.3,683.1L310.3,683.1z"/>
	<path class="st0" d="M307.3,676.7v0.6c0.4,7.2-5.2,13.3-12.3,13.6l0,0h-0.1l-17.3,0.9c-4,0.2-7.5-2.8-7.7-6.9l-0.4-6.3
		c-0.2-4,2.9-7.4,6.9-7.6l0,0l0,0l23-1.2C303.5,669.6,307,672.7,307.3,676.7L307.3,676.7z"/>
	<polygon class="st0" points="172.8,666.2 169.4,637.2 305.1,621.9 309.4,658.5 	"/>
	<path class="st0" d="M175.3,637.7l0.9,8c0,0.3,0.3,0.6,0.7,0.5h0.2c0.3,0,0.6-0.3,0.6-0.7l0,0l-0.9-8c0-0.1-0.1-0.2-0.2-0.2l0,0
		l0,0l-1.1,0.1C175.4,637.5,175.3,637.6,175.3,637.7z"/>
	<polygon class="st15" points="307.2,657 305.8,644.4 173.6,656.4 174.5,664.3 	"/>
	<path class="st0" d="M235.2,630.6l1.7,14.8c0,0.4,0.4,0.6,0.8,0.6h0.1c0.4,0,0.6-0.4,0.6-0.7l-1.7-14.8L235.2,630.6z"/>
	<path class="st0" d="M201.7,633.6l1.7,14.8c0,0.4,0.4,0.6,0.8,0.6h0.1c0.4,0,0.6-0.4,0.6-0.7l-1.7-14.8L201.7,633.6z"/>
	<path class="st0" d="M271.7,626.8l1.7,14.8c0,0.4,0.4,0.6,0.8,0.6h0.1c0.3,0,0.6-0.3,0.6-0.7l0,0l-1.7-14.8L271.7,626.8z"/>
	<path class="st0" d="M253.4,628.6l1.3,11.2c0.1,0.4,0.4,0.7,0.8,0.6l0,0c0.4-0.1,0.7-0.4,0.6-0.8l-1.3-11.2c0-0.1-0.1-0.2-0.2-0.2
		l0,0l0,0l-1.1,0.1C253.5,628.4,253.4,628.5,253.4,628.6L253.4,628.6L253.4,628.6z"/>
	<path class="st0" d="M218.5,632.4l1.3,11.2c0,0.4,0.4,0.7,0.8,0.6l0,0c0.4,0,0.7-0.4,0.7-0.8l0,0l-1.3-11.2c0-0.1-0.1-0.2-0.2-0.2
		l0,0l0,0l-1.1,0.1C218.6,632.2,218.5,632.3,218.5,632.4L218.5,632.4z"/>
	<path class="st0" d="M184.7,636.2l1.3,11.2c0,0.4,0.4,0.7,0.8,0.6l0,0c0.4,0,0.7-0.3,0.7-0.7v-0.1l0,0l-1.3-11.2
		c0-0.1-0.1-0.2-0.2-0.2l-1.1,0.1C184.8,636,184.7,636.1,184.7,636.2L184.7,636.2z"/>
	<path class="st0" d="M290.2,624.5l1.3,11.2c0.1,0.4,0.4,0.7,0.8,0.6l0,0c0.4,0,0.7-0.3,0.6-0.7c0,0,0,0,0-0.1l0,0l-1.3-11.3
		c0-0.1-0.1-0.2-0.2-0.2l0,0l0,0l-1.1,0.1C290.2,624.3,290.2,624.4,290.2,624.5L290.2,624.5z"/>
	<path class="st0" d="M262.4,627.2l0.9,8c0,0.3,0.3,0.6,0.7,0.6h0.2c0.3,0,0.6-0.3,0.5-0.7l0,0l0,0l-0.9-8c0-0.1-0.1-0.2-0.2-0.1
		l-1.1,0.1C262.5,627,262.4,627.1,262.4,627.2z"/>
	<path class="st0" d="M227.5,631.4l1,8c0,0.3,0.3,0.6,0.7,0.6h0.2c0.3,0,0.6-0.3,0.6-0.7l0,0l0,0l-0.9-8c0-0.1-0.1-0.2-0.2-0.2l0,0
		l-1.1,0.1C227.6,631.2,227.5,631.3,227.5,631.4L227.5,631.4z"/>
	<path class="st0" d="M193.7,635.3l0.9,8c0,0.3,0.3,0.6,0.7,0.5l0,0h0.2c0.3,0,0.6-0.3,0.6-0.7l0,0l0,0l-0.9-8
		c0-0.1-0.1-0.2-0.2-0.2l-1.1,0.1C193.8,635.1,193.7,635.2,193.7,635.3L193.7,635.3z"/>
	<path class="st0" d="M299.2,623.4l0.9,8c0,0.3,0.3,0.6,0.7,0.6h0.2c0.3,0,0.6-0.3,0.5-0.7l0,0l0,0l-0.9-8c0-0.1-0.1-0.2-0.2-0.2
		l-1.1,0.1C299.3,623.3,299.2,623.4,299.2,623.4z"/>
	<path class="st0" d="M244,629.6l0.9,8c0,0.3,0.3,0.6,0.7,0.5h0.2c0.3,0,0.6-0.3,0.6-0.7l0,0l-0.9-8c0-0.1-0.1-0.2-0.2-0.2l-1.1,0.1
		C244.1,629.5,244,629.5,244,629.6z"/>
	<path class="st0" d="M209.1,633.6l0.9,8c0,0.3,0.3,0.6,0.7,0.5l0,0h0.2c0.3,0,0.6-0.3,0.6-0.7l0,0l0,0l-0.9-8
		c0-0.1-0.1-0.2-0.2-0.2l-1.1,0.1C209.2,633.4,209.1,633.5,209.1,633.6L209.1,633.6z"/>
	<path class="st0" d="M280.8,625.9l0.9,8c0,0.3,0.3,0.6,0.7,0.5h0.2c0.3,0,0.6-0.3,0.5-0.7l-0.9-8c0-0.1-0.1-0.2-0.2-0.2l0,0
		l-1.1,0.1C280.8,625.7,280.8,625.8,280.8,625.9z"/>
	<path class="st0" d="M164,663.1l-3.2-27.5c-0.4-4,2.4-7.6,6.4-8l0,0l30.2-3.4l4,34.7L164,663.1z"/>
	<path class="st16" d="M257,524.4c0.6,1.9,4.2,5.1,6.2,4.9"/>
	<path class="st16" d="M217.9,520.5c2,0.6,6.6-0.8,7.5-2.5"/>
</g>
</svg>
