<?xml version="1.0" encoding="utf-8"?>
<!-- Generator: Adobe Illustrator 25.3.1, SVG Export Plug-In . SVG Version: 6.00 Build 0)  -->
<svg version="1.1" id="Layer_1" xmlns="http://www.w3.org/2000/svg" xmlns:xlink="http://www.w3.org/1999/xlink" x="0px" y="0px"
	 viewBox="0 0 391.8 801.1" style="enable-background:new 0 0 391.8 801.1;" xml:space="preserve" preserveAspectRatio="xMidYMid meet">
<style type="text/css">
	.st0{fill:none;stroke:#000000;stroke-width:0.6767;stroke-miterlimit:10;}
	.st1{opacity:0.4;fill:none;stroke:#000000;stroke-width:0.6767;stroke-miterlimit:10;enable-background:new    ;}
	.st2{opacity:0.8;fill:none;stroke:#000000;stroke-width:0.6767;stroke-miterlimit:10;enable-background:new    ;}
	.st3{opacity:0.3;fill:none;stroke:#000000;stroke-width:0.6767;stroke-miterlimit:10;enable-background:new    ;}
	.st4{opacity:0.5;fill:none;stroke:#000000;stroke-width:0.6767;stroke-miterlimit:10;enable-background:new    ;}
	.st5{opacity:0.31;fill:none;stroke:#000000;stroke-width:0.6767;stroke-miterlimit:10;enable-background:new    ;}
	.st6{fill:none;stroke:#000000;stroke-width:0.6767;stroke-linecap:round;stroke-linejoin:round;stroke-miterlimit:10;}
	.st7{fill:none;stroke:#000000;stroke-width:0.6767;stroke-linecap:round;stroke-miterlimit:10;}
	.st8{fill:none;stroke:#000000;stroke-width:0.25;stroke-miterlimit:10;}
	.st9{fill:none;stroke:#000000;stroke-width:0.3383;stroke-miterlimit:10;}
	.st10{fill:none;stroke:#000000;stroke-width:0.6767;stroke-miterlimit:9.9996;}
	.st11{fill:none;}
	.st12{opacity:0.2;fill:none;stroke:#000000;stroke-width:0.6767;stroke-miterlimit:10;enable-background:new    ;}
	.st13{fill:none;stroke:#000000;stroke-width:0.6767;stroke-miterlimit:10.0002;}
	.st14{opacity:8.000000e-02;fill:none;stroke:#000000;stroke-width:0.6767;stroke-miterlimit:10;enable-background:new    ;}
	.st15{fill:none;stroke:#000000;stroke-width:0.6767;stroke-miterlimit:9.9999;}
</style>
<g>
	<path class="st0" d="M275.1,401.1c0.3,11.6-17,16.4-26.5,18.9c-24.1,6.3-49,9.6-73.9,9.7c-24.1,0-49.8-0.1-73.7-5.3
		c-1.5-0.3-3.2-0.7-5.1-1.2c-10.3-0.4-20.7-1.3-31.1-2.6c-0.6-0.1-1.1-0.4-1.4-0.9c-0.1-0.1-0.1-0.2-0.1-0.4v-35
		c0-0.6,0.7-1,1.5-0.9c12.8,1.6,25.7,2.6,38.6,2.9c16.8-4.8,35.2-6.4,52.9-7c4.6-0.2,9.1-0.3,13.6-0.4c23.4-0.4,48.4-0.8,69.2,2.6
		C248.1,383,274.7,390.2,275.1,401.1z"/>
	<path class="st0" d="M147.9,389.4c0.2-0.6-0.1-1.3-0.8-1.5H147l-0.5-0.1l-27.8-7.3l-0.5-0.1c-0.7-0.2-1.3,0.2-1.5,0.9
		c0,0,0,0,0,0.1l-3.8,19.2c-0.3,1.7,0.8,3.2,2.4,3.5c0.7,0.1,1.4,0,2.1-0.3l12-7l7,12c0.9,1.4,2.8,1.9,4.2,1
		c0.6-0.4,1.1-0.9,1.3-1.6L147.9,389.4z"/>
	<path class="st0" d="M221.1,382.4c0-0.7-0.6-1.2-1.3-1.1h-0.1l-0.6,0.1l-28.6,3.4l-0.6,0.1c-0.7,0.1-1.1,0.7-1.1,1.4c0,0,0,0,0,0.1
		l3.5,19.3c0.3,1.6,1.9,2.7,3.5,2.4c0.7-0.1,1.4-0.5,1.8-1.1l8.6-11l10.9,8.6c1.3,1,3.2,0.7,4.2-0.6c0.4-0.6,0.6-1.3,0.6-2
		L221.1,382.4z"/>
	<path class="st0" d="M140.9,295.7c-4-1.1-8.3-2.3-13-3.6c-58.5-16.9-92.7-75.9-76.4-131.8c2.5-8.4,5.7-16.6,9.4-24.5l18.9,12.7
		l3.6-50.1l-45.3,22l19.5,13.1C51.2,145,46,157.2,43.1,167.4c-16.2,55.9,18,114.9,76.5,131.7c7.4,2.1,13.9,3.9,19.9,5.1L140.9,295.7
		z"/>
	<polygon class="st0" points="148.5,382.9 148.5,391.9 140.1,385.9 136.3,389.7 131.3,383.5 122.7,386.7 121.9,381.4 114.3,383.6 
		118.9,378.4 150.8,289.2 167.1,291.7 	"/>
	<polygon class="st0" points="219.6,378.4 222.6,383.6 213.5,382.1 211.3,387.4 205.2,382.9 197.6,389.7 196.8,384.3 187.8,388.9 
		189.3,382.1 182.2,284.3 203.4,281.9 	"/>
	<path class="st0" d="M245.3,270.7l-0.9,0.4c-8.5,3.6-18.2-0.4-21.9-8.8L204,218.9c-3.6-8.5,0.4-18.2,8.8-21.8l0.9-0.4
		c8.5-3.6,18.2,0.4,21.9,8.8l18.5,43.3C257.7,257.3,253.7,267.1,245.3,270.7z"/>
	<path class="st0" d="M212.3,309.1l15.2-76.8c9.8-28.9,17.9-41.6-42.5-47.5h-24.5C83,200,108.3,203.4,118,232.3l12.2,36.3
		C133.1,344.4,205.5,340.3,212.3,309.1z"/>
	<path class="st0" d="M212.3,311.6l15.1-76.2c0.1-0.4,0.2-0.7,0.3-1c9.7-28.5,17.3-41.1-42.2-47c-0.3,0-0.5,0-0.8,0h-23.2
		c-0.5,0-1.1,0.1-1.6,0.2c-76.5,15.1-51.4,18.6-41.7,47.4l11.9,35.2c0.2,0.7,0.4,1.5,0.4,2.3C133.8,346.8,205.5,342.5,212.3,311.6z"
		/>
	<path class="st0" d="M98.3,285.3L98.3,285.3c-11.1-3.2-17.5-14.8-14.3-25.9l13-45.2c3.3-11.1,14.9-17.5,26.1-14.3l0,0
		c11.1,3.2,17.6,14.8,14.4,26l0,0L124.4,271C121,282.1,109.4,288.4,98.3,285.3z"/>
	<path class="st0" d="M253.7,297.8l-2.4,0.8c-8.2,2.7-17.2-1.7-20-9.9l-9.2-27.4c-2.7-8.2,1.7-17.1,9.9-19.9l2.4-0.8
		c8.3-2.8,17.2,1.7,20,9.9l9.2,27.4C266.4,286.1,261.9,295,253.7,297.8z"/>
	<ellipse class="st0" cx="153.4" cy="229.5" rx="25.4" ry="25.3"/>
	<ellipse class="st0" cx="155.1" cy="225.8" rx="25.4" ry="25.3"/>
	<ellipse class="st0" cx="206.4" cy="230.7" rx="23.9" ry="23.8"/>
	<ellipse class="st0" cx="204.8" cy="227.2" rx="23.9" ry="23.8"/>
	<path class="st0" d="M205,87.2c-0.8,0.4-1.2,1.3-1,2.2c0.7,3.3,5.3,9.6,11.9,15.9s13.2,10.7,16.5,11.2c0.9,0.2,1.8-0.3,2.2-1.1l0,0
		l20.3-44.3c1.7-3.6-2.7-7.8-6.2-6L205,87.2z"/>
	<path class="st1" d="M204.3,105.7c-5.4-5.7-7.4-9.6-7.6-12.6c-0.1-0.8,2.2-2.2,3-2.6l0,0L243,68.7c2-1,5.9-3.4,6.9-1.9
		C250.5,67.9,211.2,99.5,204.3,105.7z"/>
	<ellipse class="st0" cx="176.3" cy="143.8" rx="61.7" ry="61.4"/>
	<ellipse class="st0" cx="165.3" cy="130.8" rx="16.6" ry="16.5"/>
	<ellipse class="st0" cx="170.4" cy="126.7" rx="6.4" ry="6.4"/>
	<ellipse class="st0" cx="157.8" cy="136.7" rx="3.2" ry="3.2"/>
	<ellipse class="st0" cx="224.5" cy="127.8" rx="16.6" ry="16.5"/>
	<ellipse class="st0" cx="229.6" cy="123.7" rx="6.4" ry="6.4"/>
	<ellipse class="st0" cx="217" cy="133.8" rx="3.2" ry="3.2"/>
	<path class="st2" d="M123.3,139.8c1.7-21.3,6.7-39.2,23.3-50.2c-20,10.7-32.5,31.4-32.5,54.1c0,33.9,27.6,61.4,61.7,61.4
		c12.1,0,24-3.5,34.1-10.2c-8.7,4.6-18.7,8.9-29.2,7.3C129.4,194.1,121.8,158.6,123.3,139.8z"/>
	<path class="st0" d="M204.3,88.3c0,0-15.9,3.4-42.4,11.2s-44.5,14.9-44.5,14.9l1.1-10.5l4-34.4l2.3-19.8l4-34.4l1.7-14.5l6,7.1
		l14.3,17l8.2,9.8l14.3,17l8.1,9.7l14.3,17L204.3,88.3z"/>
	<polygon class="st0" points="173.4,51.6 118.2,104.3 122.2,69.6 159,34.5 	"/>
	<path class="st0" d="M196,78.5l-14,13.4l-0.6,0.2l-22.1,6.6l-0.8,0.2l-23.1,6.9l-0.4,0.1l46.6-44.5L196,78.5z"/>
	<polygon class="st0" points="150.7,24.6 124.5,49.6 128.5,14.9 136.3,7.5 	"/>
	<path class="st0" d="M214.3,161.5c-2.7,5.1-5.9,9.9-9.5,14.4c-2.7,3.2-5.7,6.2-8.8,7.8c-0.4,0.4-2.4,0.7-2.8-0.5
		c-2.2-3.4-4.1-7.2-5.4-11c-2.4-6.9-1.7-11-1.7-11c0.1-0.6,0.5-1.2,1-1.6c1.4-1,3.9-1.9,7.1-2.4c2.5-0.4,4.9-0.6,7.4-0.6
		c1.5,0,3.1,0.1,4.6,0.3c2.4,0.2,4.7,0.9,6.9,1.8l0.4,0.2C214.5,159.5,215,160.6,214.3,161.5z"/>
	<path class="st0" d="M194.2,157.2l-2.8,9c-0.2,0.6-0.8,1-1.5,0.8l0,0c-0.4-0.1-0.6-0.4-0.8-0.8l-2.1-6.6
		C188.4,158.5,191,157.7,194.2,157.2z"/>
	<path class="st0" d="M213.2,158.7l-2,6.5c-0.2,0.6-0.8,1-1.5,0.8c-0.4-0.1-0.6-0.4-0.8-0.8l-2.6-8.3
		C208.7,157.2,211,157.8,213.2,158.7z"/>
	<path class="st0" d="M204.8,175.9c-2.7,3.2-5.7,6.2-8.8,7.8c-0.4,0.4-2.4,0.7-2.8-0.5c-2.2-3.4-4.1-7.2-5.4-11
		c1.3-0.8,2.7-1.3,4.2-1.6c0.8-0.1,1.6-0.2,2.3-0.2c0.9,0,1.9,0.1,2.8,0.3C200.2,171.4,203,173.3,204.8,175.9z"/>
	<polygon class="st0" points="204.7,145.8 196.5,152.2 208.9,150.7 	"/>
	<polygon class="st0" points="204.7,145.8 200,138.4 204.4,146.3 196.5,152.2 	"/>
	<polygon class="st0" points="186.2,210.3 182.8,196.5 196.1,200 	"/>
	<path class="st0" d="M163.9,272.7c-0.9-0.6-1.7-1.2-2.5-1.9c1,1.5,2.3,2.8,3.8,3.8c5.6,3.5,13,1.7,16.5-3.9
		c0.2-0.3,0.3-0.5,0.4-0.8C177.5,275.2,169.8,276.4,163.9,272.7z"/>
	<path class="st0" d="M164.4,286.7c-1-0.4-1.9-1-2.7-1.6c4.2,5.1,11.7,5.8,16.8,1.6c1.4-1.2,2.5-2.6,3.3-4.3
		c0.1-0.3,0.2-0.5,0.3-0.8C178.2,287.4,170.7,289.6,164.4,286.7z"/>
	<path class="st0" d="M202.4,273.7c0.9-0.4,1.7-1,2.5-1.6c-1.1,1.4-2.4,2.5-4,3.2c-5.6,2.8-12.5,0.5-15.3-5.1
		c-0.1-0.3-0.2-0.5-0.3-0.8C189.2,274.9,196.4,276.7,202.4,273.7z"/>
	<path class="st0" d="M201.9,286.8c0.9-0.4,1.8-0.8,2.6-1.4c-4.2,4.7-11.4,5-16.1,0.8c-1.3-1.2-2.3-2.6-2.9-4.2
		c-0.1-0.3-0.2-0.5-0.3-0.8C188.7,286.9,195.7,289.3,201.9,286.8z"/>
	<path class="st0" d="M117.2,317.8l-0.5,0.2c-8.8,2.9-18.2-1.8-21.2-10.5l-11.1-32.9c-2.9-8.7,1.8-18.2,10.6-21.1l0.5-0.2
		c8.8-2.9,18.2,1.8,21.2,10.5l11.1,32.9C130.6,305.4,125.9,314.8,117.2,317.8L117.2,317.8z"/>
	<path class="st0" d="M178.8,347.7l1.5,23.2h42.9l-6.4-79.2c0,0-30.1,21.1-83.9,0c-0.5,5.4-27,79.6-27,79.8H172L178.8,347.7z"/>
	<polygon class="st0" points="179.8,347.7 185.6,339.1 188.6,370.3 181.5,370.3 	"/>
	<path class="st0" d="M179.1,309.6c-20.8,0-39.6-6.5-47.1-10.9c0.3-0.9,0.7-2.6,1.6-5.7c13.1,4.6,28.3,9.5,44.3,9.5
		c12.9,0,25.3-3,38-9.2l0.6,7.7C205.7,306.6,193.2,309.6,179.1,309.6z"/>
	<polygon class="st0" points="144.4,306 143,305.6 145.6,296.6 147,297 	"/>
	<polygon class="st0" points="208.9,305.6 207.5,306 205.4,296.9 206.8,296.6 	"/>
	<ellipse class="st0" cx="184" cy="306.2" rx="14.5" ry="14.5"/>
	<path class="st0" d="M193,296.9l-1.9,7.1l6.1,4.3c0.7,0.5,0.9,1.5,0.4,2.2c-0.3,0.4-0.7,0.7-1.2,0.7l-7.4,0.4l-2.2,7.1
		c-0.3,0.9-1.2,1.3-2,1.1l0,0c-0.5-0.1-0.8-0.5-1-1l-2.8-6.9l-7.4,0.1c-0.9,0-1.6-0.7-1.6-1.6l0,0c0-0.5,0.2-1,0.6-1.3l5.7-4.7
		l-2.3-7c-0.3-0.8,0.2-1.8,1-2c0.5-0.2,1-0.1,1.4,0.2l6.3,4l5.9-4.4c0.7-0.5,1.7-0.4,2.3,0.3C193.1,295.9,193.2,296.4,193,296.9
		L193,296.9z"/>
	<polygon class="st0" points="131.8,300.6 108.6,368.8 122,369.3 	"/>
	<path class="st3" d="M121.5,105L121.5,105c-0.3,2.7,1.7,5.2,4.4,5.5c0.7,0.1,1.4,0,2-0.2l12.8-5.3l-9.1-86.5c0-0.4-0.4-0.7-0.8-0.6
		c-0.3,0-0.6,0.3-0.6,0.6L121.5,105z"/>
	<path class="st0" d="M147.8,101.9c0.9,0.5,1.3,1.4,1.2,2.4c-0.5,3.4-5,9.9-11.6,16.2s-13.3,10.6-16.8,10.9c-1,0.1-1.9-0.4-2.4-1.3
		l0,0L93.7,81.6c-1.1-2.2-0.2-4.9,2-6.1c1.3-0.7,2.9-0.6,4.2,0.1L147.8,101.9z"/>
	<path class="st4" d="M132.4,123.1c-5.4,5-9.2,6.7-12.2,6.8c-0.8,0-2.1-2.2-2.5-2.9l0,0L96.4,84.5c-1-2-3.4-5.8-1.9-6.7
		C95.6,77.2,126.4,116.2,132.4,123.1z"/>
	<path class="st0" d="M169,495.8L169,495.8c-0.4,0.8-0.3,1.8,0.2,2.6l5.6,8.9c0.2,0.3,0.3,0.7,0.4,1l1.3,7.6c0.1,0.9,0.7,1.6,1.4,2
		c9.2,4.9,66.7,28.8,78.6,31.2c1,0.2,2-0.1,2.6-0.9l2-2.2c0.4-0.4,0.8-0.7,1.3-0.8l14.2-4.1c0.9-0.2,1.6-0.9,1.9-1.8l1.8-5.6
		c0.5-1.4-0.3-3-1.8-3.5l-106-35.9C171.1,493.9,169.6,494.5,169,495.8z"/>
	<path class="st0" d="M321.4,402.7c1-6.9-0.3-13.9-3.7-19.9l0,0c0.4-28.1-55.8-45.7-68.5-27.1c-0.2,0.6-0.5,1.1-0.9,1.6l0,0
		c-5.9,1.5-10.7,4.1-13.5,7.9l-65.7,130.4c36.8,14.6,73,29.7,108.8,45.2L321.4,402.7z"/>
	<path class="st5" d="M252.7,516.6L252.7,516.6c-1.3-0.5-1.9-1.9-1.4-3.2L300,384.1c0.5-1.3,1.5-3,2.9-2.4l2.2,1.7
		c1.3,0.5,1.9,1.9,1.5,3.2l0,0L256,515.2C255.5,516.5,254.1,517.2,252.7,516.6C252.8,516.7,252.8,516.7,252.7,516.6L252.7,516.6z"/>
	<path class="st6" d="M317.7,382.6c-0.2-28.2-55-44.7-68.3-27.1C261.3,332.2,323.9,353.6,317.7,382.6L317.7,382.6z"/>
	<path class="st7" d="M248.4,357.2c19.8-7.8,61.3,11.1,69.4,25.4"/>
	<path class="st0" d="M169,495.6l3.1-6.3c16.9,5.3,105.7,40.9,108,44.4l-2.3,7.1L169,495.6z"/>
	<path class="st5" d="M216,436.3c-1.4-0.4-3.6-0.9,0.3-10.6c0.1-0.2,9.7-23.5,14.9-26.7c1.3-0.8,4.7-0.5,3.3,6.2
		C233.7,408.8,223.3,437.8,216,436.3 M232.9,397.7c-5.4-0.2-22.8,35.5-18.9,39c7.4,6.7,22.3-27.1,22-35
		C235.8,398,233.7,397.8,232.9,397.7 M212.8,441.1c-17.2-3.7,4.9-38.4,14.2-44.5c9.1-5.9,21.1-1.3,17.8,15
		C241.8,426,228.2,444.1,212.8,441.1 M236.7,393.2c-17.6-2-35.4,38.5-29.6,46c8.1,10.5,35.8-3.4,39.1-29.4
		C247.7,398.7,242,393.9,236.7,393.2"/>
	<path class="st5" d="M215.6,437.3c-2.1-0.5-4-1.7-0.5-10.7c0.1-0.2,10.1-24.8,15.9-28.4c2.1-1.4,6.2-0.5,4.5,7.2
		C235.4,405.8,224.8,439.2,215.6,437.3 M236.2,394.2c-17-1.9-33.9,37-28.3,44.2c7.7,9.8,33.9-3.8,37.2-28.5
		C246.5,399.3,241.5,394.9,236.2,394.2"/>
	<path class="st6" d="M230,453.5l-0.3-2.4c10.6-2.2,8.4-6,8.4-6c-0.8-0.5-1.8-0.8-2.5-1.5c-0.4-0.5-0.7-1.2-0.6-1.8
		c0.1-1.1,1.3-4.1,3.7-4.5c3.2-0.6,9.4,2.6,4.4,10.2C240.7,450.9,236.8,452.8,230,453.5 M241.9,436.5c-6.7-2.2-9.1,4.9-7.8,7.2
		c0.6,0.9,1.4,1.5,2.4,2c0.3,0.2,0.5,0.6,0.3,0.9c-0.7,1-2.1,2.3-7,3.3c-0.8,0-1.4,0.7-1.4,1.4c0.5,3.6,0.5,3.6,4.3,3
		c7.4-1.2,9.9-4.4,10.7-5.4C245.5,446.4,249.1,439.2,241.9,436.5"/>
	<path class="st5" d="M263.6,450.4c-1.2-0.7-3.7-2.1-0.5-11.1c0.1-0.2,7.4-20.6,12.2-22c4.4-1.3,5.9,8.3-4.7,27.9
		C266.8,452.1,264.5,450.9,263.6,450.4 M276.8,416.4c-5.9-3-18,26.8-16.1,32.4c0,0.1,4.6,9.6,11.4-3.8
		C283,423.2,280.3,418.3,276.8,416.4 M260.7,454.3c-17.1-9.4-5.9-37.4,8.5-41.6c11.8-3.5,25.7,9.7,13.3,32.7
		C277.1,455.5,269.1,458.8,260.7,454.3 M280.1,413c-16.7-9-32.8,17.2-28.4,32c3.5,11.8,21,20.4,31.4,1.7
		C291.1,432.3,289.8,418.5,280.1,413"/>
	<path class="st5" d="M263.1,451.5c-2.2-1.3-4.2-3.7-1.4-11.8c0.1-0.2,7.7-22.2,13.3-23.5c7.7-1.8,5.3,15.7-4.3,31.3
		C267.3,452.8,264.9,452.4,263.1,451.5 M279.6,414c-15.7-8.5-30.9,16.6-26.8,30.7c3.2,11,19.5,18.8,29.4,1.2
		C289.8,432.3,288.8,419.1,279.6,414"/>
	<path class="st8" d="M299.2,460.6c-0.7-1.4,2.7-9,3.9-8.6c1.5,0.5-2.4,8.6-3.1,9.1C299.6,461.2,299.3,460.9,299.2,460.6
		 M303.7,451.4c-1.3-2.5-4.4,5.6-4.7,6.8c-1.2,3.7,0.2,4.2,0.7,4C300.8,461.4,304.5,453.1,303.7,451.4 M298,463.2
		c-2.3-4.6,2.8-15.7,5.4-14.6c3.4,1.5-1.9,14.6-4,15.5C299.1,464.3,298.6,464.3,298,463.2 M304.8,448.8c-1.9-3.8-5.2,0.4-7.1,6.4
		c-2.2,6.9,0.1,10.7,1.4,10S306.2,452.2,304.8,448.8 M298.3,438.7c-0.3-0.3-1-1,0.2-4c0.5-1.1,1.9-4.4,3.4-4.6c0,0,1.8-0.1,1.5,2.4
		c-0.5,2.2-1.3,4.3-2.6,6.2C299.9,439.9,299,439.4,298.3,438.7 M303.6,429.7c-3.4-3.3-6.6,5.8-6.6,7.8c0,2.2,2.1,4,3.7,2.5
		C302.2,438.7,305.5,431.8,303.6,429.7 M297,441.3c-5.3-5.6,0-15.3,3.9-15.1c2.6,0.4,4.6,2.7,4.7,5.3c0.2,3.3-2.3,8.9-3.9,10.4
		C300.2,443.2,298.8,443.1,297,441.3 M290.9,454.2c6.7-5.9,13-12.5,18.6-19.5l0.2,0.4l0.2,0.4l0.1,0.4l0.1,0.4
		c-5.2,7.1-11.1,13.6-17.6,19.6l-0.4-0.4l-0.4-0.4l-0.4-0.4L290.9,454.2 M310.5,435.2c0-0.1-0.1-0.2-0.1-0.4l-0.1-0.4l-0.2-0.4
		l-0.2-0.4l-0.1-0.1c-0.1,0-0.2,0.1-0.3,0.2c-3.3,4-3.7,4.4-6.3,7.3c6.9-12,0.2-17-3.6-15.9c-5.5,1.7-8.8,14.3-1.4,18.4
		c0.7,0.5,1.6,0.6,2.4,0.3c-3.3,3.2-7,6-10.1,9.5c-0.5,0.6-0.5,1.4,0,2l0.4,0.4l0.4,0.4l0.4,0.4l0.4,0.4c0.3,0.2,0.4,0.2,0.7,0
		c10.2-10,18.3-19.9,17.8-21.5"/>
	<path class="st9" d="M298.7,461.6c-1.2-2.6,3.3-11.2,4.6-10.7c1.9,0.6-2.3,10.4-3.6,11.3C299.5,462.3,299.1,462.4,298.7,461.6
		 M297.8,439.7c-0.7-0.8-1.4-2.2,0-5.6c0.8-2,2.5-5.3,4.4-5.1c4,0.4,0.7,9-1.5,11.1C299.7,440.9,298.7,440.8,297.8,439.7
		 M309.9,436.2l-0.1-0.4l-0.1-0.4l-0.2-0.4l-0.2-0.4c-5.6,7-11.8,13.5-18.5,19.4l0.4,0.4l0.4,0.4l0.4,0.4l0.4,0.4
		C298.9,449.8,304.8,443.3,309.9,436.2"/>
	
		<ellipse transform="matrix(0.383 -0.9237 0.9237 0.383 -309.1772 482.727)" class="st10" cx="206.8" cy="472.8" rx="17.6" ry="17.8"/>
	
		<ellipse transform="matrix(0.383 -0.9237 0.9237 0.383 -308.3563 483.3847)" class="st10" cx="207.7" cy="472.5" rx="15.7" ry="15.9"/>
	<path class="st0" d="M204,483c-6.7-2.9-9.8-10.6-6.9-17.2c2.9-6.7,10.6-9.8,17.2-6.9c6.6,2.8,9.7,10.5,7,17.1
		c-2.8,6.7-10.5,9.9-17.2,7.1C204.1,483,204,483,204,483z"/>
	
		<ellipse transform="matrix(0.383 -0.9237 0.9237 0.383 -299.3801 561.042)" class="st10" cx="270.3" cy="504.6" rx="17.6" ry="17.8"/>
	<path class="st0" d="M265.2,518.8c-8-3.4-11.7-12.6-8.3-20.6c3.4-8,12.6-11.7,20.6-8.3c7.9,3.4,11.7,12.5,8.4,20.5
		c-3.3,8-12.5,11.8-20.6,8.5C265.3,518.9,265.3,518.9,265.2,518.8z"/>
	<path class="st0" d="M267.5,514.8c-6.7-2.8-9.8-10.6-6.9-17.2c2.8-6.7,10.6-9.8,17.2-6.9c6.6,2.8,9.8,10.5,7,17.1
		C282,514.5,274.3,517.6,267.5,514.8C267.6,514.8,267.5,514.8,267.5,514.8z"/>
	<path class="st0" d="M169,495.8L169,495.8c-0.4,0.8-0.3,1.8,0.2,2.6l5.6,8.9c0.2,0.3,0.3,0.7,0.4,1l1.3,7.6c0.1,0.9,0.7,1.6,1.4,2
		c9.2,4.9,66.7,28.8,78.6,31.2c1,0.2,2-0.1,2.6-0.9l2-2.2c0.4-0.4,0.8-0.7,1.3-0.8l14.2-4.1c0.9-0.2,1.6-0.9,1.9-1.8l1.8-5.6
		c0.5-1.4-0.3-3-1.8-3.5l-106-35.9C171.1,493.9,169.6,494.5,169,495.8z"/>
	<path class="st0" d="M321.4,402.7c1-6.9-0.3-13.9-3.7-19.9l0,0c0.4-28.1-55.8-45.7-68.5-27.1c-0.2,0.6-0.5,1.1-0.9,1.6l0,0
		c-5.9,1.5-10.7,4.1-13.5,7.9l-65.7,130.4c36.8,14.6,73,29.7,108.8,45.2L321.4,402.7z"/>
	<path class="st5" d="M252.7,516.6L252.7,516.6c-1.3-0.5-1.9-1.9-1.4-3.2L300,384.1c0.5-1.3,1.5-3,2.9-2.4l2.2,1.7
		c1.3,0.5,1.9,1.9,1.5,3.2l0,0L256,515.2C255.5,516.5,254.1,517.2,252.7,516.6C252.8,516.7,252.8,516.7,252.7,516.6L252.7,516.6z"/>
	<path class="st11" d="M248.4,357c19.8-7.8,61.3,11.3,69.4,25.6"/>
	<path class="st0" d="M169,495.6l3.1-6.3c16.9,5.3,105.7,40.9,108,44.4l-2.3,7.1L169,495.6z"/>
	<path class="st5" d="M216,436.3c-1.4-0.4-3.6-0.9,0.3-10.6c0.1-0.2,9.7-23.5,14.9-26.7c1.3-0.8,4.7-0.5,3.3,6.2
		C233.7,408.8,223.3,437.8,216,436.3 M232.9,397.7c-5.4-0.2-22.8,35.5-18.9,39c7.4,6.7,22.3-27.1,22-35
		C235.8,398,233.7,397.8,232.9,397.7 M212.8,441.1c-17.2-3.7,4.9-38.4,14.2-44.5c9.1-5.9,21.1-1.3,17.8,15
		C241.8,426,228.2,444.1,212.8,441.1 M236.7,393.2c-17.6-2-35.4,38.5-29.6,46c8.1,10.5,35.8-3.4,39.1-29.4
		C247.7,398.7,242,393.9,236.7,393.2"/>
	<path class="st5" d="M215.6,437.3c-2.1-0.5-4-1.7-0.5-10.7c0.1-0.2,10.1-24.8,15.9-28.4c2.1-1.4,6.2-0.5,4.5,7.2
		C235.4,405.8,224.8,439.2,215.6,437.3 M236.2,394.2c-17-1.9-33.9,37-28.3,44.2c7.7,9.8,33.9-3.8,37.2-28.5
		C246.5,399.3,241.5,394.9,236.2,394.2"/>
	<path class="st5" d="M263.6,450.4c-1.2-0.7-3.7-2.1-0.5-11.1c0.1-0.2,7.4-20.6,12.2-22c4.4-1.3,5.9,8.3-4.7,27.9
		C266.8,452.1,264.5,450.9,263.6,450.4 M276.8,416.4c-5.9-3-18,26.8-16.1,32.4c0,0.1,4.6,9.6,11.4-3.8
		C283,423.2,280.3,418.3,276.8,416.4 M260.7,454.3c-17.1-9.4-5.9-37.4,8.5-41.6c11.8-3.5,25.7,9.7,13.3,32.7
		C277.1,455.5,269.1,458.8,260.7,454.3 M280.1,413c-16.7-9-32.8,17.2-28.4,32c3.5,11.8,21,20.4,31.4,1.7
		C291.1,432.3,289.8,418.5,280.1,413"/>
	<path class="st5" d="M263.1,451.5c-2.2-1.3-4.2-3.7-1.4-11.8c0.1-0.2,7.7-22.2,13.3-23.5c7.7-1.8,5.3,15.7-4.3,31.3
		C267.3,452.8,264.9,452.4,263.1,451.5 M279.6,414c-15.7-8.5-30.9,16.6-26.8,30.7c3.2,11,19.5,18.8,29.4,1.2
		C289.8,432.3,288.8,419.1,279.6,414"/>
	<path class="st9" d="M299.2,460.6c-0.7-1.4,2.7-9,3.9-8.6c1.5,0.5-2.4,8.6-3.1,9.1C299.6,461.2,299.3,460.9,299.2,460.6
		 M303.7,451.4c-1.3-2.5-4.4,5.6-4.7,6.8c-1.2,3.7,0.2,4.2,0.7,4C300.8,461.4,304.5,453.1,303.7,451.4 M304.8,448.8
		c-1.9-3.8-5.2,0.4-7.1,6.4c-2.2,6.9,0.1,10.7,1.4,10S306.2,452.2,304.8,448.8 M298.3,438.7c-0.3-0.3-1-1,0.2-4
		c0.5-1.1,1.9-4.4,3.4-4.6c0,0,1.8-0.1,1.5,2.4c-0.5,2.2-1.3,4.3-2.6,6.2C299.9,439.9,299,439.4,298.3,438.7 M303.6,429.7
		c-3.4-3.3-6.6,5.8-6.6,7.8c0,2.2,2.1,4,3.7,2.5C302.2,438.7,305.5,431.8,303.6,429.7 M297,441.3c-5.3-5.6,0-15.3,3.9-15.1
		c2.6,0.4,4.6,2.7,4.7,5.3c0.2,3.3-2.3,8.9-3.9,10.4C300.2,443.2,298.8,443.1,297,441.3 M290.9,454.2c6.7-5.9,13-12.5,18.6-19.5
		l0.2,0.4l0.2,0.4l0.1,0.4l0.1,0.4c-5.2,7.1-11.1,13.6-17.6,19.6l-0.4-0.4l-0.4-0.4l-0.4-0.4L290.9,454.2 M310.5,435.2
		c0-0.1-0.1-0.2-0.1-0.4l-0.1-0.4l-0.2-0.4l-0.2-0.4l-0.1-0.1c-0.1,0-0.2,0.1-0.3,0.2c-3.3,4-3.7,4.4-6.3,7.3
		c6.9-12,0.2-17-3.6-15.9c-5.5,1.7-8.8,14.3-1.4,18.4c0.7,0.5,1.6,0.6,2.4,0.3c-3.3,3.2-7,6-10.1,9.5c-0.5,0.6-0.5,1.4,0,2l0.4,0.4
		l0.4,0.4l0.4,0.4l0.4,0.4c0.3,0.2,0.4,0.2,0.7,0c10.2-10,18.3-19.9,17.8-21.5"/>
	<path class="st9" d="M298.7,461.6c-1.2-2.6,3.3-11.2,4.6-10.7c1.9,0.6-2.3,10.4-3.6,11.3C299.5,462.3,299.1,462.4,298.7,461.6
		 M309.9,436.2l-0.1-0.4l-0.1-0.4l-0.2-0.4l-0.2-0.4c-5.6,7-11.8,13.5-18.5,19.4l0.4,0.4l0.4,0.4l0.4,0.4l0.4,0.4
		C298.9,449.8,304.8,443.3,309.9,436.2"/>
	
		<ellipse transform="matrix(0.383 -0.9237 0.9237 0.383 -309.1772 482.727)" class="st10" cx="206.8" cy="472.8" rx="17.6" ry="17.8"/>
	
		<ellipse transform="matrix(0.383 -0.9237 0.9237 0.383 -308.3563 483.3847)" class="st10" cx="207.7" cy="472.5" rx="15.7" ry="15.9"/>
	<path class="st0" d="M204,483c-6.7-2.9-9.8-10.6-6.9-17.2c2.9-6.7,10.6-9.8,17.2-6.9c6.6,2.8,9.7,10.5,7,17.1
		c-2.8,6.7-10.5,9.9-17.2,7.1C204.1,483,204,483,204,483z"/>
	
		<ellipse transform="matrix(0.383 -0.9237 0.9237 0.383 -299.3801 561.042)" class="st10" cx="270.3" cy="504.6" rx="17.6" ry="17.8"/>
	<path class="st0" d="M265.2,518.8c-8-3.4-11.7-12.6-8.3-20.6c3.4-8,12.6-11.7,20.6-8.3c7.9,3.4,11.7,12.5,8.4,20.5
		c-3.3,8-12.5,11.8-20.6,8.5C265.3,518.9,265.3,518.9,265.2,518.8z"/>
	<path class="st0" d="M267.5,514.8c-6.7-2.8-9.8-10.6-6.9-17.2c2.8-6.7,10.6-9.8,17.2-6.9c6.6,2.8,9.8,10.5,7,17.1
		C282,514.5,274.3,517.6,267.5,514.8C267.6,514.8,267.5,514.8,267.5,514.8z"/>
	<path class="st7" d="M208.2,510.5c12.9-16,38.7-12.1,31.3,13"/>
	<path class="st0" d="M250.3,518.7c-77.7,0-140.7,63-140.7,140.7S172.6,800,250.3,800S391,737.1,391,659.4S328,518.7,250.3,518.7z
		 M250.3,664.4c-2.7,0-5-2.2-5-4.9s2.2-5,4.9-5s5,2.2,5,4.9l0,0C255.2,662.1,253,664.3,250.3,664.4z"/>
	<path class="st0" d="M290.8,534.8l-30.1,79.1c-0.8,2.1,0.2,4.4,2.2,5.4c11.9,5.1,20.9,14.2,27,27.2c1,2,3.3,2.9,5.4,2.2l79.2-30.1
		c2.2-0.8,3.3-3.3,2.4-5.5c0,0,0,0,0-0.1c-15.1-38-41.3-65.8-80.6-80.6C294,531.5,291.6,532.6,290.8,534.8z"/>
	<path class="st0" d="M250.3,596.2c-34.9,0-63.2,28.3-63.2,63.2s28.3,63.2,63.2,63.2s63.2-28.3,63.2-63.2S285.2,596.2,250.3,596.2
		L250.3,596.2z M250.3,664c-2.5,0-4.6-2-4.6-4.6s2-4.6,4.6-4.6c2.5,0,4.6,2,4.6,4.6l0,0C254.9,661.9,252.8,664,250.3,664L250.3,664
		L250.3,664z"/>
	<path class="st0" d="M250.3,800.7c-77.9,0-141.1-63.3-141-141.2s63.3-141.1,141.2-141s141.1,63.3,141,141.2
		c0,37.4-14.9,73.2-41.3,99.7C323.7,785.9,287.8,800.8,250.3,800.7z M250.3,519.4c-77.3,0-140.2,62.9-140.2,140.2
		S173,799.7,250.3,799.7s140.2-62.9,140.2-140.2S327.6,519.4,250.3,519.4z"/>
	<path class="st0" d="M250.3,605.8c-29.6,0-53.6,24-53.6,53.6s24,53.6,53.6,53.6s53.6-24,53.6-53.6l0,0
		C303.9,629.8,279.9,605.8,250.3,605.8L250.3,605.8z M250.3,664c-2.5,0-4.6-2-4.6-4.6s2-4.6,4.6-4.6c2.5,0,4.6,2,4.6,4.6l0,0
		C254.9,661.9,252.8,664,250.3,664L250.3,664z"/>
	<path class="st0" d="M250.3,784.9c-69.1,0-125.4-56.3-125.4-125.4s56.3-125.4,125.4-125.4s125.4,56.3,125.4,125.4
		S319.4,784.9,250.3,784.9z M250.3,534.9c-68.7,0-124.7,55.9-124.7,124.7s55.9,124.7,124.7,124.7S375,728.3,375,659.5
		S319,534.9,250.3,534.9L250.3,534.9z"/>
	<path class="st0" d="M252.8,769.3c-61.9,0-112.2-50.4-112.2-112.2S191,544.9,252.8,544.9S365,595.2,365,657.1
		S314.7,769.3,252.8,769.3z M252.8,545.6c-61.5,0-111.5,50-111.5,111.5s50,111.5,111.5,111.5s111.5-50,111.5-111.5
		S314.2,545.6,252.8,545.6L252.8,545.6z"/>
	<path class="st0" d="M250.3,758.8c-54.7,0-99.3-44.5-99.3-99.3s44.6-99.3,99.3-99.3s99.3,44.5,99.3,99.3S305,758.8,250.3,758.8z
		 M250.3,561c-54.3,0-98.5,44.2-98.5,98.5S196,758,250.3,758s98.5-44.2,98.5-98.5S304.6,561,250.3,561z"/>
	<path class="st0" d="M250.3,738.1c-43.4,0-78.5-35.1-78.5-78.5s35.1-78.5,78.5-78.5s78.5,35.1,78.5,78.5
		C328.7,702.9,293.6,738,250.3,738.1z M250.3,581.7c-43,0-77.8,34.8-77.8,77.8s34.8,77.8,77.8,77.8s77.8-34.8,77.8-77.8l0,0
		C328,616.6,293.2,581.8,250.3,581.7L250.3,581.7z"/>
	<path class="st0" d="M250.3,709.9c-2.5,0-4.7-1.6-5.5-4l-8.8-27.1h-28.5c-3.2,0-5.8-2.6-5.8-5.8c0-1.8,0.9-3.6,2.4-4.7l23.1-16.8
		l-8.8-27.1c-1-3,0.7-6.3,3.7-7.3c1.8-0.6,3.7-0.3,5.2,0.8l23.1,16.8l23.1-16.8c2.6-1.9,6.2-1.3,8.1,1.3c1.1,1.5,1.4,3.4,0.8,5.2
		l-8.8,27.1l23.1,16.8c2.6,1.9,3.1,5.5,1.3,8.1c-1.1,1.5-2.8,2.4-4.7,2.4h-28.6l-8.8,27.2C255,708.4,252.8,710,250.3,709.9z
		 M241.7,678.8l8.3,25.5c0,0.2,0.2,0.3,0.4,0.3s0.3-0.1,0.4-0.3l8.3-25.5H241.7z M266.3,673.4h26.8c0.2,0,0.3-0.1,0.4-0.3
		s0-0.3-0.1-0.4L271.7,657L266.3,673.4z M239.9,673.4h20.8l6.4-19.8l-16.8-12.2l-16.8,12.2L239.9,673.4z M228.9,657l-21.7,15.7
		c-0.1,0.1-0.2,0.3-0.1,0.4c0,0.2,0.2,0.3,0.4,0.3h26.8L228.9,657z M254.9,638.1l14,10.2l8.3-25.5c0.1-0.2,0-0.3-0.1-0.4
		c-0.1-0.1-0.3-0.1-0.5,0L254.9,638.1z M223.8,622.3c-0.1,0-0.2,0-0.2,0.1c-0.2,0.1-0.2,0.3-0.1,0.4l8.3,25.5l14-10.2l-21.7-15.7
		C224,622.3,223.9,622.3,223.8,622.3L223.8,622.3z"/>
	<circle class="st0" cx="279.9" cy="638.5" r="16.2"/>
	<circle class="st0" cx="273" cy="643.4" r="4.8"/>
	<circle class="st0" cx="283.7" cy="633.6" r="6.2"/>
	<circle class="st0" cx="220.2" cy="646.7" r="15.2"/>
	<circle class="st0" cx="225.1" cy="650.7" r="4.8"/>
	<circle class="st0" cx="214.4" cy="640.9" r="6.2"/>
	<path class="st0" d="M295.2,684.4c-0.2,0-0.4,0-0.6-0.1c-0.8-0.3-1.2-1.2-0.9-2c1.2-3.1,1.2-5.8,0.1-7.9c-1.6-3-5.4-5.3-11.4-6.8
		c-0.8-0.2-1.3-1.1-1.1-2c0.2-0.8,1-1.3,1.8-1.1c6.9,1.7,11.5,4.5,13.5,8.4c1.6,3,1.6,6.5,0.1,10.5
		C296.4,684,295.8,684.4,295.2,684.4z"/>
	<path class="st0" d="M219.6,667.6c0.1,0.1,0.3,0.3,0.3,0.5c0.4,0.8,0,1.7-0.7,2.1c-3,1.4-4.9,3.3-5.5,5.7
		c-0.9,3.3,0.3,7.6,3.6,12.8c0.4,0.8,0.2,1.7-0.6,2.2c-0.7,0.4-1.6,0.2-2.1-0.5c-3.8-6-5.2-11.2-4-15.4c0.9-3.3,3.4-5.8,7.2-7.7
		C218.4,667.1,219.1,667.2,219.6,667.6z"/>
	<path class="st0" d="M250.3,663.9c-2.5,0-4.5-2-4.5-4.5s2-4.5,4.5-4.5s4.5,2,4.5,4.5l0,0C254.8,661.9,252.8,663.9,250.3,663.9z
		 M250.3,655c-2.4,0-4.4,2-4.4,4.4s2,4.4,4.4,4.4s4.4-2,4.4-4.4l0,0C254.7,657,252.7,655,250.3,655z"/>
	<path class="st0" d="M171.6,404.3c-0.5-1.9-0.6-5.1-0.9-7.3c-3.8-27.2-43.4-44.1-88.5-37.8S2.9,388.9,7.6,419.7
		c0.3,1.6,0.6,3.2,1.1,4.7c-0.2,0.1-0.3,0.2-0.4,0.3c0.5,5.4-14.6,13.2-4.4,48.6l58.7,193.6c17.8,44.8,111.2,46.6,115-20l10.1-203.8
		c0.2-3.9-0.1-7.7-0.9-11.5C183.3,416.3,173.3,406.9,171.6,404.3z"/>
	<path class="st0" d="M87,379.4c-38.4,5.1-67.8,24.8-64,51.1c1.2,8,6,15,13.4,20.6c16,6.9,37,9.5,59.6,6.4
		c27.6-3.9,50.8-15.6,63.8-30.3c2.2-4.7,3-10,2.4-15.2C159.1,388.9,125.5,374.3,87,379.4z"/>
	<path class="st0" d="M186.9,457.3l-9.6,192.8c-3.8,66.6-97.2,64.8-115,20L4.6,479.7C42.2,539.1,162.7,520.7,186.9,457.3z"/>
	<path class="st0" d="M111.3,454.5c20.7-5.4,37.8-15.3,48.3-27.2c2.2-4.7,3-10,2.4-15.2c-3.1-23.1-36.7-37.7-75.1-32.6
		c-1.3,0.2-2.6,0.3-3.9,0.6l-1.3,0.2l-2.6,0.5l-1.6,0.3l-2.4,0.5l-1.4,0.3c-0.8,0.2-1.6,0.4-2.3,0.6c-0.5,0.1-1,0.2-1.5,0.4
		l-1.2,0.3l-1.9,0.5l-1.2,0.3l-1.9,0.6l-1.1,0.4c-0.7,0.2-1.4,0.5-2.1,0.7l-0.8,0.3c-1,0.4-1.9,0.7-2.8,1.1l-0.5,0.2l-2.2,0.9
		l-0.9,0.4l-1.7,0.8l-1,0.5l-1.6,0.8l-0.9,0.5l-1.6,0.9l-0.9,0.5l-1.7,1.1l-0.6,0.4c-0.8,0.5-1.5,1-2.2,1.5l-0.5,0.3l-1.6,1.2
		l-0.7,0.5l-1.3,1c-0.3,0.2-0.5,0.4-0.7,0.6l-1.2,1l-0.7,0.7c-0.4,0.4-0.8,0.7-1.2,1.1l-0.6,0.6c-0.4,0.5-0.9,0.9-1.3,1.4l-0.3,0.4
		c-0.5,0.6-1,1.2-1.5,1.8c-0.1,0.2-0.2,0.3-0.4,0.5c-0.3,0.5-0.7,0.9-1,1.4l-0.4,0.7c-0.3,0.4-0.5,0.8-0.8,1.2l-0.4,0.8
		c-0.2,0.4-0.5,0.8-0.7,1.2c-0.2,0.4-0.3,0.5-0.4,0.8s-0.4,0.9-0.6,1.4l-0.3,0.7c-0.2,0.5-0.4,1-0.6,1.5l-0.2,0.5
		c-0.2,0.7-0.4,1.4-0.6,2.1c0,0.2-0.1,0.4-0.1,0.6c-0.1,0.5-0.2,1-0.3,1.5c0,0.3-0.1,0.5-0.1,0.8c-0.1,0.5-0.1,0.9-0.2,1.4
		c0,0.3,0,0.6-0.1,0.9c0,0.3-0.1,0.9-0.1,1.4s0,0.6,0,1c0.1,0.6,0.1,1.3,0.1,1.9v0.2l0.3,2.3c1.2,8,6,15,13.4,20.6
		c15.9,6.7,36.9,9.4,59.5,6.2C101,456.8,106.2,455.8,111.3,454.5z"/>
	<path class="st0" d="M70.8,382.6l-0.6,0.2c0.5-0.1,1-0.3,1.5-0.4L70.8,382.6z"/>
	<path class="st0" d="M82.2,359.2c-45,6.3-79.3,29.7-74.6,60.6c1.5,9.8,7.6,18.3,17,24.9c-2.8-4-4.7-8.6-5.4-13.5
		c-1.8-12,2.6-23.3,12.5-32.8c9-8.6,22.1-15.3,38.1-19.5c5.5-1.4,11.1-2.5,16.7-3.3c19.3-2.6,38.1-0.4,52.9,6
		c15.6,6.7,25,17.4,26.7,30c0.3,2.2,0.3,4.5,0.1,6.7c3.8-6.4,5.3-13.9,4.4-21.2C166.9,369.8,127.2,352.9,82.2,359.2z"/>
	<path class="st0" d="M139.3,381.6c-14.8-6.4-33.6-8.6-52.9-6c-5.6,0.7-11.2,1.8-16.7,3.3c-15.9,4.2-29.1,10.9-38.1,19.5
		c-9.9,9.5-14.2,20.9-12.5,32.8c0.7,4.9,2.6,9.5,5.4,13.5c3.7,2.6,7.7,4.8,11.8,6.5c-7.4-5.6-12.2-12.5-13.4-20.6l-0.3-2.3l-0.1-0.7
		c-0.1-0.5,0-1,0-1.5c0-0.3,0-0.6,0-0.8c0-0.3,0-0.9,0.1-1.4s0-0.6,0.1-0.8c0-0.3,0.1-0.9,0.2-1.4c0-0.3,0.1-0.5,0.1-0.8
		c0.1-0.5,0.2-1,0.3-1.5c0.1-0.2,0.1-0.4,0.1-0.6c0.2-0.7,0.4-1.4,0.6-2.1l0.1-0.3c0.2-0.6,0.5-1.5,0.8-2l0.1-0.5
		c0.2-0.4,0.4-0.9,0.6-1.4c0.1-0.3,0.2-0.5,0.4-0.8c0.1-0.3,0.4-0.8,0.7-1.2l0.4-0.8c0.3-0.4,0.5-0.8,0.8-1.2l0.4-0.7
		c0.3-0.5,0.7-0.9,1-1.4l0.1-0.1c0.6-0.8,1.2-1.6,1.8-2.2l0.3-0.3c0.4-0.5,0.8-0.9,1.3-1.5l0.6-0.6c0.4-0.4,0.7-0.8,1.2-1.1l0.7-0.6
		l1.2-1c0.2-0.2,0.5-0.4,0.7-0.6l1.3-1l0.7-0.5l1.6-1.2l0.5-0.3c0.7-0.5,1.5-1,2.2-1.5l0.6-0.4l1.7-1.1l0.9-0.5l1.6-0.9l0.9-0.5
		l1.6-0.9l1-0.5l1.7-0.8l0.9-0.4l2.2-0.9l0.5-0.2c0.9-0.4,1.9-0.7,2.8-1.1l0.8-0.3c0.7-0.2,1.4-0.5,2.1-0.7l1.1-0.4l1.9-0.6l1.2-0.4
		l2-0.4l1.2-0.3l0.6-0.2l0.9-0.2c0.8-0.2,1.5-0.4,2.3-0.6l1.4-0.3l2.3-0.5l1.4-0.3l2.7-0.5l1.3-0.2c1.3-0.2,2.5-0.4,3.9-0.6
		c38.4-5.1,72.1,9.5,75.2,32.6c0.6,5.2-0.2,10.4-2.4,15.2c2.4-2.8,4.6-5.8,6.4-9c0.2-2.2,0.2-4.5-0.1-6.7
		C164.3,398.9,154.8,388.3,139.3,381.6z"/>
	<path class="st1" d="M54.5,365.7c9-3,18.3-5.2,27.7-6.5c45-6.3,84.7,10.6,88.4,37.8c0.9,7.4-0.7,14.8-4.4,21.2
		c0.2-2.2,0.2-4.5-0.1-6.7c-1.7-12.6-11.1-23.2-26.6-30c-14.8-6.4-33.6-8.6-52.9-6c-5.6,0.8-11.2,1.9-16.7,3.3
		c-7.5,1.9-14.7,4.6-21.7,8.1L54.5,365.7z"/>
	<path class="st0" d="M112.3,457.2c-5.2,1.4-10.5,2.4-15.8,3.2c-22.1,3.1-43.6,0.8-60.6-6.5C18.6,446.5,8,434.8,5.9,421l0,0
		c-1.6-10.6,1-20.7,7.9-29.8c12.4-16.6,37.3-28.6,68.4-33c46-6.4,86.7,11.3,90.6,39.4c1.9,13.9-5,28-19.6,39.9
		C142.2,446.3,128.1,453.1,112.3,457.2z M65.1,365.6c-21.6,5.7-39,15.6-48.2,27.9c-6.2,8.3-8.6,17.4-7.1,26.9l0,0
		c4,26,42.6,42.2,86.2,36.1c21.4-3,40.8-10.8,54.7-22c13.5-11,20-23.9,18.3-36.3c-3.6-26-42.3-42.2-86.2-36.1
		C76.8,362.9,70.9,364.1,65.1,365.6z"/>
	<path class="st12" d="M183.8,456c-12,26.3-27.7,38.7-57.4,47.8c-1.4,0.4-2.9-0.5-3.3-1.9c0-0.2-0.1-0.3-0.1-0.5
		c-4.4-17.7-11.6-27.9-14.6-35.6c-0.7-1.7-0.3-3.5,1.4-4.1c34.4-9.6,55.3-23.2,62.8-43.6c0.5-1.3,1.9-2,3.3-1.6l0,0
		c0.5,0.2,1,0.5,1.3,1c6.1,8.5,8.7,18.7,6.8,37.5C184,455.4,183.9,455.7,183.8,456z"/>
	<path class="st0" d="M62,625.2l-0.5-1.8l0.6,0.4l0.6,0.4l0.6,0.4l0.6,0.4c0.5,0.2,0.9,0.6,1.2,1c0.2,0.4,0.5,1.1,0.2,1.3
		c-0.3,0.1-0.5-0.1-0.7-0.3l-0.7-0.4l-0.6-0.4l-0.6-0.5L62,625.2 M62.3,621.8l-1.1-0.7l-1.1-0.7l-1-0.7L58,619
		c-0.1-0.1-0.1-0.1-0.2-0.1h-0.1v0.1l1.7,5.5c0.1,0.2,0.2,0.4,0.4,0.6l1.1,0.8l1.1,0.7l1.1,0.7l1.1,0.7c3.4,1.9,2.8-0.8,2.7-1.1
		C66.6,625.9,65.6,623.8,62.3,621.8 M57.5,610l-0.6-2.1l0.4,0.3l0.4,0.3l0.4,0.3l0.5,0.3c0.5,0.2,0.9,0.5,1.2,1c0,0,0.6,1.3,0.2,1.4
		c-0.3-0.1-0.7-0.2-0.9-0.4l-0.4-0.3l-0.4-0.2l-0.4-0.2L57.5,610 M56.9,605.3l-1-0.6l-1-0.6c-0.3-0.2-0.6-0.4-0.9-0.6l-0.9-0.6
		c-0.1-0.1-0.1-0.1-0.2-0.1s-0.1,0.1,0,0.2l1.8,6.1c0.1,0.3,0.3,0.5,0.5,0.6l0.8,0.6l1,0.6l0.9,0.6c0.3,0.2,0.6,0.4,0.9,0.6
		c3.7,2.1,3-0.7,2.9-1.2C60.9,608.4,59.1,606.4,56.9,605.3 M112,636.7c-14.3,0.5-14-12-11-15.2c3.6-3.8,21.1-6.4,21.5,5.6
		C122.6,632.6,118.7,636.2,112,636.7 M108,615.4c-22.4,1.8-11.1,17.6-9.1,19.3c8.1,7,26.9,3.8,25.8-9.4
		C124.1,618.2,118.3,614.8,108,615.4 M83.1,577l0.3-2.7l1.4,2.9h-0.4H84h-0.4L83.1,577 M78.8,559.5l0.5-0.1h-0.1l0,0h-0.1
		c-0.5,5.5-1.5,12.8-1.8,18.3c0,0,0,0.5,0.7,0.7s1.7,0.2,2.5,0.3L83,579l2.5,0.2l2.6,0.2c0.3,0,0.7-0.1,0.5-0.6
		c-2.8-5.8-6.4-13.5-9.2-19.3 M53.7,624.7c-0.1-0.2-0.3-0.4-0.3-0.6l-12.9-39.9l0.1-0.1c0.9,1.1,1.9,2.2,3,3.3s2.3,2.1,3.5,3.1
		s2.6,1.9,4,2.8c1.4,0.9,2.9,1.8,4.4,2.6c28.4,15.5,19.8,24.6,17.6,25.3c-0.4,0.1-0.8,0.2-1.3,0.2l-0.1,0.3c2,2.3,4.9,3.9,6.8,6.3
		c1.3,1.6,2.3,3.5,2.8,5.6c1,5.3-3.4,6.3-6.2,6.1c-2.5-0.3-4.9-1.2-7.1-2.5c-1.4-0.9-2.8-1.8-4.2-2.7c-1.3-0.9-2.6-1.9-3.8-3
		c-1.2-1-2.3-2.1-3.4-3.3C55.5,627.1,54.5,625.9,53.7,624.7 M159.7,605.1l0.4-0.1h0.1c4.4-11.5,4.8-12.7,7.7-21.3
		c0.1-0.2,0.2-0.4,0.4-0.6c0.9-0.8,1.8-1.6,2.6-2.4s1.6-1.7,2.4-2.5c0.8-0.8,1.5-1.7,2.1-2.5c0.7-0.8,1.3-1.7,1.9-2.5l0.2,0.2v0.1
		c-3.3,12.8-7.4,25.4-12.2,37.7l0.1,0.5l-0.7,13.7c0,0.2-0.2,0.5-0.3,0.6c-0.8,0.7-1.6,1.5-2.4,2.2c-0.8,0.7-1.7,1.4-2.6,2.1
		c-0.9,0.7-1.8,1.4-2.8,2c-1,0.7-1.9,1.4-3,2h-0.1l-0.1-0.1l0.1-13.7v-0.1c-13.3-11.9-19.5-18.4-19.6-18.8c0.3-0.4,0.3-0.4,0.5-0.5
		c1.5-0.4,2.9-0.9,4.4-1.4c1.4-0.5,2.9-1,4.3-1.6s2.8-1.1,4.2-1.7c1.4-0.6,2.7-1.2,4.1-1.9h0.1h0.1h0.1l-0.5,0.1c0.2,0,0.3,0,0.5,0
		c4.8,6.5,5.2,7,8.1,11 M112.3,647.2c-29.3,0.6-41.2-26.4-30.8-35.9s62.6-14.3,60.2,11.3C140.6,633.9,129.3,646.1,112.3,647.2
		 M130.5,603.4c-3.7-0.7-7.5-1-11.2-1.1c1.3-0.2,2.4-0.4,3.7-0.7c1.2-0.3,2.4-0.5,3.6-0.8s2.4-0.6,3.6-0.9c1.2-0.3,2.4-0.6,3.6-1
		C131.2,599.9,129.7,601.9,130.5,603.4 M160.9,599.6c-3-4.4-5.3-7.8-5.6-8.1c-0.5-0.5-1.4-0.5-2.6,0.1l0.9-0.5l0.9-0.5l0.9-0.5
		l0.9-0.5l0.6-0.3c1.1-0.7,2.2-1.3,3.2-2s2-1.4,3-2.1c1-0.7,1.9-1.4,2.8-2.1c0.9-0.7,1.8-1.4,2.6-2.2c-0.9,0.9-1.6,2-2.1,3.2
		C164.8,588.8,162.6,594.9,160.9,599.6 M61.2,596.9c1.2,0.5,2.5,1,3.8,1.5c1.3,0.5,2.7,0.9,4.1,1.3s2.7,0.8,4.2,1.1s2.9,0.7,4.3,1
		c1.7,0.3,2.8-0.2,3-1.4l0.7-5.9l3.1,0.4c1,0.1,2.1,0.2,3.2,0.3s2.1,0.2,3.2,0.2c1.1,0.1,2.2,0.1,3.2,0.1c3.6,7.2,3.6,7.2,5,7.9
		c-11.1,1.6-16.9,4-20.6,8.4c-3.4-5.3-8.3-10-22.4-17.3l0.4,0.2l0.4,0.2l0.4,0.2l0.4,0.2c0.5,0.3,1.1,0.4,1.7,0.2
		C59.8,596.1,60.5,596.6,61.2,596.9 M57.7,586.8l-8.5-31c0.8,0.3,1.6,0.6,2.4,0.8l2.5,0.8c0.8,0.2,1.7,0.5,2.5,0.7s1.7,0.5,2.7,0.7
		c-0.5,8.7-1.1,17.6-1.4,28.1 M24.2,536.4c-0.2-0.3-0.3-0.5-0.4-0.8l-4.4-13.3l0.1-0.3c1.7,2,3.6,3.8,5.6,5.4
		c2.4,1.8,4.9,3.4,7.6,4.7c3,1.6,6.2,2.9,9.4,4.1c3.6,1.3,7.3,2.4,11,3.3c0.4,0.1,0.6,0.4,0.8,0.7l3.5,13.9l-0.1,0.4H57
		c-1.1-0.3-2.2-0.6-3.3-0.9s-2.1-0.7-3.2-1s-2-0.7-3-1.1c-1-0.4-1.9-0.7-2.9-1.1l-0.4,0.2v0.1l11.6,40.8l-0.3,0.2
		c-1-0.5-2-1.1-3-1.6c-1-0.6-1.9-1.1-2.8-1.7s-1.8-1.2-2.7-1.8s-1.7-1.3-2.4-1.9c-0.2-0.2-0.3-0.4-0.5-0.7l-12.6-40.3
		c-0.1-0.3-0.3-0.6-0.5-0.8c-0.7-0.5-1.3-1-1.9-1.5s-1.2-1-1.7-1.6c-0.6-0.5-1.1-1.1-1.6-1.6C25.2,537.5,24.7,536.9,24.2,536.4
		 M118.2,594.8c0.3-0.1,0.5-0.3,0.6-0.5l-4.9-52.5c0.1-0.3,0.4-0.5,0.7-0.7c1.7-0.2,3.5-0.4,5.2-0.8s3.4-0.6,5.1-0.9
		c1.7-0.3,3.4-0.7,5-1c1.7-0.4,3.3-0.8,4.9-1.2l0.5,0.1l0.2,0.4l1.6,44.1l0.4,0.3l0.4-0.1c1.1-0.4,2.3-0.7,3.4-1.1
		c1.1-0.4,2.2-0.8,3.3-1.2s2.2-0.9,3.2-1.3c1.1-0.4,2.1-0.9,3.1-1.4l1.1-0.5l1.1-0.5l1.1-0.5l1.1-0.5l0.5,0.1v0.1l-0.2,11
		c-0.1,0.3-0.3,0.5-0.5,0.7l-1,0.5l-1,0.5l-1,0.5l-1.1,0.5c-2.4,1.1-4.8,2.2-7.3,3.2s-5.1,1.9-7.7,2.7c-2.6,0.7-5.3,1.5-8,2.2
		c-2.7,0.6-5.4,1.2-8.2,1.6l-0.5,0.1c-1.6,0.2-3.3,0.5-4.9,0.7s-3.3,0.4-4.9,0.5s-3.3,0.2-4.9,0.3s-3.2,0.1-4.9,0.1
		c-0.2,0-0.5-0.2-0.7-0.3c-4-8-4-8-4.5-8.1c-1.5,0-3.1-0.1-4.6-0.2c-1.5-0.1-3-0.2-4.5-0.3s-3-0.3-4.4-0.5s-2.9-0.4-4.3-0.7
		l-0.5,0.2v0.1l-0.6,7.2l-0.5,0.2c-1.4-0.3-2.7-0.6-4-1c-1.4-0.3-2.7-0.7-3.9-1.1s-2.5-0.8-3.7-1.2c-1.2-0.4-2.4-0.9-3.6-1.4
		c-0.2-0.2-0.4-0.5-0.6-0.7c0.7-15,3.1-50.8,3.9-51.5h0.1c2.1,0.3,4.2,0.6,6.4,0.9c2.2,0.2,4.4,0.5,6.6,0.6c2.3,0.2,4.5,0.3,6.8,0.4
		c2.3,0.1,4.6,0.1,6.9,0.1c0.3,0.1,0.5,0.2,0.8,0.4C98.7,558.7,117.2,594.9,118.2,594.8 M155.8,586.2h-0.1l-0.2-0.2l1.1-55.4
		c0.1-0.3,0.3-0.7,0.6-0.8c1.4-0.6,2.6-1.2,3.8-1.8s2.4-1.2,3.6-1.8c1.1-0.6,2.2-1.3,3.3-1.9c1.1-0.6,2-1.3,3-1.9h0.3v0.3l-2.5,42.8
		l0.2,0.2l0.2-0.1c0.9-0.8,1.8-1.5,2.6-2.3s1.6-1.6,2.3-2.4c0.7-0.8,1.4-1.6,2.1-2.4c0.7-0.8,1.3-1.6,1.8-2.4l0.2,0.1l-0.9,10.7
		c0,0.3-0.1,0.5-0.3,0.7c-1.1,1.7-2.4,3.3-3.7,4.8c-1.5,1.7-3.1,3.3-4.8,4.7c-1.8,1.6-3.8,3.2-5.8,4.6c-2.1,1.5-4.4,2.9-6.8,4.3
		 M172.6,518.9c-1,0.7-2,1.4-3.1,2.1s-2.2,1.4-3.4,2c-1.2,0.7-2.4,1.4-3.8,2c-1.3,0.6-2.7,1.3-4.1,1.9c-2,1-3.4,3-3.6,5.2l-0.6,41.4
		l-0.8,0.4l-0.8,0.4l-0.8,0.4l-0.9,0.4l-2.1,0.9l-2.2,0.9c-0.7,0.3-1.4,0.6-2.2,0.9l-2.2,0.8l-0.9-41.8c-0.2-1-0.7-3.2-4.3-2.5
		c-1.7,0.5-3.5,0.9-5.3,1.3c-1.8,0.4-3.6,0.8-5.4,1.2s-3.6,0.7-5.5,1c-1.8,0.3-3.7,0.6-5.6,0.8c-2.8,0.6-4.2,2-4.2,4.3l3.6,35.3
		C95,540.5,95,540.5,91.7,540.3c-2.4,0-4.9,0-7.3,0s-4.8-0.2-7.2-0.3s-4.7-0.3-7-0.6s-4.5-0.5-6.8-0.8c-1.6-0.1-2.8,0-3.3,2.1
		l-0.4,5.6l-1-4.8c-0.7-2.3-2.5-4-4.8-4.6c-3.9-0.9-7.8-1.9-11.6-3.2c-3.4-1.1-6.7-2.5-9.9-4.1c-2.8-1.4-5.4-2.9-7.9-4.8
		c-2.2-1.6-4.2-3.4-6-5.3l-0.5,0.4c0.1,0.4,0.2,0.8,0.4,1.3l4.7,14.3c0.6,1.8,1.4,3.5,2.5,5.1c0.4,0.5,0.8,0.9,1.2,1.4
		s0.8,0.9,1.3,1.4c0.4,0.4,0.9,0.9,1.4,1.3c0.5,0.4,1,0.9,1.4,1.3l11.9,37.7c0.6,1.6,1.6,3.1,2.8,4.4c-0.5-0.4-1-0.8-1.4-1.3
		c-0.5-0.4-0.9-0.9-1.4-1.3s-0.9-0.9-1.3-1.4c-0.4-0.5-0.8-0.9-1.2-1.4l-0.6-0.6c-0.1,0.4-0.2,0.8-0.1,1.2l13.2,40.4
		c0.5,1.4,1.2,2.7,2.1,4c0.9,1.2,2,2.3,3,3.5c1.1,1.2,2.3,2.3,3.5,3.3c1.2,1.1,2.6,2,3.9,3c1.4,1,2.8,1.9,4.3,2.7
		c8.5,4.5,13.6,2.6,15.6-0.7c25.5,24.2,61,3.6,61.1-20.3c0-0.3,0-0.7-0.1-1c1.5,1.3,3.4,3,4.9,4.2l-0.1,13.4l0.3,0.8
		c0.8,0.3,1.7,0.1,2.4-0.4c1.1-0.7,2.1-1.4,3.2-2.1c1-0.7,2-1.4,2.9-2.2s1.8-1.5,2.7-2.3c0.9-0.7,1.7-1.5,2.5-2.3
		c1.1-1.1,1.8-2.4,2-3.9l0.8-13.4c10.2-29.9,11.1-40.1,11.1-40.1c-0.3,0.1-0.7,0.2-0.9,0.5l0,0c0.8-1.5,1.3-3.1,1.5-4.8l1-11.5v-0.9
		l-0.8-0.2l-0.3,0.3c-0.5,0.7-1,1.4-1.5,2.1c-0.5,0.7-1.1,1.4-1.7,2c-0.6,0.6-1.2,1.4-1.9,2c-0.6,0.7-1.4,1.4-2.1,2l2.6-40.6
		c0-0.6-0.2-1.3-0.4-1.9l-0.8-0.4C173.3,518.6,173,518.7,172.6,518.9"/>
	<path class="st0" d="M52.7,538.9c-3.7-0.9-7.4-2-11-3.3c-3.2-1.1-6.3-2.5-9.4-4c-2.6-1.4-5.2-3-7.6-4.7c-2.1-1.6-4-3.3-5.6-5.3
		l-0.1,0.3l4.4,13.3c0.1,0.3,0.2,0.6,0.4,0.8c0.4,0.6,0.9,1.1,1.4,1.7c0.5,0.5,1,1.1,1.6,1.6s1.1,1.1,1.7,1.6s1.3,1,1.9,1.5
		c0.2,0.2,0.4,0.5,0.5,0.8l12.6,40.3c0.1,0.2,0.3,0.5,0.5,0.7c0.8,0.7,1.6,1.3,2.4,1.9c0.8,0.6,1.7,1.2,2.7,1.8
		c0.9,0.6,1.9,1.2,2.8,1.7s2,1,3,1.6l0.3-0.2l-11.6-40.7l0.1-0.7h0.2c0.9,0.6,1.9,1.1,2.9,1.4c1,0.4,2,0.7,3,1.1s2.1,0.7,3.2,1
		c1.1,0.3,2.2,0.6,3.2,0.2h0.4l0.1,0.4l-3.5-13.9C53.3,539.3,53,539.1,52.7,538.9"/>
	<path class="st0" d="M78,578.4c-0.5-0.1-0.7-0.3-0.7-0.7c0.5-5.5,1.2-12.8,1.8-18.3h0.1h0.1h0.1h0.1c2.7,5.8,6.6,13.4,9.2,19.3
		c0,0,0.2,0.5-0.5,0.6l-2.6-0.2l-2.6-0.2l-2.5-0.3C79.6,578.6,78.8,578.5,78,578.4 M134.7,537.1c-1.6,0.4-3.3,0.8-4.9,1.2
		c-1.7,0.4-3.3,0.7-5,1s-3.4,0.6-5.1,0.9c-1.7,0.3-3.4,0.5-5.2,0.8c-0.3,0.1-0.5,0.4-0.7,0.7l4.9,52.6c-0.6,1-1.3,0.3-1.3,0.3
		c-3.9-7.3-12.9-24.2-20.8-39.9c-6-11.8-6-11.8-6.6-11.9c-2.3,0-4.7,0-6.9-0.1c-2.3-0.1-4.6-0.2-6.8-0.4c-2.3-0.2-4.5-0.4-6.6-0.6
		s-4.3-0.5-6.4-0.9l-0.5,0.2v0.2c-2.8,33.8-3.8,51.3-2.9,52c1.2,0.5,2.4,0.9,3.6,1.4c1.2,0.4,2.5,0.8,3.7,1.2
		c1.3,0.4,2.6,0.8,3.9,1.1s2.7,0.7,4,1l0.5-0.2l0,0l0.6-7.2c0.1-0.1,0.3-0.3,0.5-0.2c1.4,0.2,2.9,0.5,4.3,0.7
		c1.5,0.2,2.9,0.4,4.4,0.5s3,0.3,4.5,0.4c1.5,0.1,3,0.2,4.6,0.2c0.2,0.1,0.5,0.2,0.7,0.4c4.1,8,4.1,8,4.5,8c1.6,0,3.2-0.1,4.9-0.1
		c1.6-0.1,3.3-0.2,4.9-0.3s3.3-0.3,4.9-0.5s3.3-0.4,4.9-0.7l0.5-0.1c2.7-0.5,5.5-1,8.2-1.6s5.4-1.4,8-2.2s5.2-1.7,7.7-2.7
		s4.9-2,7.3-3.2l1.1-0.5l1-0.5l1-0.5l1-0.5c0.2-0.2,0.4-0.4,0.5-0.7l0.2-11l-0.4-0.2l0,0l-1.1,0.5l-1.1,0.5l-1.1,0.5l-1.1,0.5
		c-1,0.5-2.1,0.9-3.1,1.4c-1.1,0.4-2.1,0.9-3.2,1.3s-2.2,0.8-3.3,1.2s-2.2,0.8-3.4,1.1l-0.5-0.1l-0.1-0.2l-1.5-44.1l-0.3-0.4
		c-0.1,0-0.2,0-0.4,0"/>
	<path class="st0" d="M170.6,520.9c-1,0.7-2,1.4-3,2s-2.2,1.3-3.3,1.9c-1.1,0.6-2.3,1.3-3.6,1.9c-1.2,0.6-2.5,1.2-3.8,1.8
		c-0.3,0.2-0.5,0.5-0.6,0.9l-1,56.6l0.2,0.2h0.3c2.4-1.4,4.7-2.9,6.8-4.4c2-1.5,3.9-3,5.8-4.7c1.7-1.5,3.3-3.1,4.7-4.8
		c1.4-1.6,2.6-3.2,3.8-4.9c0.1-0.2,0.2-0.5,0.3-0.8l0.9-11l-0.2-0.1c-0.6,0.8-1.2,1.6-1.8,2.4c-0.7,0.8-1.4,1.6-2.1,2.4
		c-0.7,0.8-1.5,1.6-2.3,2.4s-1.7,1.6-2.6,2.4h-0.3v-0.2l2.4-43.8v-0.3c-0.1,0-0.2-0.1-0.3,0"/>
	<path class="st0" d="M59.9,625.1c-0.2-0.1-0.4-0.4-0.4-0.6l-1.7-5.5v-0.1h0.1c0.1,0,0.1,0,0.2,0.1l1,0.7l1,0.7l1.1,0.7l1.1,0.7
		c5,3.1,5.4,6.6,4.1,6.9c-0.7,0.2-1.7-0.4-2.2-0.7l-1.1-0.7l-1.1-0.7l-1.1-0.7L59.9,625.1 M55.3,609.8c-0.2-0.2-0.4-0.4-0.5-0.6
		l-1.8-6.1c0-0.1,0-0.1,0-0.2c0-0.1,0.1,0,0.2,0.1l0.9,0.6c0.3,0.2,0.6,0.4,0.9,0.6l1,0.6l1,0.6c4.9,3,5.7,7.1,4.3,7.5
		c-0.8,0.2-1.9-0.4-2.4-0.8c-0.3-0.2-0.6-0.4-0.9-0.6l-0.9-0.6l-0.8-0.6L55.3,609.8 M55.4,595.8c-1.5-0.8-3-1.7-4.4-2.6
		c-1.4-0.9-2.7-1.9-4-2.8c-1.2-1-2.4-2-3.5-3.1c-1.1-1-2.1-2.1-3-3.3l-0.1,0.1L53.3,624c0.1,0.2,0.2,0.4,0.3,0.6
		c0.9,1.2,1.9,2.4,3,3.5s2.2,2.2,3.4,3.3s2.5,2,3.8,3s2.8,1.9,4.2,2.7c9.9,5.3,14.7,1.2,13-4.2c-1.5-4.8-6.2-8.7-8.2-10.2
		c-1.3-0.9-1.3-0.9-1.3-1.4c7.3-1.2,5.7-10.8-6.1-19.4C62.3,599.8,59,597.7,55.4,595.8"/>
	<path class="st0" d="M111.1,638.3c-16.9,0.4-18.7-14-14.8-18.6c4.5-5.3,27.3-7.9,28.4,5.7C125.4,632.6,119.8,637.8,111.1,638.3
		 M106.6,604.5c-51.5,3.8-19.5,34.2-19.1,34.6c21.5,18.9,54.9,3.6,54.3-18.8C141.5,608.2,130.3,603.1,106.6,604.5"/>
	<path class="st0" d="M176.8,574.3c-0.6,0.8-1.2,1.6-1.8,2.4s-1.4,1.6-2,2.4c-0.7,0.8-1.5,1.6-2.3,2.4s-1.7,1.6-2.6,2.4
		c-0.1,0.1-0.3,0.3-0.3,0.5c-4.1,11.7-4.4,12.7-7.4,20.6l0,0h-0.1l0,0c-7.8-10.8-7.9-10.7-8.3-10.6h-0.1h-0.1h-0.1h-0.1
		c-1.3,0.6-2.6,1.2-4,1.8c-1.3,0.6-2.7,1.1-4.1,1.7s-2.8,1-4.2,1.5s-2.9,0.9-4.3,1.4c-0.3,0.1-0.7,0.3-0.5,0.7
		c7.9,7.6,10.3,9.9,19.1,17.6v0.1l-0.2,13.1l0.2,0.1l0.2-0.1c1-0.6,2-1.2,2.9-1.9s1.9-1.3,2.7-2c0.9-0.7,1.7-1.4,2.6-2
		c0.8-0.7,1.6-1.4,2.4-2.1c0.2-0.2,0.3-0.4,0.3-0.6l0.7-13.1v-0.2c9.7-25.9,11.7-36.6,11.8-36.7c0-0.1-0.1-0.1-0.2,0"/>
	
		<ellipse transform="matrix(0.9925 -0.1224 0.1224 0.9925 -49.7788 24.1147)" class="st13" cx="171.4" cy="417.2" rx="30.8" ry="30.8"/>
	<circle class="st0" cx="179.9" cy="409.1" r="9.1"/>
	<circle class="st0" cx="161.3" cy="428.1" r="11.4"/>
	<path class="st12" d="M125.4,508.9c28-9.1,52.1-27,61.6-51.7L177.4,650c-1.3,22.3-14.9,43.3-36.6,49L125.4,508.9z"/>
	<path class="st14" d="M134.6,508c16.6-6.5,31.4-16.9,43.2-30.4c1-1.1,2.8-1.2,3.9-0.2c0.6,0.6,1,1.4,0.9,2.2l-8.1,166.6
		c-1,17.9-10.2,33.1-23.6,40.7c-1.3,0.8-3,0.3-3.8-1l0,0c-0.2-0.4-0.3-0.8-0.4-1.2l-13.9-173.8C132.7,509.7,133.4,508.5,134.6,508z"
		/>
	<path class="st0" d="M161.2,479.3L120,495.9c-3.8,1.5-4.5,7.6-1.4,11.5l0,0l0.1,0.1c4.6-4.7,10.5-8.1,16.9-9.7
		c12.4-3.2,24.4-0.1,30,7.1c2.5-5.6,3.8-11.7,3.7-17.9l0,0C169.2,481.9,164.9,477.8,161.2,479.3z"/>
	<path class="st0" d="M135.5,497.9c-6.4,1.6-12.3,4.9-16.9,9.7c15.6,19.5,38.2,15.9,46.9-2.6C159.9,497.8,147.9,494.6,135.5,497.9z"
		/>
	<path class="st0" d="M49.8,417.4c6.8-12.9,29.4-11.7,44.9-9.7c15.5,1.9,23.9,7.7,22.3,19.4c-1.6,11.8-27.3,14.8-42.6,11.1
		C58.2,434.3,44.3,427.9,49.8,417.4z"/>
	<path class="st0" d="M133.6,393.1L116.8,410c-7.5,7.5-18.5,10.2-28.7,7.1l-5.9-1.9c-5.5-1.7-8.6-7.6-6.9-13.1
		c0.5-1.6,1.3-3,2.5-4.2l13.7-14.1c9-9.5,22.7-12.9,35-8.6l3.3,1.2c5.3,1.8,8.1,7.5,6.3,12.7C135.7,390.5,134.8,391.9,133.6,393.1
		L133.6,393.1z"/>
	<path class="st0" d="M100.8,406.5c-2.8-1.8-12.3-4.4-14.7-5.3c-2.4-0.9-1.4-1.8-0.5-2.5l6.3-5.8c3.5-3.2,8.4-4.3,12.9-2.7l5.2,1.9
		c2.9,1,4.4,4.2,3.4,7.1c-0.3,0.9-0.8,1.6-1.5,2.3l-3.8,3.5C106.1,406.9,103.6,408.3,100.8,406.5z"/>
	<path class="st0" d="M100.8,383.5c4,1,15.6,4,20.6,7.2c1.6,0.5,3.3,0.2,4.5-0.9l2.3-2c2.4-2.2,3.2-5.9-6.7-9.2
		c0,0-14.4-4.5-21.1,3.4c-0.3,0.4-0.3,0.9,0.1,1.3C100.5,383.4,100.6,383.5,100.8,383.5z"/>
	
		<ellipse transform="matrix(0.996 -8.910444e-02 8.910444e-02 0.996 -40.781 8.4966)" class="st15" cx="74.8" cy="461" rx="30.8" ry="30.8"/>
	<circle class="st0" cx="83.3" cy="452.8" r="9.1"/>
	<circle class="st0" cx="64.7" cy="471.9" r="11.4"/>
	<path class="st0" d="M220.7,685.9c-1.1-7.4,65.8-7.2,66.4-2C289.9,710.6,226.4,723.9,220.7,685.9z"/>
</g>
</svg>
