<?xml version="1.0" encoding="utf-8"?>
<!-- Generator: Adobe Illustrator 25.3.1, SVG Export Plug-In . SVG Version: 6.00 Build 0)  -->
<svg version="1.1" id="Layer_1" xmlns="http://www.w3.org/2000/svg" xmlns:xlink="http://www.w3.org/1999/xlink" x="0px" y="0px"
	 viewBox="0 0 237.8 300" style="enable-background:new 0 0 237.8 300;" xml:space="preserve">
<style type="text/css">
	.st0{fill:#222222;}
</style>
<g id="Layer_2_1_">
	<g id="Layer_1-2">
		<path class="st0" d="M91.1,300L91.1,300c-25.5,0-51.1-1.6-76.4-4.7c-9.2-1.1-15.7-9.5-14.5-18.7c0.2-1.7,0.7-3.4,1.4-4.9
			c8.5-18.6,17.1-39.3,26.4-63.4c4.5-11.7,7.6-23.7,11-36.3c3-11.6,6.2-23.6,10.5-35.3s9-23.1,13.6-34.2
			c4.1-10.1,8.4-20.6,12.3-30.9c0.7-1.8,1.3-3.7,2-5.6v-0.1c3.2-8.9,6.6-18.2,11.6-26.7c5.6-9.6,12.9-17.7,20-25.5
			c2.8-3.1,5.4-6,8-9c4.5-5.4,12.6-6.1,18-1.6c3.1,2.6,4.8,6.6,4.5,10.7c-0.2,3.3-0.6,6.5-0.9,9.6c-0.8,7.2-1.6,14-0.6,20.4
			c0.9,5.6,3,11.4,5.2,17.6c1.4,3.9,2.9,8,4.1,12.1c6.1,21.4,15.7,38.5,26.8,58.3l0.1,0.2l3.6,6.4c20.1,36.2,38,73.7,53.4,112.2
			l2.2,5.4l2,5.1c0.5,1.3,1,2.6,1.5,3.8c3.3,8.6-1,18.3-9.6,21.6c-1,0.4-2,0.6-3,0.8C177.5,295.8,134,300,91.1,300z M126.6,10
			c-0.8,0-1.6,0.4-2.1,1c-2.7,3.1-5.3,6.1-8.2,9.3c-6.7,7.5-13.7,15.2-18.8,23.9c-4.6,7.7-7.8,16.5-10.8,25.1v0.1
			c-0.7,1.9-1.4,3.8-2.1,5.7c-3.9,10.5-8.2,21-12.4,31.2c-4.6,11.1-9.3,22.5-13.4,33.9s-7.2,23-10.2,34.4
			c-3.4,12.9-6.6,25.1-11.3,37.4c-9.3,24.3-18,45.2-26.6,64c-1.6,3.4-0.1,7.4,3.3,8.9c0.6,0.3,1.3,0.5,2,0.6c24.9,3,50,4.6,75.2,4.5
			l0,0c42.3,0,85.2-4.1,131.1-12.7c2-0.4,3.7-1.6,4.7-3.3c1-1.7,1.1-3.8,0.4-5.7c-0.5-1.2-1-2.5-1.5-3.8l-4.1-10.4
			c-15.3-38.1-32.9-75.1-52.8-111c-1.2-2.1-2.4-4.3-3.6-6.4l-0.1-0.2c-11.4-20.3-21.2-37.9-27.7-60.4c-1.1-3.8-2.5-7.7-3.9-11.5
			c-2.4-6.7-4.7-12.9-5.7-19.5c-1.2-7.7-0.4-15.1,0.5-23c0.3-3,0.7-6.1,0.9-9.2c0.1-1.5-1-2.9-2.6-3C126.8,10,126.7,10,126.6,10z"/>
	</g>
</g>
</svg>
