<?xml version="1.0" encoding="utf-8"?>
<!-- Generator: Adobe Illustrator 25.3.1, SVG Export Plug-In . SVG Version: 6.00 Build 0)  -->
<svg version="1.1" id="Layer_1" xmlns="http://www.w3.org/2000/svg" xmlns:xlink="http://www.w3.org/1999/xlink" x="0px" y="0px"
	 viewBox="0 0 427 427" style="enable-background:new 0 0 427 427;" xml:space="preserve">
<style type="text/css">
	.st0{opacity:0;}
	.st1{opacity:0.4;fill:#22C3E8;enable-background:new    ;}
	.st2{fill:none;stroke:#22C3E8;stroke-width:0.94;stroke-miterlimit:10;stroke-opacity:0;}
	.st3{fill:none;stroke:#333333;stroke-miterlimit:10;}
	.st4{opacity:0.7;fill:#FFFFFF;stroke:#333333;stroke-miterlimit:10;}
</style>
<g id="Layer_2_1_">
	<g id="Layer_1-2">
		<g id="Layer_2-2">
			<g id="Layer_1-2-2">
				<g class="st0">
					<path class="st1" d="M26.7,102.6l0.3-0.5c0.3-0.6,1-0.8,1.6-0.6c3,0.9,6.2,1.6,8.9,3c26.7,14,53.6,27.8,80,42.4
						c25.2,13.9,50,28.5,75.1,42.8c1.5,1,3.3,1.5,5.1,1.4c2.9-0.4,5.8,0.1,8.4,1.4c11,5.8,9.6,8.2,8.9,11.1c0.1,0.3,0.1,0.5,0.1,0.8
						l0.1-0.2c2.1-3.9,9.6-5.9,13.8-7c3.1-0.8,6.3-2.5,7.4-5.1c5.9-13.9,17.7-19.8,30.2-25.9c39.3-19.1,78.3-38.8,117.5-58.1
						c4.5-2.2,9.5-3.3,14.4-4.8c0.6-0.2,1.3,0.1,1.6,0.6l0.3,0.5c0.3,0.6,0.2,1.3-0.3,1.7c-2.3,2.2-4.5,4.6-7.1,6.2
						c-25.5,16.2-50.9,32.5-76.7,48.1c-24.6,14.9-49.7,29.1-74.6,43.6c-1.6,0.8-3,2.1-3.8,3.7c-1.1,2.7-3,5-5.4,6.6
						c-10.5,6.7-11.9,4.1-14,2.1c-0.2-0.1-0.5-0.2-0.7-0.3l0.1,0.1c2.3,3.7,0.4,11.2-0.9,15.5c-0.9,3.1-1,6.7,0.8,9
						c9.1,12,8.3,25.2,7.4,39.1c-3,43.6-5.4,87.3-8.4,130.9c-0.3,5-1.9,9.9-3,14.8c-0.1,0.6-0.7,1.1-1.3,1.1h-0.6
						c-0.6,0-1.2-0.4-1.4-1.1c-0.7-3.1-1.7-6.2-1.8-9.3c-1.2-30.2-2.7-60.3-3.3-90.5c-0.6-28.8-0.4-57.5-0.5-86.4
						c0.2-1.8-0.3-3.6-1.3-5.1c-1.8-2.3-2.8-5.1-3-8c-0.5-12.4,2.4-12.4,5.1-13.2c0.2-0.2,0.4-0.3,0.6-0.5h-0.2
						c-4.4,0.1-9.9-5.3-13-8.5c-2.2-2.3-5.3-4.2-8.2-3.8c-15,1.8-26-5.4-37.5-13.2c-36.3-24.4-72.9-48.4-109.2-72.7
						c-4.2-2.8-7.6-6.6-11.3-10C26.5,103.9,26.3,103.2,26.7,102.6z"/>
				</g>
				<rect x="0.5" y="0.5" class="st2" width="426.1" height="426.1"/>
				<path class="st3" d="M396.4,325.5c-54.1-26.4-106.5-56-158.6-86.1c-3.3-1.8-6.9-2.8-10.7-3.2c-6.9-0.8-13.9-5.6-15.4-11.3
					c-0.3,0-0.6,0-0.9,0c-12.5,3.7-21.2,11.7-28.6,22.4c-3.5,5.1-10.4,8.2-16.2,11.1c-40.3,20.2-80.8,40.2-121.3,60.1
					c-4.3,2.1-9,3.3-13.6,4.8c-0.9,0.3-2.1-0.1-3.1-0.1l-0.8-1.4c3.3-2.7,6.3-5.9,9.9-8.1c43.4-26.6,86.9-53.2,130.5-79.6
					c4.4-2.7,8.9-5.2,13.4-7.7c4.3-2.3,7.9-5,10.6-9.4c3.4-5.7,11.7-8.6,16.6-7.2c0.9-4.8,2.1-9.6,2.4-14.6c0.2-3,0.1-6.6-1.4-8.9
					c-5.2-7.8-7.7-17.1-7.1-26.5c0.9-18.1,2-36.1,3.2-54.2c1.9-29.3,3.7-58.7,5.8-88c0.4-5.4,2-10.7,3.1-16.1h2.6
					c0.8,3.8,2.1,7.7,2.2,11.5c1.4,57.3,2.6,114.6,4,171.8c0.2,3.7,1.1,7.4,2.6,10.8c2.9,6.8,1.9,15.4-2.9,19.1
					c1.2,0.6,2.8,0.9,3.6,1.9c7.7,9.1,18,10.6,29.1,11.7c6.4,0.7,12.8,4.5,18.4,8.2c38.1,25.1,76.1,50.3,114,75.8
					c4.5,3,8.4,6.9,12.6,10.3C401.3,326.5,398.4,325.4,396.4,325.5z"/>
			</g>
		</g>
	</g>
</g>
<path class="st4" d="M396.4,325.5c-54.1-26.4-106.5-56-158.6-86.1c-3.3-1.8-6.9-2.8-10.7-3.2c-6.9-0.8-13.9-5.6-15.4-11.3
	c-0.3,0-0.6,0-0.9,0c-12.5,3.7-21.2,11.7-28.6,22.4c-3.5,5.1-10.4,8.2-16.2,11.1c-40.3,20.2-80.8,40.2-121.3,60.1
	c-4.3,2.1-9,3.3-13.6,4.8c-0.9,0.3-2.1-0.1-3.1-0.1l-0.8-1.4c3.3-2.7,6.3-5.9,9.9-8.1c43.4-26.6,86.9-53.2,130.5-79.6
	c4.4-2.7,8.9-5.2,13.4-7.7c4.3-2.3,7.9-5,10.6-9.4c3.4-5.7,11.7-8.6,16.6-7.2c0.9-4.8,2.1-9.6,2.4-14.6c0.2-3,0.1-6.6-1.4-8.9
	c-5.2-7.8-7.7-17.1-7.1-26.5c0.9-18.1,2-36.1,3.2-54.2c1.9-29.3,3.7-58.7,5.8-88c0.4-5.4,2-10.7,3.1-16.1h2.6
	c0.8,3.8,2.1,7.7,2.2,11.5c1.4,57.3,2.6,114.6,4,171.8c0.2,3.7,1.1,7.4,2.6,10.8c2.9,6.8,1.9,15.4-2.9,19.1c1.2,0.6,2.8,0.9,3.6,1.9
	c7.7,9.1,18,10.6,29.1,11.7c6.4,0.7,12.8,4.5,18.4,8.2c38.1,25.1,76.1,50.3,114,75.8c4.5,3,8.4,6.9,12.6,10.3
	C401.3,326.5,398.4,325.4,396.4,325.5z"/>
</svg>
