<svg xmlns="http://www.w3.org/2000/svg" viewBox="0 0 39.05 425.02">
  <defs>
    <style>
      .cls-1 {
        fill: none;
        stroke: #333;
        stroke-miterlimit: 10;
      }
    </style>
  </defs>
  <g id="Layer_2" data-name="Layer 2">
    <g id="Layer_1-2" data-name="Layer 1">
      <path class="cls-1" d="M8.35,425c0-5-.1-10-.1-14.9q-1.5-181.35-2.9-362.6c0-1.6.1-3.5-.7-4.8-5-8.8-4.5-18.1-3.5-27.6,1.6-15.1,2.2-15.6,17.4-14,6.4.6,8.4,2.1,9.3,8.6,1.5,10.8,1.6,21.5-2.5,31.9a13.19,13.19,0,0,0-.9,4.8c.5,15.6,1,31.2,1.6,46.9q5.25,143.1,10.6,286.1c.5,11.1,1.3,22.4,1.9,33.6v12"/>
    </g>
  </g>
</svg>
