<svg xmlns="http://www.w3.org/2000/svg" viewBox="0 0 215.91 215.91">
  <defs>
    <style>
      .cls-1 {
        fill: #222;
      }

      .cls-1, .cls-2 {
        stroke: #fff;
        stroke-miterlimit: 10;
      }

      .cls-2 {
        fill: #fff;
        stroke-width: 8.94px;
      }
    </style>
  </defs>
  <g id="Layer_2" data-name="Layer 2">
    <g id="Layer_1-2" data-name="Layer 1">
      <g>
        <rect class="cls-1" x="0.5" y="0.5" width="214.91" height="214.91" rx="16.6"/>
        <g>
          <path class="cls-2" d="M46.43,54.53A164.42,164.42,0,0,1,73.76,52.4c14.07,0,24.38,3.27,30.92,9.17,6.06,5.23,9.66,13.25,9.66,23.07,0,10-3,17.83-8.51,23.56-7.53,8-19.8,12.11-33.71,12.11a49,49,0,0,1-11.46-1v44.18H46.43Zm14.23,53.18a47.68,47.68,0,0,0,11.79,1.15c17.18,0,27.65-8.35,27.65-23.57,0-14.56-10.31-21.6-26-21.6-6.22,0-11,.49-13.42,1.15Z"/>
          <path class="cls-2" d="M130.38,109c0-9.33-.17-17.35-.66-24.71h12.6l.49,15.55h.66c3.6-10.64,12.27-17.35,21.92-17.35a15.39,15.39,0,0,1,4.09.49V96.58a22,22,0,0,0-4.9-.49c-10.15,0-17.35,7.69-19.31,18.49a40.34,40.34,0,0,0-.66,6.71v42.22H130.38Z"/>
        </g>
      </g>
    </g>
  </g>
</svg>
