<svg xmlns="http://www.w3.org/2000/svg" viewBox="0 0 215.91 215.91">
  <defs>
    <style>
      .cls-1 {
        fill: #222;
      }

      .cls-1, .cls-2 {
        stroke: #fff;
        stroke-miterlimit: 10;
      }

      .cls-2 {
        fill: #fff;
        stroke-width: 8.94px;
      }
    </style>
  </defs>
  <g id="Layer_2" data-name="Layer 2">
    <g id="Layer_1-2" data-name="Layer 1">
      <g>
        <rect class="cls-1" x="0.5" y="0.5" width="214.91" height="214.91" rx="16.6"/>
        <g>
          <path class="cls-2" d="M43.32,53.71a164.42,164.42,0,0,1,27.33-2.13c14.07,0,24.38,3.28,30.92,9.17,6.06,5.23,9.66,13.25,9.66,23.07,0,10-3,17.84-8.51,23.56-7.53,8-19.8,12.11-33.71,12.11a49,49,0,0,1-11.46-1v44.18H43.32Zm14.23,53.18A47.68,47.68,0,0,0,69.34,108C86.52,108,97,99.69,97,84.47c0-14.56-10.31-21.6-26-21.6A59.45,59.45,0,0,0,57.55,64Z"/>
          <path class="cls-2" d="M124.32,148a37.77,37.77,0,0,0,19,5.72c10.48,0,15.39-5.23,15.39-11.78,0-6.87-4.1-10.64-14.73-14.56-14.24-5.08-21-12.93-21-22.42,0-12.77,10.31-23.24,27.33-23.24a39.5,39.5,0,0,1,19.47,4.91l-3.6,10.47A30.84,30.84,0,0,0,150,92.49c-8.51,0-13.25,4.91-13.25,10.8,0,6.55,4.74,9.49,15.05,13.42,13.75,5.24,20.78,12.11,20.78,23.89,0,13.91-10.8,23.73-29.61,23.73-8.68,0-16.69-2.13-22.26-5.4Z"/>
        </g>
      </g>
    </g>
  </g>
</svg>
