<svg xmlns="http://www.w3.org/2000/svg" viewBox="0 0 215.91 215.91">
  <defs>
    <style>
      .cls-1 {
        fill: #222;
      }

      .cls-1, .cls-2 {
        stroke: #fff;
        stroke-miterlimit: 10;
      }

      .cls-2 {
        fill: #fff;
        stroke-width: 7.05px;
      }
    </style>
  </defs>
  <g id="Layer_2" data-name="Layer 2">
    <g id="Layer_1-2" data-name="Layer 1">
      <g>
        <rect class="cls-1" x="0.5" y="0.5" width="214.91" height="214.91" rx="16.6"/>
        <g>
          <path class="cls-2" d="M95.7,153,84.61,133.82c-4.52-7.35-7.36-12.12-10.07-17.16h-.26c-2.45,5-4.9,9.68-9.41,17.29L54.42,153H41.52l26.57-44-25.54-43h13L67.06,86.48c3.23,5.67,5.68,10.06,8,14.7h.39C77.9,96,80.09,92,83.32,86.48L95.18,66.09h12.9L81.64,108.41,108.73,153Z"/>
          <path class="cls-2" d="M173.88,61.45v75.47c0,5.55.13,11.87.51,16.12H164.2l-.51-10.83h-.26c-3.48,7-11.09,12.25-21.29,12.25-15.09,0-26.7-12.77-26.7-31.73-.13-20.77,12.77-33.54,28-33.54,9.55,0,16,4.51,18.84,9.54h.26V61.45ZM162.53,116a19.81,19.81,0,0,0-.52-4.77,16.69,16.69,0,0,0-16.38-13.16c-11.74,0-18.71,10.32-18.71,24.12,0,12.64,6.19,23.09,18.45,23.09,7.61,0,14.58-5,16.64-13.54a19.6,19.6,0,0,0,.52-4.9Z"/>
        </g>
      </g>
    </g>
  </g>
</svg>
