<svg xmlns="http://www.w3.org/2000/svg" viewBox="0 0 207.98 294.84"><defs><style>.cls-1{fill:#333;}</style></defs><g id="Layer_2" data-name="Layer 2"><g id="Layer_1-2" data-name="Layer 1"><path class="cls-1" d="M69.8,98.71V99s0-.07,0-.11A1.27,1.27,0,0,0,69.8,98.71Z"/><path class="cls-1" d="M206.38,179.62a102.84,102.84,0,0,0-12.1-33.21,109.57,109.57,0,0,0-10-14.52c-.93-1.11-1.88-2.22-2.87-3.34L179.92,127c-.5-.55-1-1.1-1.52-1.61l-.34-.34c-.89-.92-1.82-1.87-2.78-2.75l-1.61-1.52L172,119.3A106.19,106.19,0,0,0,142.34,101a3.89,3.89,0,0,1-1.44-1,1.39,1.39,0,0,1-.43-1v-.25l0-.18c-.64-4.17-1.12-8.38-1.42-12.51s-.48-8.44-.49-12.59c0-7.61.32-15.63,1.13-25.25.34-4.21.75-8.46,1.2-12.61l.79-7.11.53-.17a9.34,9.34,0,0,0,1-.39,9.22,9.22,0,0,0,1-.5,11.6,11.6,0,0,0,5.29-6.48,10.63,10.63,0,0,0,.48-2,6,6,0,0,0,.08-.84l0-.27c0-.25,0-.44,0-.63l.06-2.75,0-1a12,12,0,0,0-11.55-11c-6.45-.78-12.13-1.33-17.37-1.67C115.32.33,109.41.1,103.57,0,97.33,0,91.57.07,86,.35S74.79,1,68.62,1.67A12.87,12.87,0,0,0,56.08,13.34l0,1.11v2.41l0,1.2a6.79,6.79,0,0,0,.07.85,11.86,11.86,0,0,0,.49,2.29,12.81,12.81,0,0,0,5.77,7.23c.33.18.66.37.95.49a7.5,7.5,0,0,0,.94.4l.63,6.35c.48,4.84.84,8.85,1.13,12.61C66.85,58,67.22,66,67.25,73.44a175.29,175.29,0,0,1-1.62,25,2.92,2.92,0,0,0,0,.59.45.45,0,0,1-.08.16,2.55,2.55,0,0,1-.76.67l-.19.11-3.44,1.54c-1.32.64-2.64,1.27-4,2l-1.34.71c-.83.44-1.7.9-2.51,1.39a111.32,111.32,0,0,0-14.52,10A104.92,104.92,0,0,0,26.16,127.8c-.66.72-1.28,1.48-1.88,2.21-.32.38-.63.77-1,1.17-.65.8-1.28,1.62-1.91,2.44l-.81,1.06c-1.41,1.95-3.25,4.54-4.92,7.29A104.41,104.41,0,0,0,.79,209.79a93.64,93.64,0,0,0,10.84,33.85A94.69,94.69,0,0,0,34.55,271a102.28,102.28,0,0,0,14.84,10.08,108.67,108.67,0,0,0,16.37,7.3,114.27,114.27,0,0,0,35.11,6.38c1.18,0,2.36,0,3.53,0a114.38,114.38,0,0,0,31.92-4.46,103.85,103.85,0,0,0,32.31-15.6A96.54,96.54,0,0,0,193.4,248.7a90.67,90.67,0,0,0,8.16-16.13,93.61,93.61,0,0,0,4.89-17.37c.08-.5.16-1,.25-1.51.16-.94.33-1.93.44-2.92l.5-4.47.26-4.38c.06-.65.06-1.29.06-1.9l0-2.64A104.71,104.71,0,0,0,206.38,179.62ZM19.86,144.53a95.45,95.45,0,0,1,22.06-25.11,96.44,96.44,0,0,1,14-9.27c.76-.43,1.53-.82,2.35-1.23l1.33-.68c1.27-.61,2.54-1.2,3.78-1.76L67,105c.23-.11.47-.22.67-.34a8.11,8.11,0,0,0,2.48-2.15A5.9,5.9,0,0,0,71.31,99a192.71,192.71,0,0,0,2.52-25.49c.25-7.91.16-16.33-.29-25.74C73.36,44,73.12,40,72.78,35c-.14-2.13-.31-4.26-.48-6.39l-.13-1.58a5.71,5.71,0,0,0-2.7-4.41,5.52,5.52,0,0,0-1.32-.6l-.48-.13a1.73,1.73,0,0,1-.32-.11l-.12,0a2.75,2.75,0,0,1-.3-.14l-.11-.05a1.18,1.18,0,0,1-.19-.11l-.11-.06a4.62,4.62,0,0,1-2-2.63,4,4,0,0,1-.16-.87v-.12c0-.1,0-.2,0-.25v-.07l0-2.91c0-.17,0-.34,0-.51a4.5,4.5,0,0,1,1.45-2.82,4.58,4.58,0,0,1,3-1.15,3,3,0,0,0,.42,0c5.29-.53,10.89-1,17.11-1.32s11.81-.52,17.18-.56c5.7-.08,11.48,0,17.17.19,6.62.25,12.08.57,17.27,1h.27A5.32,5.32,0,0,1,143.66,14l.12,3.22c0,.14,0,.27,0,.37v.31a.91.91,0,0,1,0,.17v.11a4.92,4.92,0,0,1-.18,1,5.57,5.57,0,0,1-2.4,3.25l-.12.07a1.69,1.69,0,0,1-.29.17l-.1.05a2.93,2.93,0,0,1-.4.19l-.11,0a2.64,2.64,0,0,1-.45.15l-.45.14a4.31,4.31,0,0,0-1,.46,4.51,4.51,0,0,0-2.11,3.51l-.88,14.33c-.13,2.13-.23,4.26-.32,6.39-.19,4.07-.32,8.38-.39,12.79s0,9,.05,12.82a201.07,201.07,0,0,0,2.21,25.41,5.06,5.06,0,0,0,1.36,3.46A7.55,7.55,0,0,0,141,104.3a96.05,96.05,0,0,1,58.53,76.39,97.79,97.79,0,0,1,.72,16.53c0,.55-.06,1.11-.08,1.67,0,.85-.06,1.66-.14,2.48l-.39,4.1-.61,4.14c-.13.85-.3,1.68-.48,2.56-.1.5-.21,1-.29,1.45a93.19,93.19,0,0,1-4.84,15.67,89.56,89.56,0,0,1-7.63,14.46,87.34,87.34,0,0,1-22.63,23.35,96.23,96.23,0,0,1-29.43,14.21,113.38,113.38,0,0,1-16.14,3.4,107.8,107.8,0,0,1-16.48.93,111.14,111.14,0,0,1-16.46-1.48,106.21,106.21,0,0,1-16-4,99.1,99.1,0,0,1-15.13-6.51,95.37,95.37,0,0,1-13.77-9A88.75,88.75,0,0,1,18.1,240a86.92,86.92,0,0,1-11-31A96,96,0,0,1,19.86,144.53ZM69.79,99v-.31a1.27,1.27,0,0,1,0,.2S69.8,99,69.79,99Z"/><path class="cls-1" d="M136.18,111.33a4.52,4.52,0,0,1-2.61-3.32c-3.89-17.65-4.35-52.55-2.69-81.44.06-3-53.62-3.7-53.56-.68,1.51,24.67,1.48,57.72-.49,72.69-.52,3.94-.92,6.15-3,9.52l-.13.2a14.61,14.61,0,0,1-6.06,5.08c-30.23,13.94-51.77,45.57-51.77,81,0,48.45,39.28,82.47,87.73,82.47h0c48.45,0,87.73-34,87.73-82.47C191.29,157.66,168.15,124.42,136.18,111.33Z"/></g></g></svg>