<svg xmlns="http://www.w3.org/2000/svg" viewBox="0 0 207.98 294.83"><defs><style>.cls-1{fill:#333;}</style></defs><g id="Layer_2" data-name="Layer 2"><g id="Layer_1-2" data-name="Layer 1"><path class="cls-1" d="M68.76,3.16l-.18,0,.28,0ZM67.15,27.47a.07.07,0,0,1,0,.05v-.05Z"/><path class="cls-1" d="M69.8,98.7l0,.31,0-.16A.76.76,0,0,0,69.8,98.7Zm-1-95.54-.18,0,.28,0ZM67.15,27.47a.07.07,0,0,1,0,.05v-.05Zm0,0a.07.07,0,0,1,0,.05v-.05Z"/><path class="cls-1" d="M206.38,179.62a103,103,0,0,0-12.1-33.22,108.93,108.93,0,0,0-10-14.5q-1.43-1.69-2.86-3.34L179.92,127c-.5-.55-1-1.1-1.54-1.62l-.31-.32c-.9-.92-1.83-1.87-2.81-2.77l-1.56-1.48L172,119.29a106.34,106.34,0,0,0-29.7-18.35,3.89,3.89,0,0,1-1.44-1,1.39,1.39,0,0,1-.43-1v-.17l0-.32c-.63-4.11-1.11-8.32-1.41-12.44s-.48-8.46-.49-12.59c0-7.62.32-15.64,1.13-25.26.34-4.21.75-8.46,1.2-12.62l.78-7.1c.23-.06.42-.13.62-.2a7.46,7.46,0,0,0,1-.39,9.29,9.29,0,0,0,.83-.42l.09-.05a11.63,11.63,0,0,0,5.3-6.5,11.91,11.91,0,0,0,.48-2.09A7.56,7.56,0,0,0,150,18l0-.25c0-.27,0-.45,0-.64l.06-2.68,0-1A12,12,0,0,0,138.51,2.37C132.07,1.59,126.39,1,121.14.7,115.32.32,109.41.09,103.58,0c-6.25,0-12,0-17.61.33S74.79,1,68.62,1.66A12.84,12.84,0,0,0,56.09,13.25L56,14.36l0,3.69c0,.31,0,.61.08.92a11.74,11.74,0,0,0,.49,2.24,12.79,12.79,0,0,0,5.7,7.17c.4.22.73.41,1.07.56s.59.26.89.37l.63,6.35c.48,4.86.84,8.87,1.12,12.6C66.85,58,67.22,66,67.25,73.43a175.58,175.58,0,0,1-1.61,25,2.71,2.71,0,0,0,0,.63.35.35,0,0,1-.09.18,2.4,2.4,0,0,1-.72.64l-.23.13-3.4,1.53c-1.35.65-2.67,1.28-4,2l-1.38.73c-.83.44-1.7.9-2.54,1.4a111.91,111.91,0,0,0-14.49,10,105.32,105.32,0,0,0-12.66,12.26c-.64.71-1.26,1.46-1.86,2.19l-1,1.15c-.66.81-1.28,1.63-1.91,2.44l-.79,1c-1.45,2-3.28,4.58-5,7.34A104.37,104.37,0,0,0,.79,209.78a93.64,93.64,0,0,0,10.84,33.85A94.69,94.69,0,0,0,34.55,271a100.89,100.89,0,0,0,14.84,10.07,107.72,107.72,0,0,0,16.37,7.31,113.48,113.48,0,0,0,35.11,6.38c1.18,0,2.35.05,3.53.05a114.38,114.38,0,0,0,31.92-4.46,103.85,103.85,0,0,0,32.31-15.6,96.69,96.69,0,0,0,24.77-26.08,90.91,90.91,0,0,0,8.16-16.12,93.37,93.37,0,0,0,4.88-17.34c.08-.54.17-1,.26-1.54.16-.95.33-1.93.44-2.93l.49-4.4.27-4.48c0-.62.06-1.25.06-1.86l0-2.63A104.55,104.55,0,0,0,206.38,179.62ZM68.76,3.16h.1l-.28,0Zm-1.6,24.36a.07.07,0,0,0,0-.05h0Zm133,169.72c0,.53,0,1.08-.07,1.64,0,.85-.06,1.66-.14,2.47l-.4,4.19-.6,4.06c-.13.84-.3,1.68-.48,2.56-.11.49-.21,1-.3,1.49a92,92,0,0,1-4.84,15.63,88.71,88.71,0,0,1-7.62,14.46,87.34,87.34,0,0,1-22.63,23.35A99.15,99.15,0,0,1,149,275.45a97.94,97.94,0,0,1-15.35,5.85,112,112,0,0,1-16.12,3.4,108.07,108.07,0,0,1-16.5.93,111.12,111.12,0,0,1-16.45-1.48,106.21,106.21,0,0,1-16-4,98.27,98.27,0,0,1-15.14-6.52,94.93,94.93,0,0,1-13.76-9,88.75,88.75,0,0,1-21.6-24.66,86.73,86.73,0,0,1-11-31.05,95.59,95.59,0,0,1,48.79-98.74c.78-.44,1.56-.83,2.38-1.24l1.37-.7c1.23-.59,2.5-1.18,3.78-1.75L66.88,105c.3-.14.53-.25.76-.38a8,8,0,0,0,2.46-2.15A5.85,5.85,0,0,0,71.31,99a191.21,191.21,0,0,0,2.51-25.49c.26-7.9.17-16.32-.29-25.74-.18-3.79-.42-7.86-.76-12.79q-.21-3.18-.47-6.38L72.17,27a5.74,5.74,0,0,0-2.72-4.41,5.37,5.37,0,0,0-1.26-.57l-.5-.15a1.51,1.51,0,0,1-.34-.11l-.12,0-.31-.14-.1-.05-.19-.1-.13-.08a4.6,4.6,0,0,1-2-2.58,3.85,3.85,0,0,1-.16-.82l0-.13v-.08c0-.1,0-.2,0-.3v-.09l0-2.84a4.36,4.36,0,0,0,0-.51,4.51,4.51,0,0,1,4.45-4,3,3,0,0,0,.42,0c5.29-.53,10.89-1,17.13-1.32s11.79-.52,17.16-.56c5.7-.08,11.48,0,17.18.19,6.62.25,12.08.57,17.18,1a2.71,2.71,0,0,0,.36,0,5.33,5.33,0,0,1,3.54,1.27A5.4,5.4,0,0,1,143.67,14l.06,1.27,0,1.87c0,.14,0,.27,0,.37s0,.2,0,.31a1.08,1.08,0,0,1,0,.18v.1a5,5,0,0,1-.17,1,5.68,5.68,0,0,1-2.43,3.29l-.1.06a1.78,1.78,0,0,1-.3.17l-.09.05a3,3,0,0,1-.41.19l-.1,0a3.66,3.66,0,0,1-.43.15l-.44.13a4.16,4.16,0,0,0-1,.48,4.55,4.55,0,0,0-2.1,3.5l-.51,8-.36,6.38c-.13,2.12-.23,4.25-.32,6.38-.19,4.06-.32,8.37-.39,12.8s0,9,0,12.81a201.05,201.05,0,0,0,2.22,25.41,5.05,5.05,0,0,0,1.37,3.47,7.53,7.53,0,0,0,2.76,1.92A96.24,96.24,0,0,1,189.57,149a96.06,96.06,0,0,1,10.63,48.28ZM69.78,99l0-.31a.76.76,0,0,1,0,.15Z"/></g></g></svg>