<?xml version="1.0" encoding="utf-8"?>
<!-- Generator: Adobe Illustrator 25.3.1, SVG Export Plug-In . SVG Version: 6.00 Build 0)  -->
<svg version="1.1" id="Layer_1" xmlns="http://www.w3.org/2000/svg" xmlns:xlink="http://www.w3.org/1999/xlink" x="0px" y="0px"
	 viewBox="0 0 861.9 656.9" style="enable-background:new 0 0 861.9 656.9;" xml:space="preserve">
<style type="text/css">
	.st0{fill:none;stroke:#000000;stroke-width:0.5631;stroke-miterlimit:10;}
	.st1{opacity:0.2;fill:none;stroke:#000000;stroke-width:0.5631;stroke-miterlimit:10;enable-background:new    ;}
	.st2{opacity:0.64;fill:none;stroke:#000000;stroke-width:0.5631;stroke-miterlimit:10;enable-background:new    ;}
	.st3{opacity:0.29;fill:none;stroke:#000000;stroke-width:0.5631;stroke-miterlimit:10;enable-background:new    ;}
	.st4{fill:none;stroke:#000000;stroke-width:0.563;stroke-miterlimit:9.9998;}
	.st5{opacity:0.13;fill:none;stroke:#000000;stroke-width:0.5631;stroke-miterlimit:10;enable-background:new    ;}
	.st6{opacity:0.14;fill:none;stroke:#000000;stroke-width:0.5631;stroke-miterlimit:10;enable-background:new    ;}
	.st7{fill:none;stroke:#000000;stroke-width:0.5631;stroke-miterlimit:10.0002;}
	.st8{opacity:0.1;fill:none;stroke:#000000;stroke-width:0.5631;stroke-miterlimit:10;enable-background:new    ;}
	.st9{opacity:0.45;fill:none;stroke:#000000;stroke-width:0.5631;stroke-miterlimit:10;enable-background:new    ;}
	.st10{opacity:0.46;fill:none;stroke:#000000;stroke-width:0.5631;stroke-miterlimit:10;enable-background:new    ;}
	.st11{opacity:0.18;fill:none;stroke:#000000;stroke-width:0.5631;stroke-miterlimit:10;enable-background:new    ;}
	.st12{opacity:0.15;fill:none;stroke:#000000;stroke-width:0.5631;stroke-miterlimit:10;enable-background:new    ;}
	.st13{opacity:0.3;fill:none;stroke:#000000;stroke-width:0.5631;stroke-miterlimit:10;enable-background:new    ;}
	.st14{fill:none;stroke:#000000;stroke-width:0.563;stroke-miterlimit:9.9995;}
	.st15{opacity:0.4;fill:none;stroke:#000000;stroke-width:0.5631;stroke-miterlimit:10;enable-background:new    ;}
	.st16{fill:none;stroke:#000000;stroke-width:0.9178;stroke-linecap:round;stroke-miterlimit:10;}
	.st17{fill:none;stroke:#000000;stroke-miterlimit:10;}
	.st18{opacity:0.2;fill:none;stroke:#000000;stroke-miterlimit:10;enable-background:new    ;}
	.st19{opacity:0.64;fill:none;stroke:#000000;stroke-miterlimit:10;enable-background:new    ;}
	.st20{opacity:0.29;fill:none;stroke:#000000;stroke-miterlimit:10;enable-background:new    ;}
	.st21{fill:none;stroke:#000000;stroke-width:1;stroke-miterlimit:9.9998;}
	.st22{opacity:0.13;fill:none;stroke:#000000;stroke-miterlimit:10;enable-background:new    ;}
	.st23{opacity:0.14;fill:none;stroke:#000000;stroke-miterlimit:10;enable-background:new    ;}
	.st24{fill:none;stroke:#000000;stroke-width:1;stroke-miterlimit:10.0002;}
	.st25{opacity:0.1;fill:none;stroke:#000000;stroke-miterlimit:10;enable-background:new    ;}
	.st26{opacity:0.45;fill:none;stroke:#000000;stroke-miterlimit:10;enable-background:new    ;}
	.st27{opacity:0.46;fill:none;stroke:#000000;stroke-miterlimit:10;enable-background:new    ;}
	.st28{opacity:0.18;fill:none;stroke:#000000;stroke-miterlimit:10;enable-background:new    ;}
	.st29{opacity:0.4;fill:none;stroke:#000000;stroke-miterlimit:10;enable-background:new    ;}
	.st30{opacity:0.8;fill:none;stroke:#000000;stroke-miterlimit:10;enable-background:new    ;}
	.st31{opacity:0.3;fill:none;stroke:#000000;stroke-miterlimit:10;enable-background:new    ;}
	.st32{opacity:0.5;fill:none;stroke:#000000;stroke-miterlimit:10;enable-background:new    ;}
	.st33{opacity:0.31;fill:none;stroke:#000000;stroke-miterlimit:10;enable-background:new    ;}
	.st34{fill:none;stroke:#000000;stroke-width:0.5;stroke-miterlimit:10;}
	.st35{fill:none;stroke:#000000;stroke-width:1;stroke-miterlimit:9.9996;}
	.st36{fill:none;stroke:#000000;stroke-linecap:round;stroke-miterlimit:10;}
	.st37{opacity:8.000000e-02;fill:none;stroke:#000000;stroke-miterlimit:10;enable-background:new    ;}
	.st38{fill:none;stroke:#000000;stroke-width:1;stroke-miterlimit:9.9999;}
	.st39{opacity:0.15;fill:none;stroke:#000000;stroke-miterlimit:10;enable-background:new    ;}
	.st40{fill:none;stroke:#000000;stroke-width:1;stroke-miterlimit:9.9995;}
	.st41{fill:none;stroke:#000000;stroke-width:1.63;stroke-linecap:round;stroke-miterlimit:10;}
	.st42{fill:none;stroke:#000000;stroke-width:0.5549;stroke-miterlimit:10;}
	.st43{opacity:0.4;fill:none;stroke:#000000;stroke-width:0.5549;stroke-miterlimit:10;enable-background:new    ;}
	.st44{opacity:0.8;fill:none;stroke:#000000;stroke-width:0.5549;stroke-miterlimit:10;enable-background:new    ;}
	.st45{opacity:0.3;fill:none;stroke:#000000;stroke-width:0.5549;stroke-miterlimit:10;enable-background:new    ;}
	.st46{opacity:0.5;fill:none;stroke:#000000;stroke-width:0.5549;stroke-miterlimit:10;enable-background:new    ;}
	.st47{opacity:0.31;fill:none;stroke:#000000;stroke-width:0.5549;stroke-miterlimit:10;enable-background:new    ;}
	.st48{fill:none;stroke:#000000;stroke-width:0.5549;stroke-linecap:round;stroke-linejoin:round;stroke-miterlimit:10;}
	.st49{fill:none;stroke:#000000;stroke-width:0.5549;stroke-linecap:round;stroke-miterlimit:10;}
	.st50{fill:none;stroke:#000000;stroke-width:0.205;stroke-miterlimit:10;}
	.st51{fill:none;stroke:#000000;stroke-width:0.2774;stroke-miterlimit:10;}
	.st52{fill:none;stroke:#000000;stroke-width:0.5548;stroke-miterlimit:9.9996;}
	.st53{fill:none;}
	.st54{opacity:0.2;fill:none;stroke:#000000;stroke-width:0.5549;stroke-miterlimit:10;enable-background:new    ;}
	.st55{fill:none;stroke:#000000;stroke-width:0.5549;stroke-miterlimit:10.0002;}
	.st56{opacity:8.000000e-02;fill:none;stroke:#000000;stroke-width:0.5549;stroke-miterlimit:10;enable-background:new    ;}
	.st57{fill:none;stroke:#000000;stroke-width:0.5549;stroke-miterlimit:9.9999;}
</style>
<g>
	<path class="st0" d="M806.8,393.7c-5.2,2.2-88-10.2-90.9-13.3c-6.1-17-1.1-28.1,0.7-30.5l30.7-146.3c4.3-21.2,19.8-29.4,24.2-30.7
		c0.6-5.3,11.7-40,11.7-40c-1.6-2.8,1.6-10.7,2.5-11.8c7-13.6,22-8.9,22.5,4.8c0.3,2.6-0.2,7.4-1.2,8.1l0.7,44
		c3.8,1.2,17.4,15.2,15,34.4l-8,150.3C814.6,367.5,816.3,383.7,806.8,393.7z"/>
	<path class="st1" d="M782.7,389.9c-26.8-3.3-57.2-8.5-63.9-10.6c-4.7-14.4-0.7-23.8,0.7-25.4c0.4-0.5,0.7-1.1,0.8-1.7l30.9-147.5
		c1.7-8.4,3.4-17.4,9.1-22.9c4.4-4.3,8.9-7.9,10.6-8.4c1.6-0.5,4-1.2,4.2-2.8c0.4-3.6,3.9-15.6,6.7-24.8c0.9-0.7,6.1-1.1,12-0.5
		c5.2,0.7,8.6,2,9.3,2.7c0.2,0.2,0.3,0.4,0.5,0.6l0.6,29.5c0,1.6,1.1,3.1,2.7,3.7c0.9,0.4,4.7,3.4,8,9.1c3.8,6.5,5.3,13.9,4.5,21.4
		v0.2l-8,151.5v0.3c0,0.4,0,0.9,0.1,1.6c0.2,5.4,0.9,17.9-5.9,25.8C803.5,391.9,798.1,391.8,782.7,389.9z"/>
	<path class="st2" d="M731.6,353l20.2-147c4.3-21.2,15.7-32.4,24.4-32c0.6-5.3,10.8-47.2,10.8-47.2c-2,1.4-1.9-5,1.9-5.1
		c-3.3-0.3,0.5-4.3,0.5-4.3l-3.9,3.9c-0.9,1.2-4.2,9-2.5,11.8c0,0-11.2,34.7-11.7,40c-4.3,1.3-19.9,9.5-24.2,30.7l-30.7,146.1
		c-1.9,2.4-6.8,13.5-0.7,30.5c0.9,0.9,8.7,2.6,19.4,4.5C725.8,383.7,725.1,356.4,731.6,353z"/>
	<path class="st0" d="M797.8,354.9h0.2c1.8,0.1,3.4-1.2,3.6-3l14.2-144.5c0-5.7-10.3-11.2-10.5-2.8l-10.6,146.8
		C794.5,353.2,795.9,354.8,797.8,354.9L797.8,354.9z"/>
	<path class="st0" d="M743.2,222.9c11.4-19.9,73.7-16.1,78.2,10.4l-6.1,115.5c-18-10.3-84.1-17.1-95.7-13.3L743.2,222.9z"/>
	<path class="st0" d="M805.8,125.7c-1-1.1-2-2.2-3.2-3.2c-0.2-0.1-0.2-0.3,0-0.5l0,0l0.1-0.1l0.2-0.1c0.3-0.2,0.7-0.1,1.1,0.2
		c0.8,0.7,1.6,1.4,2.2,2.2c0.2,0.2,0.3,0.6,0.2,0.9l-0.1,0.5c-0.1,0.2-0.2,0.2-0.4,0.2C805.8,125.8,805.8,125.8,805.8,125.7z"/>
	<path class="st0" d="M804.2,127.3c-0.8-0.9-1.8-1.6-2.8-2.3c-0.1-0.1-0.2-0.2,0-0.4l0.1-0.1l0.2-0.2c0.2-0.2,0.6-0.2,0.8,0
		c0.7,0.4,1.3,1,1.9,1.6c0.2,0.2,0.2,0.5,0.2,0.7l-0.1,0.4C804.6,127.2,804.5,127.3,804.2,127.3L804.2,127.3
		C804.3,127.3,804.2,127.3,804.2,127.3z"/>
	<path class="st0" d="M808.1,126c-0.9-5.7-7-11.4-13.5-10.7c-6.6,0.7-8.3,5.3-10,8.1c-1.1-5.9,2.9-11.2,11.3-12.1
		C803.6,110.5,812.1,120.9,808.1,126z"/>
	<path class="st0" d="M732.5,306.5c-1.6-1.2-0.3-9.4,1.4-11.4c0.9,0.3,1.6,1.1,2.8,3.1C735,302.4,733.9,304.6,732.5,306.5
		 M748.6,281.8c11.2-25,17.8-40.2,23-43.1C774.5,241.6,765.7,272.4,748.6,281.8 M769.9,235.3c-3.2,0.2-9.8,0.5-27.6,47.1
		c-12.4-4.3,2-35.7,4.8-38c2.1,2.8-6.6,23.5-6.7,23.7c-0.5,1-0.7,1.3,0.1,1.9c4.8-1.3,14.3-24.5,8.2-27.6
		c-8.7-4.1-15.5,30.1-13,38.2c1.1,3.6,3.9,4.2,5.7,4.5c-1.2,3.3-2.5,6.6-3.7,9.8c-7.3-7.6-7.5,5.5-7.6,10.4c-0.2,6.5,4.8,2,5.1,1.8
		c1.4-1.4,2.6-3,3.6-4.8c2.3,5.2,3.9,6.8,6.7,7.1v0.1c8.7-0.1,11.3-10.3,10.2-11.7c-0.2-0.2-0.5-0.3-0.8-0.3
		c-4.4,8.8-10.7,4.3-14.1,1c1-1.9,1-1.9,6.1-13.6c20.7-6,40.1-41.5,26.6-48.8C772.4,235.7,771.2,235.4,769.9,235.3"/>
	<path class="st0" d="M782.1,258c2.5-1.8,5.5-3,8-4.8c2-1.4,2.5-2.4,2.8-3c1.2-3.1-2.5-3.8-5.8-4.3l0,0c-1.2,3-2.7,5.7-4.5,8.4
		c-0.5,0.7-1,1.4-1.4,2.1c-0.2,0.6-0.1,1.2,0.5,1.6C781.7,258,781.9,258,782.1,258z"/>
	<path class="st0" d="M812.6,292.8c-4.3,5.7-4.3,5.7-6.1,6.3c-1.7,0.7-3.9,1.4-4.3-2.6c-0.1-1.3,0-2.7,0.3-4
		c8.5,4.8,16-14.1,13.9-21.3c-0.4-1.7-1.6-3.2-3.3-3.9c-4.5-1.4-11.2,7.5-14.6,16.6c-3.5,5.3-7.6,10.4-12.1,12.6
		c-1.7-2.4-2-2.9,12.5-29.5c4.5,0.8,6.5,0.9,5.9-1.2c-0.7-0.3-4.5-1.2-4.5-1.2c3-4.9,5-8.1-1.4-9.6l-0.5-0.1
		c-0.4,0.4-0.7,0.9-5.1,8.3c-3.7-0.7-4.1-0.6-4.2-0.6c-1.1,0.2-1,1.6-1,1.6c0.1,0.2,0.2,0.4,3.9,1.2c-1.7,3-3.2,5.7-4.6,8.3
		c-4.8,7.4-11.8,17-18.7,20.7c3.5-10.5,11.6-18.7,15.1-29.2c0.3-1,1.2-3.7-4-4.4c-0.5-0.1-1.1-0.1-1.6-0.1
		c-3.4,11.1-13.1,19-15.6,30.6c-1.3,6.1,4.3,7.6,7.7,5.7c3-1.6,7.2-6.4,11.2-11.6c-1.2,2.5-2.1,5-2.8,7.7c-0.7,3.6,3.7,7.5,7.2,6.7
		c4.1-1,9.1-7.5,10.5-9.5c0.1-0.1,0.2-0.2,0.2-0.3c-0.7,3.4-0.7,6.4,0.5,8.4c5.1,8.6,13.5,5,15.5-4
		C813.1,293.1,812.8,293,812.6,292.8z M814.2,270.5c0.8,2-3.6,19-11.2,20C805.6,282.8,811.7,270.8,814.2,270.5L814.2,270.5z"/>
	<path class="st3" d="M748.7,370c0.3,2.2,0.2,3.1-0.4,4.2c-0.7,1.3-2.1,4.9,1.7,5.6c2,0.3,2.8-2.1,2.8-3.8c-0.1-3.4,1.3-3.5,2-3.4
		c1.1,0.1,1.9,1.1,1.8,2.1l0,0c0,0.2-0.1,0.4-0.2,0.6c-0.2,0.7-1.3,2.2,0.1,3.1c1.1,0.7,4.1,0.3,3.6-1.9c-0.4-1.6-0.7-3-0.2-4.2
		c0.5-1.4,1-1.8,2.1-2c1.7-0.2,1.7,4.5,5.2-0.2C769.8,366.4,749,369.7,748.7,370z"/>
	<path class="st0" d="M741.2,353.7c-8.4-1.1-14.3-8.9-13.1-17.4c1.1-8.4,8.9-14.3,17.4-13.1c8.4,1.1,14.2,8.8,13.2,17.1
		c-1.1,8.4-8.7,14.4-17.1,13.4C741.3,353.7,741.2,353.7,741.2,353.7z"/>
	<path class="st0" d="M783.9,378.8c-0.2,1.7-8.4-7.7-19.2-9c-10.7-1.3-16.9,1.1-17.6,0.7c-1.6-0.9,7.3-4.6,18-3.2
		C775.7,368.6,784,377,783.9,378.8z"/>
	
		<ellipse transform="matrix(0.1229 -0.9924 0.9924 0.1229 316.8555 1033.6071)" class="st4" cx="743.2" cy="337.5" rx="13.3" ry="13.4"/>
	
		<ellipse transform="matrix(0.1229 -0.9924 0.9924 0.1229 319.5322 1031.8057)" class="st4" cx="743.5" cy="335.1" rx="11.1" ry="11.2"/>
	<path class="st0" d="M798.7,371.4c-8.4-1.1-14.3-8.9-13.1-17.4c1.1-8.4,8.9-14.3,17.4-13.1c8.4,1.1,14.2,8.8,13.2,17.1
		c-1.1,8.4-8.7,14.4-17.1,13.4C798.9,371.4,798.8,371.4,798.7,371.4z"/>
	
		<ellipse transform="matrix(0.1229 -0.9924 0.9924 0.1229 350.2578 1106.7543)" class="st4" cx="801.3" cy="355.2" rx="13.3" ry="13.4"/>
	
		<ellipse transform="matrix(0.1229 -0.9924 0.9924 0.1229 352.2879 1105.3762)" class="st4" cx="801.5" cy="353.4" rx="11.1" ry="11.2"/>
	<path class="st0" d="M802.4,177.4l-2.4-1.1c-0.5-0.3-0.7-1-0.7-1.6l3-44.2c0-0.2,0.2-0.3,0.5-0.2c0.5,0.2,0.9,0.5,1.2,0.8
		c0.2,0.2,0.2,0.3,0.2,0.5l-0.8,45.3C803.5,177.6,803,177.9,802.4,177.4z"/>
	<path class="st1" d="M750.1,216.1c-3,1.6-5.6,4-7.4,7l-23.5,112.7c4.8-1.6,9.8-2.5,14.8-2.5L750.1,216.1z"/>
	<path class="st0" d="M649.2,434.6c-3.1-2.2-9.8-3.9-13.1-2.5l-80,34c-4.4,1.9-8.3,6.9-7.2,11.7c10.7,47.1,17.1,95,19.2,143.3
		c0.5,6.7,4.7,10.9,11.4,12.3c23.5,2.8,48.6,4.7,72.2,7.4c1.9,0.2,3.9-0.2,5.5-1.3c3.6-2.4,6.2-3.9,6.3-7.7
		c1.8-48.2-0.4-97.4-5.7-145.4c-1.7-15.6-4.1-29.8-6.5-45.3C650.8,438.1,650.1,435.2,649.2,434.6z"/>
	<path class="st0" d="M570.4,622.8c-2-49-8.4-97.8-18.9-145.8c-0.7-3.2,1.7-6.6,4.7-7.7l77.8-32.5c3.4-1.3,6.6,1.1,7.1,4.5
		c2.5,15.3,4.6,30.7,6.4,46.1c5.5,47.2,7.6,94.8,6.4,142.3c0,3-2.2,6.4-5.7,6.1l-72.1-7.3C573,628.3,570.6,625.9,570.4,622.8z"/>
	<path class="st0" d="M639.5,463.4c6.9,48.5,10.3,97.4,10.2,146.4c0.1,1-0.7,1.9-1.7,2l0,0l0,0l-74.3-2.8c-0.9,0-1.7-0.7-1.8-1.7
		c-1.3-22.7-3.5-45.3-6.6-67.9c-1.7-12.5-3.8-25-6.1-37.5c-0.7-3.4-1.3-6.8-2-10.2c-0.1-1,0.5-2,1.5-2.2l17.4-6.1l51.8-18.1l9.5-3.4
		c0.8-0.2,1.7,0.2,2,1.1C639.5,463.2,639.6,463.4,639.5,463.4L639.5,463.4z"/>
	<path class="st0" d="M567.8,494.8l2.9-0.9c3.3,4.6,6.5,9.3,9.5,13.9h0.1c1.5-6.1,2.9-12.3,4.2-18.4l2.9-0.9
		c1.1,6.6,2.1,13.2,3.1,19.8l-2.3,0.6c-0.7-5.1-1.6-10.1-2.4-15.2l-1.1,0.3c0.7-1.6,1.4-3.2,2-4.8c-1.6,7.1-3.2,14.2-4.9,21.2
		l-2,0.6c-3.5-5.4-7.2-10.7-11-16.1c1.1,1,2.2,1.9,3.4,2.9l-1.1,0.3c0.8,4.8,1.6,9.7,2.5,14.4l-2.3,0.6
		C569.9,507.1,568.9,500.9,567.8,494.8z"/>
	<path class="st0" d="M597.5,505.2c-1.5-0.5-2.8-1.5-3.7-2.7c-1.1-1.6-1.6-3.4-1.9-5.2l0,0c-0.3-2-0.2-3.9,0.2-5.8
		c1-3.5,3.7-6.4,7.2-7.5c1.6-0.6,3.4-0.7,5.1-0.2c1.6,0.5,2.9,1.4,3.7,2.7c1.1,1.6,1.7,3.5,2,5.4l0,0c0.2,2,0.2,4.1-0.3,6.1
		c-0.5,1.7-1.4,3.3-2.6,4.6c-1.3,1.3-2.9,2.1-4.7,2.6C600.9,505.7,599.1,505.7,597.5,505.2z M605.5,500.8c0.9-1,1.6-2.2,1.9-3.5
		c0.3-1.6,0.4-3.1,0.2-4.7l0,0c-0.2-1.5-0.7-3-1.5-4.2c-0.7-1-1.6-1.7-2.7-2.2c-1.2-0.3-2.5-0.3-3.6,0.1c-1.3,0.4-2.5,1.1-3.4,2.1
		c-0.9,1-1.6,2.2-1.9,3.5c-0.3,1.5-0.4,3-0.2,4.5l0,0c0.2,1.4,0.7,2.8,1.5,4c0.7,1,1.6,1.7,2.7,2.2c1.1,0.4,2.5,0.4,3.6,0.1
		C603.5,502.5,604.6,501.8,605.5,500.8L605.5,500.8z"/>
	<path class="st0" d="M611.7,480.7l2.9-0.9c3.2,5.3,6.3,10.7,9.3,16.2h0.1c1.6-6.9,3-13.8,4.3-20.7l2.9-0.9c1.1,7.5,2,15,2.9,22.5
		l-2.3,0.6c-0.7-5.7-1.4-11.5-2.2-17.2l-1.1,0.3l2-5.3c-1.6,8-3.3,15.9-5.1,23.9l-2,0.6c-3.5-6.3-7.2-12.5-10.9-18.6
		c1.1,1.1,2.2,2.2,3.3,3.4l-1.1,0.3c0.8,5.5,1.6,11.1,2.2,16.6l-2.3,0.6C613.7,494.8,612.7,487.7,611.7,480.7z"/>
	<path class="st0" d="M615.7,526.7c-0.3,0.3-0.5,0.7-0.3,1.2c0.7,2.6,3.5,4.8,5.5,6.4c1.9,1.5,4.8,3.9,7.3,3.9
		c0.4,0,0.8-0.3,0.9-0.7l0,0c2.8-8.3,5.4-16.6,8-24.8c0.7-1.8-1.3-3.6-2.9-2.2C628.2,515.9,622,521.3,615.7,526.7L615.7,526.7z"/>
	<path class="st0" d="M591.3,525.2c0.4,0.1,0.6,0.4,0.6,0.8c-0.2,2.7-2.5,5.5-4.1,7.6s-3.7,4.9-6.2,5.8c-0.3,0.2-0.7,0-0.9-0.2l0,0
		c-3.5-5.3-7.1-10.7-10.8-15.8c-0.5-1.1-0.1-2.3,1-2.8c0.4-0.2,0.8-0.2,1.3-0.2C578.5,521.8,585,523.5,591.3,525.2L591.3,525.2z"/>
	<path class="st0" d="M628.7,539c-2.6-7.7-11.8-9-16-15.4c-1.6-2.4-4.3-3.8-7.1-3.8c-1.6,0-4.1,0.3-4.9,1.9
		c-5.8-0.7-11.2,5-14.2,9.3c-4,5.7-6.9,12.9-6.1,19.8c0.7,6.1,3.6,11.6,8,15.7c5.1,4.8,12.2,7.6,19.3,7.1
		c7.1-0.5,12.9-5.2,16.8-10.8C629.2,556.2,631.4,546.9,628.7,539z"/>
	<path class="st0" d="M634.6,544.9c-2.2-8.9-5.1-18.1-10.5-25.6c-2.5-3.5-6.1-7-10.6-7.8c-5.2-1-10.5,2.1-13.8,6
		c-8-4.4-14.5,3.9-17.5,10.2c-3.9,7.9-6,17.9-3.9,26.5c0.3,1.5,3.1,10,0.7,11.1c-1,0.5-2.2-1-3-1.6c-1,6.4,6.7,6.3,10.5,3.8
		c0.6-0.4,1.2-0.7,1.9-0.9c-4.4-4.1-7.3-9.8-8-15.7c-0.8-7,2-14.2,6.1-19.8c3-4.3,8.4-9.9,14.2-9.3c0.9-1.6,3.4-1.9,4.9-1.9
		c2.9,0,5.5,1.4,7.1,3.8c2.3,5.1,4.8,10.4,8.9,14.4c2.3,2.2,4.2,3.9,5.2,7.1c1,2.9,1.9,6.1,1.6,9.2c-0.4,3.1-2.1,6-3.9,8.6
		c8.2,3.5,14.3-1.9,17.4-9.3C638.5,557.2,635.1,546.2,634.6,544.9z"/>
	<path class="st0" d="M602.9,541.8c0.3,3.6,3.8,6.6,7.5,6.1c3.9-0.5,6.5-4.7,6.1-8.4s-3.7-6.9-7.5-6.1
		C605.3,534.2,602.6,538.1,602.9,541.8z"/>
	<path class="st0" d="M604.9,539.7c0.1,1.4,1.4,2.5,2.8,2.4l0,0h0.2c1.5-0.3,2.5-1.7,2.4-3.2c-0.2-1.5-1.5-2.5-3-2.4l0,0
		C605.7,536.7,604.7,538.3,604.9,539.7z"/>
	<path class="st0" d="M611.8,543.1c0,0.7,0.7,1.2,1.3,1.2h0.1c0.7-0.2,1.2-0.8,1.1-1.6c0-0.7-0.7-1.2-1.3-1.2l0,0h-0.1
		C612.2,541.6,611.7,542.3,611.8,543.1z"/>
	<path class="st0" d="M578.5,544.5c0.6,3.6,3.9,6.1,7.5,5.6c3.8-0.7,6.4-4,6.1-7.9c-0.4-3.5-3.7-6.1-7.2-5.7l0,0
		c-0.2,0-0.2,0-0.4,0.1C580.9,537.4,577.9,540.9,578.5,544.5z"/>
	<path class="st0" d="M580.4,542.6c0.2,1.4,1.5,2.4,2.9,2.1l0,0h0.1c1.5-0.2,2.5-1.6,2.4-3c-0.2-1.4-1.5-2.3-2.8-2.1h-0.1
		C581.3,539.8,580.2,541.1,580.4,542.6z"/>
	<path class="st0" d="M587.3,545.6c0.1,0.7,0.7,1.2,1.4,1.1l0,0h0.1c0.7-0.1,1.2-0.8,1.2-1.6c-0.1-0.7-0.7-1.2-1.4-1.1h-0.2
		C587.7,544.2,587.2,544.9,587.3,545.6z"/>
	<path class="st0" d="M590.9,556.7c1.3,2,2.8,3.9,4.4,5.6c1.1,1.2,2.4,2.2,3.9,3c0.2,0.2,1,0.2,1.1-0.3c0.8-1.6,1.4-3.2,1.8-4.9
		c0.4-1.6,0.5-3.2,0.3-4.8c-0.1-0.2-0.2-0.5-0.5-0.7c-0.9-0.4-2-0.7-3-0.7s-2,0-3.1,0.2c-0.7,0.1-1.2,0.2-1.9,0.3
		c-1,0.2-1.9,0.6-2.7,1.1l-0.2,0.1C590.7,555.8,590.5,556.3,590.9,556.7z"/>
	<path class="st0" d="M599,553.8c0.5,1.2,1,2.5,1.5,3.7c0.1,0.2,0.4,0.3,0.7,0.2c0.2-0.1,0.2-0.2,0.2-0.3c0.2-1.1,0.3-1.7,0.6-2.9
		C601,554,600,553.8,599,553.8z"/>
	<path class="st0" d="M591.3,555.4c0.4,1.1,0.7,1.6,1.1,2.5c0.1,0.2,0.4,0.3,0.7,0.2c0.2-0.1,0.2-0.2,0.3-0.4
		c0.2-1.1,0.5-2.4,0.7-3.6C593,554.5,592.1,554.9,591.3,555.4z"/>
	<path class="st0" d="M595.3,562.2c1.1,1.2,2.4,2.2,3.9,3c0.2,0.2,1,0.2,1.1-0.3c0.7-1.6,1.4-3.2,1.8-4.9c-0.6-0.2-1.1-0.4-1.8-0.5
		c-0.3,0-0.7,0-1,0c-0.4,0.1-0.7,0.2-1.1,0.2C597,560.1,595.9,561,595.3,562.2z"/>
	<path class="st0" d="M594.2,549.6c1.2,0.7,2.4,1.5,3.6,2.2l-5.1,0.1C593.3,551,593.6,550.5,594.2,549.6z"/>
	<path class="st0" d="M594.2,549.6l1.6-3.4l-1.5,3.5l3.4,2C596.6,551.1,595.4,550.4,594.2,549.6z"/>
	<path class="st0" d="M605.1,534.1c0.2-0.2,0.5-0.5,0.7-0.7c1.2-1.1,2.8-1.9,4.5-2c0.2-0.2,0.4-0.3,0.7-0.6c0.9-0.9,1.6-2,2-3.1
		c-0.1,0.2-0.1,0.5-0.2,0.7c-0.2,1.1-0.7,2-1.5,3l0,0c0.8,0.1,1.6,0.3,2.2,0.7l0.2-0.2c0.9-0.9,1.6-2,2-3.1c0,0.2-0.1,0.5-0.2,0.7
		c-0.2,1.1-0.7,2-1.4,3c0.7,0.5,1.4,1.1,1.9,1.9c0.9-0.9,1.6-2,2-3.1c0,0.2-0.1,0.5-0.2,0.7c-0.2,1.1-0.8,2.1-1.6,3
		c0.7,1.4,0.9,3,0.7,4.5c0,0.2-0.1,0.5-0.2,0.7c0.1-1.6-0.3-3.2-1.1-4.5c-0.2-0.2-0.3-0.4-0.5-0.7c-1.1-1.2-2.5-2-4.2-2.1
		c-1.7-0.2-3.4,0.3-4.8,1.3c-0.3,0.2-0.6,0.5-0.9,0.7c-1.1,1-1.8,2.3-2.2,3.8c0-0.2,0-0.5,0.1-0.7
		C603.6,536.6,604.2,535.3,605.1,534.1z"/>
	<path class="st0" d="M589.5,536.7c-0.2-0.2-0.5-0.4-0.7-0.6c-1.3-0.9-3-1.3-4.5-1.1c-0.2-0.1-0.4-0.2-0.7-0.4
		c-0.9-0.7-1.6-1.5-2.1-2.5c0.1,0.2,0.1,0.4,0.2,0.7c0.3,1,0.9,1.8,1.6,2.5l0,0c-0.8,0.2-1.6,0.6-2.2,1l-0.2-0.1
		c-0.9-0.7-1.6-1.5-2.1-2.5c0,0.2,0.1,0.4,0.2,0.7c0.3,0.9,0.9,1.7,1.6,2.4c-0.7,0.6-1.3,1.3-1.7,2c-0.9-0.6-1.6-1.5-2.1-2.5
		c0,0.2,0.1,0.4,0.2,0.6c0.3,1,0.9,1.8,1.6,2.5c-0.6,1.3-0.7,2.8-0.5,4.2c0,0.2,0.1,0.4,0.2,0.6c-0.2-1.5,0.2-3,1-4.3
		c0.2-0.2,0.3-0.5,0.5-0.7c1-1.3,2.4-2.2,3.9-2.7c1.6-0.5,3.3-0.3,4.8,0.4c0.3,0.2,0.6,0.3,0.9,0.6c1.1,0.8,1.9,2,2.3,3.3
		c0-0.2-0.1-0.5-0.1-0.7C591.2,538.8,590.5,537.6,589.5,536.7z"/>
	<path class="st0" d="M618.3,457.3L574.2,474c-0.4,0.2-0.9,0-1.1-0.3c0-0.1-0.1-0.1-0.1-0.2l0,0c-0.1-0.6,0.2-1.1,0.7-1.2l44.1-17
		c0.4-0.2,0.9,0,1.1,0.4c0,0.1,0.1,0.2,0.1,0.2l0,0C619.1,456.5,618.8,457,618.3,457.3z"/>
	<path class="st5" d="M641,474.8c-21.1,33.3-44.9,64.9-72.3,93.4c0.2,1.8,0.3,3.5,0.6,5.3c27.6-27.9,51.5-59,72.6-91.9
		C641.6,479.3,641.4,477.1,641,474.8z"/>
	<path class="st5" d="M649.6,609.8c0.1-12.2-0.2-24.4-0.5-36.6c-11.1,13-22.7,25.4-34.9,37.2l33.8,1.2
		C649,611.7,649.7,610.9,649.6,609.8L649.6,609.8z"/>
	<path class="st6" d="M621.6,467.4c-16.9,24.8-31.7,45.5-56.4,72.1c-1.7-12.5-3.8-25-6.1-37.5c6.1-5.8,11.7-12.1,16.9-18.6
		C593.3,477.4,604.3,473.4,621.6,467.4z"/>
	<path class="st0" d="M667.1,315.4l-2.5-0.8c-0.9-0.2-1.7-0.7-2.5-1.2c-6.3-2.7-7.2-15.3-8-21.2c-4.8-27.6-18.1-54-29.1-79.5
		c6.1-5.9-3-14.4-5.7-19.8c0-0.2,0-0.4,0.1-0.6c2.8-2.2,0.7-5.3-2.1-7.1c-5.8-1.6-14.8,2.9-20.2,4.8c-5.8,2.1-14.4,4.3-18.6,8.4
		c-1.5,1.6-1.9,4.2-1.1,5.5c1.8,0.4,2,1.1,2,1.4c-0.2,4.3-2.6,17.5,4,18.4c2.4,17.7,5.9,35.3,10.5,52.6c2.9,10.9,5.7,22.5,11.1,32.6
		c0,0,2.2,4,3.2,5.7c2.4,4.7,8,13,4.3,18.4l-0.8,1l-0.2,0.2l0,0c-9.3,11.8-8.4,26-4.8,39.5c13,31.4,24.6,63.4,36.9,95.1
		c6.2,15.7,22.5,26.6,39.9,21.5c19-5.7,37.6-23.2,35.9-43.7c-7.1-34.4-15.3-68.4-24.4-102.3C689.7,331.6,681.4,319.4,667.1,315.4z"
		/>
	<path class="st0" d="M667.1,315.4l-2.5-0.8c-0.9-0.2-1.7-0.7-2.5-1.2c-6.3-2.7-7.2-15.3-8-21.2c-4.8-27.6-18.1-54-29.1-79.5
		c6.1-5.9-3-14.4-5.7-19.8c0-0.2,0-0.4,0.1-0.6c2.8-2.2,0.7-5.3-2.1-7.1c-5.7-1.2-15,2.2-20.4,4.2c-5.8,2.1-14.2,5-18.4,9.1
		c-1.5,1.6-1.9,4.2-1.1,5.5c1.8,0.4,2,1.1,2,1.4c-0.2,4.3-2.6,17.5,4,18.4c2.4,17.7,5.9,35.3,10.5,52.6c2.9,10.9,5.7,22.5,11.1,32.6
		c0,0,2.2,4,3.2,5.7c2.4,4.7,8,13,4.3,18.4l-0.8,1l-0.2,0.2l0,0c-9.3,11.8-8.4,26-4.8,39.5c13,31.4,24.6,63.4,36.9,95.1
		c6.2,15.7,22.5,26.6,39.9,21.5c19-5.7,37.6-23.2,35.9-43.7c-7.1-34.4-15.3-68.4-24.4-102.3C689.7,331.6,681.4,319.4,667.1,315.4z"
		/>
	<path class="st1" d="M686.8,484.5c-1.5,0.6-3,1.1-4.5,1.6c-6.8,2-14.2,1.1-20.3-2.5c-6.2-3.7-11.1-9.4-13.8-16.2
		c-4.1-10.6-8.2-21.4-12.2-31.8c-7.9-20.7-16-42.1-24.7-63.1c-4.1-15.3-2.9-26.5,3.9-34.9l0.1-0.1l0.1-0.2c0.2-0.3,0.5-0.6,0.7-0.9
		c0.2-0.2,0.2-0.3,0.4-0.5c4.8-7.1,0.2-15.7-2.8-21.2c-0.4-0.7-0.7-1.4-1.1-2l-0.1-0.2c-0.9-1.6-3-5.2-3.1-5.6
		c-4.8-8.9-7.5-19.3-10.1-29.3l-0.6-2.2c-1.5-5.7-3-11.6-4.2-17.2c0.2-5.1,36.7-19.6,39.1-13.4c6.1,14.3,12.6,31.2,15.7,48.5
		c0.1,0.4,0.1,0.9,0.2,1.4c0.8,7.3,2.2,19.4,10.2,23.2c1.1,0.7,2.3,1.2,3.5,1.6c1.1,0.3,2.4,0.7,2.5,0.7l0.2,0.1
		c10.6,3,18.7,11.5,24.8,26c9.1,33.9,17.2,68.1,24.2,101.4c0.7,9.3-3.7,17-7.5,21.7C701.9,476.1,694.8,481.3,686.8,484.5z"/>
	<path class="st2" d="M659.6,471.5c-17.1-32.2-76.8-127.9-29.5-143.2c-19.2-2.5-52.5-88.3-33-108.3c-9.2,0-5.4-12.5-5.1-16.9
		c-0.1-0.3-0.2-1.1-2-1.6c-2.2-3.6,5.7-6.1,8.3-8c5.4-3.6,11.2-6.6,17.4-8.8c-5.7-0.2-13.4,2.6-18.2,4.4c-6,2.2-14.3,5-18.4,9.1
		c-1.5,1.5-1.9,4.2-1.1,5.5c1.8,0.4,2,1.1,2,1.4c-0.2,4.3-2.6,17.5,4,18.4c2.4,17.7,5.9,35.3,10.5,52.6c2.9,10.9,5.7,22.5,11.1,32.6
		c0,0,2.2,4,3.2,5.7c2.4,4.7,8,13,4.3,18.4l-0.8,1l-0.2,0.2l0,0c-9.3,11.8-8.4,26-4.8,39.5c13,31.4,24.6,63.4,36.9,95.1
		c6.2,15.7,22.5,26.6,39.9,21.5c3-0.9,6.1-2.1,8.9-3.5C679.5,486,667.9,487.6,659.6,471.5z"/>
	<path class="st0" d="M616.5,204.9c0,3.2-1.7,6.2-4.5,7.9c-0.9,0.6-2.1,0.3-2.8-0.6c-1.1-3.4-2.7-6.6-4.6-9.6
		c-0.3-0.5,0.2-1.7,1.3-2l6-1.8c0.8-0.3,1.7,0,2.2,0.7l2.3,4.8C616.4,204.5,616.5,204.7,616.5,204.9z"/>
	<path class="st0" d="M612.2,193.3c-2,1.1-4.3,2.1-6.6,2.9c-0.9,0.3-2.3,0.5-2.5-0.3l-0.1-0.1c-0.2-0.6,0.2-1.4,1.1-1.7
		c2.4-0.9,4.7-1.9,7-3c0.7-0.4,1.6-0.2,2,0.5v0.1C613.2,192.3,612.8,193,612.2,193.3z"/>
	<path class="st0" d="M711.5,449.9l0.2-0.1c1.4-0.5,2.5-1.5,1.9-3.5L688,348.4c-0.6-2-2.7-3.2-4.7-2.6l0,0l0,0l-0.2,0.1
		c-2,0.6-3.3,2.6-2.7,4.7l29.2,96.7C710.2,449.3,710.6,450,711.5,449.9z"/>
	<path class="st0" d="M649,310.6l0.2-0.1c1.3-0.4,2.2-1.6,2.1-3c-1.2-20.6-9.4-47.5-24.5-80.8c-0.7-1.3-2.1-2-3.5-1.6l0,0
		c-1.6,0.4-2.5,2-2,3.6c0,0.2,0.1,0.2,0.2,0.4c12.6,27.5,20.7,53.9,23.9,79c0.2,1.6,1.6,2.7,3.3,2.5
		C648.6,310.8,648.8,310.7,649,310.6z"/>
	<path class="st0" d="M661.1,318.7c-0.5-0.2-3.2,0.2-4.1,1.3l0,0c-1.1,1.4,1.3,2.5,1.9,2.7c10,2.6,13,6.6,16.3,14.7
		c0.6,1.5,2.6,1.2,3.8-0.2l0.1-0.1l0,0c1-1.2,0.9-2.8,0.4-4.2C676.8,324.9,669.6,319.3,661.1,318.7z"/>
	<path class="st0" d="M719.1,430.1c-9.7,13.2-24.7,29.7-41.5,34c-14.8,3.9-29.4-3.9-42.1-10.2c-9.3-23.6-18.5-47.1-28.2-70.4
		c16.8,2.3,35.1,2.6,51.7-2.4c15.2-4.6,29.3-14.8,40.8-25.3C706.7,380.5,713.3,405.1,719.1,430.1z"/>
	
		<ellipse transform="matrix(0.9255 -0.3788 0.3788 0.9255 -106.72 265.8578)" class="st7" cx="622.3" cy="404.2" rx="19" ry="18.5"/>
	
		<ellipse transform="matrix(0.9255 -0.3788 0.3788 0.9255 -103.9112 266.399)" class="st7" cx="625.1" cy="397.3" rx="8.5" ry="8.3"/>
	
		<ellipse transform="matrix(0.9255 -0.3788 0.3788 0.9255 -110.0061 263.6064)" class="st7" cx="615" cy="411.4" rx="4.9" ry="4.8"/>
	
		<ellipse transform="matrix(0.9255 -0.3788 0.3788 0.9255 -94.4011 290.7662)" class="st7" cx="691.8" cy="385.3" rx="19" ry="18.5"/>
	
		<ellipse transform="matrix(0.9255 -0.3788 0.3788 0.9255 -91.5746 291.3328)" class="st7" cx="694.7" cy="378.4" rx="8.5" ry="8.3"/>
	
		<ellipse transform="matrix(0.9255 -0.3788 0.3788 0.9255 -97.947 288.6541)" class="st7" cx="684.7" cy="393.3" rx="4.9" ry="4.8"/>
	<path class="st0" d="M685,409.7c-15,6.1-29.7,9.2-45.5,12.4c-1.4,0.3-2.2,1.7-1.9,3c0.1,0.2,0.2,0.6,0.3,0.7
		c4.5,7.1,11.6,13.8,20,15.5c-2.3-6,3-13.8,12-17.5c5.7-2.3,11.4-2.5,15.5-0.7c1.3-3.5,2.2-7.2,2.7-11c0.2-1.2-0.6-2.4-1.8-2.6
		C685.9,409.3,685.4,409.4,685,409.7L685,409.7z"/>
	<path class="st0" d="M657.8,441.4c2.8,0.6,5.7,0.7,8.4,0.1c9.6-1.8,15.7-9.6,19.1-18.3c-4.1-1.7-9.9-1.6-15.5,0.7
		C660.9,427.6,655.5,435.4,657.8,441.4z"/>
	<path class="st0" d="M580.8,197.9c0-0.7,6.5-4.6,15.7-7.8c9.3-3.2,17.3-4.7,17.8-3.8c0.6,1.1-6.7,4.7-16,7.9
		C589,197.3,581.2,199,580.8,197.9z"/>
	<path class="st0" d="M582.7,197c-0.2-0.6,6.5-3.9,13.4-6.3c7.8-2.7,14.7-4.1,15-3.2c0.3,0.9-6.9,3.9-13.7,6.2
		C590.6,196.1,583.1,197.9,582.7,197z"/>
	<path class="st8" d="M620.4,251.3c-1.8,0.7-3.7,1.6-5.7,2.2c-4.4,1.6-8.9,3.1-13.5,4.3c-4.3,1-6.5,1.1-6.7,0.1
		c-0.5-1.7,5.6-5.1,18-10.1c8.6-3.5,16.8-5.7,19.4-5.1c0.5,0.1,0.8,0.3,0.9,0.7l0,0c0.2,1-1.5,2.5-5.1,4.5
		C625.6,248.9,623.2,250.2,620.4,251.3z M609,250.7c-10.7,4.5-13.4,6.6-13.2,7.2c0.1,0.3,1.6,0.4,5.6-0.7c4.5-1.2,8.9-2.7,13.3-4.3
		c4.3-1.6,8.5-3.4,12.6-5.6c3.5-1.9,4.6-3,4.5-3.4l0,0c0-0.1-0.2-0.2-0.4-0.2c-2-0.3-9.3,1.6-18.4,5.2
		C611.4,249.6,610.1,250.2,609,250.7z"/>
	<path class="st0" d="M727,108.6L727,108.6c-0.1,0-0.2-0.1-0.2-0.2l-0.4-0.2l0,0c-13.4-6.8-25-15.9-35.8-25.9l0,0
		c-7.2-6.7-14.1-13.8-20.9-21c-5.8-6.1-11.5-11.6-17.5-16.5c-10.2-8.2-21.5-14.2-35.8-16.2c-1.7-0.2-1-4.3-0.3-6.6
		c0-0.1,0-0.1,0-0.2c1.9-1.6,2.8-2.4,4.7-3.9c10.2-6.1,20.1-10.6,30.4-13l0,0c2.4-0.6,4.8-1,7.2-1.3l0,0c9.1-1.2,18.4-0.9,27.4,1
		c1.1,0.2,2.3,0.5,3.4,0.7c5.8,1.4,11.5,2.8,17,4.1c2.3,0.6,4.5,1.1,6.8,1.6c1.9,0.4,3.9,0.8,5.8,1.1c9.3,1.7,18.7,2.8,28.8,2.5
		l1.5,0.1l0,0v0.1l0,0c-0.7,1.6-1.1,3.4-1.5,5.2c-6.4,27.9-12.7,55.8-19,83.8l-0.1,0.3l0,0C727.7,105.7,727.3,107.2,727,108.6z"/>
	<path class="st0" d="M739.8,76.8c-3,9.6-6.8,18.9-11.5,27.7l-0.7-0.3h-0.1c-12.4-6.2-23.1-14.3-33.5-23.5c-1-1-2-1.9-3-2.9
		c-7.5-7.2-14.6-14.8-21.7-22.4c-5.7-5.9-11.2-11.2-17-15.8c-10.4-8.1-21.7-13.9-36.5-16.2c-0.5-0.1-0.7-0.6-0.5-1.1
		c0-0.1,0-0.1,0-0.2c0.2-0.7,0.7-1.4,1.3-1.8c10.8-7.5,21.7-13.5,34.4-17.2c2.3-0.5,4.6-0.9,6.9-1.3c8.7-1.3,17.5-1.3,26.2,0.1
		c7.5,1.3,14.8,3,22,4.3c13.6,2.6,27.1,4.8,41.7,3.9v0.1c0.1,1.6,0.1,3.2,0.2,4.8v0c0.3,12.9-0.6,25.8-2.7,38.5
		C744.1,61.3,742.2,69.2,739.8,76.8z"/>
	<path class="st0" d="M750.8,105c-0.7,1.7-1.5,2.9-2,3.4c-1.6,1.1-2.1,1.5-3.6,1.7c-5.9,1-13.3,0.8-18.9-1.7
		c-0.2-0.2,0.5-1.7,1.6-4.3c2-4.6,3.8-9.3,5.3-13.9c6.6-20.4,11.2-41.5,13.9-62.8c0.7-5.7-0.8-13.4,1.1-17.3
		c2.1-4.3,15.2-2.5,17.7,2.8c5.6,10.7-0.7,31.4-2.6,42.4C760.4,71.8,757.6,89.6,750.8,105z"/>
	<path class="st9" d="M730.8,104c-0.7-0.4,0.5-3,0.7-3.3c2-4.5,3.4-6.5,4.8-10.9c6.6-20.6,11.3-41.8,14-63.3
		c0.2-2.5,0.3-5.1,0.2-7.6c0-1.6-0.1-3.3,0-4.8c0.2-2.8,2.5-5,5.3-4.9h0.2c1.1,0.1,2.2,0.3,3.4,0.7c2.4,0.7,4.2,1.8,4.7,3
		c0,0,0,0.1,0.1,0.1c4.1,7.7,0.9,22.5-1.5,33.5c-0.6,2.6-1.1,5.1-1.5,7.2l-0.4,2.5c-2.8,15.9-5.7,32.3-11.9,46.6
		c-0.2,0.4-0.3,0.7-0.5,1.1c-0.4,0.8-0.3,0.7-1.1,1.1c-0.4,0.3-0.8,0.5-1.3,0.6C740.7,106.2,731.2,104.6,730.8,104z"/>
	<path class="st0" d="M741.9,38.5c-2,8.5-10.5,13.9-19.1,11.9c-0.7-0.2-1.4-0.4-2.1-0.7c-9.7-3.9-14.4-15.5-11.8-25.3
		c2.5-9.3,12-12.5,20.3-8.6C737.3,19.8,743.9,29.1,741.9,38.5z"/>
	<path class="st10" d="M693,79.1c-7.2-6.7-13.4-13.5-20.3-20.7c-5.7-6.1-12.9-13.4-18.9-18.3c6.6-23.5,7.4-33.6,4.8-38.5
		c8.7-1.3,17.5-1.3,26.2,0.1c7.5,1.4,14.8,3,22,4.3C704.8,33.1,702.3,55.6,693,79.1z"/>
	<path class="st0" d="M685,17.6c-2.5,7.7-9.4,11.7-16.7,11.2c-2-0.2-3.9-0.7-5.7-1.4c-2.7-1.1-5.1-2.8-7.1-4.9
		c-4.3-4.7-6-11.2-4.4-17.4c0.2-0.5,0.2-1,0.4-1.5c0.1-0.2,0.2-0.5,0.2-0.7c2.3-0.5,4.6-0.9,6.9-1.3c8.7-1.3,17.5-1.3,26.2,0.1
		c0.3,1,0.6,2,0.8,3c0.7,3.7,0.7,7.5-0.1,11.2L685,17.6z"/>
	<path class="st0" d="M704.3,70.1c-1.2,4.9-4.9,8.9-9.8,10.5c-8.6-8.1-16.6-16.6-24.7-25.3c0.2-0.8,0.3-1.6,0.7-2.5
		c3.1-9.5,13.3-14.2,22.1-8.8C700.9,49.2,706.9,60.3,704.3,70.1z"/>
	<path class="st0" d="M675.1,33.2c-6.6-1.1-10.7-8.5-10.2-14.5c0.4-5.4,5.7-12.8,12.1-11.2c6.2,1.6,9.8,9.3,9.5,15.5
		C686.4,29,681.3,34.3,675.1,33.2z"/>
	<path class="st0" d="M677.9,20.8c-2.3-0.5-4.1-3.1-3.9-5.9s2.3-4.7,4.6-4.2c2.3,0.5,3.9,3.3,3.8,6.1
		C682.2,19.6,680.2,21.3,677.9,20.8z"/>
	<path class="st0" d="M670.1,24.4c-1.3-0.3-2.1-1.5-2-2.8c0.1-1.4,1.1-2.4,2.4-2.2c1.2,0.2,2,1.5,2,2.9
		C672.4,23.6,671.3,24.6,670.1,24.4z"/>
	<path class="st0" d="M716.4,35.3c-6.6-1-10.2-8.6-10.2-14.5c0-5.5,4.3-11.2,10.2-9.3c5.6,1.7,10.3,7.8,10.5,13.9
		C726.9,31,722.4,36.2,716.4,35.3z"/>
	<path class="st0" d="M718,23.8c-2.2-0.4-4-3-4-5.7c0-2.6,1.8-4.3,4-3.7c2.2,0.6,4,3,4.1,5.5S720.2,24.2,718,23.8z"/>
	<path class="st0" d="M710.9,26.9c-1.1-0.2-2-1.6-2-2.9s0.9-2.1,2-1.9c1.2,0.4,2,1.6,2,2.9C712.9,26.3,712,27.1,710.9,26.9z"/>
	<path class="st0" d="M691.4,41L691.4,41c-1.8-2.7-0.6-6.3,2-6.1c5,0.4,10,0.7,15,1.1c2.6,0.1,4.7,3.5,3.5,6l0,0
		C707.6,51.4,696,48.2,691.4,41z"/>
	<path class="st11" d="M750.8,105c-0.7,1.7-1.5,2.9-2,3.4c-1.6,1.1-2.1,1.5-3.6,1.7c-5.9,1-13.3,0.8-18.9-1.7
		c-0.2-0.2,0.5-1.7,1.6-4.3C733.7,107.5,744.9,108.2,750.8,105z"/>
	<path class="st0" d="M815.9,392.3c-0.5-2.8-2.8-4.9-5.7-5.2l-79.5-8.1c-2.8-0.3-5.5,1.3-6.6,3.9l-98.1,249.8l235.4,24L815.9,392.3z
		"/>
	<path class="st12" d="M810.6,651.5l-149.2-15.2l64.5-246.8c1-3.7,4.5-6.1,8.4-5.7l66.7,6.8c3.9,0.4,7,3.7,7.1,7.6L810.6,651.5z"/>
	<path class="st0" d="M796.7,410.4l-4.8,47c-2.1,20.7-19.8,35.9-39.6,33.9c-19.4-2-33.5-19.8-32.1-40.1c0-0.3,0.1-0.7,0.1-1.1
		l4.8-47C748.9,400.5,772.8,403.2,796.7,410.4z"/>
	<path class="st13" d="M788.8,431.7c-3.2,31.4-17.1,55.8-42.4,53.1c-12.3-1.2-20.6-12.5-24.9-28.8l-0.7-9.1l3.4-33.9
		c21.2-2.7,42.9-0.6,64.8,5.3C789.4,422.8,789.3,427.3,788.8,431.7z"/>
	<path class="st0" d="M791.1,399.2l-13.9-1.4l-39.9-4.1l-4.3-0.4l0,0c-3.6-0.4-6.9,2.2-7.3,5.9l-0.4,4.3l-1,9.6
		c21.2-2.7,42.9-0.6,64.8,5.3c2.2,0.6,4.4,1.2,6.7,1.9l1.4-13.9l0,0C797.4,402.8,794.7,399.6,791.1,399.2z"/>
	
		<ellipse transform="matrix(0.1014 -0.9948 0.9948 0.1014 238.5966 1105.5013)" class="st14" cx="731.3" cy="420.7" rx="3.2" ry="3.3"/>
	
		<ellipse transform="matrix(0.1014 -0.9948 0.9948 0.1014 260.444 1141.4686)" class="st14" cx="762.1" cy="426.6" rx="3.2" ry="3.3"/>
	<path class="st0" d="M739.9,417.2l-12.3-6.1c-0.7-0.3-0.9-1.1-0.7-1.8l0,0l0.6-1.2c0.3-0.7,1.1-0.9,1.8-0.6l0,0l12.3,6.1
		c0.7,0.3,0.9,1.1,0.6,1.8l0,0l0,0l-0.6,1.2C741.4,417.3,740.6,417.5,739.9,417.2L739.9,417.2L739.9,417.2z"/>
	<path class="st0" d="M753.2,418.8l13.3-3.4c0.7-0.2,1.1-0.9,1-1.6l0,0l0,0l-0.3-1.3c-0.2-0.7-0.9-1.1-1.6-1l0,0l0,0l-13.3,3.4
		c-0.7,0.2-1.1,0.9-1,1.6l0,0l0,0l0.3,1.3C751.7,418.7,752.5,419.1,753.2,418.8L753.2,418.8z"/>
	<path class="st0" d="M752.5,437.4c-0.4-0.1-0.7-0.3-0.8-0.7c-0.7-2.5-3.2-5.1-7.5-5.5c-6.1-0.7-7.5,2-8.5,3.9
		c-0.2,0.5-0.8,0.7-1.3,0.4s-0.7-0.8-0.4-1.3c0,0,0,0,0-0.1l0,0c1.1-2,3-5.7,10.4-4.9c5.3,0.6,8.4,3.9,9.3,7
		c0.2,0.5-0.2,1.1-0.7,1.1l0,0l0,0C752.8,437.4,752.6,437.4,752.5,437.4z"/>
	<path class="st0" d="M733.9,455.6c0.3,0,0.7,0.2,0.8,0.4c0.7,1.3,3.2,2.8,7.3,3.2c5.7,0.6,6.9-0.7,7.8-1.6c0.3-0.2,0.8-0.3,1.2-0.2
		s0.7,0.5,0.4,0.7c-0.9,1-2.5,2.8-9.5,2.1c-5-0.5-8-2.4-8.9-4c-0.2-0.2,0.2-0.5,0.6-0.6C733.6,455.6,733.8,455.6,733.9,455.6z"/>
	<path class="st0" d="M731.5,460.6c0.4,0,0.8,0.2,1.1,0.5c0.9,1.6,4.3,3.4,9.8,4c7.7,0.8,9.3-0.8,10.5-2c0.5-0.3,1.1-0.3,1.6-0.2
		c0.6,0.2,0.9,0.6,0.6,0.8c-1.2,1.2-3.4,3.4-12.8,2.5c-6.7-0.7-10.9-3-12.1-5c-0.2-0.3,0.2-0.7,0.8-0.7
		C731.2,460.6,731.3,460.6,731.5,460.6z"/>
	<path class="st0" d="M802.7,560.4L797,564c-2.6,1.7-6.1,0.9-7.9-1.7l0,0c-1.7-2.6-1-6.1,1.6-7.8l0.1-0.1l5.7-3.7
		c2.6-1.6,6.1-0.9,7.9,1.7l0,0C806,555.2,805.3,558.6,802.7,560.4L802.7,560.4z"/>
	<path class="st0" d="M800.3,555.2v0.5c0.3,5.9-4.3,10.9-10.1,11.2l0,0h-0.1l-14.2,0.7c-3.3,0.2-6.1-2.3-6.3-5.7l-0.3-5.2
		c-0.2-3.3,2.4-6.1,5.7-6.2l0,0l0,0l18.9-1C797.2,549.4,800,551.9,800.3,555.2L800.3,555.2z"/>
	<polygon class="st0" points="690,546.6 687.2,522.8 798.5,510.3 802,540.3 	"/>
	<path class="st0" d="M692,523.2l0.7,6.6c0,0.2,0.2,0.5,0.6,0.4h0.2c0.2,0,0.5-0.2,0.5-0.6l0,0l-0.7-6.6c0-0.1-0.1-0.2-0.2-0.2l0,0
		l0,0l-0.9,0.1C692.1,523,692,523.1,692,523.2z"/>
	<polygon class="st15" points="800.2,539 799,528.7 690.6,538.5 691.4,545 	"/>
	<path class="st0" d="M741.2,517.4l1.4,12.1c0,0.3,0.3,0.5,0.7,0.5h0.1c0.3,0,0.5-0.3,0.5-0.6l-1.4-12.1L741.2,517.4z"/>
	<path class="st0" d="M713.7,519.9l1.4,12.1c0,0.3,0.3,0.5,0.7,0.5h0.1c0.3,0,0.5-0.3,0.5-0.6l-1.4-12.1L713.7,519.9z"/>
	<path class="st0" d="M771.1,514.3l1.4,12.1c0,0.3,0.3,0.5,0.7,0.5h0.1c0.2,0,0.5-0.2,0.5-0.6l0,0l-1.4-12.1L771.1,514.3z"/>
	<path class="st0" d="M756.1,515.8l1.1,9.2c0.1,0.3,0.3,0.6,0.7,0.5l0,0c0.3-0.1,0.6-0.3,0.5-0.7l-1.1-9.2c0-0.1-0.1-0.2-0.2-0.2
		l0,0l0,0l-0.9,0.1C756.2,515.6,756.1,515.7,756.1,515.8L756.1,515.8L756.1,515.8z"/>
	<path class="st0" d="M727.5,518.9l1.1,9.2c0,0.3,0.3,0.6,0.7,0.5l0,0c0.3,0,0.6-0.3,0.6-0.7l0,0l-1.1-9.2c0-0.1-0.1-0.2-0.2-0.2
		l0,0l0,0l-0.9,0.1C727.5,518.7,727.5,518.8,727.5,518.9L727.5,518.9z"/>
	<path class="st0" d="M699.7,522l1.1,9.2c0,0.3,0.3,0.6,0.7,0.5l0,0c0.3,0,0.6-0.2,0.6-0.6V531l0,0l-1.1-9.2c0-0.1-0.1-0.2-0.2-0.2
		l-0.9,0.1C699.8,521.8,699.7,521.9,699.7,522L699.7,522z"/>
	<path class="st0" d="M786.2,512.4l1.1,9.2c0.1,0.3,0.3,0.6,0.7,0.5l0,0c0.3,0,0.6-0.2,0.5-0.6c0,0,0,0,0-0.1l0,0l-1.1-9.3
		c0-0.1-0.1-0.2-0.2-0.2l0,0l0,0l-0.9,0.1C786.2,512.2,786.2,512.3,786.2,512.4L786.2,512.4z"/>
	<path class="st0" d="M763.5,514.6l0.7,6.6c0,0.2,0.2,0.5,0.6,0.5h0.2c0.2,0,0.5-0.2,0.4-0.6l0,0l0,0l-0.7-6.6
		c0-0.1-0.1-0.2-0.2-0.1L763.5,514.6C763.5,514.4,763.5,514.5,763.5,514.6z"/>
	<path class="st0" d="M734.8,518l0.8,6.6c0,0.2,0.2,0.5,0.6,0.5h0.2c0.2,0,0.5-0.2,0.5-0.6l0,0l0,0l-0.7-6.6c0-0.1-0.1-0.2-0.2-0.2
		l0,0l-0.9,0.1C734.9,517.9,734.8,518,734.8,518L734.8,518z"/>
	<path class="st0" d="M707.1,521.2l0.7,6.6c0,0.2,0.2,0.5,0.6,0.4l0,0h0.2c0.2,0,0.5-0.2,0.5-0.6l0,0l0,0l-0.7-6.6
		c0-0.1-0.1-0.2-0.2-0.2l-0.9,0.1C707.2,521.1,707.1,521.2,707.1,521.2L707.1,521.2z"/>
	<path class="st0" d="M793.6,511.5l0.7,6.6c0,0.2,0.2,0.5,0.6,0.5h0.2c0.2,0,0.5-0.2,0.4-0.6l0,0l0,0l-0.7-6.6
		c0-0.1-0.1-0.2-0.2-0.2l-0.9,0.1C793.7,511.4,793.6,511.5,793.6,511.5z"/>
	<path class="st0" d="M748.4,516.6l0.7,6.6c0,0.2,0.2,0.5,0.6,0.4h0.2c0.2,0,0.5-0.2,0.5-0.6l0,0l-0.7-6.6c0-0.1-0.1-0.2-0.2-0.2
		l-0.9,0.1C748.4,516.5,748.4,516.5,748.4,516.6z"/>
	<path class="st0" d="M719.8,519.9l0.7,6.6c0,0.2,0.2,0.5,0.6,0.4l0,0h0.2c0.2,0,0.5-0.2,0.5-0.6l0,0l0,0l-0.7-6.6
		c0-0.1-0.1-0.2-0.2-0.2l-0.9,0.1C719.8,519.7,719.8,519.8,719.8,519.9L719.8,519.9z"/>
	<path class="st0" d="M778.5,513.5l0.7,6.6c0,0.2,0.2,0.5,0.6,0.4h0.2c0.2,0,0.5-0.2,0.4-0.6l-0.7-6.6c0-0.1-0.1-0.2-0.2-0.2l0,0
		l-0.9,0.1C778.5,513.4,778.5,513.5,778.5,513.5z"/>
	<path class="st0" d="M682.8,544l-2.6-22.5c-0.3-3.3,2-6.2,5.2-6.6l0,0l24.8-2.8l3.3,28.5L682.8,544z"/>
	<path class="st16" d="M759,430.3c0.5,1.6,3.4,4.2,5.1,4"/>
	<path class="st16" d="M727,427.1c1.6,0.5,5.4-0.7,6.1-2"/>
</g>
<g>
	<path class="st42" d="M225.6,328.9c0.2,9.5-13.9,13.4-21.7,15.5c-19.8,5.2-40.2,7.9-60.6,8c-19.8,0-40.8-0.1-60.4-4.3
		c-1.2-0.2-2.6-0.6-4.2-1c-8.4-0.3-17-1.1-25.5-2.1c-0.5-0.1-0.9-0.3-1.1-0.7c-0.1-0.1-0.1-0.2-0.1-0.3v-28.7c0-0.5,0.6-0.8,1.2-0.7
		c10.5,1.3,21.1,2.1,31.6,2.4c13.8-3.9,28.9-5.2,43.4-5.7c3.8-0.2,7.5-0.2,11.2-0.3c19.2-0.3,39.7-0.7,56.7,2.1
		C203.4,314.1,225.2,320,225.6,328.9z"/>
	<path class="st42" d="M121.3,319.3c0.2-0.5-0.1-1.1-0.7-1.2h-0.1l-0.4-0.1l-22.8-6l-0.4-0.1c-0.6-0.2-1.1,0.2-1.2,0.7
		c0,0,0,0,0,0.1l-3.1,15.7c-0.2,1.4,0.7,2.6,2,2.9c0.6,0.1,1.1,0,1.7-0.2l9.8-5.7l5.7,9.8c0.7,1.1,2.3,1.6,3.4,0.8
		c0.5-0.3,0.9-0.7,1.1-1.3L121.3,319.3z"/>
	<path class="st42" d="M181.3,313.6c0-0.6-0.5-1-1.1-0.9h-0.1l-0.5,0.1l-23.5,2.8l-0.5,0.1c-0.6,0.1-0.9,0.6-0.9,1.1c0,0,0,0,0,0.1
		l2.9,15.8c0.2,1.3,1.6,2.2,2.9,2c0.6-0.1,1.1-0.4,1.5-0.9l7.1-9l8.9,7.1c1.1,0.8,2.6,0.6,3.4-0.5c0.3-0.5,0.5-1.1,0.5-1.6
		L181.3,313.6z"/>
	<path class="st42" d="M115.5,242.5c-3.3-0.9-6.8-1.9-10.7-3c-48-13.9-76-62.2-62.6-108.1c2-6.9,4.7-13.6,7.7-20.1l15.5,10.4l3-41.1
		l-37.1,18l16,10.7c-5.2,9.4-9.5,19.4-11.9,27.8c-13.3,45.8,14.8,94.2,62.7,108c6.1,1.7,11.4,3.2,16.3,4.2L115.5,242.5z"/>
	<polygon class="st42" points="121.7,314 121.7,321.3 114.9,316.4 111.7,319.5 107.6,314.5 100.6,317.1 99.9,312.7 93.7,314.5 
		97.5,310.3 123.6,237.1 137,239.2 	"/>
	<polygon class="st42" points="180,310.3 182.5,314.5 175,313.3 173.2,317.7 168.2,314 162,319.5 161.4,315.1 154,318.9 
		155.2,313.3 149.4,233.1 166.8,231.2 	"/>
	<path class="st42" d="M201.1,222l-0.7,0.3c-7,3-14.9-0.3-18-7.2l-15.2-35.6c-3-7,0.3-14.9,7.2-17.9l0.7-0.3c7-3,14.9,0.3,18,7.2
		l15.2,35.5C211.3,211,208,219,201.1,222z"/>
	<path class="st42" d="M174.1,253.5l12.5-63c8-23.7,14.7-34.1-34.8-38.9h-20.1C68,164,88.8,166.8,96.7,190.5l10,29.8
		C109.1,282.4,168.5,279,174.1,253.5z"/>
	<path class="st42" d="M174.1,255.5l12.4-62.5c0.1-0.3,0.2-0.6,0.2-0.8c8-23.4,14.2-33.7-34.6-38.5c-0.2,0-0.4,0-0.7,0h-19
		c-0.4,0-0.9,0.1-1.3,0.2c-62.7,12.4-42.1,15.3-34.2,38.9l9.8,28.9c0.2,0.6,0.3,1.2,0.3,1.9C109.7,284.4,168.5,280.8,174.1,255.5z"
		/>
	<path class="st42" d="M80.6,233.9L80.6,233.9c-9.1-2.6-14.3-12.1-11.7-21.2l10.7-37.1c2.7-9.1,12.2-14.3,21.4-11.7l0,0
		c9.1,2.6,14.4,12.1,11.8,21.3l0,0l-10.7,37C99.2,231.3,89.7,236.5,80.6,233.9z"/>
	<path class="st42" d="M208,244.2l-2,0.7c-6.7,2.2-14.1-1.4-16.4-8.1l-7.5-22.5c-2.2-6.7,1.4-14,8.1-16.3l2-0.7
		c6.8-2.3,14.1,1.4,16.4,8.1l7.5,22.5C218.4,234.6,214.7,241.9,208,244.2z"/>
	<ellipse class="st42" cx="125.8" cy="188.2" rx="20.8" ry="20.7"/>
	<ellipse class="st42" cx="127.2" cy="185.2" rx="20.8" ry="20.7"/>
	<ellipse class="st42" cx="169.2" cy="189.2" rx="19.6" ry="19.5"/>
	<ellipse class="st42" cx="167.9" cy="186.3" rx="19.6" ry="19.5"/>
	<path class="st42" d="M168.1,71.5c-0.7,0.3-1,1.1-0.8,1.8c0.6,2.7,4.3,7.9,9.8,13c5.4,5.2,10.8,8.8,13.5,9.2
		c0.7,0.2,1.5-0.2,1.8-0.9l0,0L209,58.3c1.4-3-2.2-6.4-5.1-4.9L168.1,71.5z"/>
	<path class="st43" d="M167.5,86.7c-4.4-4.7-6.1-7.9-6.2-10.3c-0.1-0.7,1.8-1.8,2.5-2.1l0,0l35.5-17.9c1.6-0.8,4.8-2.8,5.7-1.6
		C205.4,55.7,173.2,81.6,167.5,86.7z"/>
	<ellipse class="st42" cx="144.5" cy="117.9" rx="50.6" ry="50.3"/>
	<ellipse class="st42" cx="135.5" cy="107.3" rx="13.6" ry="13.5"/>
	<ellipse class="st42" cx="139.7" cy="103.9" rx="5.2" ry="5.2"/>
	<ellipse class="st42" cx="129.4" cy="112.1" rx="2.6" ry="2.6"/>
	<ellipse class="st42" cx="184.1" cy="104.8" rx="13.6" ry="13.5"/>
	<ellipse class="st42" cx="188.2" cy="101.4" rx="5.2" ry="5.2"/>
	<ellipse class="st42" cx="177.9" cy="109.7" rx="2.6" ry="2.6"/>
	<path class="st44" d="M101.1,114.6c1.4-17.5,5.5-32.1,19.1-41.2c-16.4,8.8-26.6,25.7-26.6,44.4c0,27.8,22.6,50.3,50.6,50.3
		c9.9,0,19.7-2.9,28-8.4c-7.1,3.8-15.3,7.3-23.9,6C106.1,159.2,99.9,130.1,101.1,114.6z"/>
	<path class="st42" d="M167.5,72.4c0,0-13,2.8-34.8,9.2C111,88,96.2,93.8,96.2,93.8l0.9-8.6l3.3-28.2l1.9-16.2l3.3-28.2L107,0.7
		l4.9,5.8l11.7,13.9l6.7,8l11.7,13.9l6.6,8l11.7,13.9L167.5,72.4z"/>
	<polygon class="st42" points="142.2,42.3 96.9,85.5 100.2,57.1 130.4,28.3 	"/>
	<path class="st42" d="M160.7,64.4l-11.5,11l-0.5,0.2l-18.1,5.4l-0.7,0.2L111,86.8l-0.3,0.1l38.2-36.5L160.7,64.4z"/>
	<polygon class="st42" points="123.6,20.2 102.1,40.7 105.3,12.2 111.7,6.2 	"/>
	<path class="st42" d="M175.7,132.4c-2.2,4.2-4.8,8.1-7.8,11.8c-2.2,2.6-4.7,5.1-7.2,6.4c-0.3,0.3-2,0.6-2.3-0.4
		c-1.8-2.8-3.4-5.9-4.4-9c-2-5.7-1.4-9-1.4-9c0.1-0.5,0.4-1,0.8-1.3c1.1-0.8,3.2-1.6,5.8-2c2-0.3,4-0.5,6.1-0.5
		c1.2,0,2.5,0.1,3.8,0.2c2,0.2,3.9,0.7,5.7,1.5l0.3,0.2C175.9,130.8,176.3,131.7,175.7,132.4z"/>
	<path class="st42" d="M159.2,128.9l-2.3,7.4c-0.2,0.5-0.7,0.8-1.2,0.7l0,0c-0.3-0.1-0.5-0.3-0.7-0.7l-1.7-5.4
		C154.5,130,156.6,129.3,159.2,128.9z"/>
	<path class="st42" d="M174.8,130.1l-1.6,5.3c-0.2,0.5-0.7,0.8-1.2,0.7c-0.3-0.1-0.5-0.3-0.7-0.7l-2.1-6.8
		C171.1,128.9,173,129.4,174.8,130.1z"/>
	<path class="st42" d="M167.9,144.2c-2.2,2.6-4.7,5.1-7.2,6.4c-0.3,0.3-2,0.6-2.3-0.4c-1.8-2.8-3.4-5.9-4.4-9
		c1.1-0.7,2.2-1.1,3.4-1.3c0.7-0.1,1.3-0.2,1.9-0.2c0.7,0,1.6,0.1,2.3,0.2C164.1,140.6,166.4,142.1,167.9,144.2z"/>
	<polygon class="st42" points="167.8,119.6 161.1,124.8 171.3,123.6 	"/>
	<polygon class="st42" points="167.8,119.6 164,113.5 167.6,120 161.1,124.8 	"/>
	<polygon class="st42" points="152.7,172.4 149.9,161.1 160.8,164 	"/>
	<path class="st42" d="M134.4,223.6c-0.7-0.5-1.4-1-2-1.6c0.8,1.2,1.9,2.3,3.1,3.1c4.6,2.9,10.7,1.4,13.5-3.2
		c0.2-0.2,0.2-0.4,0.3-0.7C145.5,225.7,139.2,226.6,134.4,223.6z"/>
	<path class="st42" d="M134.8,235.1c-0.8-0.3-1.6-0.8-2.2-1.3c3.4,4.2,9.6,4.8,13.8,1.3c1.1-1,2-2.1,2.7-3.5
		c0.1-0.2,0.2-0.4,0.2-0.7C146.1,235.7,140,237.5,134.8,235.1z"/>
	<path class="st42" d="M165.9,224.4c0.7-0.3,1.4-0.8,2-1.3c-0.9,1.1-2,2-3.3,2.6c-4.6,2.3-10.2,0.4-12.5-4.2
		c-0.1-0.2-0.2-0.4-0.2-0.7C155.1,225.4,161,226.9,165.9,224.4z"/>
	<path class="st42" d="M165.5,235.2c0.7-0.3,1.5-0.7,2.1-1.1c-3.4,3.9-9.3,4.1-13.2,0.7c-1.1-1-1.9-2.1-2.4-3.4
		c-0.1-0.2-0.2-0.4-0.2-0.7C154.7,235.3,160.5,237.2,165.5,235.2z"/>
	<path class="st42" d="M96.1,260.6l-0.4,0.2c-7.2,2.4-14.9-1.5-17.4-8.6l-9.1-27c-2.4-7.1,1.5-14.9,8.7-17.3l0.4-0.2
		c7.2-2.4,14.9,1.5,17.4,8.6l9.1,27C107.1,250.4,103.2,258.1,96.1,260.6L96.1,260.6z"/>
	<path class="st42" d="M146.6,285.1l1.2,19H183l-5.2-64.9c0,0-24.7,17.3-68.8,0c-0.4,4.4-22.1,65.3-22.1,65.4H141L146.6,285.1z"/>
	<polygon class="st42" points="147.4,285.1 152.2,278.1 154.6,303.6 148.8,303.6 	"/>
	<path class="st42" d="M146.8,253.9c-17.1,0-32.5-5.3-38.6-8.9c0.2-0.7,0.6-2.1,1.3-4.7c10.7,3.8,23.2,7.8,36.3,7.8
		c10.6,0,20.7-2.5,31.2-7.5l0.5,6.3C168.6,251.4,158.4,253.9,146.8,253.9z"/>
	<polygon class="st42" points="118.4,250.9 117.2,250.6 119.4,243.2 120.5,243.5 	"/>
	<polygon class="st42" points="171.3,250.6 170.1,250.9 168.4,243.5 169.6,243.2 	"/>
	<ellipse class="st42" cx="150.9" cy="251.1" rx="11.9" ry="11.9"/>
	<path class="st42" d="M158.2,243.5l-1.6,5.8l5,3.5c0.6,0.4,0.7,1.2,0.3,1.8c-0.2,0.3-0.6,0.6-1,0.6l-6.1,0.3l-1.8,5.8
		c-0.2,0.7-1,1.1-1.6,0.9l0,0c-0.4-0.1-0.7-0.4-0.8-0.8l-2.3-5.7l-6.1,0.1c-0.7,0-1.3-0.6-1.3-1.3l0,0c0-0.4,0.2-0.8,0.5-1.1
		l4.7-3.9l-1.9-5.7c-0.2-0.7,0.2-1.5,0.8-1.6c0.4-0.2,0.8-0.1,1.1,0.2l5.2,3.3l4.8-3.6c0.6-0.4,1.4-0.3,1.9,0.2
		C158.3,242.6,158.4,243,158.2,243.5L158.2,243.5z"/>
	<polygon class="st42" points="108.1,246.5 89,302.4 100,302.8 	"/>
	<path class="st45" d="M99.6,86.1L99.6,86.1c-0.2,2.2,1.4,4.3,3.6,4.5c0.6,0.1,1.1,0,1.6-0.2l10.5-4.3l-7.5-70.9
		c0-0.3-0.3-0.6-0.7-0.5c-0.2,0-0.5,0.2-0.5,0.5L99.6,86.1z"/>
	<path class="st42" d="M121.2,83.6c0.7,0.4,1.1,1.1,1,2c-0.4,2.8-4.1,8.1-9.5,13.3c-5.4,5.2-10.9,8.7-13.8,8.9
		c-0.8,0.1-1.6-0.3-2-1.1l0,0L76.8,66.9c-0.9-1.8-0.2-4,1.6-5c1.1-0.6,2.4-0.5,3.4,0.1L121.2,83.6z"/>
	<path class="st46" d="M108.5,100.9c-4.4,4.1-7.5,5.5-10,5.6c-0.7,0-1.7-1.8-2-2.4l0,0L79,69.3c-0.8-1.6-2.8-4.8-1.6-5.5
		C78.4,63.3,103.6,95.3,108.5,100.9z"/>
	<path class="st42" d="M138.6,406.5L138.6,406.5c-0.3,0.7-0.2,1.5,0.2,2.1l4.6,7.3c0.2,0.2,0.2,0.6,0.3,0.8l1.1,6.2
		c0.1,0.7,0.6,1.3,1.1,1.6c7.5,4,54.7,23.6,64.4,25.6c0.8,0.2,1.6-0.1,2.1-0.7l1.6-1.8c0.3-0.3,0.7-0.6,1.1-0.7l11.6-3.4
		c0.7-0.2,1.3-0.7,1.6-1.5l1.5-4.6c0.4-1.1-0.2-2.5-1.5-2.9l-86.9-29.4C140.3,405,139,405.5,138.6,406.5z"/>
	<path class="st42" d="M263.5,330.2c0.8-5.7-0.2-11.4-3-16.3l0,0c0.3-23-45.8-37.5-56.2-22.2c-0.2,0.5-0.4,0.9-0.7,1.3l0,0
		c-4.8,1.2-8.8,3.4-11.1,6.5l-53.9,106.9c30.2,12,59.9,24.4,89.2,37.1L263.5,330.2z"/>
	<path class="st47" d="M207.2,423.6L207.2,423.6c-1.1-0.4-1.6-1.6-1.1-2.6L246,315c0.4-1.1,1.2-2.5,2.4-2l1.8,1.4
		c1.1,0.4,1.6,1.6,1.2,2.6l0,0l-41.5,105.4C209.5,423.5,208.3,424.1,207.2,423.6C207.3,423.7,207.3,423.7,207.2,423.6L207.2,423.6z"
		/>
	<path class="st48" d="M260.5,313.7c-0.2-23.1-45.1-36.7-56-22.2C214.2,272.4,265.6,289.9,260.5,313.7L260.5,313.7z"/>
	<path class="st49" d="M203.7,292.9c16.2-6.4,50.3,9.1,56.9,20.8"/>
	<path class="st42" d="M138.6,406.4l2.5-5.2c13.9,4.3,86.7,33.5,88.6,36.4l-1.9,5.8L138.6,406.4z"/>
	<path class="st47" d="M177.1,357.8c-1.1-0.3-3-0.7,0.2-8.7c0.1-0.2,8-19.3,12.2-21.9c1.1-0.7,3.9-0.4,2.7,5.1
		C191.6,335.2,183.1,359,177.1,357.8 M191,326.1c-4.4-0.2-18.7,29.1-15.5,32c6.1,5.5,18.3-22.2,18-28.7
		C193.3,326.3,191.6,326.2,191,326.1 M174.5,361.7c-14.1-3,4-31.5,11.6-36.5c7.5-4.8,17.3-1.1,14.6,12.3
		C198.2,349.3,187.1,364.1,174.5,361.7 M194.1,322.4c-14.4-1.6-29,31.6-24.3,37.7c6.6,8.6,29.4-2.8,32.1-24.1
		C203.1,326.9,198.4,323,194.1,322.4"/>
	<path class="st47" d="M176.8,358.6c-1.7-0.4-3.3-1.4-0.4-8.8c0.1-0.2,8.3-20.3,13-23.3c1.7-1.1,5.1-0.4,3.7,5.9
		C193,332.7,184.3,360.1,176.8,358.6 M193.7,323.2c-13.9-1.6-27.8,30.3-23.2,36.2c6.3,8,27.8-3.1,30.5-23.4
		C202.1,327.4,198,323.8,193.7,323.2"/>
	<path class="st48" d="M188.6,371.9l-0.2-2c8.7-1.8,6.9-4.9,6.9-4.9c-0.7-0.4-1.5-0.7-2-1.2c-0.3-0.4-0.6-1-0.5-1.5
		c0.1-0.9,1.1-3.4,3-3.7c2.6-0.5,7.7,2.1,3.6,8.4C197.3,369.7,194.1,371.3,188.6,371.9 M198.3,357.9c-5.5-1.8-7.5,4-6.4,5.9
		c0.5,0.7,1.1,1.2,2,1.6c0.2,0.2,0.4,0.5,0.2,0.7c-0.6,0.8-1.7,1.9-5.7,2.7c-0.7,0-1.1,0.6-1.1,1.1c0.4,3,0.4,3,3.5,2.5
		c6.1-1,8.1-3.6,8.8-4.4C201.3,366,204.2,360.1,198.3,357.9"/>
	<path class="st47" d="M216.1,369.3c-1-0.6-3-1.7-0.4-9.1c0.1-0.2,6.1-16.9,10-18c3.6-1.1,4.8,6.8-3.9,22.9
		C218.7,370.7,216.9,369.7,216.1,369.3 M226.9,341.4c-4.8-2.5-14.8,22-13.2,26.6c0,0.1,3.8,7.9,9.3-3.1
		C232,347,229.8,343,226.9,341.4 M213.7,372.5c-14-7.7-4.8-30.7,7-34.1c9.7-2.9,21.1,8,10.9,26.8
		C227.2,373.5,220.6,376.2,213.7,372.5 M229.7,338.6c-13.7-7.4-26.9,14.1-23.3,26.2c2.9,9.7,17.2,16.7,25.7,1.4
		C238.7,354.5,237.6,343.2,229.7,338.6"/>
	<path class="st47" d="M215.7,370.2c-1.8-1.1-3.4-3-1.1-9.7c0.1-0.2,6.3-18.2,10.9-19.3c6.3-1.5,4.3,12.9-3.5,25.7
		C219.2,371.3,217.2,371,215.7,370.2 M229.2,339.5c-12.9-7-25.3,13.6-22,25.2c2.6,9,16,15.4,24.1,1
		C237.6,354.5,236.8,343.7,229.2,339.5"/>
	<path class="st50" d="M245.3,377.7c-0.6-1.1,2.2-7.4,3.2-7.1c1.2,0.4-2,7.1-2.5,7.5C245.6,378.2,245.4,377.9,245.3,377.7
		 M249,370.1c-1.1-2-3.6,4.6-3.9,5.6c-1,3,0.2,3.4,0.6,3.3C246.6,378.3,249.7,371.5,249,370.1 M244.3,379.8
		c-1.9-3.8,2.3-12.9,4.4-12c2.8,1.2-1.6,12-3.3,12.7C245.2,380.7,244.8,380.7,244.3,379.8 M249.9,368c-1.6-3.1-4.3,0.3-5.8,5.2
		c-1.8,5.7,0.1,8.8,1.1,8.2C246.3,380.9,251.1,370.8,249.9,368 M244.6,359.7c-0.2-0.2-0.8-0.8,0.2-3.3c0.4-0.9,1.6-3.6,2.8-3.8
		c0,0,1.5-0.1,1.2,2c-0.4,1.8-1.1,3.5-2.1,5.1C245.9,360.7,245.2,360.3,244.6,359.7 M248.9,352.3c-2.8-2.7-5.4,4.8-5.4,6.4
		c0,1.8,1.7,3.3,3,2C247.8,359.7,250.5,354.1,248.9,352.3 M243.5,361.9c-4.3-4.6,0-12.5,3.2-12.4c2.1,0.3,3.8,2.2,3.9,4.3
		c0.2,2.7-1.9,7.3-3.2,8.5C246.1,363.4,245,363.3,243.5,361.9 M238.5,372.4c5.5-4.8,10.7-10.2,15.3-16l0.2,0.3l0.2,0.3l0.1,0.3
		l0.1,0.3c-4.3,5.8-9.1,11.2-14.4,16.1l-0.3-0.3l-0.3-0.3l-0.3-0.3L238.5,372.4 M254.6,356.9c0-0.1-0.1-0.2-0.1-0.3l-0.1-0.3
		l-0.2-0.3l-0.2-0.3l-0.1-0.1c-0.1,0-0.2,0.1-0.2,0.2c-2.7,3.3-3,3.6-5.2,6c5.7-9.8,0.2-13.9-3-13c-4.5,1.4-7.2,11.7-1.1,15.1
		c0.6,0.4,1.3,0.5,2,0.2c-2.7,2.6-5.7,4.9-8.3,7.8c-0.4,0.5-0.4,1.1,0,1.6l0.3,0.3l0.3,0.3l0.3,0.3l0.3,0.3c0.2,0.2,0.3,0.2,0.6,0
		c8.4-8.2,15-16.3,14.6-17.6"/>
	<path class="st51" d="M244.9,378.5c-1-2.1,2.7-9.2,3.8-8.8c1.6,0.5-1.9,8.5-3,9.3C245.6,379.1,245.2,379.2,244.9,378.5
		 M244.2,360.5c-0.6-0.7-1.1-1.8,0-4.6c0.7-1.6,2-4.3,3.6-4.2c3.3,0.3,0.6,7.4-1.2,9.1C245.7,361.5,244.9,361.4,244.2,360.5
		 M254.1,357.7l-0.1-0.3l-0.1-0.3l-0.2-0.3l-0.2-0.3c-4.6,5.7-9.7,11.1-15.2,15.9l0.3,0.3l0.3,0.3l0.3,0.3l0.3,0.3
		C245.1,368.8,249.9,363.5,254.1,357.7"/>
	
		<ellipse transform="matrix(0.383 -0.9237 0.9237 0.383 -253.508 395.8091)" class="st52" cx="169.5" cy="387.7" rx="14.4" ry="14.6"/>
	
		<ellipse transform="matrix(0.383 -0.9237 0.9237 0.383 -252.8349 396.3483)" class="st52" cx="170.3" cy="387.4" rx="12.9" ry="13"/>
	<path class="st42" d="M167.3,396c-5.5-2.4-8-8.7-5.7-14.1c2.4-5.5,8.7-8,14.1-5.7c5.4,2.3,8,8.6,5.7,14
		C179.1,395.8,172.8,398.4,167.3,396C167.3,396,167.3,396,167.3,396z"/>
	
		<ellipse transform="matrix(0.383 -0.9237 0.9237 0.383 -245.4749 460.023)" class="st52" cx="221.6" cy="413.8" rx="14.4" ry="14.6"/>
	<path class="st42" d="M217.4,425.4c-6.6-2.8-9.6-10.3-6.8-16.9c2.8-6.6,10.3-9.6,16.9-6.8c6.5,2.8,9.6,10.2,6.9,16.8
		C231.7,425.1,224.2,428.2,217.4,425.4C217.5,425.5,217.5,425.5,217.4,425.4z"/>
	<path class="st42" d="M219.3,422.1c-5.5-2.3-8-8.7-5.7-14.1c2.3-5.5,8.7-8,14.1-5.7c5.4,2.3,8,8.6,5.7,14
		C231.2,421.9,224.9,424.4,219.3,422.1C219.4,422.1,219.3,422.1,219.3,422.1z"/>
	<path class="st42" d="M138.6,406.5L138.6,406.5c-0.3,0.7-0.2,1.5,0.2,2.1l4.6,7.3c0.2,0.2,0.2,0.6,0.3,0.8l1.1,6.2
		c0.1,0.7,0.6,1.3,1.1,1.6c7.5,4,54.7,23.6,64.4,25.6c0.8,0.2,1.6-0.1,2.1-0.7l1.6-1.8c0.3-0.3,0.7-0.6,1.1-0.7l11.6-3.4
		c0.7-0.2,1.3-0.7,1.6-1.5l1.5-4.6c0.4-1.1-0.2-2.5-1.5-2.9l-86.9-29.4C140.3,405,139,405.5,138.6,406.5z"/>
	<path class="st42" d="M263.5,330.2c0.8-5.7-0.2-11.4-3-16.3l0,0c0.3-23-45.8-37.5-56.2-22.2c-0.2,0.5-0.4,0.9-0.7,1.3l0,0
		c-4.8,1.2-8.8,3.4-11.1,6.5l-53.9,106.9c30.2,12,59.9,24.4,89.2,37.1L263.5,330.2z"/>
	<path class="st47" d="M207.2,423.6L207.2,423.6c-1.1-0.4-1.6-1.6-1.1-2.6L246,315c0.4-1.1,1.2-2.5,2.4-2l1.8,1.4
		c1.1,0.4,1.6,1.6,1.2,2.6l0,0l-41.5,105.4C209.5,423.5,208.3,424.1,207.2,423.6C207.3,423.7,207.3,423.7,207.2,423.6L207.2,423.6z"
		/>
	<path class="st53" d="M203.7,292.7c16.2-6.4,50.3,9.3,56.9,21"/>
	<path class="st42" d="M138.6,406.4l2.5-5.2c13.9,4.3,86.7,33.5,88.6,36.4l-1.9,5.8L138.6,406.4z"/>
	<path class="st47" d="M177.1,357.8c-1.1-0.3-3-0.7,0.2-8.7c0.1-0.2,8-19.3,12.2-21.9c1.1-0.7,3.9-0.4,2.7,5.1
		C191.6,335.2,183.1,359,177.1,357.8 M191,326.1c-4.4-0.2-18.7,29.1-15.5,32c6.1,5.5,18.3-22.2,18-28.7
		C193.3,326.3,191.6,326.2,191,326.1 M174.5,361.7c-14.1-3,4-31.5,11.6-36.5c7.5-4.8,17.3-1.1,14.6,12.3
		C198.2,349.3,187.1,364.1,174.5,361.7 M194.1,322.4c-14.4-1.6-29,31.6-24.3,37.7c6.6,8.6,29.4-2.8,32.1-24.1
		C203.1,326.9,198.4,323,194.1,322.4"/>
	<path class="st47" d="M176.8,358.6c-1.7-0.4-3.3-1.4-0.4-8.8c0.1-0.2,8.3-20.3,13-23.3c1.7-1.1,5.1-0.4,3.7,5.9
		C193,332.7,184.3,360.1,176.8,358.6 M193.7,323.2c-13.9-1.6-27.8,30.3-23.2,36.2c6.3,8,27.8-3.1,30.5-23.4
		C202.1,327.4,198,323.8,193.7,323.2"/>
	<path class="st47" d="M216.1,369.3c-1-0.6-3-1.7-0.4-9.1c0.1-0.2,6.1-16.9,10-18c3.6-1.1,4.8,6.8-3.9,22.9
		C218.7,370.7,216.9,369.7,216.1,369.3 M226.9,341.4c-4.8-2.5-14.8,22-13.2,26.6c0,0.1,3.8,7.9,9.3-3.1
		C232,347,229.8,343,226.9,341.4 M213.7,372.5c-14-7.7-4.8-30.7,7-34.1c9.7-2.9,21.1,8,10.9,26.8
		C227.2,373.5,220.6,376.2,213.7,372.5 M229.7,338.6c-13.7-7.4-26.9,14.1-23.3,26.2c2.9,9.7,17.2,16.7,25.7,1.4
		C238.7,354.5,237.6,343.2,229.7,338.6"/>
	<path class="st47" d="M215.7,370.2c-1.8-1.1-3.4-3-1.1-9.7c0.1-0.2,6.3-18.2,10.9-19.3c6.3-1.5,4.3,12.9-3.5,25.7
		C219.2,371.3,217.2,371,215.7,370.2 M229.2,339.5c-12.9-7-25.3,13.6-22,25.2c2.6,9,16,15.4,24.1,1
		C237.6,354.5,236.8,343.7,229.2,339.5"/>
	<path class="st51" d="M245.3,377.7c-0.6-1.1,2.2-7.4,3.2-7.1c1.2,0.4-2,7.1-2.5,7.5C245.6,378.2,245.4,377.9,245.3,377.7
		 M249,370.1c-1.1-2-3.6,4.6-3.9,5.6c-1,3,0.2,3.4,0.6,3.3C246.6,378.3,249.7,371.5,249,370.1 M249.9,368c-1.6-3.1-4.3,0.3-5.8,5.2
		c-1.8,5.7,0.1,8.8,1.1,8.2C246.3,380.9,251.1,370.8,249.9,368 M244.6,359.7c-0.2-0.2-0.8-0.8,0.2-3.3c0.4-0.9,1.6-3.6,2.8-3.8
		c0,0,1.5-0.1,1.2,2c-0.4,1.8-1.1,3.5-2.1,5.1C245.9,360.7,245.2,360.3,244.6,359.7 M248.9,352.3c-2.8-2.7-5.4,4.8-5.4,6.4
		c0,1.8,1.7,3.3,3,2C247.8,359.7,250.5,354.1,248.9,352.3 M243.5,361.9c-4.3-4.6,0-12.5,3.2-12.4c2.1,0.3,3.8,2.2,3.9,4.3
		c0.2,2.7-1.9,7.3-3.2,8.5C246.1,363.4,245,363.3,243.5,361.9 M238.5,372.4c5.5-4.8,10.7-10.2,15.3-16l0.2,0.3l0.2,0.3l0.1,0.3
		l0.1,0.3c-4.3,5.8-9.1,11.2-14.4,16.1l-0.3-0.3l-0.3-0.3l-0.3-0.3L238.5,372.4 M254.6,356.9c0-0.1-0.1-0.2-0.1-0.3l-0.1-0.3
		l-0.2-0.3l-0.2-0.3l-0.1-0.1c-0.1,0-0.2,0.1-0.2,0.2c-2.7,3.3-3,3.6-5.2,6c5.7-9.8,0.2-13.9-3-13c-4.5,1.4-7.2,11.7-1.1,15.1
		c0.6,0.4,1.3,0.5,2,0.2c-2.7,2.6-5.7,4.9-8.3,7.8c-0.4,0.5-0.4,1.1,0,1.6l0.3,0.3l0.3,0.3l0.3,0.3l0.3,0.3c0.2,0.2,0.3,0.2,0.6,0
		c8.4-8.2,15-16.3,14.6-17.6"/>
	<path class="st51" d="M244.9,378.5c-1-2.1,2.7-9.2,3.8-8.8c1.6,0.5-1.9,8.5-3,9.3C245.6,379.1,245.2,379.2,244.9,378.5
		 M254.1,357.7l-0.1-0.3l-0.1-0.3l-0.2-0.3l-0.2-0.3c-4.6,5.7-9.7,11.1-15.2,15.9l0.3,0.3l0.3,0.3l0.3,0.3l0.3,0.3
		C245.1,368.8,249.9,363.5,254.1,357.7"/>
	
		<ellipse transform="matrix(0.383 -0.9237 0.9237 0.383 -253.508 395.8091)" class="st52" cx="169.5" cy="387.7" rx="14.4" ry="14.6"/>
	
		<ellipse transform="matrix(0.383 -0.9237 0.9237 0.383 -252.8349 396.3483)" class="st52" cx="170.3" cy="387.4" rx="12.9" ry="13"/>
	<path class="st42" d="M167.3,396c-5.5-2.4-8-8.7-5.7-14.1c2.4-5.5,8.7-8,14.1-5.7c5.4,2.3,8,8.6,5.7,14
		C179.1,395.8,172.8,398.4,167.3,396C167.3,396,167.3,396,167.3,396z"/>
	
		<ellipse transform="matrix(0.383 -0.9237 0.9237 0.383 -245.4749 460.023)" class="st52" cx="221.6" cy="413.8" rx="14.4" ry="14.6"/>
	<path class="st42" d="M217.4,425.4c-6.6-2.8-9.6-10.3-6.8-16.9c2.8-6.6,10.3-9.6,16.9-6.8c6.5,2.8,9.6,10.2,6.9,16.8
		C231.7,425.1,224.2,428.2,217.4,425.4C217.5,425.5,217.5,425.5,217.4,425.4z"/>
	<path class="st42" d="M219.3,422.1c-5.5-2.3-8-8.7-5.7-14.1c2.3-5.5,8.7-8,14.1-5.7c5.4,2.3,8,8.6,5.7,14
		C231.2,421.9,224.9,424.4,219.3,422.1C219.4,422.1,219.3,422.1,219.3,422.1z"/>
	<path class="st49" d="M170.7,418.6c10.6-13.1,31.7-9.9,25.7,10.7"/>
	<path class="st42" d="M205.2,425.3c-63.7,0-115.4,51.7-115.4,115.4S141.5,656,205.2,656s115.4-51.6,115.4-115.3
		S268.9,425.3,205.2,425.3z M205.2,544.8c-2.2,0-4.1-1.8-4.1-4c0-2.2,1.8-4.1,4-4.1s4.1,1.8,4.1,4l0,0
		C209.2,542.9,207.4,544.7,205.2,544.8z"/>
	<path class="st42" d="M238.4,438.5l-24.7,64.9c-0.7,1.7,0.2,3.6,1.8,4.4c9.8,4.2,17.1,11.6,22.1,22.3c0.8,1.6,2.7,2.4,4.4,1.8
		l64.9-24.7c1.8-0.7,2.7-2.7,2-4.5c0,0,0,0,0-0.1c-12.4-31.2-33.9-54-66.1-66.1C241.1,435.8,239.1,436.7,238.4,438.5z"/>
	<path class="st42" d="M205.2,488.9c-28.6,0-51.8,23.2-51.8,51.8c0,28.6,23.2,51.8,51.8,51.8s51.8-23.2,51.8-51.8
		C257,512.1,233.8,488.9,205.2,488.9L205.2,488.9z M205.2,544.5c-2,0-3.8-1.6-3.8-3.8s1.6-3.8,3.8-3.8c2,0,3.8,1.6,3.8,3.8l0,0
		C209,542.7,207.3,544.5,205.2,544.5L205.2,544.5L205.2,544.5z"/>
	<path class="st42" d="M205.2,656.5c-63.9,0-115.7-51.9-115.6-115.8s51.9-115.7,115.8-115.6S321.1,477.1,321,540.9
		c0,30.7-12.2,60-33.9,81.7C265.4,644.4,236,656.6,205.2,656.5z M205.2,425.9c-63.4,0-115,51.6-115,115s51.6,114.9,115,114.9
		s115-51.6,115-115S268.6,425.9,205.2,425.9z"/>
	<path class="st42" d="M205.2,496.7c-24.3,0-43.9,19.7-43.9,43.9s19.7,43.9,43.9,43.9s43.9-19.7,43.9-43.9l0,0
		C249.2,516.4,229.5,496.7,205.2,496.7L205.2,496.7z M205.2,544.5c-2,0-3.8-1.6-3.8-3.8s1.6-3.8,3.8-3.8c2,0,3.8,1.6,3.8,3.8l0,0
		C209,542.7,207.3,544.5,205.2,544.5L205.2,544.5z"/>
	<path class="st42" d="M205.2,643.6c-56.7,0-102.8-46.2-102.8-102.8c0-56.7,46.2-102.8,102.8-102.8S308,484.1,308,540.8
		C308,597.4,261.9,643.6,205.2,643.6z M205.2,438.6c-56.3,0-102.2,45.8-102.2,102.2c0,56.4,45.8,102.2,102.2,102.2
		s102.2-45.9,102.2-102.3C307.5,484.4,261.5,438.6,205.2,438.6L205.2,438.6z"/>
	<path class="st42" d="M207.3,630.8c-50.8,0-92-41.3-92-92c0-50.7,41.3-92,92-92s92,41.2,92,92C299.3,589.6,258,630.8,207.3,630.8z
		 M207.3,447.4c-50.4,0-91.4,41-91.4,91.4c0,50.4,41,91.4,91.4,91.4s91.4-41,91.4-91.4C298.7,488.4,257.6,447.4,207.3,447.4
		L207.3,447.4z"/>
	<path class="st42" d="M205.2,622.2c-44.9,0-81.4-36.5-81.4-81.4s36.6-81.4,81.4-81.4s81.4,36.5,81.4,81.4S250.1,622.2,205.2,622.2z
		 M205.2,460c-44.5,0-80.8,36.2-80.8,80.8s36.2,80.8,80.8,80.8s80.8-36.2,80.8-80.8S249.7,460,205.2,460z"/>
	<path class="st42" d="M205.2,605.2c-35.6,0-64.4-28.8-64.4-64.4c0-35.6,28.8-64.4,64.4-64.4s64.4,28.8,64.4,64.4
		C269.5,576.4,240.7,605.1,205.2,605.2z M205.2,477c-35.3,0-63.8,28.5-63.8,63.8c0,35.3,28.5,63.8,63.8,63.8S269,576,269,540.8l0,0
		C268.9,505.6,240.4,477.1,205.2,477L205.2,477z"/>
	<path class="st42" d="M205.2,582.1c-2,0-3.9-1.3-4.5-3.3l-7.2-22.2h-23.4c-2.6,0-4.8-2.1-4.8-4.8c0-1.5,0.7-3,2-3.9l18.9-13.8
		l-7.2-22.2c-0.8-2.5,0.6-5.2,3-6c1.5-0.5,3-0.2,4.3,0.7l18.9,13.8l18.9-13.8c2.1-1.6,5.1-1.1,6.6,1.1c0.9,1.2,1.1,2.8,0.7,4.3
		l-7.2,22.2l18.9,13.8c2.1,1.6,2.5,4.5,1.1,6.6c-0.9,1.2-2.3,2-3.9,2H217l-7.2,22.3C209.1,580.9,207.3,582.2,205.2,582.1z
		 M198.2,556.6l6.8,20.9c0,0.2,0.2,0.2,0.3,0.2s0.2-0.1,0.3-0.2l6.8-20.9H198.2z M218.3,552.2h22c0.2,0,0.2-0.1,0.3-0.2
		c0.1-0.2,0-0.2-0.1-0.3l-17.8-12.9L218.3,552.2z M196.7,552.2h17.1l5.2-16.2l-13.8-10l-13.8,10L196.7,552.2z M187.7,538.7
		l-17.8,12.9c-0.1,0.1-0.2,0.2-0.1,0.3c0,0.2,0.2,0.2,0.3,0.2h22L187.7,538.7z M209,523.2l11.5,8.4l6.8-20.9c0.1-0.2,0-0.2-0.1-0.3
		c-0.1-0.1-0.2-0.1-0.4,0L209,523.2z M183.5,510.3c-0.1,0-0.2,0-0.2,0.1c-0.2,0.1-0.2,0.2-0.1,0.3l6.8,20.9l11.5-8.4l-17.8-12.9
		C183.7,510.3,183.6,510.3,183.5,510.3L183.5,510.3z"/>
	<circle class="st42" cx="229.5" cy="523.5" r="13.3"/>
	<circle class="st42" cx="223.8" cy="527.6" r="3.9"/>
	<circle class="st42" cx="232.6" cy="519.5" r="5.1"/>
	<circle class="st42" cx="180.5" cy="530.3" r="12.5"/>
	<circle class="st42" cx="184.6" cy="533.5" r="3.9"/>
	<circle class="st42" cx="175.8" cy="525.5" r="5.1"/>
	<path class="st42" d="M242,561.2c-0.2,0-0.3,0-0.5-0.1c-0.7-0.2-1-1-0.7-1.6c1-2.5,1-4.8,0.1-6.5c-1.3-2.5-4.4-4.3-9.3-5.6
		c-0.7-0.2-1.1-0.9-0.9-1.6c0.2-0.7,0.8-1.1,1.5-0.9c5.7,1.4,9.4,3.7,11.1,6.9c1.3,2.5,1.3,5.3,0.1,8.6
		C243,560.9,242.5,561.2,242,561.2z"/>
	<path class="st42" d="M180,547.4c0.1,0.1,0.2,0.2,0.2,0.4c0.3,0.7,0,1.4-0.6,1.7c-2.5,1.1-4,2.7-4.5,4.7c-0.7,2.7,0.2,6.2,3,10.5
		c0.3,0.7,0.2,1.4-0.5,1.8c-0.6,0.3-1.3,0.2-1.7-0.4c-3.1-4.9-4.3-9.2-3.3-12.6c0.7-2.7,2.8-4.8,5.9-6.3
		C179.1,547,179.6,547.1,180,547.4z"/>
	<path class="st42" d="M205.2,544.4c-2,0-3.7-1.6-3.7-3.7s1.6-3.7,3.7-3.7s3.7,1.6,3.7,3.7l0,0C208.9,542.7,207.3,544.4,205.2,544.4
		z M205.2,537.1c-2,0-3.6,1.6-3.6,3.6c0,2,1.6,3.6,3.6,3.6s3.6-1.6,3.6-3.6l0,0C208.8,538.7,207.2,537.1,205.2,537.1z"/>
	<path class="st42" d="M140.7,331.5c-0.4-1.6-0.5-4.2-0.7-6c-3.1-22.3-35.6-36.2-72.6-31c-37,5.2-65,24.4-61.2,49.6
		c0.2,1.3,0.5,2.6,0.9,3.9c-0.2,0.1-0.2,0.2-0.3,0.2c0.4,4.4-12,10.8-3.6,39.8l48.1,158.7c14.6,36.7,91.2,38.2,94.3-16.4l8.3-167.1
		c0.2-3.2-0.1-6.3-0.7-9.4C150.3,341.4,142.1,333.6,140.7,331.5z"/>
	<path class="st42" d="M71.3,311.1c-31.5,4.2-55.6,20.3-52.5,41.9c1,6.6,4.9,12.3,11,16.9c13.1,5.7,30.3,7.8,48.9,5.2
		c22.6-3.2,41.7-12.8,52.3-24.8c1.8-3.9,2.5-8.2,2-12.5C130.4,318.9,102.9,306.9,71.3,311.1z"/>
	<path class="st42" d="M153.2,375l-7.9,158.1c-3.1,54.6-79.7,53.1-94.3,16.4L3.8,393.3C34.6,442,133.4,427,153.2,375z"/>
	<path class="st42" d="M91.2,372.7c17-4.4,31-12.5,39.6-22.3c1.8-3.9,2.5-8.2,2-12.5c-2.5-18.9-30.1-30.9-61.6-26.7
		c-1.1,0.2-2.1,0.2-3.2,0.5l-1.1,0.2l-2.1,0.4l-1.3,0.2l-2,0.4l-1.1,0.2c-0.7,0.2-1.3,0.3-1.9,0.5c-0.4,0.1-0.8,0.2-1.2,0.3l-1,0.2
		l-1.6,0.4l-1,0.2l-1.6,0.5l-0.9,0.3c-0.6,0.2-1.1,0.4-1.7,0.6l-0.7,0.2c-0.8,0.3-1.6,0.6-2.3,0.9l-0.4,0.2l-1.8,0.7l-0.7,0.3
		l-1.4,0.7l-0.8,0.4l-1.3,0.7l-0.7,0.4l-1.3,0.7l-0.7,0.4l-1.4,0.9l-0.5,0.3c-0.7,0.4-1.2,0.8-1.8,1.2l-0.4,0.2l-1.3,1l-0.6,0.4
		l-1.1,0.8c-0.2,0.2-0.4,0.3-0.6,0.5l-1,0.8l-0.6,0.6c-0.3,0.3-0.7,0.6-1,0.9l-0.5,0.5c-0.3,0.4-0.7,0.7-1.1,1.1l-0.2,0.3
		c-0.4,0.5-0.8,1-1.2,1.5c-0.1,0.2-0.2,0.2-0.3,0.4c-0.2,0.4-0.6,0.7-0.8,1.1l-0.3,0.6c-0.2,0.3-0.4,0.7-0.7,1l-0.3,0.7
		c-0.2,0.3-0.4,0.7-0.6,1c-0.2,0.3-0.2,0.4-0.3,0.7s-0.3,0.7-0.5,1.1l-0.2,0.6c-0.2,0.4-0.3,0.8-0.5,1.2l-0.2,0.4
		c-0.2,0.6-0.3,1.1-0.5,1.7c0,0.2-0.1,0.3-0.1,0.5c-0.1,0.4-0.2,0.8-0.2,1.2c0,0.2-0.1,0.4-0.1,0.7c-0.1,0.4-0.1,0.7-0.2,1.1
		c0,0.2,0,0.5-0.1,0.7c0,0.2-0.1,0.7-0.1,1.1s0,0.5,0,0.8c0.1,0.5,0.1,1.1,0.1,1.6v0.2l0.2,1.9c1,6.6,4.9,12.3,11,16.9
		c13,5.5,30.3,7.7,48.8,5.1C82.8,374.6,87.1,373.7,91.2,372.7z"/>
	<path class="st42" d="M58,313.7l-0.5,0.2c0.4-0.1,0.8-0.2,1.2-0.3L58,313.7z"/>
	<path class="st42" d="M67.4,294.5c-36.9,5.2-65,24.4-61.2,49.7c1.2,8,6.2,15,13.9,20.4c-2.3-3.3-3.9-7.1-4.4-11.1
		c-1.5-9.8,2.1-19.1,10.2-26.9c7.4-7.1,18.1-12.5,31.2-16c4.5-1.1,9.1-2,13.7-2.7c15.8-2.1,31.2-0.3,43.4,4.9
		c12.8,5.5,20.5,14.3,21.9,24.6c0.2,1.8,0.2,3.7,0.1,5.5c3.1-5.2,4.3-11.4,3.6-17.4C136.8,303.2,104.3,289.4,67.4,294.5z"/>
	<path class="st42" d="M114.2,312.9c-12.1-5.2-27.6-7.1-43.4-4.9c-4.6,0.6-9.2,1.5-13.7,2.7c-13,3.4-23.9,8.9-31.2,16
		c-8.1,7.8-11.6,17.1-10.2,26.9c0.6,4,2.1,7.8,4.4,11.1c3,2.1,6.3,3.9,9.7,5.3c-6.1-4.6-10-10.2-11-16.9l-0.2-1.9l-0.1-0.6
		c-0.1-0.4,0-0.8,0-1.2c0-0.2,0-0.5,0-0.7c0-0.2,0-0.7,0.1-1.1c0.1-0.4,0-0.5,0.1-0.7c0-0.2,0.1-0.7,0.2-1.1c0-0.2,0.1-0.4,0.1-0.7
		c0.1-0.4,0.2-0.8,0.2-1.2c0.1-0.2,0.1-0.3,0.1-0.5c0.2-0.6,0.3-1.1,0.5-1.7l0.1-0.2c0.2-0.5,0.4-1.2,0.7-1.6l0.1-0.4
		c0.2-0.3,0.3-0.7,0.5-1.1c0.1-0.2,0.2-0.4,0.3-0.7c0.1-0.2,0.3-0.7,0.6-1l0.3-0.7c0.2-0.3,0.4-0.7,0.7-1l0.3-0.6
		c0.2-0.4,0.6-0.7,0.8-1.1l0.1-0.1c0.5-0.7,1-1.3,1.5-1.8l0.2-0.2c0.3-0.4,0.7-0.7,1.1-1.2l0.5-0.5c0.3-0.3,0.6-0.7,1-0.9l0.6-0.5
		l1-0.8c0.2-0.2,0.4-0.3,0.6-0.5l1.1-0.8l0.6-0.4l1.3-1l0.4-0.2c0.6-0.4,1.2-0.8,1.8-1.2l0.5-0.3l1.4-0.9l0.7-0.4l1.3-0.7l0.7-0.4
		l1.3-0.7l0.8-0.4l1.4-0.7l0.7-0.3l1.8-0.7l0.4-0.2c0.7-0.3,1.6-0.6,2.3-0.9l0.7-0.2c0.6-0.2,1.1-0.4,1.7-0.6l0.9-0.3l1.6-0.5l1-0.3
		l1.6-0.3l1-0.2l0.5-0.2l0.7-0.2c0.7-0.2,1.2-0.3,1.9-0.5l1.1-0.2l1.9-0.4l1.1-0.2l2.2-0.4l1.1-0.2c1.1-0.2,2-0.3,3.2-0.5
		c31.5-4.2,59.1,7.8,61.7,26.7c0.5,4.3-0.2,8.5-2,12.5c2-2.3,3.8-4.8,5.2-7.4c0.2-1.8,0.2-3.7-0.1-5.5
		C134.7,327.1,126.9,318.4,114.2,312.9z"/>
	<path class="st43" d="M44.7,299.9c7.4-2.5,15-4.3,22.7-5.3c36.9-5.2,69.4,8.7,72.5,31c0.7,6.1-0.6,12.1-3.6,17.4
		c0.2-1.8,0.2-3.7-0.1-5.5c-1.4-10.3-9.1-19-21.8-24.6c-12.1-5.2-27.6-7.1-43.4-4.9c-4.6,0.7-9.2,1.6-13.7,2.7
		c-6.1,1.6-12.1,3.8-17.8,6.6L44.7,299.9z"/>
	<path class="st42" d="M92.1,374.9c-4.3,1.1-8.6,2-13,2.6c-18.1,2.5-35.7,0.7-49.7-5.3c-14.2-6.1-22.9-15.7-24.6-27l0,0
		c-1.3-8.7,0.8-17,6.5-24.4c10.2-13.6,30.6-23.5,56.1-27.1c37.7-5.2,71.1,9.3,74.3,32.3c1.6,11.4-4.1,23-16.1,32.7
		C116.6,366,105,371.5,92.1,374.9z M53.4,299.8c-17.7,4.7-32,12.8-39.5,22.9c-5.1,6.8-7.1,14.3-5.8,22.1l0,0
		c3.3,21.3,34.9,34.6,70.7,29.6c17.5-2.5,33.5-8.9,44.9-18c11.1-9,16.4-19.6,15-29.8c-3-21.3-34.7-34.6-70.7-29.6
		C63,297.6,58.1,298.6,53.4,299.8z"/>
	<path class="st54" d="M150.7,373.9c-9.8,21.6-22.7,31.7-47.1,39.2c-1.1,0.3-2.4-0.4-2.7-1.6c0-0.2-0.1-0.2-0.1-0.4
		c-3.6-14.5-9.5-22.9-12-29.2c-0.6-1.4-0.2-2.9,1.1-3.4c28.2-7.9,45.3-19,51.5-35.7c0.4-1.1,1.6-1.6,2.7-1.3l0,0
		c0.4,0.2,0.8,0.4,1.1,0.8c5,7,7.1,15.3,5.6,30.7C150.9,373.4,150.8,373.7,150.7,373.9z"/>
	<path class="st42" d="M50.8,512.6l-0.4-1.5l0.5,0.3l0.5,0.3l0.5,0.3l0.5,0.3c0.4,0.2,0.7,0.5,1,0.8c0.2,0.3,0.4,0.9,0.2,1.1
		c-0.2,0.1-0.4-0.1-0.6-0.2l-0.6-0.3l-0.5-0.3l-0.5-0.4L50.8,512.6 M51.1,509.9l-0.9-0.6l-0.9-0.6l-0.8-0.6l-0.9-0.6
		c-0.1-0.1-0.1-0.1-0.2-0.1h-0.1v0.1l1.4,4.5c0.1,0.2,0.2,0.3,0.3,0.5l0.9,0.7l0.9,0.6l0.9,0.6l0.9,0.6c2.8,1.6,2.3-0.7,2.2-0.9
		C54.6,513.2,53.8,511.5,51.1,509.9 M47.1,500.2l-0.5-1.7l0.3,0.2l0.3,0.2l0.3,0.2l0.4,0.2c0.4,0.2,0.7,0.4,1,0.8
		c0,0,0.5,1.1,0.2,1.1c-0.2-0.1-0.6-0.2-0.7-0.3l-0.3-0.2l-0.3-0.2l-0.3-0.2L47.1,500.2 M46.6,496.3l-0.8-0.5l-0.8-0.5
		c-0.2-0.2-0.5-0.3-0.7-0.5l-0.7-0.5c-0.1-0.1-0.1-0.1-0.2-0.1s-0.1,0.1,0,0.2l1.5,5c0.1,0.2,0.2,0.4,0.4,0.5l0.7,0.5l0.8,0.5
		l0.7,0.5c0.2,0.2,0.5,0.3,0.7,0.5c3,1.7,2.5-0.6,2.4-1C49.9,498.9,48.4,497.2,46.6,496.3 M91.8,522.1c-11.7,0.4-11.5-9.8-9-12.5
		c3-3.1,17.3-5.2,17.6,4.6C100.5,518.7,97.3,521.7,91.8,522.1 M88.5,504.6c-18.4,1.5-9.1,14.4-7.5,15.8c6.6,5.7,22.1,3.1,21.2-7.7
		C101.7,506.9,97,504.1,88.5,504.6 M68.1,473.1l0.2-2.2l1.1,2.4h-0.3h-0.3h-0.3L68.1,473.1 M64.6,458.8l0.4-0.1h-0.1l0,0h-0.1
		c-0.4,4.5-1.2,10.5-1.5,15c0,0,0,0.4,0.6,0.6c0.6,0.2,1.4,0.2,2,0.2l2,0.2l2,0.2l2.1,0.2c0.2,0,0.6-0.1,0.4-0.5
		c-2.3-4.8-5.2-11.1-7.5-15.8 M44,512.2c-0.1-0.2-0.2-0.3-0.2-0.5L33.2,479l0.1-0.1c0.7,0.9,1.6,1.8,2.5,2.7s1.9,1.7,2.9,2.5
		s2.1,1.6,3.3,2.3c1.1,0.7,2.4,1.5,3.6,2.1c23.3,12.7,16.2,20.2,14.4,20.7c-0.3,0.1-0.7,0.2-1.1,0.2l-0.1,0.2c1.6,1.9,4,3.2,5.6,5.2
		c1.1,1.3,1.9,2.9,2.3,4.6c0.8,4.3-2.8,5.2-5.1,5c-2-0.2-4-1-5.8-2c-1.1-0.7-2.3-1.5-3.4-2.2c-1.1-0.7-2.1-1.6-3.1-2.5
		c-1-0.8-1.9-1.7-2.8-2.7C45.5,514.2,44.7,513.2,44,512.2 M130.9,496.2l0.3-0.1h0.1c3.6-9.4,3.9-10.4,6.3-17.5
		c0.1-0.2,0.2-0.3,0.3-0.5c0.7-0.7,1.5-1.3,2.1-2c0.7-0.7,1.3-1.4,2-2c0.7-0.7,1.2-1.4,1.7-2c0.6-0.7,1.1-1.4,1.6-2l0.2,0.2v0.1
		c-2.7,10.5-6.1,20.8-10,30.9l0.1,0.4l-0.6,11.2c0,0.2-0.2,0.4-0.2,0.5c-0.7,0.6-1.3,1.2-2,1.8c-0.7,0.6-1.4,1.1-2.1,1.7
		c-0.7,0.6-1.5,1.1-2.3,1.6c-0.8,0.6-1.6,1.1-2.5,1.6h-0.1l-0.1-0.1l0.1-11.2v-0.1c-10.9-9.8-16-15.1-16.1-15.4
		c0.2-0.3,0.2-0.3,0.4-0.4c1.2-0.3,2.4-0.7,3.6-1.1c1.1-0.4,2.4-0.8,3.5-1.3c1.1-0.5,2.3-0.9,3.4-1.4c1.1-0.5,2.2-1,3.4-1.6h0.1h0.1
		h0.1l-0.4,0.1c0.2,0,0.2,0,0.4,0c3.9,5.3,4.3,5.7,6.6,9 M92.1,530.7c-24,0.5-33.8-21.6-25.3-29.4c8.5-7.8,51.3-11.7,49.4,9.3
		C115.3,519.8,106,529.8,92.1,530.7 M107,494.8c-3-0.6-6.1-0.8-9.2-0.9c1.1-0.2,2-0.3,3-0.6c1-0.2,2-0.4,3-0.7s2-0.5,3-0.7
		c1-0.2,2-0.5,3-0.8C107.6,491.9,106.3,493.5,107,494.8 M131.9,491.7c-2.5-3.6-4.3-6.4-4.6-6.6c-0.4-0.4-1.1-0.4-2.1,0.1l0.7-0.4
		l0.7-0.4l0.7-0.4l0.7-0.4l0.5-0.2c0.9-0.6,1.8-1.1,2.6-1.6c0.8-0.6,1.6-1.1,2.5-1.7c0.8-0.6,1.6-1.1,2.3-1.7
		c0.7-0.6,1.5-1.1,2.1-1.8c-0.7,0.7-1.3,1.6-1.7,2.6C135.1,482.8,133.3,487.8,131.9,491.7 M50.2,489.4c1,0.4,2,0.8,3.1,1.2
		c1.1,0.4,2.2,0.7,3.4,1.1c1.1,0.3,2.2,0.7,3.4,0.9c1.2,0.2,2.4,0.6,3.5,0.8c1.4,0.2,2.3-0.2,2.5-1.1l0.6-4.8l2.5,0.3
		c0.8,0.1,1.7,0.2,2.6,0.2c0.9,0.1,1.7,0.2,2.6,0.2c0.9,0.1,1.8,0.1,2.6,0.1c3,5.9,3,5.9,4.1,6.5c-9.1,1.3-13.9,3.3-16.9,6.9
		c-2.8-4.3-6.8-8.2-18.4-14.2l0.3,0.2l0.3,0.2l0.3,0.2l0.3,0.2c0.4,0.2,0.9,0.3,1.4,0.2C49,488.8,49.6,489.2,50.2,489.4 M47.3,481.2
		l-7-25.4c0.7,0.2,1.3,0.5,2,0.7l2,0.7c0.7,0.2,1.4,0.4,2,0.6c0.7,0.2,1.4,0.4,2.2,0.6c-0.4,7.1-0.9,14.4-1.1,23 M19.8,439.8
		c-0.2-0.2-0.2-0.4-0.3-0.7l-3.6-10.9L16,428c1.4,1.6,3,3.1,4.6,4.4c2,1.5,4,2.8,6.2,3.9c2.5,1.3,5.1,2.4,7.7,3.4c3,1.1,6,2,9,2.7
		c0.3,0.1,0.5,0.3,0.7,0.6l2.9,11.4l-0.1,0.3h-0.2c-0.9-0.2-1.8-0.5-2.7-0.7c-0.9-0.2-1.7-0.6-2.6-0.8c-0.9-0.2-1.6-0.6-2.5-0.9
		c-0.8-0.3-1.6-0.6-2.4-0.9l-0.3,0.2v0.1l9.5,33.5l-0.2,0.2c-0.8-0.4-1.6-0.9-2.5-1.3c-0.8-0.5-1.6-0.9-2.3-1.4
		c-0.7-0.5-1.5-1-2.2-1.5s-1.4-1.1-2-1.6c-0.2-0.2-0.2-0.3-0.4-0.6l-10.3-33c-0.1-0.2-0.2-0.5-0.4-0.7c-0.6-0.4-1.1-0.8-1.6-1.2
		s-1-0.8-1.4-1.3c-0.5-0.4-0.9-0.9-1.3-1.3C20.6,440.7,20.2,440.2,19.8,439.8 M96.9,487.7c0.2-0.1,0.4-0.2,0.5-0.4l-4-43
		c0.1-0.2,0.3-0.4,0.6-0.6c1.4-0.2,2.9-0.3,4.3-0.7c1.4-0.3,2.8-0.5,4.2-0.7c1.4-0.2,2.8-0.6,4.1-0.8c1.4-0.3,2.7-0.7,4-1l0.4,0.1
		l0.2,0.3l1.3,36.2l0.3,0.2l0.3-0.1c0.9-0.3,1.9-0.6,2.8-0.9c0.9-0.3,1.8-0.7,2.7-1c0.9-0.3,1.8-0.7,2.6-1.1
		c0.9-0.3,1.7-0.7,2.5-1.1l0.9-0.4l0.9-0.4l0.9-0.4l0.9-0.4l0.4,0.1v0.1l-0.2,9c-0.1,0.2-0.2,0.4-0.4,0.6l-0.8,0.4l-0.8,0.4
		l-0.8,0.4l-0.9,0.4c-2,0.9-3.9,1.8-6,2.6c-2,0.8-4.2,1.6-6.3,2.2c-2.1,0.6-4.3,1.2-6.6,1.8c-2.2,0.5-4.4,1-6.7,1.3l-0.4,0.1
		c-1.3,0.2-2.7,0.4-4,0.6c-1.3,0.2-2.7,0.3-4,0.4c-1.3,0.1-2.7,0.2-4,0.2c-1.3,0.1-2.6,0.1-4,0.1c-0.2,0-0.4-0.2-0.6-0.2
		c-3.3-6.6-3.3-6.6-3.7-6.6c-1.2,0-2.5-0.1-3.8-0.2c-1.2-0.1-2.5-0.2-3.7-0.2c-1.2-0.1-2.5-0.2-3.6-0.4c-1.1-0.2-2.4-0.3-3.5-0.6
		l-0.4,0.2v0.1l-0.5,5.9l-0.4,0.2c-1.1-0.2-2.2-0.5-3.3-0.8c-1.1-0.2-2.2-0.6-3.2-0.9s-2-0.7-3-1c-1-0.3-2-0.7-3-1.1
		c-0.2-0.2-0.3-0.4-0.5-0.6c0.6-12.3,2.5-41.7,3.2-42.2h0.1c1.7,0.2,3.4,0.5,5.2,0.7c1.8,0.2,3.6,0.4,5.4,0.5
		c1.9,0.2,3.7,0.2,5.6,0.3c1.9,0.1,3.8,0.1,5.7,0.1c0.2,0.1,0.4,0.2,0.7,0.3C80.9,458.1,96.1,487.8,96.9,487.7 M127.7,480.7
		L127.7,480.7l-0.2-0.2l0.9-45.4c0.1-0.2,0.2-0.6,0.5-0.7c1.1-0.5,2.1-1,3.1-1.5s2-1,3-1.5c0.9-0.5,1.8-1.1,2.7-1.6
		c0.9-0.5,1.6-1.1,2.5-1.6h0.2v0.2l-2,35.1l0.2,0.2l0.2-0.1c0.7-0.7,1.5-1.2,2.1-1.9s1.3-1.3,1.9-2c0.6-0.7,1.1-1.3,1.7-2
		c0.6-0.7,1.1-1.3,1.5-2l0.2,0.1l-0.7,8.8c0,0.2-0.1,0.4-0.2,0.6c-0.9,1.4-2,2.7-3,3.9c-1.2,1.4-2.5,2.7-3.9,3.9
		c-1.5,1.3-3.1,2.6-4.8,3.8c-1.7,1.2-3.6,2.4-5.6,3.5 M141.5,425.5c-0.8,0.6-1.6,1.1-2.5,1.7c-0.9,0.6-1.8,1.1-2.8,1.6
		c-1,0.6-2,1.1-3.1,1.6c-1.1,0.5-2.2,1.1-3.4,1.6c-1.6,0.8-2.8,2.5-3,4.3l-0.5,33.9l-0.7,0.3l-0.7,0.3l-0.7,0.3l-0.7,0.3l-1.7,0.7
		L120,473c-0.6,0.2-1.1,0.5-1.8,0.7l-1.8,0.7l-0.7-34.3c-0.2-0.8-0.6-2.6-3.5-2c-1.4,0.4-2.9,0.7-4.3,1.1c-1.5,0.3-3,0.7-4.4,1
		c-1.5,0.3-3,0.6-4.5,0.8c-1.5,0.2-3,0.5-4.6,0.7c-2.3,0.5-3.4,1.6-3.4,3.5l3,28.9c-15.9-30.9-15.9-30.9-18.6-31.1c-2,0-4,0-6,0
		s-3.9-0.2-5.9-0.2s-3.9-0.2-5.7-0.5c-1.9-0.2-3.7-0.4-5.6-0.7c-1.3-0.1-2.3,0-2.7,1.7l-0.3,4.6l-0.8-3.9c-0.6-1.9-2-3.3-3.9-3.8
		c-3.2-0.7-6.4-1.6-9.5-2.6c-2.8-0.9-5.5-2-8.1-3.4c-2.3-1.1-4.4-2.4-6.5-3.9c-1.8-1.3-3.4-2.8-4.9-4.3l-0.4,0.3
		c0.1,0.3,0.2,0.7,0.3,1.1l3.9,11.7c0.5,1.5,1.1,2.9,2,4.2c0.3,0.4,0.7,0.7,1,1.1c0.3,0.4,0.7,0.7,1.1,1.1c0.3,0.3,0.7,0.7,1.1,1.1
		c0.4,0.3,0.8,0.7,1.1,1.1l9.8,30.9c0.5,1.3,1.3,2.5,2.3,3.6c-0.4-0.3-0.8-0.7-1.1-1.1c-0.4-0.3-0.7-0.7-1.1-1.1
		c-0.4-0.3-0.7-0.7-1.1-1.1c-0.3-0.4-0.7-0.7-1-1.1l-0.5-0.5c-0.1,0.3-0.2,0.7-0.1,1l10.8,33.1c0.4,1.1,1,2.2,1.7,3.3
		c0.7,1,1.6,1.9,2.5,2.9c0.9,1,1.9,1.9,2.9,2.7c1,0.9,2.1,1.6,3.2,2.5c1.1,0.8,2.3,1.6,3.5,2.2c7,3.7,11.2,2.1,12.8-0.6
		c20.9,19.8,50,3,50.1-16.6c0-0.2,0-0.6-0.1-0.8c1.2,1.1,2.8,2.5,4,3.4l-0.1,11l0.2,0.7c0.7,0.2,1.4,0.1,2-0.3
		c0.9-0.6,1.7-1.1,2.6-1.7c0.8-0.6,1.6-1.1,2.4-1.8s1.5-1.2,2.2-1.9c0.7-0.6,1.4-1.2,2-1.9c0.9-0.9,1.5-2,1.6-3.2l0.7-11
		c8.4-24.5,9.1-32.9,9.1-32.9c-0.2,0.1-0.6,0.2-0.7,0.4l0,0c0.7-1.2,1.1-2.5,1.2-3.9l0.8-9.4v-0.7l-0.7-0.2l-0.2,0.2
		c-0.4,0.6-0.8,1.1-1.2,1.7c-0.4,0.6-0.9,1.1-1.4,1.6c-0.5,0.5-1,1.1-1.6,1.6c-0.5,0.6-1.1,1.1-1.7,1.6l2.1-33.3
		c0-0.5-0.2-1.1-0.3-1.6l-0.7-0.3C142.1,425.2,141.8,425.3,141.5,425.5"/>
	<path class="st42" d="M43.2,441.9c-3-0.7-6.1-1.6-9-2.7c-2.6-0.9-5.2-2-7.7-3.3c-2.1-1.1-4.3-2.5-6.2-3.9c-1.7-1.3-3.3-2.7-4.6-4.3
		l-0.1,0.2l3.6,10.9c0.1,0.2,0.2,0.5,0.3,0.7c0.3,0.5,0.7,0.9,1.1,1.4c0.4,0.4,0.8,0.9,1.3,1.3s0.9,0.9,1.4,1.3s1.1,0.8,1.6,1.2
		c0.2,0.2,0.3,0.4,0.4,0.7l10.3,33c0.1,0.2,0.2,0.4,0.4,0.6c0.7,0.6,1.3,1.1,2,1.6c0.7,0.5,1.4,1,2.2,1.5c0.7,0.5,1.6,1,2.3,1.4
		c0.7,0.4,1.6,0.8,2.5,1.3l0.2-0.2l-9.5-33.4l0.1-0.6H36c0.7,0.5,1.6,0.9,2.4,1.1c0.8,0.3,1.6,0.6,2.5,0.9s1.7,0.6,2.6,0.8
		c0.9,0.2,1.8,0.5,2.6,0.2h0.3l0.1,0.3l-2.9-11.4C43.7,442.2,43.4,442,43.2,441.9"/>
	<path class="st42" d="M63.9,474.3c-0.4-0.1-0.6-0.2-0.6-0.6c0.4-4.5,1-10.5,1.5-15h0.1H65h0.1h0.1c2.2,4.8,5.4,11,7.5,15.8
		c0,0,0.2,0.4-0.4,0.5l-2.1-0.2l-2.1-0.2l-2-0.2C65.3,474.4,64.6,474.3,63.9,474.3 M110.4,440.4c-1.3,0.3-2.7,0.7-4,1
		c-1.4,0.3-2.7,0.6-4.1,0.8c-1.4,0.2-2.8,0.5-4.2,0.7c-1.4,0.2-2.8,0.4-4.3,0.7c-0.2,0.1-0.4,0.3-0.6,0.6l4,43.1
		c-0.5,0.8-1.1,0.2-1.1,0.2c-3.2-6-10.6-19.8-17.1-32.7c-4.9-9.7-4.9-9.7-5.4-9.8c-1.9,0-3.9,0-5.7-0.1c-1.9-0.1-3.8-0.2-5.6-0.3
		c-1.9-0.2-3.7-0.3-5.4-0.5c-1.7-0.2-3.5-0.4-5.2-0.7l-0.4,0.2v0.2c-2.3,27.7-3.1,42.1-2.4,42.6c1,0.4,2,0.7,3,1.1c1,0.3,2,0.7,3,1
		c1.1,0.3,2.1,0.7,3.2,0.9s2.2,0.6,3.3,0.8l0.4-0.2l0,0l0.5-5.9c0.1-0.1,0.2-0.2,0.4-0.2c1.1,0.2,2.4,0.4,3.5,0.6
		c1.2,0.2,2.4,0.3,3.6,0.4c1.2,0.1,2.5,0.2,3.7,0.3c1.2,0.1,2.5,0.2,3.8,0.2c0.2,0.1,0.4,0.2,0.6,0.3c3.4,6.6,3.4,6.6,3.7,6.6
		c1.3,0,2.6-0.1,4-0.1c1.3-0.1,2.7-0.2,4-0.2c1.3-0.1,2.7-0.2,4-0.4c1.3-0.2,2.7-0.3,4-0.6l0.4-0.1c2.2-0.4,4.5-0.8,6.7-1.3
		c2.2-0.5,4.4-1.1,6.6-1.8s4.3-1.4,6.3-2.2c2-0.8,4-1.6,6-2.6l0.9-0.4l0.8-0.4l0.8-0.4l0.8-0.4c0.2-0.2,0.3-0.3,0.4-0.6l0.2-9
		l-0.3-0.2l0,0l-0.9,0.4l-0.9,0.4l-0.9,0.4l-0.9,0.4c-0.8,0.4-1.7,0.7-2.5,1.1c-0.9,0.3-1.7,0.7-2.6,1.1c-0.9,0.3-1.8,0.7-2.7,1
		c-0.9,0.3-1.8,0.7-2.8,0.9l-0.4-0.1l-0.1-0.2l-1.2-36.2l-0.2-0.3c-0.1,0-0.2,0-0.3,0"/>
	<path class="st42" d="M139.9,427.1c-0.8,0.6-1.6,1.1-2.5,1.6c-0.8,0.5-1.8,1.1-2.7,1.6c-0.9,0.5-1.9,1.1-3,1.6c-1,0.5-2,1-3.1,1.5
		c-0.2,0.2-0.4,0.4-0.5,0.7l-0.8,46.4l0.2,0.2h0.2c2-1.1,3.9-2.4,5.6-3.6c1.6-1.2,3.2-2.5,4.8-3.9c1.4-1.2,2.7-2.5,3.9-3.9
		c1.1-1.3,2.1-2.6,3.1-4c0.1-0.2,0.2-0.4,0.2-0.7l0.7-9l-0.2-0.1c-0.5,0.7-1,1.3-1.5,2c-0.6,0.7-1.1,1.3-1.7,2
		c-0.6,0.7-1.2,1.3-1.9,2c-0.7,0.7-1.4,1.3-2.1,2h-0.2v-0.2l2-35.9V427c-0.1,0-0.2-0.1-0.2,0"/>
	<path class="st42" d="M49.1,512.6c-0.2-0.1-0.3-0.3-0.3-0.5l-1.4-4.5v-0.1h0.1c0.1,0,0.1,0,0.2,0.1l0.8,0.6l0.8,0.6l0.9,0.6
		l0.9,0.6c4.1,2.5,4.4,5.4,3.4,5.7c-0.6,0.2-1.4-0.3-1.8-0.6l-0.9-0.6l-0.9-0.6l-0.9-0.6L49.1,512.6 M45.3,500
		c-0.2-0.2-0.3-0.3-0.4-0.5l-1.5-5c0-0.1,0-0.1,0-0.2c0-0.1,0.1,0,0.2,0.1l0.7,0.5c0.2,0.2,0.5,0.3,0.7,0.5l0.8,0.5l0.8,0.5
		c4,2.5,4.7,5.8,3.5,6.1c-0.7,0.2-1.6-0.3-2-0.7c-0.2-0.2-0.5-0.3-0.7-0.5l-0.7-0.5l-0.7-0.5L45.3,500 M45.4,488.5
		c-1.2-0.7-2.5-1.4-3.6-2.1c-1.1-0.7-2.2-1.6-3.3-2.3c-1-0.8-2-1.6-2.9-2.5c-0.9-0.8-1.7-1.7-2.5-2.7l-0.1,0.1l10.6,32.7
		c0.1,0.2,0.2,0.3,0.2,0.5c0.7,1,1.6,2,2.5,2.9c0.9,0.9,1.8,1.8,2.8,2.7c1,0.9,2,1.6,3.1,2.5c1.1,0.8,2.3,1.6,3.4,2.2
		c8.1,4.3,12.1,1,10.7-3.4c-1.2-3.9-5.1-7.1-6.7-8.4c-1.1-0.7-1.1-0.7-1.1-1.1c6-1,4.7-8.9-5-15.9C51.1,491.8,48.4,490.1,45.4,488.5
		"/>
	<path class="st42" d="M91.1,523.4c-13.9,0.3-15.3-11.5-12.1-15.3c3.7-4.3,22.4-6.5,23.3,4.7C102.8,518.7,98.2,523,91.1,523.4
		 M87.4,495.7c-42.2,3.1-16,28-15.7,28.4c17.6,15.5,45,3,44.5-15.4C116,498.7,106.8,494.5,87.4,495.7"/>
	<path class="st42" d="M145,470.9c-0.5,0.7-1,1.3-1.5,2s-1.1,1.3-1.6,2c-0.6,0.7-1.2,1.3-1.9,2c-0.7,0.7-1.4,1.3-2.1,2
		c-0.1,0.1-0.2,0.2-0.2,0.4c-3.4,9.6-3.6,10.4-6.1,16.9l0,0h-0.1l0,0c-6.4-8.9-6.5-8.8-6.8-8.7h-0.1h-0.1h-0.1h-0.1
		c-1.1,0.5-2.1,1-3.3,1.5c-1.1,0.5-2.2,0.9-3.4,1.4c-1.1,0.5-2.3,0.8-3.4,1.2s-2.4,0.7-3.5,1.1c-0.2,0.1-0.6,0.2-0.4,0.6
		c6.5,6.2,8.4,8.1,15.7,14.4v0.1l-0.2,10.7l0.2,0.1l0.2-0.1c0.8-0.5,1.6-1,2.4-1.6c0.7-0.6,1.6-1.1,2.2-1.6c0.7-0.6,1.4-1.1,2.1-1.6
		c0.7-0.6,1.3-1.1,2-1.7c0.2-0.2,0.2-0.3,0.2-0.5l0.6-10.7v-0.2c8-21.2,9.6-30,9.7-30.1c0-0.1-0.1-0.1-0.2,0"/>
	
		<ellipse transform="matrix(0.9925 -0.1224 0.1224 0.9925 -40.8158 19.7727)" class="st55" cx="140.5" cy="342.1" rx="25.3" ry="25.3"/>
	<circle class="st42" cx="147.5" cy="335.5" r="7.5"/>
	<circle class="st42" cx="132.2" cy="351" r="9.3"/>
	<path class="st54" d="M102.8,417.3c23-7.5,42.7-22.1,50.5-42.4L145.4,533c-1.1,18.3-12.2,35.5-30,40.2L102.8,417.3z"/>
	<path class="st56" d="M110.4,416.5c13.6-5.3,25.7-13.9,35.4-24.9c0.8-0.9,2.3-1,3.2-0.2c0.5,0.5,0.8,1.1,0.7,1.8l-6.6,136.6
		c-0.8,14.7-8.4,27.1-19.4,33.4c-1.1,0.7-2.5,0.2-3.1-0.8l0,0c-0.2-0.3-0.2-0.7-0.3-1l-11.4-142.5
		C108.8,417.9,109.4,417,110.4,416.5z"/>
	<path class="st42" d="M132.2,393l-33.8,13.6c-3.1,1.2-3.7,6.2-1.1,9.4l0,0l0.1,0.1c3.8-3.9,8.6-6.6,13.9-8
		c10.2-2.6,20-0.1,24.6,5.8c2-4.6,3.1-9.6,3-14.7l0,0C138.7,395.1,135.2,391.8,132.2,393z"/>
	<path class="st42" d="M111.1,408.3c-5.2,1.3-10.1,4-13.9,8c12.8,16,31.3,13,38.5-2.1C131.1,408.2,121.3,405.6,111.1,408.3z"/>
	<path class="st42" d="M40.8,342.3c5.6-10.6,24.1-9.6,36.8-8c12.7,1.6,19.6,6.3,18.3,15.9c-1.3,9.7-22.4,12.1-34.9,9.1
		C47.7,356.1,36.3,350.9,40.8,342.3z"/>
	<path class="st42" d="M109.5,322.3l-13.8,13.9c-6.1,6.1-15.2,8.4-23.5,5.8l-4.8-1.6c-4.5-1.4-7.1-6.2-5.7-10.7
		c0.4-1.3,1.1-2.5,2-3.4L75,314.7c7.4-7.8,18.6-10.6,28.7-7.1l2.7,1c4.3,1.5,6.6,6.1,5.2,10.4C111.3,320.2,110.5,321.3,109.5,322.3
		L109.5,322.3z"/>
	<path class="st42" d="M82.6,333.3c-2.3-1.5-10.1-3.6-12.1-4.3s-1.1-1.5-0.4-2l5.2-4.8c2.9-2.6,6.9-3.5,10.6-2.2l4.3,1.6
		c2.4,0.8,3.6,3.4,2.8,5.8c-0.2,0.7-0.7,1.3-1.2,1.9l-3.1,2.9C87,333.6,84.9,334.8,82.6,333.3z"/>
	<path class="st42" d="M82.6,314.5c3.3,0.8,12.8,3.3,16.9,5.9c1.3,0.4,2.7,0.2,3.7-0.7l1.9-1.6c2-1.8,2.6-4.8-5.5-7.5
		c0,0-11.8-3.7-17.3,2.8c-0.2,0.3-0.2,0.7,0.1,1.1C82.4,314.4,82.5,314.5,82.6,314.5z"/>
	
		<ellipse transform="matrix(0.996 -8.910451e-02 8.910451e-02 0.996 -33.4381 6.9667)" class="st57" cx="61.3" cy="378" rx="25.3" ry="25.3"/>
	<circle class="st42" cx="68.3" cy="371.3" r="7.5"/>
	<circle class="st42" cx="53" cy="386.9" r="9.3"/>
	<path class="st42" d="M180.9,562.4c-0.9-6.1,54-5.9,54.4-1.6C237.7,582.7,185.6,593.6,180.9,562.4z"/>
</g>
</svg>
