<svg xmlns="http://www.w3.org/2000/svg" viewBox="0 0 237.77 300"><defs><style>.cls-1{fill:#333;}</style></defs><g id="Layer_2" data-name="Layer 2"><g id="Layer_1-2" data-name="Layer 1"><path class="cls-1" d="M91.1,300h0a625.33,625.33,0,0,1-76.43-4.67A16.73,16.73,0,0,1,1.52,271.75c8.51-18.59,17.13-39.33,26.35-63.38,4.49-11.73,7.63-23.68,11-36.34,3-11.62,6.2-23.64,10.48-35.34s9-23.11,13.57-34.25C67,92.32,71.34,81.89,75.18,71.57q1-2.77,2-5.61l0-.11c3.24-8.94,6.59-18.19,11.63-26.73,5.64-9.57,12.95-17.69,20-25.55,2.79-3.09,5.41-6,8-9a12.75,12.75,0,0,1,22.48,9.1c-.23,3.3-.59,6.52-.94,9.63-.81,7.22-1.58,14-.58,20.37.88,5.6,3,11.41,5.23,17.57,1.43,3.93,2.9,8,4.09,12.13,6.11,21.39,15.69,38.48,26.78,58.26l.14.24,3.56,6.37A986.68,986.68,0,0,1,231,250.39l2.17,5.39,2,5.06c.51,1.31,1,2.59,1.49,3.84a16.75,16.75,0,0,1-12.59,22.48C177.53,295.8,134,300,91.1,300ZM126.64,10a2.76,2.76,0,0,0-2.11,1c-2.66,3.15-5.34,6.12-8.17,9.27-6.74,7.49-13.71,15.23-18.85,23.94-4.57,7.74-7.75,16.54-10.83,25.06l0,.11c-.7,1.91-1.39,3.82-2.09,5.7-3.9,10.47-8.23,21-12.42,31.15-4.56,11.08-9.27,22.5-13.44,33.9s-7.21,23-10.2,34.45c-3.39,12.92-6.59,25.14-11.28,37.37-9.3,24.26-18,45.19-26.6,64a6.74,6.74,0,0,0,5.28,9.5A615.46,615.46,0,0,0,91.1,290h0c42.31,0,85.21-4.15,131.14-12.67A6.75,6.75,0,0,0,226.9,274a6.68,6.68,0,0,0,.41-5.72c-.47-1.24-1-2.51-1.47-3.8l-4.09-10.35a979.32,979.32,0,0,0-52.83-111c-1.2-2.15-2.38-4.26-3.56-6.35l-.13-.24c-11.4-20.33-21.25-37.89-27.68-60.4-1.09-3.81-2.5-7.7-3.87-11.46C131.27,58,129,51.75,128,45.19c-1.21-7.65-.37-15.13.52-23,.34-3,.69-6.12.91-9.21A2.77,2.77,0,0,0,126.64,10Z"/></g></g></svg>