<svg xmlns="http://www.w3.org/2000/svg" viewBox="0 0 141.2 294.54"><defs><style>.cls-1{fill:#333;}</style></defs><g id="Layer_2" data-name="Layer 2"><g id="Layer_1-2" data-name="Layer 1"><path class="cls-1" d="M70.6,294.54a6.73,6.73,0,0,1-6.78-6.31l-9.2-129-6.21,5.22a6.8,6.8,0,0,1-10.92-7l9-31.91L22.82,105.67a6.8,6.8,0,0,1,4.37-12H49.94l-.36-5.07H6.8a6.8,6.8,0,0,1-4-12.3L38.24,50.56,24.7,8.9A6.8,6.8,0,0,1,35.17,1.3L70.6,27.05,106,1.3a6.79,6.79,0,0,1,10.46,7.6L103,50.56,138.39,76.3a6.8,6.8,0,0,1-4,12.3H91.62l-.36,5.07H114a6.8,6.8,0,0,1,4.38,12h0L94.75,125.54l9,31.91a6.8,6.8,0,0,1-10.92,7l-6.21-5.22-9.2,129A6.74,6.74,0,0,1,70.6,294.54ZM57.36,146a6.7,6.7,0,0,1,2.65.55,6.77,6.77,0,0,1,4.14,5.77l6.45,90.45,6.45-90.45a6.81,6.81,0,0,1,11.16-4.72l3.06,2.58-6.71-23.9a6.81,6.81,0,0,1,2.17-7l18.49-15.54H87.82A6.8,6.8,0,0,1,81,96.39l.82-11.48a6.82,6.82,0,0,1,6.78-6.31h35.9L95.2,57.28a6.79,6.79,0,0,1-2.47-7.6l11.21-34.49L74.59,36.5a6.77,6.77,0,0,1-8,0L37.26,15.19,48.47,49.68A6.79,6.79,0,0,1,46,57.28L16.66,78.6h35.9a6.82,6.82,0,0,1,6.78,6.32l.82,11.47a6.8,6.8,0,0,1-6.78,7.28H36l18.48,15.54a6.83,6.83,0,0,1,2.18,7l-6.72,23.9L53,147.57A6.79,6.79,0,0,1,57.36,146Z"/></g></g></svg>