<svg xmlns="http://www.w3.org/2000/svg" viewBox="0 0 427.04 427.04">
  <defs>
    <style>
      .cls-1 {
        opacity: 0;
      }

      .cls-2 {
        fill: #22c3e8;
        isolation: isolate;
        opacity: 0.4;
      }

      .cls-3, .cls-4 {
        fill: none;
        stroke-miterlimit: 10;
      }

      .cls-3 {
        stroke: #22c3e8;
        stroke-opacity: 0;
        stroke-width: 0.94px;
      }

      .cls-4 {
        stroke: #333;
      }
    </style>
  </defs>
  <g id="Layer_2" data-name="Layer 2">
    <g id="Layer_1-2" data-name="Layer 1">
      <g class="cls-1">
        <path class="cls-2" d="M26.68,102.59l.28-.49a1.38,1.38,0,0,1,1.61-.63c3,.92,6.19,1.61,8.94,3,26.74,14,53.58,27.83,80,42.4,25.24,13.86,50,28.47,75.06,42.78a8.18,8.18,0,0,0,5.07,1.45,15,15,0,0,1,8.41,1.42c11,5.76,9.56,8.23,8.88,11.08a5.29,5.29,0,0,1,.13.78l.09-.17c2.06-3.88,9.56-5.94,13.83-7,3.1-.76,6.29-2.52,7.41-5.15,5.86-13.88,17.72-19.83,30.18-25.91C305.87,147,344.89,127.3,384.11,108c4.48-2.2,9.53-3.3,14.35-4.79a1.37,1.37,0,0,1,1.6.61l.29.49a1.4,1.4,0,0,1-.26,1.72c-2.32,2.16-4.49,4.55-7.12,6.21-25.5,16.15-50.88,32.49-76.72,48.1-24.62,14.93-49.67,29.08-74.57,43.61a8.19,8.19,0,0,0-3.8,3.67,15,15,0,0,1-5.43,6.58c-10.52,6.68-11.91,4.15-14,2.15-.25-.08-.5-.17-.74-.27l.1.14c2.33,3.74.36,11.25-.86,15.48-.89,3.06-1,6.71.75,9,9.09,12,8.32,25.25,7.35,39.08-3,43.61-5.45,87.27-8.35,130.89-.33,5-1.9,9.89-3,14.82a1.39,1.39,0,0,1-1.33,1.08h-.57a1.37,1.37,0,0,1-1.35-1.08c-.72-3.09-1.7-6.16-1.83-9.27-1.23-30.16-2.69-60.31-3.29-90.5-.62-28.78-.35-57.54-.49-86.39a8.08,8.08,0,0,0-1.27-5.11,15,15,0,0,1-3-8c-.53-12.45,2.35-12.39,5.15-13.23a5.68,5.68,0,0,1,.6-.5h-.17c-4.4.15-9.92-5.31-13-8.49-2.21-2.3-5.33-4.19-8.17-3.84C170,202,159,194.73,147.46,187,111.2,162.56,74.6,138.64,38.27,114.32c-4.15-2.78-7.61-6.6-11.32-10A1.39,1.39,0,0,1,26.68,102.59Z"/>
      </g>
      <rect class="cls-3" x="0.47" y="0.47" width="426.1" height="426.1"/>
      <path class="cls-4" d="M396.35,325.48c-54.14-26.39-106.49-56.05-158.62-86.13a28.43,28.43,0,0,0-10.67-3.19c-6.94-.83-13.87-5.6-15.36-11.34a3,3,0,0,0-.85,0c-12.48,3.71-21.2,11.69-28.58,22.4-3.49,5.06-10.36,8.18-16.24,11.12q-60.51,30.3-121.3,60.06c-4.28,2.11-9,3.31-13.58,4.79-.93.3-2.08-.07-3.12-.13l-.8-1.41c3.29-2.73,6.31-5.91,9.92-8.13q65.16-39.94,130.46-79.62,6.6-4,13.36-7.73c4.26-2.33,7.92-5,10.57-9.38,3.38-5.66,11.67-8.59,16.59-7.21.86-4.82,2.07-9.65,2.45-14.55.24-3,.07-6.59-1.45-8.93A43.63,43.63,0,0,1,202,159.64c.87-18.08,2-36.14,3.17-54.2,1.85-29.34,3.68-58.67,5.78-88,.39-5.41,2-10.74,3.11-16.1l2.55,0c.76,3.84,2.11,7.67,2.21,11.53,1.39,57.28,2.57,114.56,4,171.84a30.52,30.52,0,0,0,2.6,10.81c2.88,6.8,1.91,15.38-2.87,19.09,1.25.63,2.76.93,3.55,1.85,7.7,9.08,18,10.55,29.15,11.73,6.37.68,12.81,4.54,18.4,8.22Q330.86,274,387.69,312.18c4.5,3,8.44,6.85,12.65,10.31C401.26,326.49,398.36,325.39,396.35,325.48Z"/>
    </g>
  </g>
</svg>
