<svg xmlns="http://www.w3.org/2000/svg" viewBox="0 0 38.99 425.59">
  <defs>
    <style>
      .cls-1 {
        fill: none;
        stroke: #333;
        stroke-miterlimit: 10;
      }
    </style>
  </defs>
  <g id="Layer_2" data-name="Layer 2">
    <g id="Layer_1-2" data-name="Layer 1">
      <path class="cls-1" d="M38.49,413.11v12H8.26c0-5-.11-10-.15-14.95Q6.72,228.85,5.31,47.55c0-1.63.06-3.53-.68-4.84C-.36,34,.16,24.58,1.15,15.07,2.7,0,3.27-.48,18.44,1.12c6.43.67,8.44,2.1,9.37,8.63,1.55,10.76,1.6,21.5-2.47,31.87a12.37,12.37,0,0,0-.87,4.8q.69,23.43,1.59,46.85,5.3,143,10.64,286.07C37.12,390.6,37.88,401.86,38.49,413.11Z"/>
    </g>
  </g>
</svg>
