<svg xmlns="http://www.w3.org/2000/svg" viewBox="0 0 809.27 407.86">
  <defs>
    <style>
      .cls-1 {
        fill: #02090f;
        stroke-miterlimit: 10;
      }

      .cls-1, .cls-5, .cls-6 {
        stroke: #22c3e8;
      }

      .cls-2, .cls-7 {
        opacity: 0.18;
      }

      .cls-3 {
        fill: #3c6;
      }

      .cls-3, .cls-4 {
        stroke: #3c6;
      }

      .cls-3, .cls-4, .cls-5, .cls-6, .cls-7, .cls-8 {
        stroke-linecap: round;
        stroke-linejoin: round;
        stroke-width: 0.93px;
      }

      .cls-4, .cls-6, .cls-8 {
        fill: none;
      }

      .cls-5 {
        fill: #22c3e8;
      }

      .cls-7 {
        fill: #fc3d3d;
      }

      .cls-7, .cls-8 {
        stroke: #fc3d3d;
      }
    </style>
  </defs>
  <g id="Layer_2" data-name="Layer 2">
    <g id="Layer_1-2" data-name="Layer 1">
      <rect class="cls-1" x="0.5" y="0.5" width="808.27" height="406.86" rx="3.01"/>
      <g>
        <g>
          <g class="cls-2">
            <path class="cls-3" d="M405.5,345.58a1.81,1.81,0,0,1-.52,0,.81.81,0,0,1-.73-.62,1.23,1.23,0,0,1,.07-.42c.49-1.62.95-3.23,1.33-4.88q.66-2.87,1.08-5.78a104.35,104.35,0,0,0,1-11.7c.13-3.93.11-7.86,0-11.78s-.18-7.82-.22-11.73v-.58c0-.24,0-.48-.07-.71l-.22-.05c-.18.48-.4,1-.56,1.45-5.05,15.81-31,16.43-45.7,12.34a38,38,0,0,1-11.88-5.62c-6-4.3-10.53-9.91-14.56-15.62-7-9.94-12-19.77-13.83-31.46a1.33,1.33,0,0,1,.2-1.2,1.68,1.68,0,0,1,.78-.38c2-.5,4,.26,5.82,1,1.09.45,2.2.86,3.29,1.31a189.53,189.53,0,0,0,24.28,8.15c8,2.08,18.26,5.36,26.72,4a5.73,5.73,0,0,0,3.07-1c.74-.63.5-1.5-.46-1.86a21,21,0,0,0-2.67-.71c-.94-.22-1.9-.36-2.84-.55-1.63-.33-3.25-.65-4.86-1-.8-.17-1.58-.41-2.37-.57s-1.67-.26-2.49-.43-1.84-.48-2.76-.67-1.87-.27-2.79-.46c-1.48-.31-2.94-.63-4.36-1-1.74-.46-3.43-1-5.17-1.45s-3.41-.71-5.11-1.1c-1.34-.31-2.67-.68-4-1l-4.55-1.12c-1.34-.33-2.67-.69-4-1-1.65-.4-3.32-.75-5-1.15s-3.57-.92-5.36-1.35c-1.09-.26-2.21-.41-3.29-.72a24.7,24.7,0,0,1-3.21-1.18,22.51,22.51,0,0,1-3.45-1.78,8.89,8.89,0,0,1-1.79-1.92c-6.62-8.22-9.93-39.31-6.11-40.52a1.08,1.08,0,0,1,.84.59c4.48,8.61,13.05,14.71,22.38,19.22,9.64,4.67,20.28,8.5,30.54,12a63.72,63.72,0,0,0,7.23,2.1,31,31,0,0,0,8.63,1,7.88,7.88,0,0,0,2.61-.69,2.12,2.12,0,0,0,1-1.28,1.66,1.66,0,0,0-.91-1.8c-1.88-1-3.78-2-5.7-2.95s-3.66-1.61-5.48-2.39c-2.32-1-4.63-2-6.92-3-1.74-.78-3.46-1.6-5.19-2.4-2.3-1.08-4.65-2.12-6.94-3.25-2-1-4-2.11-6-3.2s-4.07-2.27-6-3.51-4.05-2.66-6.05-4.05c-2.58-1.79-5.16-3.6-7.71-5.44a37.54,37.54,0,0,1-3-2.62c-2.42-2.19-5.23-4.27-6.56-7.15-1.25-2.7-.8-5.62-.57-8.44.64-7.58,1.05-15.34,4.25-22.51a34,34,0,0,1,2.11-4.06,27.72,27.72,0,0,1,1.68-2.62.92.92,0,0,1,.44-.38c.11,0,.3.16.31.29.1,1.51-.19,3-.12,4.5.12,2.6,1.89,4.86,3.45,7a56.41,56.41,0,0,0,8.21,9.46,143.53,143.53,0,0,0,12.5,9.69c.93.68,1.87,1.36,2.79,2,7.73,5.79,14.62,12.85,24.92,15.15a15.45,15.45,0,0,0,2.65.21,8,8,0,0,0,4.58-1.23,2.71,2.71,0,0,0,.74-3.83,11,11,0,0,0-2.68-2.9c-12.94-10.69-27.14-19.82-39.39-31.19-5-4.65-10.2-9.07-12.78-15.19a6.54,6.54,0,0,1,.26-4.5,38.3,38.3,0,0,1,5.8-10.23c1.36-1.86,2.61-3.78,4-5.68,3.76-5.07,11.42-13.5,19.35-12.94-2.22,1.33-4.7,2.15-6.2,4.26-2.55,3.6-.22,7.73,2.15,10.88,3.59,4.75,7.49,9.45,11.56,13.91,3.52,3.85,7.84,7.8,13.52,9.07a8.34,8.34,0,0,0,7.49-1.5c10.26-8.18-.37-18.87-6.09-25.94a56.78,56.78,0,0,1-6.35-9.24,84.39,84.39,0,0,1-3.95-9.58,51.15,51.15,0,0,1-1.38-5.38c0-.08-.05-.18-.07-.28a6.69,6.69,0,0,1,.84-4.69C375.46,93,401.33,70.43,402.7,69.21c8.42-7.45,10.33-10.86,11.6-.17,0,0,.19,1.58.57,3.4a54.37,54.37,0,0,1,.71,9.56c-.1,1.51-.08,3.29-.22,4.76-.22,2.29-.59,4.38-.92,6.65s-.7,4.33-1.09,6.56-.78,4.59-1.34,6.74c-.79,3-1.42,6.2-.14,9.21.51,1.18,1.58,2.44,3,2.33,2.3-.19,3.13-2.28,3.59-4,1.61-5.78,3.51-11.57,4.47-17.47a18.81,18.81,0,0,0,.18-3.33,30.72,30.72,0,0,0-1.85-9,2.64,2.64,0,0,1-.15-.69c.14.26.3.5.43.78a45.81,45.81,0,0,0,2.84,4.8c1.1,1.67,2.27,3.34,3.55,4.92,1.7,2.1,3.58,4,5.48,6,1.54,1.61,3.31,3,4.36,5.11a5,5,0,0,1,.68,2.62c-.65,8.19-4.12,15.89-8.14,23.24-1.92,3.51-3.81,7.09-5.8,10.52-5,8.51-10.47,16.07-13.24,25.46-.81,2.73-1.66,6,.95,8.17a4.88,4.88,0,0,0,2.5,1,3.85,3.85,0,0,0,2.11-.09c15.29-6.33,37.79-40.93,39.08-57.05.07-1,.51-1.2,1.34-.7,4.75,1.89,17.65,18.92,18.33,26.72a6.55,6.55,0,0,1-.36,3.54C469,166.53,436.5,201.67,422.48,213a4,4,0,0,0-.65,1.6,1.91,1.91,0,0,0,1.71,2.44,20.45,20.45,0,0,0,2.49.36,8.13,8.13,0,0,0,4-.86c1.91-.73,3.83-1.49,5.74-2.34,9.82-4.39,18.49-12.95,24.77-20.63a87.88,87.88,0,0,0,10.66-16.79c2.67-5.38,4.37-11.31,8.35-16.12a.56.56,0,0,1,.63,0c3.45,3.2,4.47,7.76,6,11.8q2,5.56,4.39,11c1.16,2.73,3.57,6.38,1.94,9.33-7.15,13-18,23.08-30.59,32.4-9.43,7-19.88,12.88-29.22,19.93a1.78,1.78,0,0,0-.48.7,1,1,0,0,0,.65,1.48,4.64,4.64,0,0,0,3.14,0,200,200,0,0,0,31.79-12.35c8.38-4.29,16.28-7.8,23.05-14,2.6-2.39,3.58-5.78,4.53-7.17a.47.47,0,0,1,.77,0l.76,1.11a43.32,43.32,0,0,1,3.6,7.84,48.55,48.55,0,0,1,2.13,15.43,15.48,15.48,0,0,1-1.76,7.44,7.87,7.87,0,0,1-2.17,2.49c-.88.68-2.29,1.39-1.94,2.76,3.09,11.82.38,24.83-4.66,35.72s-13.1,20.77-24,26a39.33,39.33,0,0,1-24.28,3c-14-2.61-22-11.92-28-22.36-.8-1.37-1.63-2.74-2.29-4.17a4.91,4.91,0,0,0-.28-.5l-.25,0a19.34,19.34,0,0,0-.53,2.25c-1,9-.76,18.07-1,27.11a80.64,80.64,0,0,0,.46,10.07c.34,3.33.83,6.65,1.48,9.93.24,1.24.51,2.48.81,3.71.13.53.27,1.07.42,1.6s.51,1.18.28,1.6c-.44.79-1.17.16-1.75-.1a5.86,5.86,0,0,0-2.39-.38,11.25,11.25,0,0,0-3.12.3A18.56,18.56,0,0,1,405.5,345.58ZM495,251.63l-.13-.21c-.11,0-.23-.08-.32,0-1.19.46-2.37,1-3.56,1.41s-2.39.93-3.61,1.29c-1.6.47-3.22.83-4.83,1.25L478,256.58c-1,.28-2.12.52-3.15.88-1.79.62-3.56,1.34-5.34,2-.81.3-1.62.57-2.44.85-1.31.44-2.62.89-3.93,1.3s-2.64.77-3.95,1.16c-1.07.32-2.12.66-3.19,1-.87.27-1.77.49-2.62.8-1.4.52-2.76,1.14-4.12,1.65-2.14.79-4.26,1.49-6.3,2.33a7.62,7.62,0,0,0-2.09,1.37c-.63.56-.54,1,.17,1.53a5.77,5.77,0,0,0,3.53.83c1.1,0,2.21-.13,3.32-.23a25.69,25.69,0,0,0,2.74-.36c1.46-.29,2.93-.67,4.43-1s3.2-.69,4.79-1.07c1.34-.32,2.67-.67,4-1.06q3.48-1.05,6.95-2.16c1.94-.61,3.89-1.17,5.78-1.92a42.79,42.79,0,0,0,5.21-2.48c1.83-1,3.61-2.18,5.35-3.39a49,49,0,0,0,4.43-3.47C492.8,254.05,493.88,252.8,495,251.63Z"/>
          </g>
          <path class="cls-4" d="M405.5,345.58a1.81,1.81,0,0,1-.52,0,.81.81,0,0,1-.73-.62,1.23,1.23,0,0,1,.07-.42c.49-1.62.95-3.23,1.33-4.88q.66-2.87,1.08-5.78a104.35,104.35,0,0,0,1-11.7c.13-3.93.11-7.86,0-11.78s-.18-7.82-.22-11.73v-.58c0-.24,0-.48-.07-.71l-.22-.05c-.18.48-.4,1-.56,1.45-5.05,15.81-31,16.43-45.7,12.34a38,38,0,0,1-11.88-5.62c-6-4.3-10.53-9.91-14.56-15.62-7-9.94-12-19.77-13.83-31.46a1.33,1.33,0,0,1,.2-1.2,1.68,1.68,0,0,1,.78-.38c2-.5,4,.26,5.82,1,1.09.45,2.2.86,3.29,1.31a189.53,189.53,0,0,0,24.28,8.15c8,2.08,18.26,5.36,26.72,4a5.73,5.73,0,0,0,3.07-1c.74-.63.5-1.5-.46-1.86a21,21,0,0,0-2.67-.71c-.94-.22-1.9-.36-2.84-.55-1.63-.33-3.25-.65-4.86-1-.8-.17-1.58-.41-2.37-.57s-1.67-.26-2.49-.43-1.84-.48-2.76-.67-1.87-.27-2.79-.46c-1.48-.31-2.94-.63-4.36-1-1.74-.46-3.43-1-5.17-1.45s-3.41-.71-5.11-1.1c-1.34-.31-2.67-.68-4-1l-4.55-1.12c-1.34-.33-2.67-.69-4-1-1.65-.4-3.32-.75-5-1.15s-3.57-.92-5.36-1.35c-1.09-.26-2.21-.41-3.29-.72a24.7,24.7,0,0,1-3.21-1.18,22.51,22.51,0,0,1-3.45-1.78,8.89,8.89,0,0,1-1.79-1.92c-6.62-8.22-9.93-39.31-6.11-40.52a1.08,1.08,0,0,1,.84.59c4.48,8.61,13.05,14.71,22.38,19.22,9.64,4.67,20.28,8.5,30.54,12a63.72,63.72,0,0,0,7.23,2.1,31,31,0,0,0,8.63,1,7.88,7.88,0,0,0,2.61-.69,2.12,2.12,0,0,0,1-1.28,1.66,1.66,0,0,0-.91-1.8c-1.88-1-3.78-2-5.7-2.95s-3.66-1.61-5.48-2.39c-2.32-1-4.63-2-6.92-3-1.74-.78-3.46-1.6-5.19-2.4-2.3-1.08-4.65-2.12-6.94-3.25-2-1-4-2.11-6-3.2s-4.07-2.27-6-3.51-4.05-2.66-6.05-4.05c-2.58-1.79-5.16-3.6-7.71-5.44a37.54,37.54,0,0,1-3-2.62c-2.42-2.19-5.23-4.27-6.56-7.15-1.25-2.7-.8-5.62-.57-8.44.64-7.58,1.05-15.34,4.25-22.51a34,34,0,0,1,2.11-4.06,27.72,27.72,0,0,1,1.68-2.62.92.92,0,0,1,.44-.38c.11,0,.3.16.31.29.1,1.51-.19,3-.12,4.5.12,2.6,1.89,4.86,3.45,7a56.41,56.41,0,0,0,8.21,9.46,143.53,143.53,0,0,0,12.5,9.69c.93.68,1.87,1.36,2.79,2,7.73,5.79,14.62,12.85,24.92,15.15a15.45,15.45,0,0,0,2.65.21,8,8,0,0,0,4.58-1.23,2.71,2.71,0,0,0,.74-3.83,11,11,0,0,0-2.68-2.9c-12.94-10.69-27.14-19.82-39.39-31.19-5-4.65-10.2-9.07-12.78-15.19a6.54,6.54,0,0,1,.26-4.5,38.3,38.3,0,0,1,5.8-10.23c1.36-1.86,2.61-3.78,4-5.68,3.76-5.07,11.42-13.5,19.35-12.94-2.22,1.33-4.7,2.15-6.2,4.26-2.55,3.6-.22,7.73,2.15,10.88,3.59,4.75,7.49,9.45,11.56,13.91,3.52,3.85,7.84,7.8,13.52,9.07a8.34,8.34,0,0,0,7.49-1.5c10.26-8.18-.37-18.87-6.09-25.94a56.78,56.78,0,0,1-6.35-9.24,84.39,84.39,0,0,1-3.95-9.58,51.15,51.15,0,0,1-1.38-5.38c0-.08-.05-.18-.07-.28a6.69,6.69,0,0,1,.84-4.69C375.46,93,401.33,70.43,402.7,69.21c8.42-7.45,10.33-10.86,11.6-.17,0,0,.19,1.58.57,3.4a54.37,54.37,0,0,1,.71,9.56c-.1,1.51-.08,3.29-.22,4.76-.22,2.29-.59,4.38-.92,6.65s-.7,4.33-1.09,6.56-.78,4.59-1.34,6.74c-.79,3-1.42,6.2-.14,9.21.51,1.18,1.58,2.44,3,2.33,2.3-.19,3.13-2.28,3.59-4,1.61-5.78,3.51-11.57,4.47-17.47a18.81,18.81,0,0,0,.18-3.33,30.72,30.72,0,0,0-1.85-9,2.64,2.64,0,0,1-.15-.69c.14.26.3.5.43.78a45.81,45.81,0,0,0,2.84,4.8c1.1,1.67,2.27,3.34,3.55,4.92,1.7,2.1,3.58,4,5.48,6,1.54,1.61,3.31,3,4.36,5.11a5,5,0,0,1,.68,2.62c-.65,8.19-4.12,15.89-8.14,23.24-1.92,3.51-3.81,7.09-5.8,10.52-5,8.51-10.47,16.07-13.24,25.46-.81,2.73-1.66,6,.95,8.17a4.88,4.88,0,0,0,2.5,1,3.85,3.85,0,0,0,2.11-.09c15.29-6.33,37.79-40.93,39.08-57.05.07-1,.51-1.2,1.34-.7,4.75,1.89,17.65,18.92,18.33,26.72a6.55,6.55,0,0,1-.36,3.54C469,166.53,436.5,201.67,422.48,213a4,4,0,0,0-.65,1.6,1.91,1.91,0,0,0,1.71,2.44,20.45,20.45,0,0,0,2.49.36,8.13,8.13,0,0,0,4-.86c1.91-.73,3.83-1.49,5.74-2.34,9.82-4.39,18.49-12.95,24.77-20.63a87.88,87.88,0,0,0,10.66-16.79c2.67-5.38,4.37-11.31,8.35-16.12a.56.56,0,0,1,.63,0c3.45,3.2,4.47,7.76,6,11.8q2,5.56,4.39,11c1.16,2.73,3.57,6.38,1.94,9.33-7.15,13-18,23.08-30.59,32.4-9.43,7-19.88,12.88-29.22,19.93a1.78,1.78,0,0,0-.48.7,1,1,0,0,0,.65,1.48,4.64,4.64,0,0,0,3.14,0,200,200,0,0,0,31.79-12.35c8.38-4.29,16.28-7.8,23.05-14,2.6-2.39,3.58-5.78,4.53-7.17a.47.47,0,0,1,.77,0l.76,1.11a43.32,43.32,0,0,1,3.6,7.84,48.55,48.55,0,0,1,2.13,15.43,15.48,15.48,0,0,1-1.76,7.44,7.87,7.87,0,0,1-2.17,2.49c-.88.68-2.29,1.39-1.94,2.76,3.09,11.82.38,24.83-4.66,35.72s-13.1,20.77-24,26a39.33,39.33,0,0,1-24.28,3c-14-2.61-22-11.92-28-22.36-.8-1.37-1.63-2.74-2.29-4.17a4.91,4.91,0,0,0-.28-.5l-.25,0a19.34,19.34,0,0,0-.53,2.25c-1,9-.76,18.07-1,27.11a80.64,80.64,0,0,0,.46,10.07c.34,3.33.83,6.65,1.48,9.93.24,1.24.51,2.48.81,3.71.13.53.27,1.07.42,1.6s.51,1.18.28,1.6c-.44.79-1.17.16-1.75-.1a5.86,5.86,0,0,0-2.39-.38,11.25,11.25,0,0,0-3.12.3A18.56,18.56,0,0,1,405.5,345.58ZM495,251.63l-.13-.21c-.11,0-.23-.08-.32,0-1.19.46-2.37,1-3.56,1.41s-2.39.93-3.61,1.29c-1.6.47-3.22.83-4.83,1.25L478,256.58c-1,.28-2.12.52-3.15.88-1.79.62-3.56,1.34-5.34,2-.81.3-1.62.57-2.44.85-1.31.44-2.62.89-3.93,1.3s-2.64.77-3.95,1.16c-1.07.32-2.12.66-3.19,1-.87.27-1.77.49-2.62.8-1.4.52-2.76,1.14-4.12,1.65-2.14.79-4.26,1.49-6.3,2.33a7.62,7.62,0,0,0-2.09,1.37c-.63.56-.54,1,.17,1.53a5.77,5.77,0,0,0,3.53.83c1.1,0,2.21-.13,3.32-.23a25.69,25.69,0,0,0,2.74-.36c1.46-.29,2.93-.67,4.43-1s3.2-.69,4.79-1.07c1.34-.32,2.67-.67,4-1.06q3.48-1.05,6.95-2.16c1.94-.61,3.89-1.17,5.78-1.92a42.79,42.79,0,0,0,5.21-2.48c1.83-1,3.61-2.18,5.35-3.39a49,49,0,0,0,4.43-3.47C492.8,254.05,493.88,252.8,495,251.63Z"/>
        </g>
        <g>
          <g class="cls-2">
            <path class="cls-5" d="M150.38,345.58a1.81,1.81,0,0,1-.52,0,.8.8,0,0,1-.72-.62,1,1,0,0,1,.06-.42c.49-1.62,1-3.23,1.33-4.88q.66-2.87,1.09-5.78a106.74,106.74,0,0,0,1-11.7c.14-3.93.12-7.86.05-11.78s-.18-7.82-.22-11.73c0-.2,0-.39,0-.58s0-.48-.06-.71l-.22-.05c-.19.48-.41,1-.57,1.45-5,15.81-31,16.43-45.69,12.34A38.07,38.07,0,0,1,94,305.51c-6-4.3-10.53-9.91-14.55-15.62-7-9.94-12-19.77-13.84-31.46a1.36,1.36,0,0,1,.2-1.2,1.73,1.73,0,0,1,.78-.38c2-.5,4,.26,5.82,1,1.09.45,2.2.86,3.3,1.31A188.49,188.49,0,0,0,100,267.32c8,2.08,18.25,5.36,26.72,4a5.73,5.73,0,0,0,3.06-1c.74-.63.5-1.5-.46-1.86a20.18,20.18,0,0,0-2.67-.71c-.94-.22-1.9-.36-2.84-.55-1.63-.33-3.25-.65-4.86-1-.79-.17-1.58-.41-2.37-.57s-1.66-.26-2.48-.43-1.84-.48-2.76-.67-1.88-.27-2.8-.46c-1.48-.31-2.93-.63-4.36-1-1.74-.46-3.43-1-5.17-1.45s-3.41-.71-5.11-1.1c-1.34-.31-2.66-.68-4-1l-4.55-1.12c-1.33-.33-2.66-.69-4-1-1.66-.4-3.33-.75-5-1.15s-3.57-.92-5.36-1.35c-1.1-.26-2.22-.41-3.3-.72A25.25,25.25,0,0,1,64.51,253a22.41,22.41,0,0,1-3.44-1.78,8.69,8.69,0,0,1-1.8-1.92c-6.61-8.22-9.93-39.31-6.11-40.52a1.06,1.06,0,0,1,.84.59c4.48,8.61,13.06,14.71,22.38,19.22,9.64,4.67,20.29,8.5,30.54,12a63.72,63.72,0,0,0,7.23,2.1,31,31,0,0,0,8.63,1,7.88,7.88,0,0,0,2.61-.69,2.13,2.13,0,0,0,1-1.28,1.66,1.66,0,0,0-.92-1.8c-1.88-1-3.78-2-5.7-2.95s-3.66-1.61-5.48-2.39c-2.32-1-4.63-2-6.92-3-1.74-.78-3.46-1.6-5.18-2.4-2.31-1.08-4.66-2.12-7-3.25-2-1-4-2.11-6-3.2s-4.06-2.27-6-3.51-4-2.66-6-4.05c-2.57-1.79-5.15-3.6-7.71-5.44a37.4,37.4,0,0,1-3-2.62c-2.42-2.19-5.23-4.27-6.57-7.15-1.24-2.7-.8-5.62-.56-8.44.63-7.58,1-15.34,4.25-22.51a32.52,32.52,0,0,1,2.1-4.06,27.72,27.72,0,0,1,1.68-2.62,1,1,0,0,1,.44-.38c.11,0,.31.16.32.29.09,1.51-.2,3-.13,4.5.12,2.6,1.9,4.86,3.45,7a56.41,56.41,0,0,0,8.21,9.46,143.53,143.53,0,0,0,12.5,9.69c.94.68,1.87,1.36,2.79,2,7.73,5.79,14.63,12.85,24.93,15.15a15.42,15.42,0,0,0,2.64.21A7.93,7.93,0,0,0,127,209a2.7,2.7,0,0,0,.74-3.83,10.77,10.77,0,0,0-2.67-2.9C112.15,191.59,98,182.46,85.7,171.09c-5-4.65-10.2-9.07-12.78-15.19a6.54,6.54,0,0,1,.26-4.5A38.3,38.3,0,0,1,79,141.17c1.36-1.86,2.61-3.78,4-5.68,3.77-5.07,11.42-13.5,19.36-12.94-2.23,1.33-4.71,2.15-6.21,4.26-2.55,3.6-.22,7.73,2.15,10.88,3.59,4.75,7.5,9.45,11.57,13.91,3.51,3.85,7.83,7.8,13.51,9.07a8.36,8.36,0,0,0,7.5-1.5c10.25-8.18-.38-18.87-6.1-25.94a57.42,57.42,0,0,1-6.35-9.24,88.22,88.22,0,0,1-4-9.58c-.65-1.74-.91-3.61-1.38-5.38,0-.08,0-.18-.06-.28a6.68,6.68,0,0,1,.83-4.69c6.47-11.08,32.35-33.63,33.71-34.85,8.42-7.45,10.33-10.86,11.61-.17,0,0,.19,1.58.56,3.4a53.41,53.41,0,0,1,.71,9.56c-.09,1.51-.07,3.29-.21,4.76-.22,2.29-.6,4.38-.93,6.65s-.7,4.33-1.09,6.56-.77,4.59-1.33,6.74c-.8,3-1.42,6.2-.14,9.21.5,1.18,1.57,2.44,3,2.33,2.3-.19,3.13-2.28,3.59-4,1.61-5.78,3.51-11.57,4.47-17.47A18.81,18.81,0,0,0,168,93.5a30.72,30.72,0,0,0-1.85-9,2.69,2.69,0,0,1-.14-.69c.14.26.29.5.43.78a45.81,45.81,0,0,0,2.84,4.8c1.1,1.67,2.27,3.34,3.54,4.92,1.7,2.1,3.59,4,5.48,6,1.55,1.61,3.31,3,4.36,5.11a4.9,4.9,0,0,1,.68,2.62c-.65,8.19-4.11,15.89-8.13,23.24-1.92,3.51-3.81,7.09-5.81,10.52-4.94,8.51-10.46,16.07-13.24,25.46-.81,2.73-1.65,6,.95,8.17a4.91,4.91,0,0,0,2.51,1,3.86,3.86,0,0,0,2.11-.09c15.29-6.33,37.78-40.93,39.07-57.05.07-1,.51-1.2,1.35-.7,4.74,1.89,17.64,18.92,18.32,26.72a6.36,6.36,0,0,1-.36,3.54c-6.21,17.72-38.75,52.86-52.76,64.21a4,4,0,0,0-.66,1.6,1.92,1.92,0,0,0,1.71,2.44,21,21,0,0,0,2.49.36,8.17,8.17,0,0,0,4-.86c1.91-.73,3.83-1.49,5.73-2.34,9.83-4.39,18.49-12.95,24.78-20.63a87.83,87.83,0,0,0,10.65-16.79c2.67-5.38,4.38-11.31,8.36-16.12.1-.13.48-.1.62,0,3.45,3.2,4.47,7.76,6,11.8q2.06,5.56,4.39,11c1.17,2.73,3.58,6.38,1.95,9.33-7.16,13-18,23.08-30.59,32.4-9.43,7-19.88,12.88-29.23,19.93a1.67,1.67,0,0,0-.47.7,1,1,0,0,0,.64,1.48,4.67,4.67,0,0,0,3.15,0,199.93,199.93,0,0,0,31.78-12.35c8.39-4.29,16.28-7.8,23.05-14,2.61-2.39,3.59-5.78,4.53-7.17a.47.47,0,0,1,.77,0l.76,1.11a43.32,43.32,0,0,1,3.6,7.84,48.86,48.86,0,0,1,2.14,15.43,15.49,15.49,0,0,1-1.77,7.44,7.71,7.71,0,0,1-2.16,2.49c-.89.68-2.3,1.39-1.94,2.76,3.08,11.82.37,24.83-4.67,35.72s-13.1,20.77-24,26a39.31,39.31,0,0,1-24.27,3c-14-2.61-22-11.92-28-22.36-.8-1.37-1.62-2.74-2.28-4.17a5,5,0,0,0-.29-.5l-.25,0a17.46,17.46,0,0,0-.52,2.25c-1,9-.77,18.07-1,27.11a80.64,80.64,0,0,0,.46,10.07c.34,3.33.83,6.65,1.48,9.93.24,1.24.51,2.48.82,3.71.13.53.27,1.07.42,1.6s.51,1.18.27,1.6c-.44.79-1.16.16-1.74-.1a5.88,5.88,0,0,0-2.4-.38,11.32,11.32,0,0,0-3.12.3A17.85,17.85,0,0,1,150.38,345.58Zm89.51-93.95-.13-.21c-.11,0-.23-.08-.31,0-1.19.46-2.37,1-3.57,1.41s-2.39.93-3.61,1.29c-1.59.47-3.22.83-4.82,1.25l-4.53,1.25c-1.06.28-2.13.52-3.16.88-1.79.62-3.56,1.34-5.34,2-.8.3-1.62.57-2.44.85-1.31.44-2.61.89-3.93,1.3s-2.63.77-4,1.16l-3.18,1c-.87.27-1.78.49-2.63.8-1.4.52-2.75,1.14-4.12,1.65-2.14.79-4.26,1.49-6.3,2.33a7.43,7.43,0,0,0-2.08,1.37c-.64.56-.55,1,.17,1.53a5.76,5.76,0,0,0,3.52.83c1.1,0,2.21-.13,3.32-.23a25.69,25.69,0,0,0,2.74-.36c1.46-.29,2.93-.67,4.44-1s3.2-.69,4.78-1.07c1.34-.32,2.68-.67,4-1.06q3.48-1.05,6.94-2.16c1.94-.61,3.9-1.17,5.79-1.92a43.37,43.37,0,0,0,5.2-2.48,61,61,0,0,0,5.35-3.39,49.11,49.11,0,0,0,4.44-3.47C237.69,254.05,238.76,252.8,239.89,251.63Z"/>
          </g>
          <path class="cls-6" d="M150.38,345.58a1.81,1.81,0,0,1-.52,0,.8.8,0,0,1-.72-.62,1,1,0,0,1,.06-.42c.49-1.62,1-3.23,1.33-4.88q.66-2.87,1.09-5.78a106.74,106.74,0,0,0,1-11.7c.14-3.93.12-7.86.05-11.78s-.18-7.82-.22-11.73c0-.2,0-.39,0-.58s0-.48-.06-.71l-.22-.05c-.19.48-.41,1-.57,1.45-5,15.81-31,16.43-45.69,12.34A38.07,38.07,0,0,1,94,305.51c-6-4.3-10.53-9.91-14.55-15.62-7-9.94-12-19.77-13.84-31.46a1.36,1.36,0,0,1,.2-1.2,1.73,1.73,0,0,1,.78-.38c2-.5,4,.26,5.82,1,1.09.45,2.2.86,3.3,1.31A188.49,188.49,0,0,0,100,267.32c8,2.08,18.25,5.36,26.72,4a5.73,5.73,0,0,0,3.06-1c.74-.63.5-1.5-.46-1.86a20.18,20.18,0,0,0-2.67-.71c-.94-.22-1.9-.36-2.84-.55-1.63-.33-3.25-.65-4.86-1-.79-.17-1.58-.41-2.37-.57s-1.66-.26-2.48-.43-1.84-.48-2.76-.67-1.88-.27-2.8-.46c-1.48-.31-2.93-.63-4.36-1-1.74-.46-3.43-1-5.17-1.45s-3.41-.71-5.11-1.1c-1.34-.31-2.66-.68-4-1l-4.55-1.12c-1.33-.33-2.66-.69-4-1-1.66-.4-3.33-.75-5-1.15s-3.57-.92-5.36-1.35c-1.1-.26-2.22-.41-3.3-.72A25.25,25.25,0,0,1,64.51,253a22.41,22.41,0,0,1-3.44-1.78,8.69,8.69,0,0,1-1.8-1.92c-6.61-8.22-9.93-39.31-6.11-40.52a1.06,1.06,0,0,1,.84.59c4.48,8.61,13.06,14.71,22.38,19.22,9.64,4.67,20.29,8.5,30.54,12a63.72,63.72,0,0,0,7.23,2.1,31,31,0,0,0,8.63,1,7.88,7.88,0,0,0,2.61-.69,2.13,2.13,0,0,0,1-1.28,1.66,1.66,0,0,0-.92-1.8c-1.88-1-3.78-2-5.7-2.95s-3.66-1.61-5.48-2.39c-2.32-1-4.63-2-6.92-3-1.74-.78-3.46-1.6-5.18-2.4-2.31-1.08-4.66-2.12-7-3.25-2-1-4-2.11-6-3.2s-4.06-2.27-6-3.51-4-2.66-6-4.05c-2.57-1.79-5.15-3.6-7.71-5.44a37.4,37.4,0,0,1-3-2.62c-2.42-2.19-5.23-4.27-6.57-7.15-1.24-2.7-.8-5.62-.56-8.44.63-7.58,1-15.34,4.25-22.51a32.52,32.52,0,0,1,2.1-4.06,27.72,27.72,0,0,1,1.68-2.62,1,1,0,0,1,.44-.38c.11,0,.31.16.32.29.09,1.51-.2,3-.13,4.5.12,2.6,1.9,4.86,3.45,7a56.41,56.41,0,0,0,8.21,9.46,143.53,143.53,0,0,0,12.5,9.69c.94.68,1.87,1.36,2.79,2,7.73,5.79,14.63,12.85,24.93,15.15a15.42,15.42,0,0,0,2.64.21A7.93,7.93,0,0,0,127,209a2.7,2.7,0,0,0,.74-3.83,10.77,10.77,0,0,0-2.67-2.9C112.15,191.59,98,182.46,85.7,171.09c-5-4.65-10.2-9.07-12.78-15.19a6.54,6.54,0,0,1,.26-4.5A38.3,38.3,0,0,1,79,141.17c1.36-1.86,2.61-3.78,4-5.68,3.77-5.07,11.42-13.5,19.36-12.94-2.23,1.33-4.71,2.15-6.21,4.26-2.55,3.6-.22,7.73,2.15,10.88,3.59,4.75,7.5,9.45,11.57,13.91,3.51,3.85,7.83,7.8,13.51,9.07a8.36,8.36,0,0,0,7.5-1.5c10.25-8.18-.38-18.87-6.1-25.94a57.42,57.42,0,0,1-6.35-9.24,88.22,88.22,0,0,1-4-9.58c-.65-1.74-.91-3.61-1.38-5.38,0-.08,0-.18-.06-.28a6.68,6.68,0,0,1,.83-4.69c6.47-11.08,32.35-33.63,33.71-34.85,8.42-7.45,10.33-10.86,11.61-.17,0,0,.19,1.58.56,3.4a53.41,53.41,0,0,1,.71,9.56c-.09,1.51-.07,3.29-.21,4.76-.22,2.29-.6,4.38-.93,6.65s-.7,4.33-1.09,6.56-.77,4.59-1.33,6.74c-.8,3-1.42,6.2-.14,9.21.5,1.18,1.57,2.44,3,2.33,2.3-.19,3.13-2.28,3.59-4,1.61-5.78,3.51-11.57,4.47-17.47A18.81,18.81,0,0,0,168,93.5a30.72,30.72,0,0,0-1.85-9,2.69,2.69,0,0,1-.14-.69c.14.26.29.5.43.78a45.81,45.81,0,0,0,2.84,4.8c1.1,1.67,2.27,3.34,3.54,4.92,1.7,2.1,3.59,4,5.48,6,1.55,1.61,3.31,3,4.36,5.11a4.9,4.9,0,0,1,.68,2.62c-.65,8.19-4.11,15.89-8.13,23.24-1.92,3.51-3.81,7.09-5.81,10.52-4.94,8.51-10.46,16.07-13.24,25.46-.81,2.73-1.65,6,.95,8.17a4.91,4.91,0,0,0,2.51,1,3.86,3.86,0,0,0,2.11-.09c15.29-6.33,37.78-40.93,39.07-57.05.07-1,.51-1.2,1.35-.7,4.74,1.89,17.64,18.92,18.32,26.72a6.36,6.36,0,0,1-.36,3.54c-6.21,17.72-38.75,52.86-52.76,64.21a4,4,0,0,0-.66,1.6,1.92,1.92,0,0,0,1.71,2.44,21,21,0,0,0,2.49.36,8.17,8.17,0,0,0,4-.86c1.91-.73,3.83-1.49,5.73-2.34,9.83-4.39,18.49-12.95,24.78-20.63a87.83,87.83,0,0,0,10.65-16.79c2.67-5.38,4.38-11.31,8.36-16.12.1-.13.48-.1.62,0,3.45,3.2,4.47,7.76,6,11.8q2.06,5.56,4.39,11c1.17,2.73,3.58,6.38,1.95,9.33-7.16,13-18,23.08-30.59,32.4-9.43,7-19.88,12.88-29.23,19.93a1.67,1.67,0,0,0-.47.7,1,1,0,0,0,.64,1.48,4.67,4.67,0,0,0,3.15,0,199.93,199.93,0,0,0,31.78-12.35c8.39-4.29,16.28-7.8,23.05-14,2.61-2.39,3.59-5.78,4.53-7.17a.47.47,0,0,1,.77,0l.76,1.11a43.32,43.32,0,0,1,3.6,7.84,48.86,48.86,0,0,1,2.14,15.43,15.49,15.49,0,0,1-1.77,7.44,7.71,7.71,0,0,1-2.16,2.49c-.89.68-2.3,1.39-1.94,2.76,3.08,11.82.37,24.83-4.67,35.72s-13.1,20.77-24,26a39.31,39.31,0,0,1-24.27,3c-14-2.61-22-11.92-28-22.36-.8-1.37-1.62-2.74-2.28-4.17a5,5,0,0,0-.29-.5l-.25,0a17.46,17.46,0,0,0-.52,2.25c-1,9-.77,18.07-1,27.11a80.64,80.64,0,0,0,.46,10.07c.34,3.33.83,6.65,1.48,9.93.24,1.24.51,2.48.82,3.71.13.53.27,1.07.42,1.6s.51,1.18.27,1.6c-.44.79-1.16.16-1.74-.1a5.88,5.88,0,0,0-2.4-.38,11.32,11.32,0,0,0-3.12.3A17.85,17.85,0,0,1,150.38,345.58Zm89.51-93.95-.13-.21c-.11,0-.23-.08-.31,0-1.19.46-2.37,1-3.57,1.41s-2.39.93-3.61,1.29c-1.59.47-3.22.83-4.82,1.25l-4.53,1.25c-1.06.28-2.13.52-3.16.88-1.79.62-3.56,1.34-5.34,2-.8.3-1.62.57-2.44.85-1.31.44-2.61.89-3.93,1.3s-2.63.77-4,1.16l-3.18,1c-.87.27-1.78.49-2.63.8-1.4.52-2.75,1.14-4.12,1.65-2.14.79-4.26,1.49-6.3,2.33a7.43,7.43,0,0,0-2.08,1.37c-.64.56-.55,1,.17,1.53a5.76,5.76,0,0,0,3.52.83c1.1,0,2.21-.13,3.32-.23a25.69,25.69,0,0,0,2.74-.36c1.46-.29,2.93-.67,4.44-1s3.2-.69,4.78-1.07c1.34-.32,2.68-.67,4-1.06q3.48-1.05,6.94-2.16c1.94-.61,3.9-1.17,5.79-1.92a43.37,43.37,0,0,0,5.2-2.48,61,61,0,0,0,5.35-3.39,49.11,49.11,0,0,0,4.44-3.47C237.69,254.05,238.76,252.8,239.89,251.63Z"/>
        </g>
        <g>
          <path class="cls-7" d="M660.62,345.58a1.81,1.81,0,0,1-.52,0,.81.81,0,0,1-.73-.62,1,1,0,0,1,.07-.42c.49-1.62.95-3.23,1.33-4.88.44-1.91.79-3.84,1.08-5.78a102,102,0,0,0,1-11.7c.14-3.93.12-7.86,0-11.78s-.18-7.82-.22-11.73c0-.2,0-.39,0-.58s0-.48-.06-.71l-.22-.05c-.19.48-.4,1-.56,1.45-5.05,15.81-31,16.43-45.7,12.34a38,38,0,0,1-11.88-5.62c-6-4.3-10.53-9.91-14.56-15.62-7-9.94-12-19.77-13.84-31.46a1.37,1.37,0,0,1,.21-1.2,1.68,1.68,0,0,1,.78-.38c2-.5,4,.26,5.82,1,1.09.45,2.2.86,3.29,1.31a189,189,0,0,0,24.28,8.15c8,2.08,18.26,5.36,26.72,4a5.76,5.76,0,0,0,3.07-1c.74-.63.49-1.5-.46-1.86a20.74,20.74,0,0,0-2.68-.71c-.94-.22-1.89-.36-2.84-.55-1.63-.33-3.25-.65-4.85-1-.8-.17-1.58-.41-2.37-.57s-1.67-.26-2.49-.43-1.84-.48-2.76-.67-1.88-.27-2.8-.46c-1.47-.31-2.93-.63-4.36-1-1.74-.46-3.43-1-5.16-1.45s-3.42-.71-5.12-1.1c-1.34-.31-2.66-.68-4-1l-4.56-1.12c-1.33-.33-2.66-.69-4-1-1.66-.4-3.32-.75-5-1.15s-3.57-.92-5.36-1.35c-1.09-.26-2.21-.41-3.29-.72a25.39,25.39,0,0,1-3.22-1.18,22.88,22.88,0,0,1-3.44-1.78,9.18,9.18,0,0,1-1.8-1.92c-6.61-8.22-9.93-39.31-6.1-40.52a1.09,1.09,0,0,1,.84.59c4.48,8.61,13,14.71,22.38,19.22,9.64,4.67,20.28,8.5,30.54,12a62.55,62.55,0,0,0,7.23,2.1,30.92,30.92,0,0,0,8.63,1,7.88,7.88,0,0,0,2.61-.69,2.12,2.12,0,0,0,1-1.28,1.65,1.65,0,0,0-.92-1.8c-1.88-1-3.78-2-5.69-2.95s-3.67-1.61-5.49-2.39c-2.32-1-4.63-2-6.91-3-1.75-.78-3.47-1.6-5.19-2.4-2.3-1.08-4.65-2.12-6.95-3.25-2-1-4-2.11-6-3.2s-4.06-2.27-6-3.51-4-2.66-6-4.05q-3.87-2.69-7.72-5.44a37.4,37.4,0,0,1-3-2.62c-2.42-2.19-5.23-4.27-6.56-7.15-1.25-2.7-.81-5.62-.57-8.44.64-7.58,1-15.34,4.25-22.51a35.46,35.46,0,0,1,2.1-4.06,27.82,27.82,0,0,1,1.69-2.62.88.88,0,0,1,.44-.38c.11,0,.3.16.31.29.1,1.51-.2,3-.13,4.5.12,2.6,1.9,4.86,3.46,7a56.41,56.41,0,0,0,8.21,9.46,143.38,143.38,0,0,0,12.49,9.69l2.8,2c7.73,5.79,14.62,12.85,24.92,15.15a15.45,15.45,0,0,0,2.65.21,7.9,7.9,0,0,0,4.57-1.23,2.71,2.71,0,0,0,.75-3.83,11,11,0,0,0-2.68-2.9c-12.94-10.69-27.14-19.82-39.4-31.19-5-4.65-10.19-9.07-12.77-15.19a6.49,6.49,0,0,1,.26-4.5,38.26,38.26,0,0,1,5.79-10.23c1.36-1.86,2.62-3.78,4-5.68,3.77-5.07,11.43-13.5,19.36-12.94-2.23,1.33-4.71,2.15-6.21,4.26-2.54,3.6-.22,7.73,2.16,10.88,3.59,4.75,7.49,9.45,11.56,13.91,3.51,3.85,7.84,7.8,13.52,9.07a8.35,8.35,0,0,0,7.49-1.5c10.25-8.18-.38-18.87-6.1-25.94a57.39,57.39,0,0,1-6.34-9.24,84.39,84.39,0,0,1-3.95-9.58,53.79,53.79,0,0,1-1.39-5.38c0-.08,0-.18-.06-.28a6.69,6.69,0,0,1,.84-4.69c6.47-11.08,32.34-33.63,33.71-34.85,8.41-7.45,10.33-10.86,11.6-.17,0,0,.19,1.58.56,3.4a53.41,53.41,0,0,1,.71,9.56c-.09,1.51-.07,3.29-.21,4.76-.22,2.29-.59,4.38-.92,6.65s-.71,4.33-1.1,6.56-.77,4.59-1.33,6.74c-.79,3-1.42,6.2-.14,9.21.5,1.18,1.57,2.44,3,2.33,2.31-.19,3.13-2.28,3.6-4,1.6-5.78,3.51-11.57,4.47-17.47a19.85,19.85,0,0,0,.17-3.33,30.69,30.69,0,0,0-1.84-9,2.64,2.64,0,0,1-.15-.69c.14.26.29.5.43.78a45.81,45.81,0,0,0,2.84,4.8c1.1,1.67,2.27,3.34,3.54,4.92,1.7,2.1,3.59,4,5.48,6,1.55,1.61,3.32,3,4.37,5.11a5,5,0,0,1,.67,2.62c-.65,8.19-4.11,15.89-8.13,23.24-1.92,3.51-3.81,7.09-5.8,10.52-4.95,8.51-10.47,16.07-13.25,25.46-.8,2.73-1.65,6,1,8.17a4.85,4.85,0,0,0,2.5,1,3.86,3.86,0,0,0,2.11-.09c15.29-6.33,37.78-40.93,39.07-57.05.07-1,.51-1.2,1.35-.7,4.74,1.89,17.65,18.92,18.33,26.72a6.46,6.46,0,0,1-.37,3.54c-6.2,17.72-38.74,52.86-52.76,64.21a4,4,0,0,0-.65,1.6,1.91,1.91,0,0,0,1.7,2.44,20.9,20.9,0,0,0,2.5.36,8.15,8.15,0,0,0,4-.86c1.91-.73,3.83-1.49,5.73-2.34,9.83-4.39,18.49-12.95,24.78-20.63a88.38,88.38,0,0,0,10.66-16.79c2.67-5.38,4.37-11.31,8.35-16.12a.54.54,0,0,1,.62,0c3.46,3.2,4.48,7.76,6,11.8q2,5.56,4.38,11c1.17,2.73,3.58,6.38,2,9.33-7.15,13-18,23.08-30.59,32.4-9.43,7-19.88,12.88-29.23,19.93a1.88,1.88,0,0,0-.47.7,1,1,0,0,0,.64,1.48,4.67,4.67,0,0,0,3.15,0,199.93,199.93,0,0,0,31.78-12.35c8.39-4.29,16.28-7.8,23-14,2.61-2.39,3.59-5.78,4.54-7.17a.46.46,0,0,1,.76,0L752,215a44.74,44.74,0,0,1,3.6,7.84,49.12,49.12,0,0,1,2.13,15.43,15.38,15.38,0,0,1-1.77,7.44,7.71,7.71,0,0,1-2.16,2.49c-.89.68-2.3,1.39-1.94,2.76,3.08,11.82.37,24.83-4.66,35.72s-13.11,20.77-24,26a39.34,39.34,0,0,1-24.28,3c-14-2.61-22-11.92-28-22.36-.8-1.37-1.63-2.74-2.29-4.17a5,5,0,0,0-.29-.5l-.24,0a19.34,19.34,0,0,0-.53,2.25c-1,9-.76,18.07-1,27.11a77,77,0,0,0,.46,10.07c.34,3.33.83,6.65,1.47,9.93.25,1.24.52,2.48.82,3.71.13.53.27,1.07.42,1.6s.51,1.18.28,1.6c-.45.79-1.17.16-1.75-.1a5.88,5.88,0,0,0-2.4-.38,11.22,11.22,0,0,0-3.11.3A19.33,19.33,0,0,1,660.62,345.58Zm89.51-93.95-.14-.21c-.1,0-.22-.08-.31,0-1.19.46-2.37,1-3.56,1.41s-2.39.93-3.61,1.29c-1.6.47-3.22.83-4.83,1.25l-4.53,1.25c-1,.28-2.12.52-3.15.88-1.8.62-3.56,1.34-5.34,2-.81.3-1.63.57-2.44.85-1.31.44-2.62.89-3.94,1.3s-2.63.77-3.94,1.16c-1.07.32-2.13.66-3.19,1-.87.27-1.77.49-2.63.8-1.4.52-2.75,1.14-4.12,1.65-2.13.79-4.25,1.49-6.29,2.33a7.62,7.62,0,0,0-2.09,1.37c-.63.56-.54,1,.17,1.53a5.77,5.77,0,0,0,3.53.83c1.1,0,2.2-.13,3.32-.23a25.69,25.69,0,0,0,2.74-.36c1.46-.29,2.93-.67,4.43-1s3.2-.69,4.79-1.07c1.33-.32,2.67-.67,4-1.06q3.48-1.05,7-2.16c1.93-.61,3.89-1.17,5.78-1.92a43.5,43.5,0,0,0,5.21-2.48,62.36,62.36,0,0,0,5.34-3.39,47.75,47.75,0,0,0,4.44-3.47C747.92,254.05,749,252.8,750.13,251.63Z"/>
          <path class="cls-8" d="M660.62,345.58a1.81,1.81,0,0,1-.52,0,.81.81,0,0,1-.73-.62,1,1,0,0,1,.07-.42c.49-1.62.95-3.23,1.33-4.88.44-1.91.79-3.84,1.08-5.78a102,102,0,0,0,1-11.7c.14-3.93.12-7.86,0-11.78s-.18-7.82-.22-11.73c0-.2,0-.39,0-.58s0-.48-.06-.71l-.22-.05c-.19.48-.4,1-.56,1.45-5.05,15.81-31,16.43-45.7,12.34a38,38,0,0,1-11.88-5.62c-6-4.3-10.53-9.91-14.56-15.62-7-9.94-12-19.77-13.84-31.46a1.37,1.37,0,0,1,.21-1.2,1.68,1.68,0,0,1,.78-.38c2-.5,4,.26,5.82,1,1.09.45,2.2.86,3.29,1.31a189,189,0,0,0,24.28,8.15c8,2.08,18.26,5.36,26.72,4a5.76,5.76,0,0,0,3.07-1c.74-.63.49-1.5-.46-1.86a20.74,20.74,0,0,0-2.68-.71c-.94-.22-1.89-.36-2.84-.55-1.63-.33-3.25-.65-4.85-1-.8-.17-1.58-.41-2.37-.57s-1.67-.26-2.49-.43-1.84-.48-2.76-.67-1.88-.27-2.8-.46c-1.47-.31-2.93-.63-4.36-1-1.74-.46-3.43-1-5.16-1.45s-3.42-.71-5.12-1.1c-1.34-.31-2.66-.68-4-1l-4.56-1.12c-1.33-.33-2.66-.69-4-1-1.66-.4-3.32-.75-5-1.15s-3.57-.92-5.36-1.35c-1.09-.26-2.21-.41-3.29-.72a25.39,25.39,0,0,1-3.22-1.18,22.88,22.88,0,0,1-3.44-1.78,9.18,9.18,0,0,1-1.8-1.92c-6.61-8.22-9.93-39.31-6.1-40.52a1.09,1.09,0,0,1,.84.59c4.48,8.61,13,14.71,22.38,19.22,9.64,4.67,20.28,8.5,30.54,12a62.55,62.55,0,0,0,7.23,2.1,30.92,30.92,0,0,0,8.63,1,7.88,7.88,0,0,0,2.61-.69,2.12,2.12,0,0,0,1-1.28,1.65,1.65,0,0,0-.92-1.8c-1.88-1-3.78-2-5.69-2.95s-3.67-1.61-5.49-2.39c-2.32-1-4.63-2-6.91-3-1.75-.78-3.47-1.6-5.19-2.4-2.3-1.08-4.65-2.12-6.95-3.25-2-1-4-2.11-6-3.2s-4.06-2.27-6-3.51-4-2.66-6-4.05q-3.87-2.69-7.72-5.44a37.4,37.4,0,0,1-3-2.62c-2.42-2.19-5.23-4.27-6.56-7.15-1.25-2.7-.81-5.62-.57-8.44.64-7.58,1-15.34,4.25-22.51a35.46,35.46,0,0,1,2.1-4.06,27.82,27.82,0,0,1,1.69-2.62.88.88,0,0,1,.44-.38c.11,0,.3.16.31.29.1,1.51-.2,3-.13,4.5.12,2.6,1.9,4.86,3.46,7a56.41,56.41,0,0,0,8.21,9.46,143.38,143.38,0,0,0,12.49,9.69l2.8,2c7.73,5.79,14.62,12.85,24.92,15.15a15.45,15.45,0,0,0,2.65.21,7.9,7.9,0,0,0,4.57-1.23,2.71,2.71,0,0,0,.75-3.83,11,11,0,0,0-2.68-2.9c-12.94-10.69-27.14-19.82-39.4-31.19-5-4.65-10.19-9.07-12.77-15.19a6.49,6.49,0,0,1,.26-4.5,38.26,38.26,0,0,1,5.79-10.23c1.36-1.86,2.62-3.78,4-5.68,3.77-5.07,11.43-13.5,19.36-12.94-2.23,1.33-4.71,2.15-6.21,4.26-2.54,3.6-.22,7.73,2.16,10.88,3.59,4.75,7.49,9.45,11.56,13.91,3.51,3.85,7.84,7.8,13.52,9.07a8.35,8.35,0,0,0,7.49-1.5c10.25-8.18-.38-18.87-6.1-25.94a57.39,57.39,0,0,1-6.34-9.24,84.39,84.39,0,0,1-3.95-9.58,53.79,53.79,0,0,1-1.39-5.38c0-.08,0-.18-.06-.28a6.69,6.69,0,0,1,.84-4.69c6.47-11.08,32.34-33.63,33.71-34.85,8.41-7.45,10.33-10.86,11.6-.17,0,0,.19,1.58.56,3.4a53.41,53.41,0,0,1,.71,9.56c-.09,1.51-.07,3.29-.21,4.76-.22,2.29-.59,4.38-.92,6.65s-.71,4.33-1.1,6.56-.77,4.59-1.33,6.74c-.79,3-1.42,6.2-.14,9.21.5,1.18,1.57,2.44,3,2.33,2.31-.19,3.13-2.28,3.6-4,1.6-5.78,3.51-11.57,4.47-17.47a19.85,19.85,0,0,0,.17-3.33,30.69,30.69,0,0,0-1.84-9,2.64,2.64,0,0,1-.15-.69c.14.26.29.5.43.78a45.81,45.81,0,0,0,2.84,4.8c1.1,1.67,2.27,3.34,3.54,4.92,1.7,2.1,3.59,4,5.48,6,1.55,1.61,3.32,3,4.37,5.11a5,5,0,0,1,.67,2.62c-.65,8.19-4.11,15.89-8.13,23.24-1.92,3.51-3.81,7.09-5.8,10.52-4.95,8.51-10.47,16.07-13.25,25.46-.8,2.73-1.65,6,1,8.17a4.85,4.85,0,0,0,2.5,1,3.86,3.86,0,0,0,2.11-.09c15.29-6.33,37.78-40.93,39.07-57.05.07-1,.51-1.2,1.35-.7,4.74,1.89,17.65,18.92,18.33,26.72a6.46,6.46,0,0,1-.37,3.54c-6.2,17.72-38.74,52.86-52.76,64.21a4,4,0,0,0-.65,1.6,1.91,1.91,0,0,0,1.7,2.44,20.9,20.9,0,0,0,2.5.36,8.15,8.15,0,0,0,4-.86c1.91-.73,3.83-1.49,5.73-2.34,9.83-4.39,18.49-12.95,24.78-20.63a88.38,88.38,0,0,0,10.66-16.79c2.67-5.38,4.37-11.31,8.35-16.12a.54.54,0,0,1,.62,0c3.46,3.2,4.48,7.76,6,11.8q2,5.56,4.38,11c1.17,2.73,3.58,6.38,2,9.33-7.15,13-18,23.08-30.59,32.4-9.43,7-19.88,12.88-29.23,19.93a1.88,1.88,0,0,0-.47.7,1,1,0,0,0,.64,1.48,4.67,4.67,0,0,0,3.15,0,199.93,199.93,0,0,0,31.78-12.35c8.39-4.29,16.28-7.8,23-14,2.61-2.39,3.59-5.78,4.54-7.17a.46.46,0,0,1,.76,0L752,215a44.74,44.74,0,0,1,3.6,7.84,49.12,49.12,0,0,1,2.13,15.43,15.38,15.38,0,0,1-1.77,7.44,7.71,7.71,0,0,1-2.16,2.49c-.89.68-2.3,1.39-1.94,2.76,3.08,11.82.37,24.83-4.66,35.72s-13.11,20.77-24,26a39.34,39.34,0,0,1-24.28,3c-14-2.61-22-11.92-28-22.36-.8-1.37-1.63-2.74-2.29-4.17a5,5,0,0,0-.29-.5l-.24,0a19.34,19.34,0,0,0-.53,2.25c-1,9-.76,18.07-1,27.11a77,77,0,0,0,.46,10.07c.34,3.33.83,6.65,1.47,9.93.25,1.24.52,2.48.82,3.71.13.53.27,1.07.42,1.6s.51,1.18.28,1.6c-.45.79-1.17.16-1.75-.1a5.88,5.88,0,0,0-2.4-.38,11.22,11.22,0,0,0-3.11.3A19.33,19.33,0,0,1,660.62,345.58Zm89.51-93.95-.14-.21c-.1,0-.22-.08-.31,0-1.19.46-2.37,1-3.56,1.41s-2.39.93-3.61,1.29c-1.6.47-3.22.83-4.83,1.25l-4.53,1.25c-1,.28-2.12.52-3.15.88-1.8.62-3.56,1.34-5.34,2-.81.3-1.63.57-2.44.85-1.31.44-2.62.89-3.94,1.3s-2.63.77-3.94,1.16c-1.07.32-2.13.66-3.19,1-.87.27-1.77.49-2.63.8-1.4.52-2.75,1.14-4.12,1.65-2.13.79-4.25,1.49-6.29,2.33a7.62,7.62,0,0,0-2.09,1.37c-.63.56-.54,1,.17,1.53a5.77,5.77,0,0,0,3.53.83c1.1,0,2.2-.13,3.32-.23a25.69,25.69,0,0,0,2.74-.36c1.46-.29,2.93-.67,4.43-1s3.2-.69,4.79-1.07c1.33-.32,2.67-.67,4-1.06q3.48-1.05,7-2.16c1.93-.61,3.89-1.17,5.78-1.92a43.5,43.5,0,0,0,5.21-2.48,62.36,62.36,0,0,0,5.34-3.39,47.75,47.75,0,0,0,4.44-3.47C747.92,254.05,749,252.8,750.13,251.63Z"/>
        </g>
      </g>
    </g>
  </g>
</svg>
