<?xml version="1.0" encoding="utf-8"?>
<!-- Generator: Adobe Illustrator 25.3.1, SVG Export Plug-In . SVG Version: 6.00 Build 0)  -->
<svg version="1.1" id="Layer_1" xmlns="http://www.w3.org/2000/svg" xmlns:xlink="http://www.w3.org/1999/xlink" x="0px" y="0px"
	 viewBox="0 0 32 32" style="enable-background:new 0 0 32 32;" xml:space="preserve">
<style type="text/css">
	.st0{fill:#FFFFFF;stroke:#000000;stroke-width:0.25;stroke-miterlimit:10;}
</style>
<rect class="st0" width="32" height="32"/>
<path d="M6.7,23.1H2.3V8.9h4.3v3.9c0.1-0.1,0.2-0.2,0.3-0.2c1.1-1.2,2.3-2.3,3.4-3.5c0.1-0.1,0.3-0.2,0.4-0.2h4.6l-5.8,5.9l6.6,8.3
	c-0.1,0-0.2,0-0.4,0c-1.4,0-2.8,0-4.2,0c-0.2,0-0.4-0.1-0.6-0.3c-1.3-1.6-2.5-3.3-3.8-4.9l-0.4-0.5c-0.1,0.2-0.1,0.4-0.2,0.6
	c0,1.5,0,3,0,4.5L6.7,23.1z"/>
<path d="M25.2,12.6v10.5h-4.4V12.6h-4.4V8.9h13.2v3.7L25.2,12.6z"/>
</svg>
