<svg xmlns="http://www.w3.org/2000/svg" viewBox="0 0 382.38 800.82"><defs><style>.cls-1,.cls-10,.cls-11,.cls-12,.cls-13,.cls-14,.cls-15,.cls-16,.cls-17,.cls-2,.cls-3,.cls-4,.cls-5,.cls-6,.cls-7,.cls-8,.cls-9{fill:none;stroke:#000;}.cls-1,.cls-10,.cls-11,.cls-12,.cls-13,.cls-14,.cls-16,.cls-17,.cls-2,.cls-3,.cls-4,.cls-6,.cls-7,.cls-9{stroke-miterlimit:10;}.cls-1,.cls-10,.cls-11,.cls-12,.cls-13,.cls-14,.cls-16,.cls-2,.cls-3,.cls-4,.cls-6,.cls-7,.cls-9{stroke-width:0.69px;}.cls-10,.cls-11,.cls-12,.cls-13,.cls-14,.cls-16,.cls-2,.cls-3,.cls-4,.cls-6,.cls-7,.cls-9{isolation:isolate;}.cls-2{opacity:0.2;}.cls-3{opacity:0.64;}.cls-4{opacity:0.29;}.cls-5{stroke-miterlimit:10;stroke-width:0.69px;}.cls-6{opacity:0.13;}.cls-7{opacity:0.14;}.cls-8{stroke-miterlimit:10;stroke-width:0.69px;}.cls-9{opacity:0.1;}.cls-10{opacity:0.45;}.cls-11{opacity:0.46;}.cls-12{opacity:0.18;}.cls-13{opacity:0.15;}.cls-14{opacity:0.3;}.cls-15{stroke-miterlimit:10;stroke-width:0.69px;}.cls-16{opacity:0.4;}.cls-17{stroke-linecap:round;stroke-width:1.12px;}</style></defs><g id="Layer_2" data-name="Layer 2"><g id="Layer_1-2" data-name="Layer 1"><path class="cls-1" d="M315.26,479.73c-6.4,2.7-107.3-12.5-110.9-16.2-7.4-20.7-1.4-34.3.9-37.2l37.4-178.4c5.2-25.8,24.2-35.8,29.5-37.4.7-6.5,14.3-48.8,14.3-48.8-2-3.4,1.9-13,3.1-14.4,8.5-16.6,26.8-10.8,27.4,5.8.4,3.2-.2,9-1.5,9.9l.8,53.7c4.6,1.5,21.2,18.5,18.3,42L324.76,442C324.76,447.83,326.86,467.63,315.26,479.73Z"/><path class="cls-2" d="M285.86,475.13c-32.7-4-69.7-10.4-77.9-12.9-5.7-17.6-.8-29,.8-31a5.12,5.12,0,0,0,1-2.1l37.7-179.9c2.1-10.3,4.2-21.2,11.1-27.9,5.4-5.3,10.8-9.6,12.9-10.2,1.9-.6,4.9-1.5,5.1-3.4.5-4.4,4.7-19,8.2-30.3,1.1-.8,7.4-1.4,14.6-.6,6.4.8,10.5,2.5,11.3,3.3.2.2.4.5.6.7l.7,36a4.94,4.94,0,0,0,3.3,4.5c1.1.5,5.7,4.2,9.7,11.1a42.48,42.48,0,0,1,5.5,26.1v.3l-9.8,184.8v.4a14.16,14.16,0,0,0,.1,1.9c.3,6.6,1.1,21.8-7.2,31.5C311.26,477.53,304.66,477.43,285.86,475.13Z"/><path class="cls-3" d="M223.56,430.13l24.6-179.3c5.2-25.8,19.2-39.5,29.8-39,.7-6.5,13.2-57.6,13.2-57.6-2.4,1.7-2.3-6.1,2.3-6.2-4-.4.6-5.2.6-5.2l-4.8,4.7c-1.1,1.5-5.1,11-3.1,14.4,0,0-13.6,42.3-14.3,48.8-5.3,1.6-24.3,11.6-29.5,37.4L205,426.33c-2.3,2.9-8.3,16.5-.9,37.2,1.1,1.1,10.6,3.2,23.6,5.5C216.46,467.63,215.56,434.33,223.56,430.13Z"/><path class="cls-1" d="M304.26,432.43h.2a4.25,4.25,0,0,0,4.4-3.6l17.3-176.2c0-6.9-12.6-13.7-12.8-3.4l-12.9,179a3.89,3.89,0,0,0,3.8,4.2Z"/><path class="cls-1" d="M237.66,271.43c13.9-24.3,89.9-19.6,95.4,12.7L325.56,425c-22-12.6-102.6-20.9-116.7-16.2Z"/><path class="cls-1" d="M314,152.93a35.9,35.9,0,0,0-3.9-3.9c-.2-.1-.2-.4,0-.6h0l.1-.1.3-.1a1.26,1.26,0,0,1,1.3.2,17.24,17.24,0,0,1,2.7,2.7,1.13,1.13,0,0,1,.3,1.1l-.1.6a.55.55,0,0,1-.5.3C314.06,153,314,153,314,152.93Z"/><path class="cls-1" d="M312.06,154.83a18.09,18.09,0,0,0-3.4-2.8.33.33,0,0,1,0-.5l.1-.1.3-.2a.91.91,0,0,1,1,0,13.65,13.65,0,0,1,2.3,1.9,1.4,1.4,0,0,1,.3.9l-.1.5c0,.2-.2.3-.4.3h0C312.16,154.93,312.06,154.93,312.06,154.83Z"/><path class="cls-1" d="M316.86,153.23c-1.1-6.9-8.5-13.9-16.5-13.1s-10.1,6.5-12.2,9.9c-1.4-7.2,3.5-13.7,13.8-14.8C311.36,134.33,321.66,147.13,316.86,153.23Z"/><path class="cls-1" d="M224.56,373.43c-1.9-1.5-.4-11.5,1.7-13.9,1.1.4,2,1.4,3.4,3.8-2,5.1-3.4,7.8-5.1,10.1m19.7-30.1c13.6-30.5,21.7-49,28.1-52.6,3.5,3.6-7.2,41.1-28.1,52.6m26-56.7c-3.9.2-11.9.6-33.7,57.5-15.1-5.2,2.5-43.5,5.9-46.4,2.6,3.4-8,28.7-8.2,28.9-.6,1.2-.8,1.6.1,2.3,5.9-1.6,17.5-29.9,10-33.6-10.6-5-18.9,36.7-15.9,46.6,1.3,4.4,4.7,5.1,6.9,5.5l-4.5,12c-8.9-9.3-9.2,6.7-9.3,12.7-.2,7.9,5.9,2.5,6.2,2.2a25.35,25.35,0,0,0,4.4-5.8c2.8,6.3,4.8,8.3,8.2,8.7v.1c10.6-.1,13.8-12.6,12.5-14.3a1.78,1.78,0,0,0-1-.4c-5.4,10.7-13,5.3-17.2,1.2,1.2-2.3,1.2-2.3,7.5-16.6,25.3-7.3,48.9-50.6,32.5-59.5a13.56,13.56,0,0,0-4.4-1.1"/><path class="cls-1" d="M285.06,314.33c3.1-2.2,6.7-3.6,9.8-5.9,2.4-1.7,3.1-2.9,3.4-3.7,1.5-3.8-3.1-4.6-7.1-5.2h0a55.69,55.69,0,0,1-5.5,10.2,23.26,23.26,0,0,0-1.7,2.6,1.46,1.46,0,0,0,.6,1.9A4.33,4.33,0,0,0,285.06,314.33Z"/><path class="cls-1" d="M322.26,356.73c-5.2,6.9-5.2,6.9-7.4,7.7s-4.7,1.7-5.3-3.2a16.26,16.26,0,0,1,.4-4.9c10.4,5.9,19.5-17.2,17-26a6.77,6.77,0,0,0-4-4.7c-5.5-1.7-13.6,9.2-17.8,20.2-4.3,6.5-9.3,12.7-14.7,15.4-2.1-2.9-2.5-3.5,15.3-36,5.5,1,7.9,1.1,7.2-1.5-.8-.4-5.5-1.5-5.5-1.5,3.7-6,6.1-9.9-1.7-11.7l-.6-.1c-.5.5-.9,1.1-6.2,10.1-4.5-.8-5-.7-5.1-.7-1.4.3-1.2,1.9-1.2,1.9.1.3.2.5,4.8,1.5-2.1,3.6-3.9,7-5.6,10.1-5.9,9-14.4,20.7-22.8,25.2,4.3-12.8,14.1-22.8,18.4-35.6.4-1.2,1.5-4.5-4.9-5.4a12.1,12.1,0,0,0-1.9-.1c-4.1,13.5-16,23.2-19,37.3-1.6,7.5,5.3,9.3,9.4,7,3.6-2,8.8-7.8,13.6-14.1a44,44,0,0,0-3.4,9.4c-.8,4.4,4.5,9.2,8.8,8.2,5-1.2,11.1-9.1,12.8-11.6.1-.1.2-.3.3-.4-.8,4.1-.8,7.8.6,10.2,6.2,10.5,16.5,6.1,18.9-4.9C322.86,357,322.56,356.93,322.26,356.73Zm2-27.2c1,2.5-4.4,23.2-13.6,24.4,3.1-9.4,10.5-24.1,13.6-24.4Z"/><path class="cls-4" d="M244.36,450.83c.4,2.7.2,3.8-.5,5.1-.9,1.6-2.6,6,2.1,6.8,2.5.4,3.4-2.6,3.4-4.6-.1-4.2,1.6-4.3,2.5-4.2a2.44,2.44,0,0,1,2.2,2.6h0a1.45,1.45,0,0,1-.2.7c-.3.8-1.6,2.7.1,3.8,1.3.9,5,.4,4.4-2.3a9.07,9.07,0,0,1-.3-5.1c.6-1.7,1.2-2.2,2.6-2.4,2.1-.3,2.1,5.5,6.3-.3C270.16,446.53,244.76,450.53,244.36,450.83Z"/><path class="cls-1" d="M235.16,431a21.81,21.81,0,1,1,.4,0Z"/><path class="cls-1" d="M287.26,461.63c-.3,2.1-10.3-9.4-23.4-11s-20.6,1.4-21.5.9c-1.9-1.1,8.9-5.6,21.9-3.9C277.26,449.13,287.46,459.43,287.26,461.63Z"/><ellipse class="cls-5" cx="237.64" cy="411.29" rx="16.2" ry="16.4" transform="translate(-199.74 596.58) rotate(-82.94)"/><ellipse class="cls-5" cx="238.03" cy="408.35" rx="13.5" ry="13.7" transform="translate(-196.48 594.38) rotate(-82.94)"/><path class="cls-1" d="M305.36,452.63a21.81,21.81,0,1,1,.4,0Z"/><ellipse class="cls-5" cx="308.48" cy="432.85" rx="16.2" ry="16.4" transform="translate(-159.01 685.79) rotate(-82.94)"/><ellipse class="cls-5" cx="308.76" cy="430.61" rx="13.5" ry="13.7" transform="translate(-156.53 684.11) rotate(-82.94)"/><path class="cls-1" d="M309.86,216l-2.9-1.4a2.08,2.08,0,0,1-.8-2l3.6-53.9q0-.45.6-.3a4,4,0,0,1,1.5,1,.86.86,0,0,1,.3.6l-1,55.2C311.16,216.23,310.56,216.53,309.86,216Z"/><path class="cls-2" d="M246.06,263.23a23.7,23.7,0,0,0-9,8.5l-28.6,137.4a52.9,52.9,0,0,1,18.1-3Z"/><path class="cls-1" d="M123,529.63c-3.8-2.7-12-4.8-16-3.1L9.36,568c-5.4,2.3-10.1,8.4-8.8,14.3A970.46,970.46,0,0,1,24,757.13c.6,8.2,5.7,13.3,13.9,15,28.7,3.4,59.3,5.7,88.1,9a10,10,0,0,0,6.7-1.6c4.4-2.9,7.6-4.8,7.7-9.4,2.2-58.8-.5-118.8-6.9-177.3-2.1-19-5-36.4-7.9-55.3C125,533.93,124.16,530.43,123,529.63Z"/><path class="cls-1" d="M26.86,759.23a1014.79,1014.79,0,0,0-23.1-177.8c-.8-3.9,2.1-8,5.7-9.4l94.9-39.6c4.1-1.6,8,1.3,8.6,5.5q4.5,28.05,7.8,56.2a1227.64,1227.64,0,0,1,7.8,173.6c0,3.7-2.7,7.8-6.9,7.5l-87.9-8.9A7.78,7.78,0,0,1,26.86,759.23Z"/><path class="cls-1" d="M111.16,564.83a1239.92,1239.92,0,0,1,12.4,178.6,2.24,2.24,0,0,1-2.1,2.4h0l-90.6-3.4a2.27,2.27,0,0,1-2.2-2.1q-2.4-41.55-8.1-82.8c-2.1-15.3-4.6-30.5-7.4-45.7-.8-4.2-1.6-8.3-2.4-12.4a2.52,2.52,0,0,1,1.8-2.7l21.2-7.4L97,567.23l11.6-4.1a2,2,0,0,1,2.5,1.3c.1.1.2.3.1.4Z"/><path class="cls-1" d="M23.76,603l3.5-1.1c4,5.6,7.9,11.3,11.6,17H39c1.8-7.5,3.5-15,5.1-22.4l3.5-1.1c1.3,8,2.6,16.1,3.8,24.1l-2.8.7c-.9-6.2-1.9-12.3-2.9-18.5l-1.4.4c.8-1.9,1.7-3.9,2.5-5.8-1.9,8.7-3.9,17.3-6,25.9l-2.5.7c-4.3-6.6-8.8-13.1-13.4-19.6l4.1,3.5-1.4.4c1,5.9,2,11.8,3,17.6l-2.8.7C26.36,618.13,25.06,610.53,23.76,603Z"/><path class="cls-1" d="M60,615.73a9.32,9.32,0,0,1-4.5-3.3,14.58,14.58,0,0,1-2.3-6.3h0a17,17,0,0,1,.3-7.1,13.19,13.19,0,0,1,8.8-9.1,10.9,10.9,0,0,1,6.2-.3,8,8,0,0,1,4.5,3.3,16,16,0,0,1,2.4,6.6h0a20.42,20.42,0,0,1-.4,7.4,13.66,13.66,0,0,1-3.2,5.6,12.44,12.44,0,0,1-5.7,3.2A10.56,10.56,0,0,1,60,615.73Zm9.8-5.3a10,10,0,0,0,2.3-4.3,15.63,15.63,0,0,0,.2-5.7h0a11.57,11.57,0,0,0-1.8-5.1,7.91,7.91,0,0,0-3.3-2.7,7.33,7.33,0,0,0-4.4.1,9.31,9.31,0,0,0-4.1,2.6,10,10,0,0,0-2.3,4.3,14.56,14.56,0,0,0-.2,5.5h0A11.23,11.23,0,0,0,58,610a7.91,7.91,0,0,0,3.3,2.7,7.34,7.34,0,0,0,4.4.1,8.15,8.15,0,0,0,4.1-2.4Z"/><path class="cls-1" d="M77.26,585.83l3.5-1.1q5.85,9.75,11.4,19.8h.1c1.9-8.4,3.7-16.8,5.3-25.2l3.5-1.1c1.3,9.1,2.5,18.3,3.5,27.4l-2.8.7q-1.2-10.5-2.7-21l-1.4.4,2.5-6.5c-2,9.7-4,19.4-6.2,29.1l-2.5.7c-4.3-7.7-8.8-15.2-13.3-22.7,1.4,1.4,2.7,2.7,4,4.2l-1.4.4c1,6.7,1.9,13.5,2.7,20.2l-2.8.7C79.76,603.13,78.56,594.43,77.26,585.83Z"/><path class="cls-1" d="M82.16,641.93a1.39,1.39,0,0,0-.4,1.5c.8,3.2,4.3,5.9,6.7,7.8s5.8,4.8,8.9,4.7a1.17,1.17,0,0,0,1.1-.9h0c3.4-10.1,6.6-20.2,9.8-30.3.9-2.2-1.6-4.4-3.5-2.7-7.4,6.8-14.9,13.4-22.6,19.9Z"/><path class="cls-1" d="M52.36,640.13a.9.9,0,0,1,.7,1c-.3,3.3-3,6.7-5,9.3s-4.5,6-7.6,7.1a.91.91,0,0,1-1.1-.3h0c-4.3-6.5-8.7-13-13.2-19.3a2.52,2.52,0,0,1,1.2-3.4,2.85,2.85,0,0,1,1.6-.2c7.8,1.7,15.7,3.7,23.4,5.8Z"/><path class="cls-1" d="M98.06,657c-3.2-9.4-14.4-11-19.5-18.8a10.5,10.5,0,0,0-8.7-4.6c-1.9,0-5,.4-6,2.3-7.1-.8-13.6,6.1-17.3,11.3-4.9,6.9-8.4,15.7-7.4,24.1a31.33,31.33,0,0,0,9.8,19.2c6.2,5.8,14.9,9.3,23.5,8.6s15.7-6.4,20.5-13.2C98.66,677.93,101.26,666.63,98.06,657Z"/><path class="cls-1" d="M105.26,664.13c-2.7-10.8-6.2-22.1-12.8-31.2-3.1-4.3-7.4-8.5-12.9-9.5-6.4-1.2-12.8,2.6-16.8,7.3-9.7-5.4-17.7,4.7-21.4,12.5-4.7,9.6-7.3,21.8-4.8,32.3.4,1.8,3.8,12.2.8,13.5-1.2.6-2.7-1.2-3.6-2-1.2,7.8,8.2,7.7,12.8,4.6a9.73,9.73,0,0,1,2.3-1.1,31.6,31.6,0,0,1-9.8-19.2c-1-8.5,2.5-17.3,7.4-24.1,3.7-5.2,10.2-12.1,17.3-11.3,1.1-1.9,4.1-2.3,6-2.3a10.5,10.5,0,0,1,8.7,4.6c2.8,6.2,5.8,12.7,10.8,17.6,2.8,2.7,5.1,4.8,6.4,8.6,1.2,3.5,2.3,7.4,1.9,11.2s-2.6,7.3-4.7,10.5c10,4.3,17.4-2.3,21.2-11.3C110,679.23,105.86,665.73,105.26,664.13Z"/><path class="cls-1" d="M66.56,660.43a8.38,8.38,0,0,0,9.1,7.5c4.8-.6,7.9-5.7,7.5-10.2s-4.5-8.4-9.2-7.5C69.46,651.13,66.16,655.93,66.56,660.43Z"/><path class="cls-1" d="M69,657.83a3.22,3.22,0,0,0,3.4,2.9h.2a3.78,3.78,0,0,0,2.9-3.9,3.26,3.26,0,0,0-3.6-2.9h0A3.54,3.54,0,0,0,69,657.83Z"/><path class="cls-1" d="M77.36,661.93a1.56,1.56,0,0,0,1.6,1.5h.1a1.79,1.79,0,0,0,1.4-2,1.56,1.56,0,0,0-1.6-1.5h-.1A1.86,1.86,0,0,0,77.36,661.93Z"/><path class="cls-1" d="M36.76,663.73a8.18,8.18,0,0,0,9.2,6.8,8.91,8.91,0,0,0,7.4-9.6,8,8,0,0,0-8.8-6.9h0a.9.9,0,0,0-.5.1C39.76,655,36.06,659.33,36.76,663.73Z"/><path class="cls-1" d="M39.06,661.33a3,3,0,0,0,3.5,2.6h.1a3.5,3.5,0,0,0,2.9-3.7,3,3,0,0,0-3.4-2.6h-.1A3.42,3.42,0,0,0,39.06,661.33Z"/><path class="cls-1" d="M47.56,665a1.57,1.57,0,0,0,1.7,1.4h.1a1.85,1.85,0,0,0,1.5-1.9,1.57,1.57,0,0,0-1.7-1.4H49A1.75,1.75,0,0,0,47.56,665Z"/><path class="cls-1" d="M51.86,678.53a50.38,50.38,0,0,0,5.4,6.8,15.12,15.12,0,0,0,4.7,3.6c.2.2,1.2.2,1.4-.4a25.39,25.39,0,0,0,2.2-6,16.26,16.26,0,0,0,.4-5.8,1.56,1.56,0,0,0-.6-.8,9.09,9.09,0,0,0-3.7-.8,24.2,24.2,0,0,0-3.8.2,18.46,18.46,0,0,0-2.3.4,12,12,0,0,0-3.3,1.3l-.2.1A1,1,0,0,0,51.86,678.53Z"/><path class="cls-1" d="M61.76,675l1.8,4.5a.63.63,0,0,0,.8.3c.2-.1.3-.2.3-.4.3-1.4.4-2.1.7-3.5A6.66,6.66,0,0,0,61.76,675Z"/><path class="cls-1" d="M52.36,677c.5,1.3.8,1.9,1.3,3.1a.63.63,0,0,0,.8.3,1,1,0,0,0,.4-.5c.3-1.4.6-2.9.9-4.4A15.17,15.17,0,0,0,52.36,677Z"/><path class="cls-1" d="M57.26,685.23a16.37,16.37,0,0,0,4.7,3.6c.2.2,1.2.2,1.4-.4a30.72,30.72,0,0,0,2.2-6,7.94,7.94,0,0,0-2.2-.6h-1.2l-1.4.3A7.5,7.5,0,0,0,57.26,685.23Z"/><path class="cls-1" d="M56,669.93c1.5.9,2.9,1.8,4.4,2.7l-6.2.1C54.86,671.63,55.16,671,56,669.93Z"/><path class="cls-1" d="M56,669.93l2-4.1-1.8,4.3,4.2,2.5C58.86,671.73,57.46,670.83,56,669.93Z"/><path class="cls-1" d="M69.26,651l.9-.9a9.33,9.33,0,0,1,5.5-2.5,5,5,0,0,0,.8-.7,12,12,0,0,0,2.5-3.8c-.1.3-.1.6-.2.9a8.74,8.74,0,0,1-1.8,3.6h0a7.73,7.73,0,0,1,2.7.8l.2-.2a12,12,0,0,0,2.5-3.8,2.92,2.92,0,0,1-.2.9,9.93,9.93,0,0,1-1.7,3.6,8.39,8.39,0,0,1,2.3,2.3,12,12,0,0,0,2.5-3.8,2.92,2.92,0,0,1-.2.9,8.72,8.72,0,0,1-1.9,3.7,9.42,9.42,0,0,1,.8,5.5,2.92,2.92,0,0,1-.2.9,9.63,9.63,0,0,0-1.4-5.5c-.2-.3-.4-.5-.6-.8a7.68,7.68,0,0,0-5.1-2.6,8.56,8.56,0,0,0-5.8,1.6c-.4.3-.7.6-1.1.9a9.73,9.73,0,0,0-2.7,4.6,2.77,2.77,0,0,1,.1-.9A9.53,9.53,0,0,1,69.26,651Z"/><path class="cls-1" d="M50.26,654.13a5.5,5.5,0,0,0-.9-.7,7.71,7.71,0,0,0-5.5-1.3,3.51,3.51,0,0,1-.8-.5,7.88,7.88,0,0,1-2.6-3.1c.1.3.1.5.2.8a6.91,6.91,0,0,0,2,3h0a11.07,11.07,0,0,0-2.7,1.2l-.2-.1a8.33,8.33,0,0,1-2.6-3,2.35,2.35,0,0,0,.2.8,8.12,8.12,0,0,0,1.9,2.9,10,10,0,0,0-2.1,2.5,7.58,7.58,0,0,1-2.6-3,1.45,1.45,0,0,0,.2.7,6.91,6.91,0,0,0,2,3,8.94,8.94,0,0,0-.6,5.1,1.45,1.45,0,0,0,.2.7,7.91,7.91,0,0,1,1.2-5.2,5.55,5.55,0,0,1,.6-.8,9.49,9.49,0,0,1,4.8-3.3,7.8,7.8,0,0,1,5.8.5,6.73,6.73,0,0,1,1.1.7,7.55,7.55,0,0,1,2.8,4c0-.3-.1-.6-.1-.8A7.69,7.69,0,0,0,50.26,654.13Z"/><path class="cls-1" d="M85.36,557.33l-53.8,20.4a1.05,1.05,0,0,1-1.3-.4c0-.1-.1-.1-.1-.2h0a1.35,1.35,0,0,1,.9-1.5l53.8-20.7a1,1,0,0,1,1.3.5c0,.1.1.2.1.3h0A1.62,1.62,0,0,1,85.36,557.33Z"/><path class="cls-6" d="M113.06,578.63c-25.7,40.6-54.7,79.2-88.2,113.9.2,2.2.4,4.3.7,6.5,33.6-34,62.8-72,88.6-112.1C113.76,584.13,113.46,581.43,113.06,578.63Z"/><path class="cls-6" d="M123.56,743.33c.1-14.9-.2-29.7-.6-44.6-13.5,15.8-27.7,31-42.6,45.4l41.2,1.5a2,2,0,0,0,2-2.3Z"/><path class="cls-7" d="M89.36,569.63c-20.6,30.3-38.7,55.5-68.8,87.9-2.1-15.3-4.6-30.5-7.4-45.7a220.93,220.93,0,0,0,20.6-22.7C54.86,581.83,68.26,577,89.36,569.63Z"/><path class="cls-1" d="M144.86,384.23l-3.1-1a9.87,9.87,0,0,1-3.1-1.5c-7.7-3.3-8.8-18.7-9.7-25.9-5.9-33.6-22.1-65.8-35.5-96.9,7.5-7.2-3.6-17.6-6.9-24.1a1.7,1.7,0,0,1,.1-.7c3.4-2.7.9-6.5-2.6-8.7-7.1-1.9-18,3.5-24.6,5.9-7.1,2.6-17.6,5.3-22.7,10.3-1.8,1.9-2.3,5.1-1.4,6.7,2.2.5,2.4,1.3,2.5,1.7-.3,5.2-3.2,21.3,4.9,22.4a520.79,520.79,0,0,0,12.8,64.2c3.5,13.3,6.9,27.5,13.5,39.7,0,0,2.7,4.9,3.9,6.9,2.9,5.7,9.7,15.8,5.2,22.5l-1,1.2-.3.3h0c-11.4,14.4-10.3,31.7-5.8,48.2,15.9,38.3,30,77.3,45,116,7.6,19.2,27.4,32.5,48.7,26.2,23.2-6.9,45.8-28.3,43.8-53.3-8.7-42-18.6-83.4-29.7-124.8C172.46,404,162.26,389.13,144.86,384.23Z"/><path class="cls-1" d="M144.86,384.23l-3.1-1a9.87,9.87,0,0,1-3.1-1.5c-7.7-3.3-8.8-18.7-9.7-25.9-5.9-33.6-22.1-65.8-35.5-96.9,7.5-7.2-3.6-17.6-6.9-24.1a1.7,1.7,0,0,1,.1-.7c3.4-2.7.9-6.5-2.6-8.7-6.9-1.5-18.3,2.7-24.9,5.1-7.1,2.6-17.3,6.1-22.4,11.1-1.8,1.9-2.3,5.1-1.4,6.7,2.2.5,2.4,1.3,2.5,1.7-.3,5.2-3.2,21.3,4.9,22.4a520.79,520.79,0,0,0,12.8,64.2c3.5,13.3,6.9,27.5,13.5,39.7,0,0,2.7,4.9,3.9,6.9,2.9,5.7,9.7,15.8,5.2,22.5l-1,1.2-.3.3h0c-11.4,14.4-10.3,31.7-5.8,48.2,15.9,38.3,30,77.3,45,116,7.6,19.2,27.4,32.5,48.7,26.2,23.2-6.9,45.8-28.3,43.8-53.3-8.7-42-18.6-83.4-29.7-124.8C172.46,404,162.26,389.13,144.86,384.23Z"/><path class="cls-2" d="M168.86,590.53c-1.8.7-3.6,1.4-5.5,2a31,31,0,0,1-24.7-3,40.25,40.25,0,0,1-16.8-19.8c-5-12.9-10-26.1-14.9-38.8-9.6-25.3-19.5-51.4-30.1-76.9-5-18.7-3.5-32.3,4.8-42.6l.1-.1.1-.2c.3-.4.6-.7.9-1.1.2-.2.3-.4.5-.6,5.9-8.7.3-19.1-3.4-25.9-.5-.9-.9-1.7-1.3-2.5l-.1-.3c-1.1-1.9-3.6-6.4-3.8-6.8-5.8-10.8-9.1-23.5-12.3-35.7l-.7-2.7c-1.8-7-3.6-14.1-5.1-21,.3-6.2,44.8-23.9,47.7-16.4,7.4,17.5,15.4,38,19.2,59.1.1.5.1,1.1.2,1.7,1,8.9,2.7,23.6,12.4,28.3a16.85,16.85,0,0,0,4.3,2c1.3.4,2.9.9,3,.9l.2.1c12.9,3.6,22.8,14,30.2,31.7,11.1,41.3,21,83,29.5,123.7.8,11.4-4.5,20.7-9.1,26.5A63.91,63.91,0,0,1,168.86,590.53Z"/><path class="cls-3" d="M135.66,574.63c-20.8-39.3-93.7-156-36-174.6-23.4-3.1-64-107.7-40.3-132.1-11.2,0-6.6-15.3-6.2-20.6-.1-.4-.3-1.4-2.5-1.9-2.7-4.4,6.9-7.5,10.1-9.7A98.1,98.1,0,0,1,82,225c-6.9-.2-16.4,3.2-22.2,5.4-7.3,2.7-17.5,6.1-22.5,11.1-1.8,1.8-2.3,5.1-1.4,6.7,2.2.5,2.4,1.3,2.5,1.7-.3,5.2-3.2,21.3,4.9,22.4a520.79,520.79,0,0,0,12.8,64.2c3.5,13.3,6.9,27.5,13.5,39.7,0,0,2.7,4.9,3.9,6.9,2.9,5.7,9.7,15.8,5.2,22.5l-1,1.2-.3.3h0c-11.4,14.4-10.3,31.7-5.8,48.2,15.9,38.3,30,77.3,45,116,7.6,19.2,27.4,32.5,48.7,26.2a67.51,67.51,0,0,0,10.8-4.3C160,592.33,145.86,594.33,135.66,574.63Z"/><path class="cls-1" d="M83.16,249.53a11.21,11.21,0,0,1-5.5,9.6,2.54,2.54,0,0,1-3.4-.7,57.15,57.15,0,0,0-5.6-11.7c-.4-.6.3-2.1,1.6-2.5l7.3-2.2a2.33,2.33,0,0,1,2.7.8l2.8,5.9C83.06,249,83.16,249.23,83.16,249.53Z"/><path class="cls-1" d="M77.86,235.33a44.06,44.06,0,0,1-8,3.5c-1.1.4-2.8.6-3.1-.4l-.1-.1a1.74,1.74,0,0,1,1.3-2.1,91,91,0,0,0,8.5-3.7,1.88,1.88,0,0,1,2.5.6v.1A1.83,1.83,0,0,1,77.86,235.33Z"/><path class="cls-1" d="M199,548.33l.3-.1c1.7-.6,3-1.8,2.3-4.3l-31.2-119.4a4.61,4.61,0,0,0-5.7-3.2h0l-.3.1a4.63,4.63,0,0,0-3.3,5.7L196.66,545C197.36,547.53,198,548.43,199,548.33Z"/><path class="cls-1" d="M122.76,378.43l.2-.1a3.63,3.63,0,0,0,2.6-3.6q-2.25-37.65-29.9-98.5a3.65,3.65,0,0,0-4.3-1.9h0a3.46,3.46,0,0,0-2.4,4.4c0,.2.1.3.2.5,15.4,33.5,25.3,65.7,29.2,96.3a3.52,3.52,0,0,0,4,3C122.26,378.63,122.56,378.53,122.76,378.43Z"/><path class="cls-1" d="M137.56,388.33c-.6-.2-3.9.2-5,1.6h0c-1.4,1.7,1.6,3.1,2.3,3.3,12.2,3.2,15.8,8,19.9,17.9.7,1.8,3.2,1.5,4.6-.2l.1-.1h0a5.17,5.17,0,0,0,.5-5.1A25.37,25.37,0,0,0,137.56,388.33Z"/><path class="cls-1" d="M208.26,524.23c-11.8,16.1-30.1,36.2-50.6,41.5-18.1,4.7-35.9-4.8-51.3-12.5-11.4-28.8-22.6-57.4-34.4-85.8,20.5,2.8,42.8,3.2,63-2.9,18.5-5.6,35.7-18,49.7-30.8C193.16,463.63,201.16,493.73,208.26,524.23Z"/><ellipse class="cls-8" cx="90.27" cy="492.55" rx="23.2" ry="22.6" transform="translate(-179.85 70.9) rotate(-22.26)"/><ellipse class="cls-8" cx="93.66" cy="484.17" rx="10.4" ry="10.1" transform="translate(-176.42 71.56) rotate(-22.26)"/><ellipse class="cls-8" cx="81.28" cy="501.36" rx="6" ry="5.8" transform="translate(-183.85 68.15) rotate(-22.26)"/><ellipse class="cls-8" cx="174.99" cy="469.55" rx="23.2" ry="22.6" transform="translate(-164.82 101.27) rotate(-22.26)"/><ellipse class="cls-8" cx="178.47" cy="461.13" rx="10.4" ry="10.1" transform="translate(-161.37 101.97) rotate(-22.26)"/><ellipse class="cls-8" cx="166.28" cy="479.25" rx="6" ry="5.8" transform="translate(-169.15 98.7) rotate(-22.26)"/><path class="cls-1" d="M166.66,499.23c-18.3,7.5-36.2,11.2-55.5,15.1a3.07,3.07,0,0,0-2.3,3.7,2.47,2.47,0,0,0,.4.9c5.5,8.7,14.1,16.8,24.4,18.9-2.8-7.3,3.7-16.8,14.6-21.3,6.9-2.8,13.9-3,18.9-.9a61.08,61.08,0,0,0,3.3-13.4,2.73,2.73,0,0,0-2.2-3.2,1.84,1.84,0,0,0-1.6.2Z"/><path class="cls-1" d="M133.56,537.93a25.53,25.53,0,0,0,10.3.1c11.7-2.2,19.2-11.7,23.3-22.3-5-2.1-12.1-1.9-18.9.9C137.26,521.13,130.76,530.63,133.56,537.93Z"/><path class="cls-1" d="M39.56,240.93c0-.8,7.9-5.6,19.1-9.5s21.1-5.7,21.7-4.6c.7,1.4-8.2,5.7-19.5,9.6S40.06,242.33,39.56,240.93Z"/><path class="cls-1" d="M42,239.93c-.3-.7,7.9-4.8,16.3-7.7,9.5-3.3,17.9-5,18.3-3.9s-8.4,4.8-16.7,7.6S42.46,241,42,239.93Z"/><path class="cls-9" d="M87.86,306.13c-2.2.9-4.5,1.9-6.9,2.7a157.88,157.88,0,0,1-16.5,5.2c-5.2,1.2-7.9,1.3-8.2.1-.6-2.1,6.8-6.2,21.9-12.3,10.5-4.3,20.5-6.9,23.7-6.2a1.23,1.23,0,0,1,1.1.8h0c.3,1.2-1.8,3-6.2,5.5C94.26,303.23,91.26,304.73,87.86,306.13Zm-13.9-.8c-13,5.5-16.3,8.1-16.1,8.8.1.4,1.9.5,6.8-.8,5.5-1.5,10.9-3.3,16.2-5.3a124.19,124.19,0,0,0,15.4-6.8c4.3-2.3,5.6-3.6,5.5-4.1h0c0-.1-.2-.2-.5-.3-2.4-.4-11.4,1.9-22.4,6.4C77,304,75.36,304.73,74,305.33Z"/><path class="cls-1" d="M217.86,132.13h0c-.1,0-.2-.1-.3-.2l-.5-.2h0c-16.4-8.3-30.5-19.4-43.7-31.6h0c-8.8-8.2-17.2-16.8-25.5-25.6a221.38,221.38,0,0,0-21.4-20.1c-12.5-10-26.2-17.3-43.7-19.8-2.1-.3-1.2-5.3-.4-8v-.2c2.3-2,3.4-2.9,5.7-4.8,12.4-7.5,24.5-12.9,37.1-15.8h0a85.24,85.24,0,0,1,8.8-1.6h0a98.67,98.67,0,0,1,33.4,1.2l4.2.9c7.1,1.7,14,3.4,20.7,5,2.8.7,5.5,1.3,8.3,1.9,2.3.5,4.7,1,7.1,1.4a161,161,0,0,0,35.1,3l1.8.1h0v.1h0a32.64,32.64,0,0,0-1.8,6.3q-11.7,51-23.2,102.2l-.1.4h0A36.81,36.81,0,0,0,217.86,132.13Z"/><path class="cls-1" d="M233.56,93.33a203.93,203.93,0,0,1-14,33.8l-.8-.4h-.1c-15.1-7.6-28.2-17.5-40.8-28.7-1.2-1.2-2.5-2.3-3.7-3.5-9.1-8.8-17.8-18.1-26.5-27.3A204.45,204.45,0,0,0,127,47.93c-12.7-9.9-26.5-17-44.5-19.7-.6-.1-.8-.7-.6-1.4v-.2a4.52,4.52,0,0,1,1.6-2.2c13.2-9.1,26.5-16.5,42-21,2.8-.6,5.6-1.1,8.4-1.6a104.05,104.05,0,0,1,32,.1c9.2,1.6,18,3.6,26.8,5.3,16.6,3.2,33,5.8,50.8,4.7V12c.1,2,.1,3.9.2,5.8h0a246.67,246.67,0,0,1-3.3,47A214.74,214.74,0,0,1,233.56,93.33Z"/><path class="cls-1" d="M247,127.63a12.13,12.13,0,0,1-2.5,4.1c-2,1.4-2.6,1.8-4.4,2.1-7.2,1.2-16.2,1-23-2.1-.3-.2.6-2.1,1.9-5.2,2.4-5.6,4.6-11.3,6.5-17a417.44,417.44,0,0,0,16.9-76.6c.9-6.9-1-16.3,1.4-21.1,2.6-5.2,18.5-3,21.6,3.4,6.8,13-.9,38.3-3.2,51.7C258.66,87.23,255.16,108.93,247,127.63Z"/><path class="cls-10" d="M222.56,126.43c-.9-.5.6-3.7.8-4,2.4-5.5,4.1-7.9,5.8-13.3a424.15,424.15,0,0,0,17.1-77.2,57.79,57.79,0,0,0,.2-9.3c0-2-.1-4,0-5.8a6.39,6.39,0,0,1,6.5-6h.2a19.81,19.81,0,0,1,4.1.8c2.9.9,5.1,2.2,5.7,3.6a.1.1,0,0,0,.1.1c5,9.4,1.1,27.5-1.8,40.8-.7,3.2-1.3,6.2-1.8,8.8L259,68c-3.4,19.4-6.9,39.4-14.5,56.8-.2.5-.4.9-.6,1.3-.5,1-.4.8-1.3,1.4a3.29,3.29,0,0,1-1.6.7C234.66,129.13,223.06,127.23,222.56,126.43Z"/><path class="cls-1" d="M236.06,46.53A19.41,19.41,0,0,1,212.76,61a25.82,25.82,0,0,1-2.6-.8c-11.8-4.7-17.6-18.9-14.4-30.8,3-11.3,14.6-15.3,24.7-10.5S238.56,35.13,236.06,46.53Z"/><path class="cls-11" d="M176.46,96.13c-8.8-8.2-16.3-16.5-24.7-25.2-7-7.4-15.7-16.4-23.1-22.3,8.1-28.6,9-41,5.9-47a104.05,104.05,0,0,1,32,.1c9.2,1.7,18,3.6,26.8,5.3C190.86,40,187.76,67.43,176.46,96.13Z"/><path class="cls-1" d="M166.66,21.13a19.34,19.34,0,0,1-20.4,13.6,23.91,23.91,0,0,1-7-1.7,23.48,23.48,0,0,1-8.6-6,22.89,22.89,0,0,1-5.4-21.2c.2-.6.3-1.2.5-1.8l.3-.9c2.8-.6,5.6-1.1,8.4-1.6a104.05,104.05,0,0,1,32,.1c.4,1.2.7,2.5,1,3.7a32.81,32.81,0,0,1-.1,13.6Z"/><path class="cls-1" d="M190.26,85.13a18,18,0,0,1-12,12.8c-10.5-9.9-20.3-20.3-30.1-30.8a16.66,16.66,0,0,1,.8-3c3.8-11.6,16.2-17.3,26.9-10.7C186.06,59.63,193.36,73.13,190.26,85.13Z"/><path class="cls-1" d="M154.66,40.13c-8-1.4-13-10.4-12.4-17.7.5-6.6,6.9-15.6,14.8-13.6,7.6,2,12,11.4,11.6,18.9C168.36,34.93,162.16,41.43,154.66,40.13Z"/><path class="cls-1" d="M158.06,25c-2.8-.6-5-3.8-4.7-7.2s2.8-5.7,5.6-5.1,4.8,4,4.6,7.4S160.86,25.63,158.06,25Z"/><path class="cls-1" d="M148.46,29.33a3.07,3.07,0,0,1-2.4-3.4,2.67,2.67,0,0,1,2.9-2.7,3.17,3.17,0,0,1,2.4,3.5A2.54,2.54,0,0,1,148.46,29.33Z"/><path class="cls-1" d="M205,42.63c-8.1-1.2-12.5-10.5-12.5-17.7,0-6.7,5.3-13.6,12.5-11.4,6.8,2.1,12.6,9.5,12.8,16.9C217.76,37.43,212.26,43.73,205,42.63Z"/><path class="cls-1" d="M207,28.63c-2.7-.5-4.9-3.6-4.9-6.9s2.2-5.2,4.9-4.5a7.27,7.27,0,0,1,5,6.7C212.06,27,209.66,29.13,207,28.63Z"/><path class="cls-1" d="M198.26,32.43a3.52,3.52,0,0,1-2.4-3.5,2.08,2.08,0,0,1,2.5-2.3,3.67,3.67,0,0,1,2.4,3.5A2.08,2.08,0,0,1,198.26,32.43Z"/><path class="cls-1" d="M174.46,49.63h0c-2.2-3.3-.7-7.7,2.5-7.4,6.1.5,12.2.9,18.3,1.3,3.2.1,5.7,4.3,4.3,7.3h0C194.26,62.33,180.06,58.43,174.46,49.63Z"/><path class="cls-12" d="M247,127.63a12.13,12.13,0,0,1-2.5,4.1c-2,1.4-2.6,1.8-4.4,2.1-7.2,1.2-16.2,1-23-2.1-.3-.2.6-2.1,1.9-5.2C226.06,130.73,239.76,131.63,247,127.63Z"/><path class="cls-1" d="M326.36,478a7.86,7.86,0,0,0-6.9-6.4l-97-9.9a7.74,7.74,0,0,0-8,4.8L94.86,771.13,382,800.43Z"/><path class="cls-13" d="M319.86,794.13l-182-18.5,78.7-301a9.5,9.5,0,0,1,10.2-7l81.3,8.3a9.59,9.59,0,0,1,8.6,9.3Z"/><path class="cls-1" d="M302.86,500.13l-5.8,57.3c-2.6,25.3-24.2,43.8-48.3,41.3-23.7-2.4-40.9-24.2-39.1-48.9,0-.4.1-.9.1-1.3l5.8-57.3C244.66,488,273.76,491.33,302.86,500.13Z"/><path class="cls-14" d="M293.26,526.13c-3.9,38.3-20.9,68-51.7,64.8-15-1.5-25.1-15.3-30.4-35.1l-.9-11.1,4.2-41.3c25.9-3.3,52.3-.7,79,6.5A79.84,79.84,0,0,1,293.26,526.13Z"/><path class="cls-1" d="M296.06,486.53l-16.9-1.7-48.7-5-5.3-.5h0a8.08,8.08,0,0,0-8.9,7.2l-.5,5.2-1.2,11.7c25.9-3.3,52.3-.7,79,6.5,2.7.7,5.4,1.5,8.2,2.3l1.7-16.9h0A8.24,8.24,0,0,0,296.06,486.53Z"/><ellipse class="cls-15" cx="223.09" cy="512.68" rx="3.9" ry="4" transform="translate(-309.56 682.63) rotate(-84.18)"/><ellipse class="cls-15" cx="260.7" cy="519.86" rx="3.9" ry="4" transform="translate(-282.92 726.5) rotate(-84.18)"/><path class="cls-1" d="M233.66,508.43l-15-7.4a1.78,1.78,0,0,1-.8-2.2h0l.7-1.5a1.64,1.64,0,0,1,2.2-.7h0l15,7.4a1.64,1.64,0,0,1,.7,2.2h0l-.7,1.5a1.5,1.5,0,0,1-2.1.7Z"/><path class="cls-1" d="M249.86,510.43l16.2-4.2a1.58,1.58,0,0,0,1.2-1.9h0l-.4-1.6a1.64,1.64,0,0,0-2-1.2h0l-16.2,4.2a1.58,1.58,0,0,0-1.2,1.9h0l.4,1.6a1.51,1.51,0,0,0,2,1.2Z"/><path class="cls-1" d="M249.06,533a1.17,1.17,0,0,1-1-.9c-.8-3-3.9-6.2-9.2-6.7-7.4-.8-9.2,2.4-10.4,4.8a1.19,1.19,0,0,1-2.1-1.1V529h0c1.3-2.4,3.7-6.9,12.7-6,6.5.7,10.3,4.8,11.3,8.5a1.09,1.09,0,0,1-.9,1.4h0A.6.6,0,0,1,249.06,533Z"/><path class="cls-1" d="M226.26,555.23a1.23,1.23,0,0,1,1,.5c.8,1.6,3.9,3.4,8.9,3.9,7,.7,8.4-.9,9.5-2a1.6,1.6,0,0,1,1.5-.2c.5.2.8.6.5.8-1.1,1.2-3.1,3.4-11.6,2.6-6.1-.6-9.8-2.9-10.9-4.9-.2-.3.2-.6.7-.7Z"/><path class="cls-1" d="M223.36,561.33a2,2,0,0,1,1.4.6c1.1,1.9,5.2,4.2,12,4.9,9.4,1,11.4-1,12.8-2.4a2.33,2.33,0,0,1,2-.2c.7.2,1.1.7.7,1-1.5,1.5-4.2,4.2-15.6,3-8.2-.8-13.3-3.7-14.7-6.1-.2-.4.2-.8,1-.8Z"/><path class="cls-1" d="M310.26,683.13l-7,4.4a7,7,0,0,1-9.6-2.1h0a6.82,6.82,0,0,1,2-9.5l.1-.1,6.9-4.5a7.05,7.05,0,0,1,9.6,2.1h0a7.25,7.25,0,0,1-2,9.7Z"/><path class="cls-1" d="M307.26,676.73v.6a12.91,12.91,0,0,1-12.3,13.6h-.1l-17.3.9a7.29,7.29,0,0,1-7.7-6.9l-.4-6.3a7.26,7.26,0,0,1,6.9-7.6h0l23-1.2a7.54,7.54,0,0,1,7.9,6.9Z"/><polygon class="cls-1" points="172.76 666.23 169.36 637.23 305.06 621.93 309.36 658.53 172.76 666.23"/><path class="cls-1" d="M175.26,637.73l.9,8a.54.54,0,0,0,.7.5h.2a.67.67,0,0,0,.6-.7h0l-.9-8a.22.22,0,0,0-.2-.2h0l-1.1.1C175.36,637.53,175.26,637.63,175.26,637.73Z"/><polygon class="cls-16" points="307.16 657.03 305.76 644.43 173.56 656.43 174.46 664.33 307.16 657.03"/><path class="cls-1" d="M235.16,630.63l1.7,14.8c0,.4.4.6.8.6h.1a.66.66,0,0,0,.6-.7l-1.7-14.8Z"/><path class="cls-1" d="M201.66,633.63l1.7,14.8c0,.4.4.6.8.6h.1a.66.66,0,0,0,.6-.7l-1.7-14.8Z"/><path class="cls-1" d="M271.66,626.83l1.7,14.8c0,.4.4.6.8.6h.1a.67.67,0,0,0,.6-.7h0l-1.7-14.8Z"/><path class="cls-1" d="M253.36,628.63l1.3,11.2c.1.4.4.7.8.6h0c.4-.1.7-.4.6-.8l-1.3-11.2a.22.22,0,0,0-.2-.2h0l-1.1.1c0,.1-.1.2-.1.3Z"/><path class="cls-1" d="M218.46,632.43l1.3,11.2a.64.64,0,0,0,.8.6h0a.77.77,0,0,0,.7-.8h0l-1.3-11.2a.22.22,0,0,0-.2-.2h0l-1.1.1c-.1.1-.2.2-.2.3Z"/><path class="cls-1" d="M184.66,636.23l1.3,11.2a.64.64,0,0,0,.8.6h0a.68.68,0,0,0,.7-.7v-.1h0l-1.3-11.2a.22.22,0,0,0-.2-.2l-1.1.1c-.1.1-.2.2-.2.3Z"/><path class="cls-1" d="M290.16,624.53l1.3,11.2c.1.4.4.7.8.6h0a.56.56,0,0,0,.6-.7v-.1h0l-1.3-11.3a.22.22,0,0,0-.2-.2h0l-1.1.1a.76.76,0,0,0-.1.4Z"/><path class="cls-1" d="M262.36,627.23l.9,8a.67.67,0,0,0,.7.6h.2a.54.54,0,0,0,.5-.7h0l-.9-8c0-.1-.1-.2-.2-.1l-1.1.1C262.46,627,262.36,627.13,262.36,627.23Z"/><path class="cls-1" d="M227.46,631.43l1,8a.67.67,0,0,0,.7.6h.2a.67.67,0,0,0,.6-.7h0l-.9-8a.22.22,0,0,0-.2-.2h0l-1.1.1c-.2,0-.3.1-.3.2Z"/><path class="cls-1" d="M193.66,635.33l.9,8a.54.54,0,0,0,.7.5h.2a.67.67,0,0,0,.6-.7h0l-.9-8a.22.22,0,0,0-.2-.2l-1.1.1c-.1.1-.2.2-.2.3Z"/><path class="cls-1" d="M299.16,623.43l.9,8a.67.67,0,0,0,.7.6h.2a.54.54,0,0,0,.5-.7h0l-.9-8a.22.22,0,0,0-.2-.2l-1.1.1A.35.35,0,0,1,299.16,623.43Z"/><path class="cls-1" d="M244,629.63l.9,8a.54.54,0,0,0,.7.5h.2a.67.67,0,0,0,.6-.7h0l-.9-8a.22.22,0,0,0-.2-.2l-1.1.1C244.06,629.53,244,629.53,244,629.63Z"/><path class="cls-1" d="M209.06,633.63l.9,8a.54.54,0,0,0,.7.5h.2a.67.67,0,0,0,.6-.7h0l-.9-8a.22.22,0,0,0-.2-.2l-1.1.1c-.1.1-.2.2-.2.3Z"/><path class="cls-1" d="M280.76,625.93l.9,8a.54.54,0,0,0,.7.5h.2a.54.54,0,0,0,.5-.7l-.9-8a.22.22,0,0,0-.2-.2h0l-1.1.1A.37.37,0,0,0,280.76,625.93Z"/><path class="cls-1" d="M164,663.13l-3.2-27.5a7.22,7.22,0,0,1,6.4-8h0l30.2-3.4,4,34.7Z"/><path class="cls-17" d="M257,524.43c.6,1.9,4.2,5.1,6.2,4.9"/><path class="cls-17" d="M217.86,520.53c2,.6,6.6-.8,7.5-2.5"/></g></g></svg>