<svg xmlns="http://www.w3.org/2000/svg" viewBox="0 0 391.82 801.05"><defs><style>.cls-1,.cls-10,.cls-11,.cls-12,.cls-13,.cls-14,.cls-15,.cls-16,.cls-2,.cls-3,.cls-4,.cls-5,.cls-6,.cls-7,.cls-8,.cls-9{fill:none;}.cls-1,.cls-10,.cls-11,.cls-13,.cls-14,.cls-15,.cls-16,.cls-2,.cls-3,.cls-4,.cls-5,.cls-6,.cls-7,.cls-8,.cls-9{stroke:#000;}.cls-1,.cls-10,.cls-13,.cls-15,.cls-2,.cls-3,.cls-4,.cls-5,.cls-6,.cls-8,.cls-9{stroke-miterlimit:10;}.cls-1,.cls-13,.cls-15,.cls-2,.cls-3,.cls-4,.cls-5,.cls-6,.cls-7,.cls-8{stroke-width:0.68px;}.cls-13,.cls-15,.cls-2,.cls-3,.cls-4,.cls-5,.cls-6{isolation:isolate;}.cls-2{opacity:0.4;}.cls-3{opacity:0.8;}.cls-4{opacity:0.3;}.cls-5{opacity:0.5;}.cls-6{opacity:0.31;}.cls-7,.cls-8{stroke-linecap:round;}.cls-7{stroke-linejoin:round;}.cls-9{stroke-width:0.25px;}.cls-10{stroke-width:0.34px;}.cls-11{stroke-miterlimit:10;stroke-width:0.68px;}.cls-13{opacity:0.2;}.cls-14{stroke-miterlimit:10;stroke-width:0.68px;}.cls-15{opacity:0.08;}.cls-16{stroke-miterlimit:10;stroke-width:0.68px;}</style></defs><g id="Layer_2" data-name="Layer 2"><g id="Layer_1-2" data-name="Layer 1"><path class="cls-1" d="M275.08,401.11c.3,11.6-17,16.4-26.5,18.9a297.39,297.39,0,0,1-73.9,9.7c-24.1,0-49.8-.1-73.7-5.3q-2.25-.45-5.1-1.2c-10.3-.4-20.7-1.3-31.1-2.6a1.94,1.94,0,0,1-1.4-.9c-.1-.1-.1-.2-.1-.4v-35c0-.6.7-1,1.5-.9a383.31,383.31,0,0,0,38.6,2.9c16.8-4.8,35.2-6.4,52.9-7,4.6-.2,9.1-.3,13.6-.4,23.4-.4,48.4-.8,69.2,2.6C248.08,383,274.68,390.21,275.08,401.11Z"/><path class="cls-1" d="M147.88,389.41a1.16,1.16,0,0,0-.8-1.5H147l-.5-.1-27.8-7.3-.5-.1a1.18,1.18,0,0,0-1.5.9v.1l-3.8,19.2a3,3,0,0,0,2.4,3.5,3.86,3.86,0,0,0,2.1-.3l12-7,7,12a3.08,3.08,0,0,0,4.2,1,2.93,2.93,0,0,0,1.3-1.6Z"/><path class="cls-1" d="M221.08,382.41a1.11,1.11,0,0,0-1.3-1.1h-.1l-.6.1-28.6,3.4-.6.1a1.32,1.32,0,0,0-1.1,1.4v.1l3.5,19.3a3,3,0,0,0,3.5,2.4,2.65,2.65,0,0,0,1.8-1.1l8.6-11,10.9,8.6a3,3,0,0,0,4.2-.6,3.61,3.61,0,0,0,.6-2Z"/><path class="cls-1" d="M140.88,295.71l-13-3.6c-58.5-16.9-92.7-75.9-76.4-131.8a176.88,176.88,0,0,1,9.4-24.5l18.9,12.7,3.6-50.1-45.3,22,19.5,13.1a167.47,167.47,0,0,0-14.5,33.9c-16.2,55.9,18,114.9,76.5,131.7,7.4,2.1,13.9,3.9,19.9,5.1Z"/><polygon class="cls-1" points="148.48 382.91 148.48 391.91 140.08 385.91 136.28 389.71 131.28 383.51 122.68 386.71 121.88 381.41 114.28 383.61 118.88 378.41 150.78 289.21 167.08 291.71 148.48 382.91"/><polygon class="cls-1" points="219.58 378.41 222.58 383.61 213.48 382.11 211.28 387.41 205.18 382.91 197.58 389.71 196.78 384.31 187.78 388.91 189.28 382.11 182.18 284.31 203.38 281.91 219.58 378.41"/><path class="cls-1" d="M245.28,270.71l-.9.4a16.79,16.79,0,0,1-21.9-8.8L204,218.91a16.64,16.64,0,0,1,8.8-21.8l.9-.4a16.79,16.79,0,0,1,21.9,8.8l18.5,43.3A16.76,16.76,0,0,1,245.28,270.71Z"/><path class="cls-1" d="M212.28,309.11l15.2-76.8c9.8-28.9,17.9-41.6-42.5-47.5h-24.5c-77.5,15.2-52.2,18.6-42.5,47.5l12.2,36.3C133.08,344.41,205.48,340.31,212.28,309.11Z"/><path class="cls-1" d="M212.28,311.61l15.1-76.2c.1-.4.2-.7.3-1,9.7-28.5,17.3-41.1-42.2-47h-24a8.75,8.75,0,0,0-1.6.2c-76.5,15.1-51.4,18.6-41.7,47.4l11.9,35.2a8.52,8.52,0,0,1,.4,2.3C133.78,346.81,205.48,342.51,212.28,311.61Z"/><path class="cls-1" d="M98.28,285.31h0A20.92,20.92,0,0,1,84,259.41l13-45.2a21.13,21.13,0,0,1,26.1-14.3h0a21,21,0,0,1,14.4,26h0L124.38,271A21.31,21.31,0,0,1,98.28,285.31Z"/><path class="cls-1" d="M253.68,297.81l-2.4.8a15.93,15.93,0,0,1-20-9.9l-9.2-27.4a15.82,15.82,0,0,1,9.9-19.9l2.4-.8a15.8,15.8,0,0,1,20,9.9l9.2,27.4A15.74,15.74,0,0,1,253.68,297.81Z"/><ellipse class="cls-1" cx="153.38" cy="229.51" rx="25.4" ry="25.3"/><ellipse class="cls-1" cx="155.08" cy="225.81" rx="25.4" ry="25.3"/><ellipse class="cls-1" cx="206.38" cy="230.71" rx="23.9" ry="23.8"/><ellipse class="cls-1" cx="204.78" cy="227.21" rx="23.9" ry="23.8"/><path class="cls-1" d="M205,87.21a2,2,0,0,0-1,2.2c.7,3.3,5.3,9.6,11.9,15.9s13.2,10.7,16.5,11.2a2,2,0,0,0,2.2-1.1h0l20.3-44.3c1.7-3.6-2.7-7.8-6.2-6Z"/><path class="cls-2" d="M204.28,105.71c-5.4-5.7-7.4-9.6-7.6-12.6-.1-.8,2.2-2.2,3-2.6h0L243,68.71c2-1,5.9-3.4,6.9-1.9C250.48,67.91,211.18,99.51,204.28,105.71Z"/><ellipse class="cls-1" cx="176.28" cy="143.81" rx="61.7" ry="61.4"/><ellipse class="cls-1" cx="165.28" cy="130.81" rx="16.6" ry="16.5"/><circle class="cls-1" cx="170.38" cy="126.71" r="6.4"/><circle class="cls-1" cx="157.78" cy="136.71" r="3.2"/><ellipse class="cls-1" cx="224.48" cy="127.81" rx="16.6" ry="16.5"/><circle class="cls-1" cx="229.58" cy="123.71" r="6.4"/><circle class="cls-1" cx="216.98" cy="133.81" r="3.2"/><path class="cls-3" d="M123.28,139.81c1.7-21.3,6.7-39.2,23.3-50.2a61.49,61.49,0,1,0,63.3,105.3c-8.7,4.6-18.7,8.9-29.2,7.3C129.38,194.11,121.78,158.61,123.28,139.81Z"/><path class="cls-1" d="M204.28,88.31s-15.9,3.4-42.4,11.2-44.5,14.9-44.5,14.9l1.1-10.5,4-34.4,2.3-19.8,4-34.4,1.7-14.5,6,7.1,14.3,17,8.2,9.8,14.3,17,8.1,9.7,14.3,17Z"/><polygon class="cls-1" points="173.38 51.61 118.18 104.31 122.18 69.61 158.98 34.51 173.38 51.61"/><path class="cls-1" d="M196,78.51l-14,13.4-.6.2-22.1,6.6-.8.2-23.1,6.9-.4.1,46.6-44.5Z"/><polygon class="cls-1" points="150.68 24.61 124.48 49.61 128.48 14.91 136.28 7.51 150.68 24.61"/><path class="cls-1" d="M214.28,161.51a91.92,91.92,0,0,1-9.5,14.4c-2.7,3.2-5.7,6.2-8.8,7.8-.4.4-2.4.7-2.8-.5a51,51,0,0,1-5.4-11c-2.4-6.9-1.7-11-1.7-11a2.75,2.75,0,0,1,1-1.6,17.61,17.61,0,0,1,7.1-2.4,46.16,46.16,0,0,1,7.4-.6,35.53,35.53,0,0,1,4.6.3,23.43,23.43,0,0,1,6.9,1.8l.4.2C214.48,159.51,215,160.61,214.28,161.51Z"/><path class="cls-1" d="M194.18,157.21l-2.8,9a1.2,1.2,0,0,1-1.5.8h0c-.4-.1-.6-.4-.8-.8l-2.1-6.6C188.38,158.51,191,157.71,194.18,157.21Z"/><path class="cls-1" d="M213.18,158.71l-2,6.5a1.2,1.2,0,0,1-1.5.8c-.4-.1-.6-.4-.8-.8l-2.6-8.3A27,27,0,0,1,213.18,158.71Z"/><path class="cls-1" d="M204.78,175.91c-2.7,3.2-5.7,6.2-8.8,7.8-.4.4-2.4.7-2.8-.5a51,51,0,0,1-5.4-11,12.61,12.61,0,0,1,4.2-1.6,19.53,19.53,0,0,1,2.3-.2,13.33,13.33,0,0,1,2.8.3A12.93,12.93,0,0,1,204.78,175.91Z"/><polygon class="cls-1" points="204.68 145.81 196.48 152.21 208.88 150.71 204.68 145.81"/><polygon class="cls-1" points="204.68 145.81 199.98 138.41 204.38 146.31 196.48 152.21 204.68 145.81"/><polygon class="cls-1" points="186.18 210.31 182.78 196.51 196.08 200.01 186.18 210.31"/><path class="cls-1" d="M163.88,272.71a23.48,23.48,0,0,1-2.5-1.9,13.75,13.75,0,0,0,3.8,3.8,12,12,0,0,0,16.5-3.9,3,3,0,0,0,.4-.8A14.13,14.13,0,0,1,163.88,272.71Z"/><path class="cls-1" d="M164.38,286.71a12,12,0,0,1-2.7-1.6,11.91,11.91,0,0,0,16.8,1.6,12.7,12.7,0,0,0,3.3-4.3c.1-.3.2-.5.3-.8A14.22,14.22,0,0,1,164.38,286.71Z"/><path class="cls-1" d="M202.38,273.71a13.25,13.25,0,0,0,2.5-1.6,10.34,10.34,0,0,1-4,3.2,11.45,11.45,0,0,1-15.3-5.1c-.1-.3-.2-.5-.3-.8A13.48,13.48,0,0,0,202.38,273.71Z"/><path class="cls-1" d="M201.88,286.81a13,13,0,0,0,2.6-1.4,11.39,11.39,0,0,1-16.1.8,11,11,0,0,1-2.9-4.2c-.1-.3-.2-.5-.3-.8A13.6,13.6,0,0,0,201.88,286.81Z"/><path class="cls-1" d="M117.18,317.81l-.5.2a16.82,16.82,0,0,1-21.2-10.5l-11.1-32.9A16.68,16.68,0,0,1,95,253.51l.5-.2a16.82,16.82,0,0,1,21.2,10.5l11.1,32.9a16.89,16.89,0,0,1-10.6,21.1Z"/><path class="cls-1" d="M178.78,347.71l1.5,23.2h42.9l-6.4-79.2s-30.1,21.1-83.9,0c-.5,5.4-27,79.6-27,79.8H172Z"/><polygon class="cls-1" points="179.78 347.71 185.58 339.11 188.58 370.31 181.48 370.31 179.78 347.71"/><path class="cls-1" d="M179.08,309.61c-20.8,0-39.6-6.5-47.1-10.9.3-.9.7-2.6,1.6-5.7,13.1,4.6,28.3,9.5,44.3,9.5,12.9,0,25.3-3,38-9.2l.6,7.7C205.68,306.61,193.18,309.61,179.08,309.61Z"/><polygon class="cls-1" points="144.38 306.01 142.98 305.61 145.58 296.61 146.98 297.01 144.38 306.01"/><polygon class="cls-1" points="208.88 305.61 207.48 306.01 205.38 296.91 206.78 296.61 208.88 305.61"/><circle class="cls-1" cx="183.98" cy="306.21" r="14.5"/><path class="cls-1" d="M193,296.91l-1.9,7.1,6.1,4.3a1.6,1.6,0,0,1,.4,2.2,1.52,1.52,0,0,1-1.2.7l-7.4.4-2.2,7.1a1.67,1.67,0,0,1-2,1.1h0a1.44,1.44,0,0,1-1-1l-2.8-6.9-7.4.1a1.58,1.58,0,0,1-1.6-1.6h0a1.61,1.61,0,0,1,.6-1.3l5.7-4.7-2.3-7a1.57,1.57,0,0,1,1-2,1.4,1.4,0,0,1,1.4.2l6.3,4,5.9-4.4a1.72,1.72,0,0,1,2.3.3,1.69,1.69,0,0,1,.1,1.4Z"/><polygon class="cls-1" points="131.78 300.61 108.58 368.81 121.98 369.31 131.78 300.61"/><path class="cls-4" d="M121.48,105h0a5,5,0,0,0,4.4,5.5,4.42,4.42,0,0,0,2-.2l12.8-5.3-9.1-86.5a.71.71,0,0,0-1.4,0Z"/><path class="cls-1" d="M147.78,101.91a2.36,2.36,0,0,1,1.2,2.4c-.5,3.4-5,9.9-11.6,16.2s-13.3,10.6-16.8,10.9a2.43,2.43,0,0,1-2.4-1.3h0l-24.5-48.5a4.63,4.63,0,0,1,2-6.1,4.47,4.47,0,0,1,4.2.1Z"/><path class="cls-5" d="M132.38,123.11c-5.4,5-9.2,6.7-12.2,6.8-.8,0-2.1-2.2-2.5-2.9h0l-21.3-42.5c-1-2-3.4-5.8-1.9-6.7C95.58,77.21,126.38,116.21,132.38,123.11Z"/><path class="cls-1" d="M169,495.81h0a2.69,2.69,0,0,0,.2,2.6l5.6,8.9a4.18,4.18,0,0,1,.4,1l1.3,7.6a2.7,2.7,0,0,0,1.4,2c9.2,4.9,66.7,28.8,78.6,31.2a2.55,2.55,0,0,0,2.6-.9l2-2.2a2.58,2.58,0,0,1,1.3-.8l14.2-4.1a2.65,2.65,0,0,0,1.9-1.8l1.8-5.6a2.77,2.77,0,0,0-1.8-3.5l-106-35.9A2.93,2.93,0,0,0,169,495.81Z"/><path class="cls-1" d="M321.38,402.71a31.25,31.25,0,0,0-3.7-19.9h0c.4-28.1-55.8-45.7-68.5-27.1a5.07,5.07,0,0,1-.9,1.6h0c-5.9,1.5-10.7,4.1-13.5,7.9l-65.7,130.4q55.2,21.9,108.8,45.2Z"/><path class="cls-6" d="M252.68,516.61h0a2.43,2.43,0,0,1-1.4-3.2L300,384.11c.5-1.3,1.5-3,2.9-2.4l2.2,1.7a2.57,2.57,0,0,1,1.5,3.2h0L256,515.21a2.43,2.43,0,0,1-3.3,1.4Z"/><path class="cls-7" d="M317.68,382.61c-.2-28.2-55-44.7-68.3-27.1,11.9-23.3,74.5-1.9,68.3,27.1Z"/><path class="cls-8" d="M248.38,357.21c19.8-7.8,61.3,11.1,69.4,25.4"/><path class="cls-1" d="M169,495.61l3.1-6.3c16.9,5.3,105.7,40.9,108,44.4l-2.3,7.1Z"/><path class="cls-6" d="M216,436.31c-1.4-.4-3.6-.9.3-10.6.1-.2,9.7-23.5,14.9-26.7,1.3-.8,4.7-.5,3.3,6.2-.8,3.6-11.2,32.6-18.5,31.1m16.9-38.6c-5.4-.2-22.8,35.5-18.9,39,7.4,6.7,22.3-27.1,22-35-.2-3.7-2.3-3.9-3.1-4m-20.1,43.4c-17.2-3.7,4.9-38.4,14.2-44.5,9.1-5.9,21.1-1.3,17.8,15-3,14.4-16.6,32.5-32,29.5m23.9-47.9c-17.6-2-35.4,38.5-29.6,46,8.1,10.5,35.8-3.4,39.1-29.4,1.5-11.1-4.2-15.9-9.5-16.6"/><path class="cls-6" d="M215.58,437.31c-2.1-.5-4-1.7-.5-10.7.1-.2,10.1-24.8,15.9-28.4,2.1-1.4,6.2-.5,4.5,7.2-.1.4-10.7,33.8-19.9,31.9m20.6-43.1c-17-1.9-33.9,37-28.3,44.2,7.7,9.8,33.9-3.8,37.2-28.5,1.4-10.6-3.6-15-8.9-15.7"/><path class="cls-7" d="M230,453.51l-.3-2.4c10.6-2.2,8.4-6,8.4-6a12.75,12.75,0,0,1-2.5-1.5,2.47,2.47,0,0,1-.6-1.8c.1-1.1,1.3-4.1,3.7-4.5,3.2-.6,9.4,2.6,4.4,10.2-2.4,3.4-6.3,5.3-13.1,6m11.9-17c-6.7-2.2-9.1,4.9-7.8,7.2a5.88,5.88,0,0,0,2.4,2,.69.69,0,0,1,.3.9c-.7,1-2.1,2.3-7,3.3a1.43,1.43,0,0,0-1.4,1.4c.5,3.6.5,3.6,4.3,3,7.4-1.2,9.9-4.4,10.7-5.4,2.1-2.5,5.7-9.7-1.5-12.4"/><path class="cls-6" d="M263.58,450.41c-1.2-.7-3.7-2.1-.5-11.1.1-.2,7.4-20.6,12.2-22,4.4-1.3,5.9,8.3-4.7,27.9-3.8,6.9-6.1,5.7-7,5.2m13.2-34c-5.9-3-18,26.8-16.1,32.4,0,.1,4.6,9.6,11.4-3.8,10.9-21.8,8.2-26.7,4.7-28.6m-16.1,37.9c-17.1-9.4-5.9-37.4,8.5-41.6,11.8-3.5,25.7,9.7,13.3,32.7-5.4,10.1-13.4,13.4-21.8,8.9m19.4-41.3c-16.7-9-32.8,17.2-28.4,32,3.5,11.8,21,20.4,31.4,1.7,8-14.4,6.7-28.2-3-33.7"/><path class="cls-6" d="M263.08,451.51c-2.2-1.3-4.2-3.7-1.4-11.8.1-.2,7.7-22.2,13.3-23.5,7.7-1.8,5.3,15.7-4.3,31.3-3.4,5.3-5.8,4.9-7.6,4m16.5-37.5c-15.7-8.5-30.9,16.6-26.8,30.7,3.2,11,19.5,18.8,29.4,1.2,7.6-13.6,6.6-26.8-2.6-31.9"/><path class="cls-9" d="M299.18,460.61c-.7-1.4,2.7-9,3.9-8.6,1.5.5-2.4,8.6-3.1,9.1a.69.69,0,0,1-.8-.5m4.5-9.2c-1.3-2.5-4.4,5.6-4.7,6.8-1.2,3.7.2,4.2.7,4,1.1-.8,4.8-9.1,4-10.8m-5.7,11.8c-2.3-4.6,2.8-15.7,5.4-14.6,3.4,1.5-1.9,14.6-4,15.5-.3.2-.8.2-1.4-.9m6.8-14.4c-1.9-3.8-5.2.4-7.1,6.4-2.2,6.9.1,10.7,1.4,10s7.1-13,5.7-16.4m-6.5-10.1c-.3-.3-1-1,.2-4,.5-1.1,1.9-4.4,3.4-4.6,0,0,1.8-.1,1.5,2.4a17.81,17.81,0,0,1-2.6,6.2c-.9,1.2-1.8.7-2.5,0m5.3-9c-3.4-3.3-6.6,5.8-6.6,7.8,0,2.2,2.1,4,3.7,2.5,1.5-1.3,4.8-8.2,2.9-10.3m-6.6,11.6c-5.3-5.6,0-15.3,3.9-15.1a5.65,5.65,0,0,1,4.7,5.3c.2,3.3-2.3,8.9-3.9,10.4-1.5,1.3-2.9,1.2-4.7-.6m-6.1,12.9a155.94,155.94,0,0,0,18.6-19.5l.2.4.2.4.1.4.1.4a136.21,136.21,0,0,1-17.6,19.6l-.4-.4-.4-.4-.4-.4-.4-.5m19.6-19c0-.1-.1-.2-.1-.4l-.1-.4-.2-.4-.2-.4-.1-.1c-.1,0-.2.1-.3.2-3.3,4-3.7,4.4-6.3,7.3,6.9-12,.2-17-3.6-15.9-5.5,1.7-8.8,14.3-1.4,18.4a2.57,2.57,0,0,0,2.4.3c-3.3,3.2-7,6-10.1,9.5a1.52,1.52,0,0,0,0,2l.4.4.4.4.4.4.4.4a.48.48,0,0,0,.7,0c10.2-10,18.3-19.9,17.8-21.5"/><path class="cls-10" d="M298.68,461.61c-1.2-2.6,3.3-11.2,4.6-10.7,1.9.6-2.3,10.4-3.6,11.3-.2.1-.6.2-1-.6m-.9-21.9c-.7-.8-1.4-2.2,0-5.6.8-2,2.5-5.3,4.4-5.1,4,.4.7,9-1.5,11.1a1.86,1.86,0,0,1-2.9-.4m12.1-3.5-.1-.4-.1-.4-.2-.4-.2-.4a154.31,154.31,0,0,1-18.5,19.4l.4.4.4.4.4.4.4.4a119.47,119.47,0,0,0,17.5-19.4"/><ellipse class="cls-11" cx="206.78" cy="472.81" rx="17.6" ry="17.8" transform="translate(-309.18 482.73) rotate(-67.48)"/><ellipse class="cls-11" cx="207.68" cy="472.53" rx="15.7" ry="15.9" transform="translate(-308.36 483.38) rotate(-67.48)"/><path class="cls-1" d="M204,483a13.1,13.1,0,0,1,10.3-24.1,13.13,13.13,0,0,1-10.2,24.2A.1.1,0,0,0,204,483Z"/><ellipse class="cls-11" cx="270.3" cy="504.64" rx="17.6" ry="17.8" transform="translate(-299.38 561.04) rotate(-67.48)"/><path class="cls-1" d="M265.18,518.81a12.1,12.1,0,1,1,.1.1Z"/><path class="cls-1" d="M267.48,514.81a13.1,13.1,0,1,1,17.3-7,13.2,13.2,0,0,1-17.3,7Z"/><path class="cls-1" d="M169,495.81h0a2.69,2.69,0,0,0,.2,2.6l5.6,8.9a4.18,4.18,0,0,1,.4,1l1.3,7.6a2.7,2.7,0,0,0,1.4,2c9.2,4.9,66.7,28.8,78.6,31.2a2.55,2.55,0,0,0,2.6-.9l2-2.2a2.58,2.58,0,0,1,1.3-.8l14.2-4.1a2.65,2.65,0,0,0,1.9-1.8l1.8-5.6a2.77,2.77,0,0,0-1.8-3.5l-106-35.9A2.93,2.93,0,0,0,169,495.81Z"/><path class="cls-1" d="M321.38,402.71a31.25,31.25,0,0,0-3.7-19.9h0c.4-28.1-55.8-45.7-68.5-27.1a5.07,5.07,0,0,1-.9,1.6h0c-5.9,1.5-10.7,4.1-13.5,7.9l-65.7,130.4q55.2,21.9,108.8,45.2Z"/><path class="cls-6" d="M252.68,516.61h0a2.43,2.43,0,0,1-1.4-3.2L300,384.11c.5-1.3,1.5-3,2.9-2.4l2.2,1.7a2.57,2.57,0,0,1,1.5,3.2h0L256,515.21a2.43,2.43,0,0,1-3.3,1.4Z"/><path class="cls-12" d="M248.38,357c19.8-7.8,61.3,11.3,69.4,25.6"/><path class="cls-1" d="M169,495.61l3.1-6.3c16.9,5.3,105.7,40.9,108,44.4l-2.3,7.1Z"/><path class="cls-6" d="M216,436.31c-1.4-.4-3.6-.9.3-10.6.1-.2,9.7-23.5,14.9-26.7,1.3-.8,4.7-.5,3.3,6.2-.8,3.6-11.2,32.6-18.5,31.1m16.9-38.6c-5.4-.2-22.8,35.5-18.9,39,7.4,6.7,22.3-27.1,22-35-.2-3.7-2.3-3.9-3.1-4m-20.1,43.4c-17.2-3.7,4.9-38.4,14.2-44.5,9.1-5.9,21.1-1.3,17.8,15-3,14.4-16.6,32.5-32,29.5m23.9-47.9c-17.6-2-35.4,38.5-29.6,46,8.1,10.5,35.8-3.4,39.1-29.4,1.5-11.1-4.2-15.9-9.5-16.6"/><path class="cls-6" d="M215.58,437.31c-2.1-.5-4-1.7-.5-10.7.1-.2,10.1-24.8,15.9-28.4,2.1-1.4,6.2-.5,4.5,7.2-.1.4-10.7,33.8-19.9,31.9m20.6-43.1c-17-1.9-33.9,37-28.3,44.2,7.7,9.8,33.9-3.8,37.2-28.5,1.4-10.6-3.6-15-8.9-15.7"/><path class="cls-6" d="M263.58,450.41c-1.2-.7-3.7-2.1-.5-11.1.1-.2,7.4-20.6,12.2-22,4.4-1.3,5.9,8.3-4.7,27.9-3.8,6.9-6.1,5.7-7,5.2m13.2-34c-5.9-3-18,26.8-16.1,32.4,0,.1,4.6,9.6,11.4-3.8,10.9-21.8,8.2-26.7,4.7-28.6m-16.1,37.9c-17.1-9.4-5.9-37.4,8.5-41.6,11.8-3.5,25.7,9.7,13.3,32.7-5.4,10.1-13.4,13.4-21.8,8.9m19.4-41.3c-16.7-9-32.8,17.2-28.4,32,3.5,11.8,21,20.4,31.4,1.7,8-14.4,6.7-28.2-3-33.7"/><path class="cls-6" d="M263.08,451.51c-2.2-1.3-4.2-3.7-1.4-11.8.1-.2,7.7-22.2,13.3-23.5,7.7-1.8,5.3,15.7-4.3,31.3-3.4,5.3-5.8,4.9-7.6,4m16.5-37.5c-15.7-8.5-30.9,16.6-26.8,30.7,3.2,11,19.5,18.8,29.4,1.2,7.6-13.6,6.6-26.8-2.6-31.9"/><path class="cls-10" d="M299.18,460.61c-.7-1.4,2.7-9,3.9-8.6,1.5.5-2.4,8.6-3.1,9.1a.69.69,0,0,1-.8-.5m4.5-9.2c-1.3-2.5-4.4,5.6-4.7,6.8-1.2,3.7.2,4.2.7,4,1.1-.8,4.8-9.1,4-10.8m1.1-2.6c-1.9-3.8-5.2.4-7.1,6.4-2.2,6.9.1,10.7,1.4,10s7.1-13,5.7-16.4m-6.5-10.1c-.3-.3-1-1,.2-4,.5-1.1,1.9-4.4,3.4-4.6,0,0,1.8-.1,1.5,2.4a17.81,17.81,0,0,1-2.6,6.2c-.9,1.2-1.8.7-2.5,0m5.3-9c-3.4-3.3-6.6,5.8-6.6,7.8,0,2.2,2.1,4,3.7,2.5,1.5-1.3,4.8-8.2,2.9-10.3m-6.6,11.6c-5.3-5.6,0-15.3,3.9-15.1a5.65,5.65,0,0,1,4.7,5.3c.2,3.3-2.3,8.9-3.9,10.4-1.5,1.3-2.9,1.2-4.7-.6m-6.1,12.9a155.94,155.94,0,0,0,18.6-19.5l.2.4.2.4.1.4.1.4a136.21,136.21,0,0,1-17.6,19.6l-.4-.4-.4-.4-.4-.4-.4-.5m19.6-19c0-.1-.1-.2-.1-.4l-.1-.4-.2-.4-.2-.4-.1-.1c-.1,0-.2.1-.3.2-3.3,4-3.7,4.4-6.3,7.3,6.9-12,.2-17-3.6-15.9-5.5,1.7-8.8,14.3-1.4,18.4a2.57,2.57,0,0,0,2.4.3c-3.3,3.2-7,6-10.1,9.5a1.52,1.52,0,0,0,0,2l.4.4.4.4.4.4.4.4a.48.48,0,0,0,.7,0c10.2-10,18.3-19.9,17.8-21.5"/><path class="cls-10" d="M298.68,461.61c-1.2-2.6,3.3-11.2,4.6-10.7,1.9.6-2.3,10.4-3.6,11.3-.2.1-.6.2-1-.6m11.2-25.4-.1-.4-.1-.4-.2-.4-.2-.4a154.31,154.31,0,0,1-18.5,19.4l.4.4.4.4.4.4.4.4a119.47,119.47,0,0,0,17.5-19.4"/><ellipse class="cls-11" cx="206.78" cy="472.81" rx="17.6" ry="17.8" transform="translate(-309.18 482.73) rotate(-67.48)"/><ellipse class="cls-11" cx="207.68" cy="472.53" rx="15.7" ry="15.9" transform="translate(-308.36 483.38) rotate(-67.48)"/><path class="cls-1" d="M204,483a13.1,13.1,0,0,1,10.3-24.1,13.13,13.13,0,0,1-10.2,24.2A.1.1,0,0,0,204,483Z"/><ellipse class="cls-11" cx="270.3" cy="504.64" rx="17.6" ry="17.8" transform="translate(-299.38 561.04) rotate(-67.48)"/><path class="cls-1" d="M265.18,518.81a12.1,12.1,0,1,1,.1.1Z"/><path class="cls-1" d="M267.48,514.81a13.1,13.1,0,1,1,17.3-7,13.2,13.2,0,0,1-17.3,7Z"/><path class="cls-8" d="M208.18,510.51c12.9-16,38.7-12.1,31.3,13"/><path class="cls-1" d="M250.28,518.71A140.65,140.65,0,1,0,391,659.41,140.71,140.71,0,0,0,250.28,518.71Zm0,145.7a5,5,0,1,1,4.9-5h0A5.06,5.06,0,0,1,250.28,664.41Z"/><path class="cls-1" d="M290.78,534.81l-30.1,79.1a4.33,4.33,0,0,0,2.2,5.4c11.9,5.1,20.9,14.2,27,27.2a4.43,4.43,0,0,0,5.4,2.2l79.2-30.1a4.17,4.17,0,0,0,2.4-5.5V613c-15.1-38-41.3-65.8-80.6-80.6A4.13,4.13,0,0,0,290.78,534.81Z"/><path class="cls-1" d="M250.28,596.21a63.2,63.2,0,1,0,63.2,63.2,63.21,63.21,0,0,0-63.2-63.2Zm0,67.8a4.59,4.59,0,0,1-4.6-4.6,4.53,4.53,0,0,1,4.6-4.6,4.59,4.59,0,0,1,4.6,4.6h0a4.65,4.65,0,0,1-4.6,4.6Z"/><path class="cls-1" d="M250.28,800.71a141.07,141.07,0,0,1-141-141.2c.1-77.9,63.3-141.1,141.2-141s141.1,63.3,141,141.2a141,141,0,0,1-141.2,141Zm0-281.3c-77.3,0-140.2,62.9-140.2,140.2s62.9,140.1,140.2,140.1,140.2-62.9,140.2-140.2S327.58,519.41,250.28,519.41Z"/><path class="cls-1" d="M250.28,605.81a53.6,53.6,0,1,0,53.6,53.6h0a53.6,53.6,0,0,0-53.6-53.6Zm0,58.2a4.59,4.59,0,0,1-4.6-4.6,4.53,4.53,0,0,1,4.6-4.6,4.59,4.59,0,0,1,4.6,4.6h0a4.65,4.65,0,0,1-4.6,4.6Z"/><path class="cls-1" d="M250.28,784.91c-69.1,0-125.4-56.3-125.4-125.4s56.3-125.4,125.4-125.4,125.4,56.3,125.4,125.4S319.38,784.91,250.28,784.91Zm0-250c-68.7,0-124.7,55.9-124.7,124.7a124.79,124.79,0,0,0,124.7,124.7c68.8,0,124.7-56,124.7-124.8s-56-124.6-124.7-124.6Z"/><path class="cls-1" d="M252.78,769.31a112.35,112.35,0,0,1-112.2-112.2c0-61.8,50.4-112.2,112.2-112.2a112.2,112.2,0,0,1,0,224.4Zm0-223.7a111.5,111.5,0,1,0,111.5,111.5,111.6,111.6,0,0,0-111.5-111.5Z"/><path class="cls-1" d="M250.28,758.81a99.3,99.3,0,1,1,99.3-99.3A99.42,99.42,0,0,1,250.28,758.81Zm0-197.8a98.5,98.5,0,1,0,98.5,98.5A98.63,98.63,0,0,0,250.28,561Z"/><path class="cls-1" d="M250.28,738.11a78.5,78.5,0,1,1,78.5-78.5A78.44,78.44,0,0,1,250.28,738.11Zm0-156.4a77.8,77.8,0,1,0,77.8,77.8h0a78,78,0,0,0-77.8-77.8Z"/><path class="cls-1" d="M250.28,709.91a5.79,5.79,0,0,1-5.5-4l-8.8-27.1h-28.5a5.8,5.8,0,0,1-5.8-5.8,5.92,5.92,0,0,1,2.4-4.7l23.1-16.8-8.8-27.1a5.83,5.83,0,0,1,3.7-7.3,5.67,5.67,0,0,1,5.2.8l23.1,16.8,23.1-16.8a5.78,5.78,0,0,1,8.1,1.3,5.67,5.67,0,0,1,.8,5.2l-8.8,27.1,23.1,16.8a5.87,5.87,0,0,1,1.3,8.1,5.78,5.78,0,0,1-4.7,2.4h-28.6l-8.8,27.2A5.79,5.79,0,0,1,250.28,709.91Zm-8.6-31.1,8.3,25.5c0,.2.2.3.4.3s.3-.1.4-.3l8.3-25.5Zm24.6-5.4h26.8c.2,0,.3-.1.4-.3s0-.3-.1-.4L271.68,657Zm-26.4,0h20.8l6.4-19.8-16.8-12.2-16.8,12.2Zm-11-16.4-21.7,15.7c-.1.1-.2.3-.1.4s.2.3.4.3h26.8Zm26-18.9,14,10.2,8.3-25.5c.1-.2,0-.3-.1-.4a.45.45,0,0,0-.5,0Zm-31.1-15.8c-.1,0-.2,0-.2.1a.25.25,0,0,0-.1.4l8.3,25.5,14-10.2-21.7-15.7a.37.37,0,0,0-.3-.1Z"/><circle class="cls-1" cx="279.88" cy="638.51" r="16.2"/><circle class="cls-1" cx="272.98" cy="643.41" r="4.8"/><circle class="cls-1" cx="283.68" cy="633.61" r="6.2"/><circle class="cls-1" cx="220.18" cy="646.71" r="15.2"/><circle class="cls-1" cx="225.08" cy="650.71" r="4.8"/><circle class="cls-1" cx="214.38" cy="640.91" r="6.2"/><path class="cls-1" d="M295.18,684.41a1.27,1.27,0,0,1-.6-.1,1.55,1.55,0,0,1-.9-2c1.2-3.1,1.2-5.8.1-7.9-1.6-3-5.4-5.3-11.4-6.8a1.66,1.66,0,0,1-1.1-2,1.49,1.49,0,0,1,1.8-1.1c6.9,1.7,11.5,4.5,13.5,8.4,1.6,3,1.6,6.5.1,10.5A1.75,1.75,0,0,1,295.18,684.41Z"/><path class="cls-1" d="M219.58,667.61a.85.85,0,0,1,.3.5,1.62,1.62,0,0,1-.7,2.1c-3,1.4-4.9,3.3-5.5,5.7-.9,3.3.3,7.6,3.6,12.8a1.63,1.63,0,0,1-.6,2.2,1.6,1.6,0,0,1-2.1-.5c-3.8-6-5.2-11.2-4-15.4.9-3.3,3.4-5.8,7.2-7.7A1.94,1.94,0,0,1,219.58,667.61Z"/><path class="cls-1" d="M250.28,663.91a4.5,4.5,0,1,1,4.5-4.5h0A4.48,4.48,0,0,1,250.28,663.91Zm0-8.9a4.4,4.4,0,1,0,4.4,4.4h0A4.44,4.44,0,0,0,250.28,655Z"/><path class="cls-1" d="M171.58,404.31c-.5-1.9-.6-5.1-.9-7.3-3.8-27.2-43.4-44.1-88.5-37.8s-79.3,29.7-74.6,60.5a35.74,35.74,0,0,0,1.1,4.7,1.38,1.38,0,0,0-.4.3c.5,5.4-14.6,13.2-4.4,48.6l58.7,193.6c17.8,44.8,111.2,46.6,115-20l10.1-203.8a44.33,44.33,0,0,0-.9-11.5C183.28,416.31,173.28,406.91,171.58,404.31Z"/><path class="cls-1" d="M87,379.41c-38.4,5.1-67.8,24.8-64,51.1,1.2,8,6,15,13.4,20.6,16,6.9,37,9.5,59.6,6.4,27.6-3.9,50.8-15.6,63.8-30.3a28.29,28.29,0,0,0,2.4-15.2C159.08,388.91,125.48,374.31,87,379.41Z"/><path class="cls-1" d="M186.88,457.31l-9.6,192.8c-3.8,66.6-97.2,64.8-115,20L4.58,479.71C42.18,539.11,162.68,520.71,186.88,457.31Z"/><path class="cls-1" d="M111.28,454.51c20.7-5.4,37.8-15.3,48.3-27.2a28.29,28.29,0,0,0,2.4-15.2c-3.1-23.1-36.7-37.7-75.1-32.6-1.3.2-2.6.3-3.9.6l-1.3.2-2.6.5-1.6.3-2.4.5-1.4.3c-.8.2-1.6.4-2.3.6a8.33,8.33,0,0,0-1.5.4l-1.2.3-1.9.5-1.2.3-1.9.6-1.1.4c-.7.2-1.4.5-2.1.7l-.8.3c-1,.4-1.9.7-2.8,1.1l-.5.2-2.2.9-.9.4-1.7.8-1,.5-1.6.8-.9.5-1.6.9-.9.5-1.7,1.1-.6.4c-.8.5-1.5,1-2.2,1.5l-.5.3-1.6,1.2-.7.5-1.3,1a4.35,4.35,0,0,0-.7.6l-1.2,1-.7.7c-.4.4-.8.7-1.2,1.1l-.6.6c-.4.5-.9.9-1.3,1.4l-.3.4-1.5,1.8a1.76,1.76,0,0,1-.4.5c-.3.5-.7.9-1,1.4l-.4.7c-.3.4-.5.8-.8,1.2l-.4.8c-.2.4-.5.8-.7,1.2a5.9,5.9,0,0,0-.4.8c-.1.3-.4.9-.6,1.4l-.3.7-.6,1.5-.2.5-.6,2.1c0,.2-.1.4-.1.6l-.3,1.5c0,.3-.1.5-.1.8-.1.5-.1.9-.2,1.4a2.77,2.77,0,0,1-.1.9c0,.3-.1.9-.1,1.4v1a12.1,12.1,0,0,1,.1,1.9v.2l.3,2.3c1.2,8,6,15,13.4,20.6,15.9,6.7,36.9,9.4,59.5,6.2C101,456.81,106.18,455.81,111.28,454.51Z"/><path class="cls-1" d="M70.78,382.61l-.6.2c.5-.1,1-.3,1.5-.4Z"/><path class="cls-1" d="M82.18,359.21c-45,6.3-79.3,29.7-74.6,60.6,1.5,9.8,7.6,18.3,17,24.9a31.28,31.28,0,0,1-5.4-13.5c-1.8-12,2.6-23.3,12.5-32.8,9-8.6,22.1-15.3,38.1-19.5a159,159,0,0,1,16.7-3.3c19.3-2.6,38.1-.4,52.9,6,15.6,6.7,25,17.4,26.7,30a30,30,0,0,1,.1,6.7,33.56,33.56,0,0,0,4.4-21.2C166.88,369.81,127.18,352.91,82.18,359.21Z"/><path class="cls-1" d="M139.28,381.61c-14.8-6.4-33.6-8.6-52.9-6a120.26,120.26,0,0,0-16.7,3.3c-15.9,4.2-29.1,10.9-38.1,19.5-9.9,9.5-14.2,20.9-12.5,32.8a31.28,31.28,0,0,0,5.4,13.5,61.83,61.83,0,0,0,11.8,6.5c-7.4-5.6-12.2-12.5-13.4-20.6l-.3-2.3-.1-.7a7.52,7.52,0,0,1,0-1.5v-.8a7.6,7.6,0,0,1,.1-1.4c.1-.5,0-.6.1-.8a9.32,9.32,0,0,1,.2-1.4c0-.3.1-.5.1-.8l.3-1.5a1.27,1.27,0,0,0,.1-.6l.6-2.1.1-.3a11.92,11.92,0,0,1,.8-2l.1-.5c.2-.4.4-.9.6-1.4a3,3,0,0,1,.4-.8,5.23,5.23,0,0,1,.7-1.2l.4-.8c.3-.4.5-.8.8-1.2l.4-.7c.3-.5.7-.9,1-1.4l.1-.1a21.25,21.25,0,0,1,1.8-2.2l.3-.3c.4-.5.8-.9,1.3-1.5l.6-.6a6.28,6.28,0,0,1,1.2-1.1l.7-.6,1.2-1c.2-.2.5-.4.7-.6l1.3-1,.7-.5,1.6-1.2.5-.3c.7-.5,1.5-1,2.2-1.5l.6-.4,1.7-1.1.9-.5,1.6-.9.9-.5,1.6-.9,1-.5,1.7-.8.9-.4,2.2-.9.5-.2c.9-.4,1.9-.7,2.8-1.1l.8-.3c.7-.2,1.4-.5,2.1-.7l1.1-.4,1.9-.6,1.2-.4,2-.4,1.2-.3.6-.2.9-.2,2.3-.6,1.4-.3,2.3-.5,1.4-.3,2.7-.5,1.3-.2c1.3-.2,2.5-.4,3.9-.6,38.4-5.1,72.1,9.5,75.2,32.6a28.44,28.44,0,0,1-2.4,15.2,56.54,56.54,0,0,0,6.4-9,30,30,0,0,0-.1-6.7C164.28,398.91,154.78,388.31,139.28,381.61Z"/><path class="cls-2" d="M54.48,365.71a154.84,154.84,0,0,1,27.7-6.5c45-6.3,84.7,10.6,88.4,37.8a34.08,34.08,0,0,1-4.4,21.2,30,30,0,0,0-.1-6.7c-1.7-12.6-11.1-23.2-26.6-30-14.8-6.4-33.6-8.6-52.9-6a159,159,0,0,0-16.7,3.3,107.15,107.15,0,0,0-21.7,8.1Z"/><path class="cls-1" d="M112.28,457.21a142.61,142.61,0,0,1-15.8,3.2c-22.1,3.1-43.6.8-60.6-6.5-17.3-7.4-27.9-19.1-30-32.9h0c-1.6-10.6,1-20.7,7.9-29.8,12.4-16.6,37.3-28.6,68.4-33,46-6.4,86.7,11.3,90.6,39.4,1.9,13.9-5,28-19.6,39.9C142.18,446.31,128.08,453.11,112.28,457.21Zm-47.2-91.6c-21.6,5.7-39,15.6-48.2,27.9-6.2,8.3-8.6,17.4-7.1,26.9h0c4,26,42.6,42.2,86.2,36.1,21.4-3,40.8-10.8,54.7-22,13.5-11,20-23.9,18.3-36.3-3.6-26-42.3-42.2-86.2-36.1A149.71,149.71,0,0,0,65.08,365.61Z"/><path class="cls-13" d="M183.78,456c-12,26.3-27.7,38.7-57.4,47.8a2.73,2.73,0,0,1-3.3-1.9c0-.2-.1-.3-.1-.5-4.4-17.7-11.6-27.9-14.6-35.6-.7-1.7-.3-3.5,1.4-4.1,34.4-9.6,55.3-23.2,62.8-43.6a2.69,2.69,0,0,1,3.3-1.6h0a2.56,2.56,0,0,1,1.3,1c6.1,8.5,8.7,18.7,6.8,37.5A3,3,0,0,1,183.78,456Z"/><path class="cls-1" d="M62,625.21l-.5-1.8.6.4.6.4.6.4.6.4a2.94,2.94,0,0,1,1.2,1c.2.4.5,1.1.2,1.3s-.5-.1-.7-.3l-.7-.4-.6-.4-.6-.5-.7-.5m.3-3.4-1.1-.7-1.1-.7-1-.7L58,619c-.1-.1-.1-.1-.2-.1h-.1v.1l1.7,5.5a2.09,2.09,0,0,0,.4.6l1.1.8,1.1.7,1.1.7,1.1.7c3.4,1.9,2.8-.8,2.7-1.1-.3-1-1.3-3.1-4.6-5.1M57.48,610l-.6-2.1.4.3.4.3.4.3.5.3a2.34,2.34,0,0,1,1.2,1s.6,1.3.2,1.4a2.47,2.47,0,0,1-.9-.4l-.4-.3-.4-.2-.4-.2-.4-.4m-.6-4.7-1-.6-1-.6-.9-.6-.9-.6c-.1-.1-.1-.1-.2-.1s-.1.1,0,.2l1.8,6.1a1,1,0,0,0,.5.6l.8.6,1,.6.9.6.9.6c3.7,2.1,3-.7,2.9-1.2a9.55,9.55,0,0,0-4.8-5.6m55.1,31.4c-14.3.5-14-12-11-15.2,3.6-3.8,21.1-6.4,21.5,5.6.1,5.5-3.8,9.1-10.5,9.6m-4-21.3c-22.4,1.8-11.1,17.6-9.1,19.3,8.1,7,26.9,3.8,25.8-9.4-.6-7.1-6.4-10.5-16.7-9.9M83.08,577l.3-2.7,1.4,2.9h-1.2l-.5-.2m-4.3-17.5.5-.1h-.2c-.5,5.5-1.5,12.8-1.8,18.3,0,0,0,.5.7.7a19,19,0,0,0,2.5.3l2.5.3,2.5.2,2.6.2c.3,0,.7-.1.5-.6-2.8-5.8-6.4-13.5-9.2-19.3m-25.7,65.2c-.1-.2-.3-.4-.3-.6l-12.9-39.9.1-.1q1.35,1.65,3,3.3c1.1,1.1,2.3,2.1,3.5,3.1a40.44,40.44,0,0,0,4,2.8c1.4.9,2.9,1.8,4.4,2.6,28.4,15.5,19.8,24.6,17.6,25.3a5.07,5.07,0,0,1-1.3.2l-.1.3c2,2.3,4.9,3.9,6.8,6.3a14.09,14.09,0,0,1,2.8,5.6c1,5.3-3.4,6.3-6.2,6.1a18.31,18.31,0,0,1-7.1-2.5l-4.2-2.7a35.73,35.73,0,0,1-3.8-3,35.14,35.14,0,0,1-3.4-3.3,32.69,32.69,0,0,1-3-3.5m106.1-19.6.4-.1h.1c4.4-11.5,4.8-12.7,7.7-21.3a2.09,2.09,0,0,1,.4-.6c.9-.8,1.8-1.6,2.6-2.4s1.6-1.7,2.4-2.5a23.21,23.21,0,0,0,2.1-2.5c.7-.8,1.3-1.7,1.9-2.5l.2.2v.1a331.32,331.32,0,0,1-12.2,37.7l.1.5-.7,13.7a1.14,1.14,0,0,1-.3.6c-.8.7-1.6,1.5-2.4,2.2s-1.7,1.4-2.6,2.1a28.32,28.32,0,0,1-2.8,2,31.27,31.27,0,0,1-3,2h-.1l-.1-.1.1-13.7v-.1c-13.3-11.9-19.5-18.4-19.6-18.8.3-.4.3-.4.5-.5,1.5-.4,2.9-.9,4.4-1.4s2.9-1,4.3-1.6,2.8-1.1,4.2-1.7,2.7-1.2,4.1-1.9h.3l-.5.1h.5c4.8,6.5,5.2,7,8.1,11m-47.5,41.6c-29.3.6-41.2-26.4-30.8-35.9s62.6-14.3,60.2,11.3c-1.1,11.3-12.4,23.5-29.4,24.6m18.2-43.8a70.81,70.81,0,0,0-11.2-1.1c1.3-.2,2.4-.4,3.7-.7s2.4-.5,3.6-.8l3.6-.9c1.2-.3,2.4-.6,3.6-1-2.6,1-4.1,3-3.3,4.5m30.4-3.8c-3-4.4-5.3-7.8-5.6-8.1-.5-.5-1.4-.5-2.6.1l.9-.5.9-.5.9-.5.9-.5.6-.3c1.1-.7,2.2-1.3,3.2-2l3-2.1c1-.7,1.9-1.4,2.8-2.1a27.46,27.46,0,0,0,2.6-2.2,9.88,9.88,0,0,0-2.1,3.2c-1.6,4.7-3.8,10.8-5.5,15.5m-99.7-2.7c1.2.5,2.5,1,3.8,1.5s2.7.9,4.1,1.3,2.7.8,4.2,1.1,2.9.7,4.3,1c1.7.3,2.8-.2,3-1.4l.7-5.9,3.1.4,3.2.3c1.1.1,2.1.2,3.2.2s2.2.1,3.2.1c3.6,7.2,3.6,7.2,5,7.9-11.1,1.6-16.9,4-20.6,8.4-3.4-5.3-8.3-10-22.4-17.3l.4.2.4.2.4.2.4.2a2,2,0,0,0,1.7.2,5.22,5.22,0,0,0,1.9,1.4m-3.5-10.1-8.5-31a22.5,22.5,0,0,0,2.4.8l2.5.8c.8.2,1.7.5,2.5.7s1.7.5,2.7.7c-.5,8.7-1.1,17.6-1.4,28.1m-33.7-50.5a3,3,0,0,1-.4-.8l-4.4-13.3.1-.3a40.75,40.75,0,0,0,5.6,5.4,45.76,45.76,0,0,0,7.6,4.7,78.58,78.58,0,0,0,9.4,4.1,106.82,106.82,0,0,0,11,3.3,1.39,1.39,0,0,1,.8.7l3.5,13.9-.1.4H57l-3.3-.9c-1.1-.3-2.1-.7-3.2-1a26.54,26.54,0,0,1-3-1.1c-1-.4-1.9-.7-2.9-1.1l-.4.2v.1l11.6,40.8-.3.2c-1-.5-2-1.1-3-1.6s-1.9-1.1-2.8-1.7l-2.7-1.8a25.15,25.15,0,0,1-2.4-1.9,4.23,4.23,0,0,1-.5-.7l-12.6-40.3a2.18,2.18,0,0,0-.5-.8c-.7-.5-1.3-1-1.9-1.5a12.88,12.88,0,0,1-1.7-1.6c-.6-.5-1.1-1.1-1.6-1.6-.6-.7-1.1-1.3-1.6-1.8m94,58.4a1,1,0,0,0,.6-.5l-4.9-52.5a1.58,1.58,0,0,1,.7-.7,46.71,46.71,0,0,0,5.2-.8c1.7-.4,3.4-.6,5.1-.9s3.4-.7,5-1,3.3-.8,4.9-1.2l.5.1.2.4,1.6,44.1.4.3.4-.1c1.1-.4,2.3-.7,3.4-1.1l3.3-1.2c1.1-.4,2.2-.9,3.2-1.3a29.17,29.17,0,0,0,3.1-1.4l1.1-.5,1.1-.5,1.1-.5,1.1-.5.5.1v.1l-.2,11a1.79,1.79,0,0,1-.5.7l-1,.5-1,.5-1,.5-1.1.5c-2.4,1.1-4.8,2.2-7.3,3.2s-5.1,1.9-7.7,2.7-5.3,1.5-8,2.2-5.4,1.2-8.2,1.6l-.5.1c-1.6.2-3.3.5-4.9.7s-3.3.4-4.9.5l-4.9.3c-1.6.1-3.2.1-4.9.1a2.12,2.12,0,0,1-.7-.3c-4-8-4-8-4.5-8.1-1.5,0-3.1-.1-4.6-.2l-4.5-.3c-1.5-.1-3-.3-4.4-.5s-2.9-.4-4.3-.7l-.5.2v.1l-.6,7.2-.5.2c-1.4-.3-2.7-.6-4-1a36.35,36.35,0,0,1-3.9-1.1c-1.2-.4-2.5-.8-3.7-1.2s-2.4-.9-3.6-1.4c-.2-.2-.4-.5-.6-.7.7-15,3.1-50.8,3.9-51.5h.1l6.4.9c2.2.2,4.4.5,6.6.6s4.5.3,6.8.4,4.6.1,6.9.1a3,3,0,0,1,.8.4c7.9,15.3,26.4,51.5,27.4,51.4m37.6-8.6h-.1l-.2-.2,1.1-55.4c.1-.3.3-.7.6-.8,1.4-.6,2.6-1.2,3.8-1.8l3.6-1.8c1.1-.6,2.2-1.3,3.3-1.9s2-1.3,3-1.9h.3v.3l-2.5,42.8.2.2.2-.1c.9-.8,1.8-1.5,2.6-2.3s1.6-1.6,2.3-2.4l2.1-2.4a18.76,18.76,0,0,0,1.8-2.4l.2.1-.9,10.7a.91.91,0,0,1-.3.7,43.7,43.7,0,0,1-3.7,4.8,42.53,42.53,0,0,1-4.8,4.7,65.06,65.06,0,0,1-5.8,4.6c-2.1,1.5-4.4,2.9-6.8,4.3m16.8-67.1c-1,.7-2,1.4-3.1,2.1a37.91,37.91,0,0,1-3.4,2,33.86,33.86,0,0,1-3.8,2c-1.3.6-2.7,1.3-4.1,1.9a6.57,6.57,0,0,0-3.6,5.2l-.6,41.4-.8.4-.8.4-.8.4-.9.4-2.1.9-2.2.9c-.7.3-1.4.6-2.2.9l-2.2.8-.9-41.8c-.2-1-.7-3.2-4.3-2.5-1.7.5-3.5.9-5.3,1.3l-5.4,1.2c-1.8.4-3.6.7-5.5,1s-3.7.6-5.6.8c-2.8.6-4.2,2-4.2,4.3l3.6,35.3c-19.4-37.7-19.4-37.7-22.7-37.9h-7.3c-2.4,0-4.8-.2-7.2-.3s-4.7-.3-7-.6-4.5-.5-6.8-.8c-1.6-.1-2.8,0-3.3,2.1l-.4,5.6-1-4.8a6.75,6.75,0,0,0-4.8-4.6,117.18,117.18,0,0,1-11.6-3.2,71.18,71.18,0,0,1-9.9-4.1,49,49,0,0,1-7.9-4.8,43.72,43.72,0,0,1-6-5.3l-.5.4a9.29,9.29,0,0,0,.4,1.3l4.7,14.3a20.13,20.13,0,0,0,2.5,5.1c.4.5.8.9,1.2,1.4a16.61,16.61,0,0,0,1.3,1.4,17.88,17.88,0,0,0,1.4,1.3,17.88,17.88,0,0,1,1.4,1.3l11.9,37.7a13.71,13.71,0,0,0,2.8,4.4,8.64,8.64,0,0,1-1.4-1.3c-.5-.4-.9-.9-1.4-1.3a8.64,8.64,0,0,1-1.3-1.4c-.4-.5-.8-.9-1.2-1.4l-.6-.6a2.46,2.46,0,0,0-.1,1.2l13.2,40.4a17.05,17.05,0,0,0,2.1,4c.9,1.2,2,2.3,3,3.5a36.06,36.06,0,0,0,3.5,3.3c1.2,1.1,2.6,2,3.9,3a38.65,38.65,0,0,0,4.3,2.7c8.5,4.5,13.6,2.6,15.6-.7,25.5,24.2,61,3.6,61.1-20.3a3.4,3.4,0,0,0-.1-1c1.5,1.3,3.4,3,4.9,4.2l-.1,13.4.3.8a2.6,2.6,0,0,0,2.4-.4c1.1-.7,2.1-1.4,3.2-2.1a31.55,31.55,0,0,0,2.9-2.2c.9-.8,1.8-1.5,2.7-2.3a27.25,27.25,0,0,0,2.5-2.3,6.7,6.7,0,0,0,2-3.9l.8-13.4c10.2-29.9,11.1-40.1,11.1-40.1a1.62,1.62,0,0,0-.9.5h0a13.45,13.45,0,0,0,1.5-4.8l1-11.5v-.9l-.8-.2-.3.3-1.5,2.1a16.32,16.32,0,0,1-1.7,2c-.6.6-1.2,1.4-1.9,2a19.85,19.85,0,0,1-2.1,2l2.6-40.6a6.46,6.46,0,0,0-.4-1.9l-.8-.4a3.55,3.55,0,0,0-.9.4"/><path class="cls-1" d="M52.68,538.91a106.82,106.82,0,0,1-11-3.3,85.5,85.5,0,0,1-9.4-4,73.93,73.93,0,0,1-7.6-4.7,31.36,31.36,0,0,1-5.6-5.3l-.1.3,4.4,13.3a2,2,0,0,0,.4.8,21,21,0,0,0,1.4,1.7c.5.5,1,1.1,1.6,1.6s1.1,1.1,1.7,1.6,1.3,1,1.9,1.5a2.18,2.18,0,0,1,.5.8l12.6,40.3a3,3,0,0,0,.5.7c.8.7,1.6,1.3,2.4,1.9a31.61,31.61,0,0,0,2.7,1.8c.9.6,1.9,1.2,2.8,1.7s2,1,3,1.6l.3-.2-11.6-40.7.1-.7h.2a11.08,11.08,0,0,0,2.9,1.4c1,.4,2,.7,3,1.1a29.92,29.92,0,0,0,3.2,1,5.07,5.07,0,0,0,3.2.2h.4l.1.4-3.5-13.9c.1-.5-.2-.7-.5-.9"/><path class="cls-1" d="M78,578.41c-.5-.1-.7-.3-.7-.7.5-5.5,1.2-12.8,1.8-18.3h.4c2.7,5.8,6.6,13.4,9.2,19.3,0,0,.2.5-.5.6l-2.6-.2-2.6-.2-2.5-.3a19.48,19.48,0,0,1-2.5-.2m56.7-41.3-4.9,1.2c-1.7.4-3.3.7-5,1l-5.1.9c-1.7.3-3.4.5-5.2.8a1.58,1.58,0,0,0-.7.7l4.9,52.6c-.6,1-1.3.3-1.3.3-3.9-7.3-12.9-24.2-20.8-39.9-6-11.8-6-11.8-6.6-11.9-2.3,0-4.7,0-6.9-.1s-4.6-.2-6.8-.4l-6.6-.6c-2.1-.2-4.3-.5-6.4-.9l-.5.2v.2c-2.8,33.8-3.8,51.3-2.9,52,1.2.5,2.4.9,3.6,1.4s2.5.8,3.7,1.2,2.6.8,3.9,1.1,2.7.7,4,1l.5-.2h0l.6-7.2c.1-.1.3-.3.5-.2,1.4.2,2.9.5,4.3.7s2.9.4,4.4.5,3,.3,4.5.4,3,.2,4.6.2a2.51,2.51,0,0,1,.7.4c4.1,8,4.1,8,4.5,8,1.6,0,3.2-.1,4.9-.1l4.9-.3c1.6-.1,3.3-.3,4.9-.5s3.3-.4,4.9-.7l.5-.1c2.7-.5,5.5-1,8.2-1.6s5.4-1.4,8-2.2,5.2-1.7,7.7-2.7,4.9-2,7.3-3.2l1.1-.5,1-.5,1-.5,1-.5a1.79,1.79,0,0,0,.5-.7l.2-11-.4-.2h0l-1.1.5-1.1.5-1.1.5-1.1.5c-1,.5-2.1.9-3.1,1.4s-2.1.9-3.2,1.3l-3.3,1.2a33.82,33.82,0,0,1-3.4,1.1l-.5-.1-.1-.2-1.5-44.1-.3-.4h-.4"/><path class="cls-1" d="M170.58,520.91c-1,.7-2,1.4-3,2s-2.2,1.3-3.3,1.9-2.3,1.3-3.6,1.9-2.5,1.2-3.8,1.8a1.46,1.46,0,0,0-.6.9l-1,56.6.2.2h.3c2.4-1.4,4.7-2.9,6.8-4.4s3.9-3,5.8-4.7a42.53,42.53,0,0,0,4.7-4.8,58.48,58.48,0,0,0,3.8-4.9,6.89,6.89,0,0,0,.3-.8l.9-11-.2-.1-1.8,2.4-2.1,2.4c-.7.8-1.5,1.6-2.3,2.4s-1.7,1.6-2.6,2.4h-.3v-.2l2.4-43.8v-.3c-.1,0-.2-.1-.3,0"/><path class="cls-1" d="M59.88,625.11a.82.82,0,0,1-.4-.6l-1.7-5.5v-.1h.1c.1,0,.1,0,.2.1l1,.7,1,.7,1.1.7,1.1.7c5,3.1,5.4,6.6,4.1,6.9-.7.2-1.7-.4-2.2-.7l-1.1-.7-1.1-.7-1.1-.7-1-.8m-4.6-15.3a2.65,2.65,0,0,1-.5-.6l-1.8-6.1v-.2c0-.1.1,0,.2.1l.9.6.9.6,1,.6,1,.6c4.9,3,5.7,7.1,4.3,7.5a3.33,3.33,0,0,1-2.4-.8l-.9-.6-.9-.6-.8-.6-1-.5m.1-14c-1.5-.8-3-1.7-4.4-2.6s-2.7-1.9-4-2.8-2.4-2-3.5-3.1a23.52,23.52,0,0,1-3-3.3l-.1.1L53.28,624l.3.6a32.69,32.69,0,0,0,3,3.5c1.1,1.1,2.2,2.2,3.4,3.3s2.5,2,3.8,3a37.42,37.42,0,0,0,4.2,2.7c9.9,5.3,14.7,1.2,13-4.2-1.5-4.8-6.2-8.7-8.2-10.2-1.3-.9-1.3-.9-1.3-1.4,7.3-1.2,5.7-10.8-6.1-19.4a106.12,106.12,0,0,0-10-6.1"/><path class="cls-1" d="M111.08,638.31c-16.9.4-18.7-14-14.8-18.6,4.5-5.3,27.3-7.9,28.4,5.7.7,7.2-4.9,12.4-13.6,12.9m-4.5-33.8c-51.5,3.8-19.5,34.2-19.1,34.6,21.5,18.9,54.9,3.6,54.3-18.8-.3-12.1-11.5-17.2-35.2-15.8"/><path class="cls-1" d="M176.78,574.31l-1.8,2.4c-.6.8-1.4,1.6-2,2.4s-1.5,1.6-2.3,2.4-1.7,1.6-2.6,2.4a.85.85,0,0,0-.3.5c-4.1,11.7-4.4,12.7-7.4,20.6h-.1c-7.8-10.8-7.9-10.7-8.3-10.6h-.4c-1.3.6-2.6,1.2-4,1.8s-2.7,1.1-4.1,1.7-2.8,1-4.2,1.5-2.9.9-4.3,1.4c-.3.1-.7.3-.5.7,7.9,7.6,10.3,9.9,19.1,17.6v.1l-.2,13.1.2.1.2-.1a29,29,0,0,0,2.9-1.9c.9-.7,1.9-1.3,2.7-2s1.7-1.4,2.6-2l2.4-2.1a.86.86,0,0,0,.3-.6l.7-13.1v-.2c9.7-25.9,11.7-36.6,11.8-36.7s-.1-.1-.2,0"/><circle class="cls-14" cx="171.39" cy="417.23" r="30.8" transform="translate(-49.78 24.11) rotate(-7.03)"/><circle class="cls-1" cx="179.88" cy="409.11" r="9.1"/><circle class="cls-1" cx="161.28" cy="428.11" r="11.4"/><path class="cls-13" d="M125.38,508.91c28-9.1,52.1-27,61.6-51.7L177.38,650c-1.3,22.3-14.9,43.3-36.6,49Z"/><path class="cls-15" d="M134.58,508a111.19,111.19,0,0,0,43.2-30.4,2.81,2.81,0,0,1,3.9-.2,2.74,2.74,0,0,1,.9,2.2l-8.1,166.6c-1,17.9-10.2,33.1-23.6,40.7a2.79,2.79,0,0,1-3.8-1h0a5.64,5.64,0,0,1-.4-1.2l-13.9-173.8A2.91,2.91,0,0,1,134.58,508Z"/><path class="cls-1" d="M161.18,479.31,120,495.91c-3.8,1.5-4.5,7.6-1.4,11.5h0l.1.1a36,36,0,0,1,16.9-9.7c12.4-3.2,24.4-.1,30,7.1a42.25,42.25,0,0,0,3.7-17.9h0C169.18,481.91,164.88,477.81,161.18,479.31Z"/><path class="cls-1" d="M135.48,497.91a35.16,35.16,0,0,0-16.9,9.7c15.6,19.5,38.2,15.9,46.9-2.6C159.88,497.81,147.88,494.61,135.48,497.91Z"/><path class="cls-1" d="M49.78,417.41c6.8-12.9,29.4-11.7,44.9-9.7s23.9,7.7,22.3,19.4-27.3,14.8-42.6,11.1C58.18,434.31,44.28,427.91,49.78,417.41Z"/><path class="cls-1" d="M133.58,393.11,116.78,410a28.69,28.69,0,0,1-28.7,7.1l-5.9-1.9a10.5,10.5,0,0,1-6.9-13.1,10,10,0,0,1,2.5-4.2l13.7-14.1a33.18,33.18,0,0,1,35-8.6l3.3,1.2a10,10,0,0,1,6.3,12.7,9.59,9.59,0,0,1-2.5,4Z"/><path class="cls-1" d="M100.78,406.51c-2.8-1.8-12.3-4.4-14.7-5.3s-1.4-1.8-.5-2.5l6.3-5.8a12.73,12.73,0,0,1,12.9-2.7l5.2,1.9a5.58,5.58,0,0,1,3.4,7.1,5.74,5.74,0,0,1-1.5,2.3l-3.8,3.5C106.08,406.91,103.58,408.31,100.78,406.51Z"/><path class="cls-1" d="M100.78,383.51c4,1,15.6,4,20.6,7.2a4.57,4.57,0,0,0,4.5-.9l2.3-2c2.4-2.2,3.2-5.9-6.7-9.2,0,0-14.4-4.5-21.1,3.4a.94.94,0,0,0,.1,1.3C100.48,383.41,100.58,383.51,100.78,383.51Z"/><circle class="cls-16" cx="74.78" cy="461.01" r="30.8" transform="matrix(1, -0.09, 0.09, 1, -40.78, 8.5)"/><circle class="cls-1" cx="83.28" cy="452.81" r="9.1"/><circle class="cls-1" cx="64.68" cy="471.91" r="11.4"/><path class="cls-1" d="M220.68,685.91c-1.1-7.4,65.8-7.2,66.4-2C289.88,710.61,226.38,723.91,220.68,685.91Z"/></g></g></svg>