<svg xmlns="http://www.w3.org/2000/svg" viewBox="0 0 215.91 215.91">
  <defs>
    <style>
      .cls-1 {
        fill: #222;
      }

      .cls-1, .cls-2 {
        stroke: #fff;
        stroke-miterlimit: 10;
      }

      .cls-2 {
        fill: #fff;
        stroke-width: 8.94px;
      }
    </style>
  </defs>
  <g id="Layer_2" data-name="Layer 2">
    <g id="Layer_1-2" data-name="Layer 1">
      <g>
        <rect class="cls-1" x="0.5" y="0.5" width="214.91" height="214.91" rx="16.6"/>
        <g>
          <path class="cls-2" d="M67.36,128.49,55.91,163.18H41.18L78.65,52.89H95.83l37.64,110.29H118.25l-11.78-34.69Zm36.16-11.12L92.72,85.62c-2.45-7.2-4.09-13.75-5.72-20.13h-.33C85,72,83.23,78.75,81.11,85.46l-10.8,31.91Z"/>
          <path class="cls-2" d="M164.73,61.73c.16,4.91-3.44,8.83-9.17,8.83a8.56,8.56,0,0,1-8.67-8.83,8.77,8.77,0,0,1,9-9C161.29,52.73,164.73,56.66,164.73,61.73Zm-16,101.45V84h14.4v79.2Z"/>
        </g>
      </g>
    </g>
  </g>
</svg>
