<?xml version="1.0" encoding="utf-8"?>
<!-- Generator: Adobe Illustrator 25.3.1, SVG Export Plug-In . SVG Version: 6.00 Build 0)  -->
<svg version="1.1" id="Layer_1" xmlns="http://www.w3.org/2000/svg" xmlns:xlink="http://www.w3.org/1999/xlink" x="0px" y="0px"
	 viewBox="0 0 1035.6 418.7" style="enable-background:new 0 0 1035.6 418.7;" xml:space="preserve">
<style type="text/css">
	.st0{fill:none;stroke:#222222;stroke-linecap:round;stroke-linejoin:round;}
	.st1{opacity:0.15;fill:#333333;stroke:#222222;stroke-linecap:round;stroke-linejoin:round;enable-background:new    ;}
</style>
<g id="Layer_2_1_">
	<g id="Layer_1-2">
		<g>
			<g>
				<g>
					<polygon class="st0" points="274.4,226.2 274.4,226.2 243.9,208.9 274.4,191.6 304.8,208.9 					"/>
					<polygon class="st0" points="274.4,226.2 274.4,260.9 243.9,243.6 243.9,208.9 					"/>
					<polygon class="st0" points="304.8,208.9 304.8,243.6 274.4,260.9 274.4,226.2 					"/>
				</g>
				<polygon class="st1" points="274.4,226.2 274.4,260.9 243.9,243.6 243.9,208.9 				"/>
			</g>
			<g>
				<g>
					<polygon class="st0" points="274.4,191.7 274.4,191.7 243.9,174.4 274.4,157.1 304.8,174.4 					"/>
					<polygon class="st0" points="274.4,191.7 274.4,226.3 243.9,209 243.9,174.4 					"/>
					<polygon class="st0" points="304.8,174.4 304.8,209 274.4,226.3 274.4,191.7 					"/>
				</g>
				<polygon class="st1" points="274.4,191.7 274.4,226.3 243.9,209 243.9,174.4 				"/>
			</g>
			<g>
				<g>
					<polygon class="st0" points="518.2,121.7 518.2,121.6 487.8,104.3 518.2,87 548.6,104.3 					"/>
					<polygon class="st0" points="518.2,121.6 518.2,156.3 487.8,139 487.8,104.3 					"/>
					<polygon class="st0" points="548.6,104.3 548.6,139 518.2,156.3 518.2,121.7 					"/>
				</g>
				<polygon class="st1" points="518.2,121.7 518.2,156.3 487.8,139 487.8,104.3 				"/>
			</g>
			<g>
				<g>
					<polygon class="st0" points="578.7,260.9 578.7,260.9 548.2,243.6 578.7,226.3 609.1,243.6 					"/>
					<polygon class="st0" points="578.7,260.9 578.7,295.5 548.2,278.2 548.2,243.6 					"/>
					<polygon class="st0" points="609.1,243.6 609.1,278.2 578.7,295.5 578.7,260.9 					"/>
				</g>
				<polygon class="st1" points="578.7,260.9 578.7,295.5 548.2,278.2 548.2,243.6 				"/>
			</g>
			<g>
				<g>
					<polygon class="st0" points="670,35.1 670,35.1 639.5,17.8 670,0.5 700.4,17.8 					"/>
					<polygon class="st0" points="670,35.1 670,69.8 639.5,52.5 639.5,17.8 					"/>
					<polygon class="st0" points="700.4,17.8 700.4,52.5 670,69.8 670,35.1 					"/>
				</g>
				<polygon class="st1" points="670,35.1 670,69.8 639.5,52.5 639.5,17.8 				"/>
			</g>
			<g>
				<g>
					<polygon class="st0" points="304.8,243.6 304.8,243.6 274.4,226.2 304.8,208.9 335.2,226.2 					"/>
					<polygon class="st0" points="304.8,243.6 304.8,278.2 274.4,260.9 274.4,226.2 					"/>
					<polygon class="st0" points="335.2,226.2 335.2,260.9 304.8,278.2 304.8,243.6 					"/>
				</g>
				<polygon class="st1" points="304.8,243.6 304.8,278.2 274.4,260.9 274.4,226.2 				"/>
			</g>
			<g>
				<g>
					<polygon class="st0" points="122.1,278.3 122.1,278.3 91.7,261 122.1,243.7 152.5,261 					"/>
					<polygon class="st0" points="122.1,278.3 122.1,312.9 91.7,295.6 91.7,261 					"/>
					<polygon class="st0" points="152.5,261 152.5,295.6 122.1,312.9 122.1,278.3 					"/>
				</g>
				<polygon class="st1" points="122.1,278.3 122.1,312.9 91.7,295.6 91.7,261 				"/>
			</g>
			<g>
				<g>
					<polygon class="st0" points="61.1,208 61.1,208 30.7,190.7 61.1,173.4 91.6,190.7 					"/>
					<polygon class="st0" points="61.1,208 61.1,242.7 30.7,225.4 30.7,190.7 					"/>
					<polygon class="st0" points="91.6,190.7 91.6,225.4 61.1,242.7 61.1,208 					"/>
				</g>
				<polygon class="st1" points="61.1,208 61.1,242.7 30.7,225.4 30.7,190.7 				"/>
			</g>
			<g>
				<g>
					<polygon class="st0" points="943.8,330.6 943.8,330.6 913.4,313.2 943.8,295.9 974.3,313.2 					"/>
					<polygon class="st0" points="943.8,330.6 943.8,365.2 913.4,347.9 913.4,313.2 					"/>
					<polygon class="st0" points="974.3,313.2 974.3,347.9 943.8,365.2 943.8,330.6 					"/>
				</g>
				<polygon class="st1" points="943.8,330.6 943.8,365.2 913.4,347.9 913.4,313.2 				"/>
			</g>
			<g>
				<g>
					<polygon class="st0" points="853.6,312.5 853.6,312.5 823.2,295.2 853.6,277.9 884,295.2 					"/>
					<polygon class="st0" points="853.6,312.5 853.6,347.1 823.2,329.8 823.2,295.2 					"/>
					<polygon class="st0" points="884,295.2 884,329.8 853.6,347.1 853.6,312.5 					"/>
				</g>
				<polygon class="st1" points="853.6,312.5 853.6,347.1 823.2,329.8 823.2,295.2 				"/>
			</g>
			<g>
				<g>
					<polygon class="st0" points="853.6,243.2 853.6,243.2 823.2,225.9 853.6,208.6 884,225.9 					"/>
					<polygon class="st0" points="853.6,243.2 853.6,277.9 823.2,260.5 823.2,225.9 					"/>
					<polygon class="st0" points="884,225.9 884,260.5 853.6,277.9 853.6,243.2 					"/>
				</g>
				<polygon class="st1" points="853.6,243.2 853.6,277.9 823.2,260.5 823.2,225.9 				"/>
			</g>
			<g>
				<g>
					<polygon class="st0" points="1004.7,262.5 1004.7,262.4 974.3,245.1 1004.7,227.8 1035.1,245.1 					"/>
					<polygon class="st0" points="1004.7,262.4 1004.7,297.1 974.3,279.8 974.3,245.1 					"/>
					<polygon class="st0" points="1035.1,245.1 1035.1,279.8 1004.7,297.1 1004.7,262.5 					"/>
				</g>
				<polygon class="st1" points="1004.7,262.5 1004.7,297.1 974.3,279.8 974.3,245.1 				"/>
			</g>
			<g>
				<g>
					<polygon class="st0" points="853.6,277.9 853.6,277.9 823.2,260.5 853.6,243.2 884,260.5 					"/>
					<polygon class="st0" points="853.6,277.9 853.6,312.5 823.2,295.2 823.2,260.5 					"/>
					<polygon class="st0" points="884,260.5 884,295.2 853.6,312.5 853.6,277.9 					"/>
				</g>
				<polygon class="st1" points="853.6,277.9 853.6,312.5 823.2,295.2 823.2,260.5 				"/>
			</g>
			<g>
				<g>
					<polygon class="st0" points="670,69.8 670,69.8 639.5,52.5 670,35.1 700.4,52.5 					"/>
					<polygon class="st0" points="670,69.8 670,104.4 639.5,87.1 639.5,52.5 					"/>
					<polygon class="st0" points="700.4,52.5 700.4,87.1 670,104.4 670,69.8 					"/>
				</g>
				<polygon class="st1" points="670,69.8 670,104.4 639.5,87.1 639.5,52.5 				"/>
			</g>
			<g>
				<g>
					<polygon class="st0" points="396.1,122.4 396.1,122.3 365.7,105 396.1,87.7 426.5,105 					"/>
					<polygon class="st0" points="396.1,122.3 396.1,157 365.7,139.7 365.7,105 					"/>
					<polygon class="st0" points="426.5,105 426.5,139.7 396.1,157 396.1,122.4 					"/>
				</g>
				<polygon class="st1" points="396.1,122.4 396.1,157 365.7,139.7 365.7,105 				"/>
			</g>
			<g>
				<g>
					<polygon class="st0" points="396.1,87.8 396.1,87.8 365.7,70.5 396.1,53.2 426.5,70.5 					"/>
					<polygon class="st0" points="396.1,87.8 396.1,122.4 365.7,105.1 365.7,70.5 					"/>
					<polygon class="st0" points="426.5,70.5 426.5,105.1 396.1,122.4 396.1,87.8 					"/>
				</g>
				<polygon class="st1" points="396.1,87.8 396.1,122.4 365.7,105.1 365.7,70.5 				"/>
			</g>
			<g>
				<g>
					<polygon class="st0" points="700.4,331.6 700.4,331.6 670,314.3 700.4,297 730.8,314.3 					"/>
					<polygon class="st0" points="700.4,331.6 700.4,366.3 670,348.9 670,314.3 					"/>
					<polygon class="st0" points="730.8,314.3 730.8,348.9 700.4,366.3 700.4,331.6 					"/>
				</g>
				<polygon class="st1" points="700.4,331.6 700.4,366.3 670,348.9 670,314.3 				"/>
			</g>
			<g>
				<g>
					<polygon class="st0" points="700.4,297.1 700.4,297.1 670,279.8 700.4,262.4 730.8,279.8 					"/>
					<polygon class="st0" points="700.4,297.1 700.4,331.7 670,314.4 670,279.8 					"/>
					<polygon class="st0" points="730.8,279.8 730.8,314.4 700.4,331.7 700.4,297.1 					"/>
				</g>
				<polygon class="st1" points="700.4,297.1 700.4,331.7 670,314.4 670,279.8 				"/>
			</g>
			<g>
				<g>
					<polygon class="st0" points="823.2,119.4 823.2,119.4 792.7,102.1 823.2,84.8 853.6,102.1 					"/>
					<polygon class="st0" points="823.2,119.4 823.2,154.1 792.7,136.8 792.7,102.1 					"/>
					<polygon class="st0" points="853.6,102.1 853.6,136.8 823.2,154.1 823.2,119.4 					"/>
				</g>
				<polygon class="st1" points="823.2,119.4 823.2,154.1 792.7,136.8 792.7,102.1 				"/>
			</g>
			<g>
				<g>
					<polygon class="st0" points="823.2,84.9 823.2,84.9 792.7,67.6 823.2,50.3 853.6,67.6 					"/>
					<polygon class="st0" points="823.2,84.9 823.2,119.5 792.7,102.2 792.7,67.6 					"/>
					<polygon class="st0" points="853.6,67.6 853.6,102.2 823.2,119.5 823.2,84.9 					"/>
				</g>
				<polygon class="st1" points="823.2,84.9 823.2,119.5 792.7,102.2 792.7,67.6 				"/>
			</g>
			<g>
				<g>
					<polygon class="st0" points="426.5,243.2 426.5,243.2 396.1,225.9 426.5,208.6 457,225.9 					"/>
					<polygon class="st0" points="426.5,243.2 426.5,277.9 396.1,260.5 396.1,225.9 					"/>
					<polygon class="st0" points="457,225.9 457,260.5 426.5,277.9 426.5,243.2 					"/>
				</g>
				<polygon class="st1" points="426.5,243.2 426.5,277.9 396.1,260.5 396.1,225.9 				"/>
			</g>
			<g>
				<g>
					<polygon class="st0" points="426.5,208.7 426.5,208.7 396.1,191.4 426.5,174.1 457,191.4 					"/>
					<polygon class="st0" points="426.5,208.7 426.5,243.3 396.1,226 396.1,191.4 					"/>
					<polygon class="st0" points="457,191.4 457,226 426.5,243.3 426.5,208.7 					"/>
				</g>
				<polygon class="st1" points="426.5,208.7 426.5,243.3 396.1,226 396.1,191.4 				"/>
			</g>
			<g>
				<g>
					<polygon class="st0" points="243.9,347.8 243.9,347.8 213.5,330.5 243.9,313.2 274.4,330.5 					"/>
					<polygon class="st0" points="243.9,347.8 243.9,382.5 213.5,365.1 213.5,330.5 					"/>
					<polygon class="st0" points="274.4,330.5 274.4,365.1 243.9,382.5 243.9,347.8 					"/>
				</g>
				<polygon class="st1" points="243.9,347.8 243.9,382.5 213.5,365.1 213.5,330.5 				"/>
			</g>
			<g>
				<g>
					<polygon class="st0" points="243.9,313.3 243.9,313.3 213.5,296 243.9,278.6 274.4,296 					"/>
					<polygon class="st0" points="243.9,313.3 243.9,347.9 213.5,330.6 213.5,296 					"/>
					<polygon class="st0" points="274.4,296 274.4,330.6 243.9,347.9 243.9,313.3 					"/>
				</g>
				<polygon class="st1" points="243.9,313.3 243.9,347.9 213.5,330.6 213.5,296 				"/>
			</g>
			<g>
				<g>
					<polygon class="st0" points="30.9,329.8 30.9,329.8 0.5,312.5 30.9,295.1 61.4,312.5 					"/>
					<polygon class="st0" points="30.9,329.8 30.9,364.4 0.5,347.1 0.5,312.5 					"/>
					<polygon class="st0" points="61.4,312.5 61.4,347.1 30.9,364.4 30.9,329.8 					"/>
				</g>
				<polygon class="st1" points="30.9,329.8 30.9,364.4 0.5,347.1 0.5,312.5 				"/>
			</g>
			<g>
				<g>
					<polygon class="st0" points="30.9,295.2 30.9,295.2 0.5,277.9 30.9,260.6 61.4,277.9 					"/>
					<polygon class="st0" points="30.9,295.2 30.9,329.9 0.5,312.6 0.5,277.9 					"/>
					<polygon class="st0" points="61.4,277.9 61.4,312.6 30.9,329.9 30.9,295.2 					"/>
				</g>
				<polygon class="st1" points="30.9,295.2 30.9,329.9 0.5,312.6 0.5,277.9 				"/>
			</g>
			<g>
				<g>
					<polygon class="st0" points="943.8,190.8 943.8,190.8 913.4,173.5 943.8,156.1 974.3,173.5 					"/>
					<polygon class="st0" points="943.8,190.8 943.8,225.4 913.4,208.1 913.4,173.5 					"/>
					<polygon class="st0" points="974.3,173.5 974.3,208.1 943.8,225.4 943.8,190.8 					"/>
				</g>
				<polygon class="st1" points="943.8,190.8 943.8,225.4 913.4,208.1 913.4,173.5 				"/>
			</g>
			<g>
				<g>
					<polygon class="st0" points="943.8,156.2 943.8,156.2 913.4,138.9 943.8,121.6 974.3,138.9 					"/>
					<polygon class="st0" points="943.8,156.2 943.8,190.9 913.4,173.6 913.4,138.9 					"/>
					<polygon class="st0" points="974.3,138.9 974.3,173.6 943.8,190.9 943.8,156.2 					"/>
				</g>
				<polygon class="st1" points="943.8,156.2 943.8,190.9 913.4,173.6 913.4,138.9 				"/>
			</g>
			<g>
				<g>
					<polygon class="st0" points="761.2,226 761.2,226 730.8,208.6 761.2,191.3 791.7,208.6 					"/>
					<polygon class="st0" points="761.2,226 761.2,260.6 730.8,243.3 730.8,208.6 					"/>
					<polygon class="st0" points="791.7,208.6 791.7,243.3 761.2,260.6 761.2,226 					"/>
				</g>
				<polygon class="st1" points="761.2,226 761.2,260.6 730.8,243.3 730.8,208.6 				"/>
			</g>
			<g>
				<g>
					<polygon class="st0" points="761.2,191.4 761.2,191.4 730.8,174.1 761.2,156.8 791.7,174.1 					"/>
					<polygon class="st0" points="761.2,191.4 761.2,226.1 730.8,208.7 730.8,174.1 					"/>
					<polygon class="st0" points="791.7,174.1 791.7,208.7 761.2,226.1 761.2,191.4 					"/>
				</g>
				<polygon class="st1" points="761.2,191.4 761.2,226.1 730.8,208.7 730.8,174.1 				"/>
			</g>
			<g>
				<g>
					<polygon class="st0" points="518.2,190.8 518.2,190.8 487.8,173.5 518.2,156.2 548.6,173.5 					"/>
					<polygon class="st0" points="518.2,190.8 518.2,225.5 487.8,208.1 487.8,173.5 					"/>
					<polygon class="st0" points="548.6,173.5 548.6,208.1 518.2,225.5 518.2,190.8 					"/>
				</g>
				<polygon class="st1" points="518.2,190.8 518.2,225.5 487.8,208.1 487.8,173.5 				"/>
			</g>
			<g>
				<g>
					<polygon class="st0" points="518.2,156.3 518.2,156.3 487.8,139 518.2,121.7 548.6,139 					"/>
					<polygon class="st0" points="518.2,156.3 518.2,190.9 487.8,173.6 487.8,139 					"/>
					<polygon class="st0" points="548.6,139 548.6,173.6 518.2,190.9 518.2,156.3 					"/>
				</g>
				<polygon class="st1" points="518.2,156.3 518.2,190.9 487.8,173.6 487.8,139 				"/>
			</g>
			<g>
				<g>
					<polygon class="st0" points="487.8,314.4 487.8,314.3 457.4,297 487.8,279.7 518.2,297 					"/>
					<polygon class="st0" points="487.8,314.3 487.8,349 457.4,331.7 457.4,297 					"/>
					<polygon class="st0" points="518.2,297 518.2,331.7 487.8,349 487.8,314.4 					"/>
				</g>
				<polygon class="st1" points="487.8,314.4 487.8,349 457.4,331.7 457.4,297 				"/>
			</g>
			<g>
				<g>
					<polygon class="st0" points="487.8,383.5 487.8,383.5 457.4,366.2 487.8,348.9 518.2,366.2 					"/>
					<polygon class="st0" points="487.8,383.5 487.8,418.2 457.4,400.9 457.4,366.2 					"/>
					<polygon class="st0" points="518.2,366.2 518.2,400.9 487.8,418.2 487.8,383.5 					"/>
				</g>
				<polygon class="st1" points="487.8,383.5 487.8,418.2 457.4,400.9 457.4,366.2 				"/>
			</g>
			<g>
				<g>
					<polygon class="st0" points="487.8,349 487.8,349 457.4,331.7 487.8,314.4 518.2,331.7 					"/>
					<polygon class="st0" points="487.8,349 487.8,383.6 457.4,366.3 457.4,331.7 					"/>
					<polygon class="st0" points="518.2,331.7 518.2,366.3 487.8,383.6 487.8,349 					"/>
				</g>
				<polygon class="st1" points="487.8,349 487.8,383.6 457.4,366.3 457.4,331.7 				"/>
			</g>
			<g>
				<g>
					<polygon class="st0" points="853.6,67.6 853.6,67.6 823.2,50.3 853.6,33 884,50.3 					"/>
					<polygon class="st0" points="853.6,67.6 853.6,102.2 823.2,84.9 823.2,50.3 					"/>
					<polygon class="st0" points="884,50.3 884,84.9 853.6,102.2 853.6,67.6 					"/>
				</g>
				<polygon class="st1" points="853.6,67.6 853.6,102.2 823.2,84.9 823.2,50.3 				"/>
			</g>
			<g>
				<g>
					<polygon class="st0" points="853.6,136.8 853.6,136.8 823.2,119.5 853.6,102.1 884,119.5 					"/>
					<polygon class="st0" points="853.6,136.8 853.6,171.4 823.2,154.1 823.2,119.5 					"/>
					<polygon class="st0" points="884,119.5 884,154.1 853.6,171.4 853.6,136.8 					"/>
				</g>
				<polygon class="st1" points="853.6,136.8 853.6,171.4 823.2,154.1 823.2,119.5 				"/>
			</g>
			<g>
				<g>
					<polygon class="st0" points="853.6,102.2 853.6,102.2 823.2,84.9 853.6,67.6 884,84.9 					"/>
					<polygon class="st0" points="853.6,102.2 853.6,136.9 823.2,119.6 823.2,84.9 					"/>
					<polygon class="st0" points="884,84.9 884,119.6 853.6,136.9 853.6,102.2 					"/>
				</g>
				<polygon class="st1" points="853.6,102.2 853.6,136.9 823.2,119.6 823.2,84.9 				"/>
			</g>
			<g>
				<g>
					<polygon class="st0" points="670,104.4 670,104.4 639.5,87.1 670,69.8 700.4,87.1 					"/>
					<polygon class="st0" points="670,104.4 670,139.1 639.5,121.8 639.5,87.1 					"/>
					<polygon class="st0" points="700.4,87.1 700.4,121.8 670,139.1 670,104.4 					"/>
				</g>
				<polygon class="st1" points="670,104.4 670,139.1 639.5,121.8 639.5,87.1 				"/>
			</g>
			<g>
				<g>
					<polygon class="st0" points="670,173.6 670,173.6 639.5,156.3 670,139 700.4,156.3 					"/>
					<polygon class="st0" points="670,173.6 670,208.2 639.5,190.9 639.5,156.3 					"/>
					<polygon class="st0" points="700.4,156.3 700.4,190.9 670,208.2 670,173.6 					"/>
				</g>
				<polygon class="st1" points="670,173.6 670,208.2 639.5,190.9 639.5,156.3 				"/>
			</g>
			<g>
				<g>
					<polygon class="st0" points="670,139.1 670,139.1 639.5,121.8 670,104.4 700.4,121.8 					"/>
					<polygon class="st0" points="670,139.1 670,173.7 639.5,156.4 639.5,121.8 					"/>
					<polygon class="st0" points="700.4,121.8 700.4,156.4 670,173.7 670,139.1 					"/>
				</g>
				<polygon class="st1" points="670,139.1 670,173.7 639.5,156.4 639.5,121.8 				"/>
			</g>
			<g>
				<g>
					<polygon class="st0" points="183.1,69.7 183.1,69.7 152.6,52.4 183.1,35 213.5,52.4 					"/>
					<polygon class="st0" points="183.1,69.7 183.1,104.3 152.6,87 152.6,52.4 					"/>
					<polygon class="st0" points="213.5,52.4 213.5,87 183.1,104.3 183.1,69.7 					"/>
				</g>
				<polygon class="st1" points="183.1,69.7 183.1,104.3 152.6,87 152.6,52.4 				"/>
			</g>
			<g>
				<g>
					<polygon class="st0" points="183.1,104.3 183.1,104.3 152.6,87 183.1,69.7 213.5,87 					"/>
					<polygon class="st0" points="183.1,104.3 183.1,139 152.6,121.7 152.6,87 					"/>
					<polygon class="st0" points="213.5,87 213.5,121.7 183.1,139 183.1,104.3 					"/>
				</g>
				<polygon class="st1" points="183.1,104.3 183.1,139 152.6,121.7 152.6,87 				"/>
			</g>
			<g>
				<g>
					<polygon class="st0" points="183.1,173.5 183.1,173.5 152.6,156.2 183.1,138.9 213.5,156.2 					"/>
					<polygon class="st0" points="183.1,173.5 183.1,208.2 152.6,190.8 152.6,156.2 					"/>
					<polygon class="st0" points="213.5,156.2 213.5,190.8 183.1,208.2 183.1,173.5 					"/>
				</g>
				<polygon class="st1" points="183.1,173.5 183.1,208.2 152.6,190.8 152.6,156.2 				"/>
			</g>
			<g>
				<g>
					<polygon class="st0" points="183.1,139 183.1,139 152.6,121.7 183.1,104.3 213.5,121.7 					"/>
					<polygon class="st0" points="183.1,139 183.1,173.6 152.6,156.3 152.6,121.7 					"/>
					<polygon class="st0" points="213.5,121.7 213.5,156.3 183.1,173.6 183.1,139 					"/>
				</g>
				<polygon class="st1" points="183.1,139 183.1,173.6 152.6,156.3 152.6,121.7 				"/>
			</g>
		</g>
	</g>
</g>
</svg>
