<svg xmlns="http://www.w3.org/2000/svg" viewBox="0 0 215.91 215.91">
  <defs>
    <style>
      .cls-1 {
        fill: #222;
      }

      .cls-1, .cls-2 {
        stroke: #fff;
        stroke-miterlimit: 10;
      }

      .cls-2 {
        fill: #fff;
        stroke-width: 8.94px;
      }
    </style>
  </defs>
  <g id="Layer_2" data-name="Layer 2">
    <g id="Layer_1-2" data-name="Layer 1">
      <g>
        <rect class="cls-1" x="0.5" y="0.5" width="214.91" height="214.91" rx="16.6"/>
        <g>
          <path class="cls-2" d="M68.36,54.86V165.15H54.12V54.86Z"/>
          <path class="cls-2" d="M161.14,49v95.73c0,7,.16,15.06.65,20.46H148.87l-.66-13.75h-.33c-4.41,8.84-14.07,15.55-27,15.55C101.74,167,87,150.75,87,126.69c-.16-26.34,16.2-42.54,35.51-42.54,12.11,0,20.29,5.72,23.89,12.11h.33V49Zm-14.4,69.22a24.93,24.93,0,0,0-.66-6.05A21.17,21.17,0,0,0,125.3,95.44c-14.89,0-23.73,13.09-23.73,30.6,0,16,7.86,29.29,23.4,29.29,9.66,0,18.5-6.38,21.11-17.18a24.64,24.64,0,0,0,.66-6.22Z"/>
        </g>
      </g>
    </g>
  </g>
</svg>
