<?xml version="1.0" encoding="utf-8"?>
<!-- Generator: Adobe Illustrator 25.3.1, SVG Export Plug-In . SVG Version: 6.00 Build 0)  -->
<svg version="1.1" id="Layer_1" xmlns="http://www.w3.org/2000/svg" xmlns:xlink="http://www.w3.org/1999/xlink" x="0px" y="0px"
	 viewBox="0 0 208 294.8" style="enable-background:new 0 0 208 294.8;" xml:space="preserve">
<style type="text/css">
	.st0{fill:#222222;}
</style>
<g id="Layer_2_1_">
	<g id="Layer_1-2">
		<path class="st0" d="M69.8,98.7V99c0,0,0-0.1,0-0.1C69.8,98.8,69.8,98.8,69.8,98.7z"/>
		<path class="st0" d="M206.4,179.6c-2.1-11.7-6.2-22.9-12.1-33.2c-2.9-5.1-6.3-10-10-14.5c-0.9-1.1-1.9-2.2-2.9-3.3l-1.5-1.6
			c-0.5-0.6-1-1.1-1.5-1.6l-0.3-0.3c-0.9-0.9-1.8-1.9-2.8-2.8l-1.6-1.5l-1.7-1.5c-8.8-7.7-18.8-13.9-29.7-18.3c-0.5-0.2-1-0.6-1.4-1
			c-0.3-0.3-0.4-0.6-0.4-1v-0.2v-0.2c-0.6-4.2-1.1-8.4-1.4-12.5s-0.5-8.4-0.5-12.6c0-7.6,0.3-15.6,1.1-25.2
			c0.3-4.2,0.8-8.5,1.2-12.6l0.8-7.1l0.5-0.2c0.3-0.1,0.7-0.2,1-0.4c0.3-0.1,0.7-0.3,1-0.5c2.5-1.4,4.4-3.7,5.3-6.5
			c0.2-0.6,0.4-1.3,0.5-2c0-0.3,0.1-0.6,0.1-0.8v-0.3c0-0.2,0-0.4,0-0.6l0.1-2.8v-1c-0.5-6.1-5.5-10.8-11.6-11
			c-6.4-0.8-12.1-1.3-17.4-1.7c-5.9-0.5-11.8-0.7-17.6-0.8c-6.2,0-12,0.1-17.6,0.3S74.8,1,68.6,1.7c-6.5,0.1-11.9,5.2-12.5,11.7v1.1
			v2.4v1.2c0,0.3,0,0.6,0.1,0.9c0.1,0.8,0.3,1.5,0.5,2.3c1,3,3,5.6,5.8,7.2c0.3,0.2,0.7,0.4,1,0.5c0.3,0.2,0.6,0.3,0.9,0.4l0.6,6.3
			c0.5,4.8,0.8,8.8,1.1,12.6c0.8,9.7,1.2,17.7,1.2,25.2c0.1,8.4-0.5,16.7-1.6,25c0,0.2,0,0.4,0,0.6c0,0.1,0,0.1-0.1,0.2
			c-0.2,0.3-0.5,0.5-0.8,0.7l-0.2,0.1l-3.4,1.5c-1.3,0.6-2.6,1.3-4,2l-1.3,0.7c-0.8,0.4-1.7,0.9-2.5,1.4c-5.1,2.9-10,6.3-14.5,10
			c-4.5,3.7-8.8,7.8-12.6,12.2c-0.7,0.7-1.3,1.5-1.9,2.2c-0.3,0.4-0.6,0.8-1,1.2c-0.6,0.8-1.3,1.6-1.9,2.4l-0.8,1.1
			c-1.4,1.9-3.2,4.5-4.9,7.3C3.1,162.2-2.1,186.2,0.8,209.8c1.4,11.9,5.1,23.4,10.8,33.8c5.8,10.5,13.6,19.8,22.9,27.4
			c4.6,3.8,9.6,7.2,14.8,10.1c5.2,2.9,10.7,5.3,16.4,7.3c11.3,4,23.1,6.1,35.1,6.4c1.2,0,2.4,0,3.5,0c10.8,0,21.5-1.5,31.9-4.5
			c11.6-3.3,22.5-8.6,32.3-15.6c9.8-7,18.2-15.9,24.8-26c3.3-5.1,6-10.5,8.2-16.1c2.2-5.6,3.8-11.4,4.9-17.4c0.1-0.5,0.2-1,0.2-1.5
			c0.2-0.9,0.3-1.9,0.4-2.9l0.5-4.5l0.3-4.4c0.1-0.6,0.1-1.3,0.1-1.9v-2.6C207.9,191.4,207.4,185.5,206.4,179.6z M19.9,144.5
			c5.8-9.6,13.3-18.1,22.1-25.1c4.4-3.5,9.1-6.6,14-9.3c0.8-0.4,1.5-0.8,2.3-1.2l1.3-0.7c1.3-0.6,2.5-1.2,3.8-1.8L67,105
			c0.2-0.1,0.5-0.2,0.7-0.3c1-0.5,1.8-1.3,2.5-2.2c0.8-1,1.2-2.2,1.2-3.5c1.4-8.4,2.2-16.9,2.5-25.5c0.2-7.9,0.2-16.3-0.3-25.7
			C73.4,44,73.1,40,72.8,35c-0.1-2.1-0.3-4.3-0.5-6.4L72.2,27c-0.1-1.8-1.1-3.5-2.7-4.4c-0.4-0.3-0.9-0.5-1.3-0.6l-0.5-0.1
			c-0.1,0-0.2-0.1-0.3-0.1h-0.1c-0.1,0-0.2-0.1-0.3-0.1l-0.1,0c-0.1,0-0.1-0.1-0.2-0.1l-0.1-0.1c-1-0.6-1.7-1.5-2-2.6
			c-0.1-0.3-0.1-0.6-0.2-0.9v-0.1c0-0.1,0-0.2,0-0.2v-0.1v-2.9c0-0.2,0-0.3,0-0.5c0.1-1.1,0.6-2.1,1.4-2.8c0.8-0.7,1.9-1.1,3-1.1
			c0.1,0,0.3,0,0.4,0c5.3-0.5,10.9-1,17.1-1.3s11.8-0.5,17.2-0.6c5.7-0.1,11.5,0,17.2,0.2c6.6,0.2,12.1,0.6,17.3,1h0.3
			c2.7-0.1,5.1,1.9,5.4,4.6l0.1,3.2c0,0.1,0,0.3,0,0.4v0.3c0,0.1,0,0.1,0,0.2v0.1c0,0.3-0.1,0.7-0.2,1c-0.4,1.3-1.2,2.5-2.4,3.2
			l-0.1,0.1c-0.1,0.1-0.2,0.1-0.3,0.2l-0.1,0c-0.1,0.1-0.3,0.1-0.4,0.2h-0.1c-0.1,0.1-0.3,0.1-0.4,0.1l-0.4,0.1
			c-0.4,0.1-0.7,0.3-1,0.5c-1.2,0.8-2,2.1-2.1,3.5l-0.9,14.3c-0.1,2.1-0.2,4.3-0.3,6.4c-0.2,4.1-0.3,8.4-0.4,12.8s0,9,0.1,12.8
			c0.2,8.5,0.9,17,2.2,25.4c0,1.3,0.5,2.5,1.4,3.5c0.8,0.8,1.7,1.5,2.8,1.9c31.8,13.1,54.1,42.3,58.5,76.4c0.7,5.5,0.9,11,0.7,16.5
			c0,0.6-0.1,1.1-0.1,1.7c0,0.9-0.1,1.7-0.1,2.5l-0.4,4.1l-0.6,4.1c-0.1,0.9-0.3,1.7-0.5,2.6c-0.1,0.5-0.2,1-0.3,1.4
			c-1.1,5.4-2.8,10.6-4.8,15.7c-2.1,5-4.7,9.9-7.6,14.5c-6,9.1-13.7,17.1-22.6,23.4c-8.9,6.4-18.9,11.2-29.4,14.2
			c-5.3,1.5-10.7,2.7-16.1,3.4c-5.5,0.7-11,1-16.5,0.9c-5.5-0.1-11-0.6-16.5-1.5c-5.4-0.9-10.8-2.3-16-4c-5.2-1.7-10.3-3.9-15.1-6.5
			c-4.8-2.6-9.4-5.6-13.8-9c-8.7-6.8-16-15.2-21.7-24.6c-5.6-9.5-9.3-20.1-11-31C3.6,186.7,8.2,163.8,19.9,144.5z M69.8,99v-0.3
			c0,0.1,0,0.1,0,0.2C69.8,98.9,69.8,99,69.8,99z"/>
		<path class="st0" d="M136.2,111.3c-1.4-0.6-2.3-1.8-2.6-3.3c-3.9-17.7-4.4-52.5-2.7-81.4c0.1-3-53.6-3.7-53.6-0.7
			c1.5,24.7,1.5,57.7-0.5,72.7c-0.5,3.9-0.9,6.2-3,9.5l-0.1,0.2c-1.5,2.2-3.6,4-6.1,5.1c-30.2,13.9-51.8,45.6-51.8,81
			c0,48.4,39.3,82.5,87.7,82.5l0,0c48.4,0,87.7-34,87.7-82.5C191.3,157.7,168.1,124.4,136.2,111.3z"/>
	</g>
</g>
</svg>
