<?xml version="1.0" encoding="utf-8"?>
<!-- Generator: Adobe Illustrator 25.3.1, SVG Export Plug-In . SVG Version: 6.00 Build 0)  -->
<svg version="1.1" xmlns="http://www.w3.org/2000/svg" xmlns:xlink="http://www.w3.org/1999/xlink" x="0px" y="0px"
	 viewBox="0 0 400.3 282.6" style="enable-background:new 0 0 400.3 282.6;" xml:space="preserve">
<style type="text/css">
	.st0{fill:none;stroke:#000222;stroke-width:0.5;stroke-linecap:round;stroke-linejoin:round;stroke-miterlimit:10;}
	.st1{opacity:0.5;fill:#E5E5E5;stroke:#231F20;stroke-width:0.5;stroke-linecap:round;stroke-linejoin:round;stroke-miterlimit:10;}
	
		.st2{opacity:0.5;fill:#E5E5E5;stroke:#231F20;stroke-width:0.4468;stroke-linecap:round;stroke-linejoin:round;stroke-miterlimit:10;}
	
		.st3{opacity:0.5;fill:#E5E5E5;stroke:#231F20;stroke-width:0.5587;stroke-linecap:round;stroke-linejoin:round;stroke-miterlimit:10;}
	.st4{fill:none;stroke:#231F20;stroke-width:0.4468;stroke-linecap:round;stroke-linejoin:round;stroke-miterlimit:10;}
	.st5{fill:none;stroke:#231F20;stroke-width:0.5587;stroke-linecap:round;stroke-linejoin:round;stroke-miterlimit:10;}
</style>
<g id="Layer_1">
	
		<image style="overflow:visible;" width="1432" height="1032" xlink:href="../../../../../Screenshot 2022-05-03 at 13.33.29.png"  transform="matrix(0.2907 0 0 0.2907 -302.4514 -344.7458)">
	</image>
</g>
<g id="back">
	<g>
		<path class="st0" d="M-169.3-251.7c-7.6-22.5-27.3-54.9,0-67.6c8.4-3.3,9.2-5.6,4.3-7.2c-2.1-0.7-4.2-1.6-4.4-2.6
			c-0.1-0.6,0.4-1.1,2-1.6c2.1-0.6,5.8-1.1,12.2-1.3c19.8-0.6,24.8,2,15,4.7c-1.8,0.4-4.8,3.8,1.9,5.1c6.9,1.3,26.2,10.5,17.4,41.5
			s-14,58.6-12.1,66.9c1.2,9.8,4.1,8.4,4.6,11.5c0.8,3.2-5,8.1-21.2,8.1s-26.1-4.3-19.6-10.5C-165.2-211.7-165.6-240.7-169.3-251.7z
			"/>
		<path class="st0" d="M-167.4-330c-0.3-0.5,6.7-1.5,14.9-1.5c8.3,0,15,0.4,15,0.9c0,0.4-6.7,1.4-15,1.4S-167.1-329.6-167.4-330z"/>
	</g>
	<g>
		<path class="st0" d="M-116.1-218c4.7-53,13.8-77.3,13.8-77.3c1.2-3.3,18.9-2.9,19.6,0c0,0,18.5,52.2,18.5,84.7
			s-27.4,32.5-28.2,32.5S-119.3-180.5-116.1-218z"/>
		<path class="st0" d="M-100.3-295.8c0,0.5,3.6,1,8,1c4.4,0,8-0.4,8-1s-3.6-1.1-8-1.1C-96.7-296.9-100.3-296.3-100.3-295.8z"/>
	</g>
	<g>
		<path class="st0" d="M39.1-292.6c0.8,0.9,0.5,0.6,0.8,0.9c23.5,23.1,62.3,122.1-14.3,124C-46-166.6-21-267.2,10.5-293.2
			c0.7-0.6,3-2.5,3-2.5c2.7-1.9,16.8-3.8,23.5,1.1c0.4,0.3,1.3,1,1.7,1.4L39.1-292.6z"/>
		<path class="st0" d="M15.5-295.2c0-0.6,4.4-1.4,9.5-1.4s9.4,1.3,9.4,1.8c0,0.6-4.2,1.1-9.4,1.1S15.5-294.6,15.5-295.2z"/>
	</g>
	<g>
		
			<ellipse transform="matrix(0.9956 -9.327529e-02 9.327529e-02 0.9956 14.6206 -22.3504)" class="st0" cx="-231.8" cy="-167.6" rx="22" ry="9.3"/>
		<path class="st0" d="M-230.1-176.8c-0.4,0,0.5,1.7,1.2,2.8c0.3,0.5,0,1.1-0.6,1.2c-0.5,0.1-1.1,0.2-1.8,0.2c-2,0.1-3-0.8-2.7-1.3
			c0.1-0.2,1.6-1.9,1.4-2.9c0,0-4.2,1.3-5.6,3.1c-1.6,3,2.9,5.7,7.4,5.4c4.5-0.3,7-2.2,7-4.2C-223.8-174.8-227.9-176.6-230.1-176.8z
			"/>
		<ellipse class="st0" cx="-231.4" cy="-179.6" rx="3" ry="2.6"/>
		<path class="st0" d="M-232.4-185.2c-2.8,0-5.2-0.9-6.3-2.1c-0.4,0.4-0.6,0.9-0.6,1.4c0,1.9,3.1,3.3,6.9,3.5
			c4.7,0.2,7.9-2.6,7.9-4.5c0-0.5-0.2-1-0.6-1.4C-226.2-187.1-227.4-185.2-232.4-185.2z"/>
		<path class="st0" d="M-232.4-185.2c2.7-0.1,6.4-1.4,7.3-3.1c-1.1-1.2-4.5-1.1-7.3-1.1s-5.2,0.9-6.3,2.1
			C-237.6-186.1-235.2-185.6-232.4-185.2z"/>
		<path class="st0" d="M-241.4-193.2l-28.7-98.2c-0.2-0.7,0-1.5,0.5-2c6.5-6,52.7-7.9,51.1-0.1c0.4,10.3-4.4,89.1-5.2,101.6
			c-0.1,1.3-0.5,2.6-1.3,3.6c-1.1,1.4-2.9,3-5.2,2.9C-234.2-185.5-238.9-184.6-241.4-193.2z"/>
		<path class="st0" d="M-268.3-292.5c1.3,1.3,10.9,2.7,24.1,2c13.2-0.7,22.9-2.9,24.2-4.1c1.2-1.2-9.6-3.6-22.8-2.9
			C-256.1-296.9-269.8-294-268.3-292.5z"/>
		<path class="st0" d="M-242.9-297.6c-13.2,0.9-26.9,3.5-25.4,5"/>
	</g>
	<g>
		<path class="st0" d="M125,80.7c-7.6-22.5-27.3-54.9,0-67.6c8.4-3.3,9.2-5.6,4.3-7.2c-2.1-0.7-4.2-1.6-4.4-2.6
			c-0.1-0.6,0.4-1.1,2-1.6c2.1-0.6,5.8-1.1,12.2-1.3c19.8-0.6,24.8,2,15,4.7c-1.8,0.4-4.8,3.8,1.9,5.1c6.9,1.3,26.2,10.5,17.4,41.5
			c-8.8,31-14,58.6-12.1,66.9c1.2,9.8,4.1,8.4,4.6,11.5c0.8,3.2-5,8.1-21.2,8.1s-26.1-4.3-19.6-10.5
			C129.2,120.7,128.8,91.7,125,80.7z"/>
		<path class="st1" d="M127,2.4c-0.3-0.5,6.7-1.5,14.9-1.5c8.3,0,15,0.4,15,0.9s-6.7,1.4-15,1.4S127.3,2.8,127,2.4z"/>
	</g>
	<g>
		<path class="st0" d="M184.3,120.4c4.7-53,13.8-77.3,13.8-77.3c1.2-3.3,18.9-2.9,19.6,0c0,0,18.5,52.2,18.5,84.7
			s-27.4,32.5-28.2,32.5C201.9,160.3,181.1,157.9,184.3,120.4z"/>
		<path class="st1" d="M200.1,42.6c0,0.5,3.6,1,8,1c4.4,0,8-0.4,8-1c0-0.5-3.6-1.1-8-1.1C203.6,41.5,200.1,42.1,200.1,42.6z"/>
	</g>
	<g>
		
			<ellipse transform="matrix(0.9956 -9.327529e-02 9.327529e-02 0.9956 -15.101 6.5565)" class="st0" cx="62.6" cy="164.8" rx="22" ry="9.3"/>
		<path class="st0" d="M64.2,155.6c-0.4,0,0.5,1.7,1.2,2.8c0.3,0.5,0,1.1-0.6,1.2c-0.5,0.1-1.1,0.2-1.8,0.2c-2,0.1-3-0.8-2.7-1.3
			c0.1-0.2,1.6-1.9,1.4-2.9c0,0-4.2,1.3-5.6,3.1c-1.6,3,2.9,5.7,7.4,5.4c4.5-0.3,7-2.2,7-4.2C70.5,157.6,66.5,155.8,64.2,155.6z"/>
		<ellipse class="st0" cx="62.9" cy="152.8" rx="3" ry="2.6"/>
		<path class="st0" d="M62,147.2c-2.8,0-5.2-0.9-6.3-2.1c-0.4,0.4-0.6,0.9-0.6,1.4c0,1.9,3.1,3.3,6.9,3.5c4.7,0.2,7.9-2.6,7.9-4.5
			c0-0.5-0.2-1-0.6-1.4C68.2,145.3,67,147.2,62,147.2z"/>
		<path class="st0" d="M62,147.2c2.7-0.1,6.4-1.4,7.3-3.1c-1.1-1.2-4.5-1.1-7.3-1.1c-2.8,0-5.2,0.9-6.3,2.1
			C56.8,146.3,59.2,146.8,62,147.2z"/>
		<path class="st0" d="M53,139.2L24.3,41c-0.2-0.7,0-1.5,0.5-2c6.5-6,52.7-7.9,51.1-0.1c0.4,10.3-4.4,89.1-5.2,101.6
			c-0.1,1.3-0.5,2.6-1.3,3.6c-1.1,1.4-2.9,3-5.2,2.9C60.2,146.9,55.5,147.8,53,139.2z"/>
		<path class="st1" d="M26.1,39.9c1.3,1.3,10.9,2.7,24.1,2S73,39,74.3,37.7c1.2-1.2-9.6-3.6-22.8-2.9S24.6,38.4,26.1,39.9z"/>
		<path class="st0" d="M51.5,34.8c-13.2,0.9-26.9,3.5-25.4,5"/>
	</g>
</g>
<g id="middle">
	<g>
		<path class="st0" d="M-185.6-232.4c6.7-1.3,13.5-1.9,20.3-1.6c24.6,1.2,44.5,10.1,47.9,15.7c12.5,12.9,0.6,57.6-15.1,71.4
			c-16.2,13.3-44.1,23.5-70.6,8.7c-10.3-5.8-17.9-15.3-21.9-26.4c-4.1-11.5-8.6-26.1-8.6-26.1C-238.9-210.1-223.5-224.8-185.6-232.4
			z"/>
		
			<ellipse transform="matrix(0.9988 -4.854156e-02 4.854156e-02 0.9988 10.5623 -8.5756)" class="st0" cx="-171.3" cy="-221.8" rx="27.3" ry="8.4"/>
	</g>
	<g>
		<path class="st0" d="M-30.7-125.1c-34.1-2.7-41.2-37.1-32.2-82.4c8.5-41,18.1-79.5,18.1-79.5c0.8-9.2,36.6-7.4,38-0.9
			c1.7,9.6,15,106.1,15,106.1C10.2-163,8.2-124-30.7-125.1z"/>
		<path class="st0" d="M-41.4-289.6c0-1.2,7.3-2.6,16.1-2.4c8.8,0.2,15.7,2,15.7,3.2c0,1.2-7.2,2-15.9,1.8S-41.4-288.5-41.4-289.6z"
			/>
	</g>
	<g>
		<path class="st0" d="M57.8-251.8c0.2-3.5,11.1-5.7,24.3-5c13.2,0.8,23.8,4.3,23.6,7.8c-0.2,3.5-11.1,5.7-24.3,5
			c-9.9-0.6-18.3-2.7-21.8-5.2C58.4-250.1,57.8-251,57.8-251.8z"/>
		<path class="st0" d="M59.6-249.3c3.7,7.5-9.5,24.2-4.4,36.7c4.6,15.9,37.8,21.4,45.5,3.4c3.6-10.9,0.5-18.7-0.8-23.5
			s-1.7-8.2,1-12.8"/>
		<path class="st0" d="M85.6-198.4c-0.2,2.5-4.5,3.1-9,2.7c-4.5-0.4-8-2.1-7.8-4.6"/>
		<path class="st0" d="M80.8-195.6c0,0-0.8,0.4,1,1.3c2.9,1.7-1.8,3.4-5.6,3.2c-4.9-0.2-7.6-2.8-6.1-4c1-0.7,1.3-0.8,1.2-1.7"/>
		<path class="st0" d="M82.7-192.5c14.4,5.8-1.8,36-3.6,39.5c-1.8,3.5-11.6,1.8-12.5-1.4c-0.9-3.2-3.3-20.4-3.6-23.1
			s-1.4-14.9,6.7-16.1"/>
		<path class="st0" d="M66-149.8c-9.2,0.3-16.2,3.8-16.7,8.8c-0.6,6.1,8.8,12.3,20.9,13.7c12.1,1.4,22.5-2.4,23.1-8.6
			c0.5-5.3-7.8-10.4-14.7-12.2"/>
		<path class="st0" d="M69-147.9c-2,2.2-4.2,1.7-4.6,2.8c-1.1,2.1,2,5.2,6.3,5.9c3.1,0.5,9.3,0,9.8-2.5c0.1-1.5-4-2.9-4-5.6"/>
		<path class="st0" d="M79.4-153c3.9,2.9-2.5,6-6.7,5.9c-4.3-0.1-11.7-4.2-6.1-7.3"/>
	</g>
	<g>
		<path class="st0" d="M276.6,202.3c-34.1-2.7-41.2-37.1-32.2-82.4c8.5-41,18.1-79.5,18.1-79.5c0.8-9.2,36.6-7.4,38-0.9
			c1.7,9.6,15,106.1,15,106.1C317.6,164.4,315.6,203.4,276.6,202.3z"/>
		<path class="st1" d="M266,37.8c0-1.2,7.3-2.6,16.1-2.4c8.8,0.2,15.7,2,15.7,3.2c0,1.2-7.2,2-15.9,1.8
			C273,40.1,265.9,38.9,266,37.8z"/>
	</g>
	<g>
		<path class="st0" d="M352.2,80.6c0.2-3.5,11.1-5.7,24.3-5c13.2,0.8,23.8,4.3,23.6,7.8c-0.2,3.5-11.1,5.7-24.3,5
			c-9.9-0.6-18.3-2.7-21.8-5.2C352.8,82.3,352.2,81.4,352.2,80.6z"/>
		<path class="st0" d="M353.9,83.1c3.7,7.5-9.5,24.2-4.4,36.7c4.6,15.9,37.8,21.4,45.5,3.4c3.6-10.9,0.5-18.7-0.8-23.5
			c-1.3-4.8-1.7-8.2,1-12.8"/>
		<path class="st0" d="M380,134c-0.2,2.5-4.5,3.1-9,2.7c-4.5-0.4-8-2.1-7.8-4.6"/>
		<path class="st0" d="M375.2,136.8c0,0-0.8,0.4,1,1.3c2.9,1.7-1.8,3.4-5.6,3.2c-4.9-0.2-7.6-2.8-6.1-4c1-0.7,1.3-0.8,1.2-1.7"/>
		<path class="st0" d="M377,139.9c14.4,5.8-1.8,36-3.6,39.5c-1.8,3.5-11.6,1.8-12.5-1.4c-0.9-3.2-3.3-20.4-3.6-23.1
			s-1.4-14.9,6.7-16.1"/>
		<path class="st0" d="M360.4,182.6c-9.2,0.3-16.2,3.8-16.7,8.8c-0.6,6.1,8.8,12.3,20.9,13.7c12.1,1.4,22.5-2.4,23.1-8.6
			c0.5-5.3-7.8-10.4-14.7-12.2"/>
		<path class="st0" d="M363.4,184.5c-2,2.2-4.2,1.7-4.6,2.8c-1.1,2.1,2,5.2,6.3,5.9c3.1,0.5,9.3,0,9.8-2.5c0.1-1.5-4-2.9-4-5.6"/>
		<path class="st0" d="M373.8,179.4c3.9,2.9-2.5,6-6.7,5.9c-4.3-0.1-11.7-4.2-6.1-7.3"/>
	</g>
</g>
<g id="front">
	<g>
		<path class="st0" d="M-293.6-143.1c1.3,5.8,16.6,11.5,35.9,8c19.3-3.5,35.4-13.4,34.1-20.6s-20.6-11-37.1-8.2
			C-277.9-161-295.5-151.6-293.6-143.1z"/>
		<path class="st0" d="M-282.6-74.6c1.1,5.9,15.7,11.7,33.8,8.4c18.1-3.3,31.3-16,30-23.2c-1.3-7.5-23.4-7.4-36.3-4.8
			C-271.3-91.1-284-81.6-282.6-74.6z"/>
		<path class="st0" d="M-282.6-74.6l-11.1-65c-1-3.7,0.4-6.9,0.4-6.9"/>
		<path class="st0" d="M-218.9-89.5c0,0-4-60.6-4-62c0-1.5-0.7-4.2-0.7-4.2"/>
	</g>
	<g>
		<path class="st0" d="M-121.7-190.5c0,6.7,13.1,12.1,29.2,12.1s29.2-5.4,29.2-12.1s-12.2-11.1-28.3-11.1S-121.7-197.2-121.7-190.5z
			"/>
		<path class="st0" d="M-114.9-101.6c2.8,16.8,39.9,21.2,46.2,1.7c1.9-4.9,7.7-82.3,8.1-90.1c0.8-17.1-66.7-20.5-64.3,4.5
			C-121.9-159.8-114.9-101.6-114.9-101.6z"/>
	</g>
	<g>
		<path class="st0" d="M87.9-84.9c5.3,13.1-16.6,33.4-56.7,24.7C-12-73.4-8.7-94.1-6.6-100.9"/>
		<path class="st0" d="M30.1-147.5C-11.2-141.6-16.5-114-3-95.6c3.5,4.5,24,21.5,47.4,22.9c22.8,1.3,44.2-9.6,47.9-17.3
			c0,0,15.5-34.8-33.6-52.9"/>
		<path class="st0" d="M25.3-138.9c12.9-11.6,6.8-67.6,6.8-67.6c-1.2-9.5,38.6-9,33.9,7.4c-6.8,23-10.5,32.6-6.8,62.2
			c0.5,2.7,1.2,3.4,1.2,3.4"/>
		<path class="st0" d="M34.4-208.1c0-2,8.8-3.5,16.8-2.4c8,1.2,12.5,4.6,12.2,6.6c-0.3,2-7,2.6-15.1,1.5
			C40.4-203.6,34.4-206.3,34.4-208.1z"/>
	</g>
	<g>
		<path class="st0" d="M-213.8-227c-0.8,7.7-1.7,32.7-1.5,39c0.5,8.1,9.5,31.2,34.8,29.7c25-1.5,30.5-25.5,30.8-31.6
			c0.6-12-6.3-42.5-6.3-42.5c-2.1-7-13-8.4-27-8C-196.3-239.9-213.4-236-213.8-227z"/>
		
			<ellipse transform="matrix(0.9966 -8.260003e-02 8.260003e-02 0.9966 18.4216 -16.0684)" class="st0" cx="-185" cy="-230.7" rx="27" ry="7.9"/>
		<path class="st0" d="M-180.2-104.4c-13.8,2.4-25.4,10.3-25.4,18.9c0,7.8,10.5,18,32.7,15.5c15.6-1.8,28.9-11.6,28.9-21.2
			c0-9-15.5-14.3-29-14"/>
		<path class="st0" d="M-179.9-102.6c-0.3,4.7-2.8,5.5-3.9,6c-2.3,1.3,0,6.5,8.4,5.4c6.5-1,10.1-5.9,7.1-7.6s-4.6-1.6-5.1-5.2
			c-0.8-6.4-0.4-21.7,1.4-23.9c1.6-6.7,9.7-14,3.4-22.6c-8.4,6.7-19.8,3.8-22.5,1.2c-4.5,10.3-1.9,11.9,1.4,17
			C-181.6-120.8-179.7-105.6-179.9-102.6z"/>
		<path class="st0" d="M-191-149.4c-2.7-2.9,5.2-5.6,4.5-9.1"/>
		<path class="st0" d="M-168.4-150.6c1.7-3.3-2.1-3.5-5.4-6.7c-1-1-0.7-2-0.7-2"/>
	</g>
	<path class="st0" d="M0.7,189.4c1.3,5.8,16.6,11.5,35.9,8S72,184,70.7,176.8s-20.6-11-37.1-8.2C16.4,171.4-1.1,180.8,0.7,189.4z"/>
	<path class="st0" d="M75.5,242.9C75.5,242.9,75.4,242.2,75.5,242.9c0.5,7.3-11.9,20-30,23.2s-32.7-2.5-33.8-8.4c-0.3-1.7,0,0,0,0"
		/>
	<path class="st0" d="M11.7,257.8l-11.1-65c-1-3.7,0.4-6.9,0.4-6.9"/>
	<path class="st0" d="M75.5,242.9c0,0-4-60.6-4-62c0-1.5-0.7-4.2-0.7-4.2"/>
	<g>
		<path class="st1" d="M167.7,141.9c0,6.7,13.1,12.1,29.2,12.1s29.2-5.4,29.2-12.1s-12.2-11.1-28.3-11.1S167.7,135.2,167.7,141.9z"
			/>
		<path class="st0" d="M174.5,230.8c2.8,16.8,39.9,21.2,46.2,1.7c1.9-4.9,7.7-82.3,8.1-90.1c0.8-17.1-66.7-20.5-64.3,4.5
			C167.5,172.6,174.5,230.8,174.5,230.8z"/>
	</g>
	<g>
		<path class="st0" d="M380.2,255.5c5.3,13.1-16.6,33.4-56.7,24.7c-43.2-13.2-39.9-33.9-37.8-40.7"/>
		<path class="st0" d="M322.5,192.9c-41.3,5.9-46.6,33.5-33.1,51.9c3.5,4.5,24,21.5,47.4,22.9c22.8,1.3,44.2-9.6,47.9-17.3
			c0,0,15.5-34.8-33.6-52.9"/>
		<path class="st0" d="M317.7,201.5c12.9-11.6,6.8-67.6,6.8-67.6c-1.2-9.5,38.6-9,33.9,7.4c-6.8,23-10.5,32.6-6.8,62.2
			c0.5,2.7,1.2,3.4,1.2,3.4"/>
		<path class="st1" d="M326.8,132.3c0-2,8.8-3.5,16.8-2.4c8,1.2,12.5,4.6,12.2,6.6c-0.3,2-7,2.6-15.1,1.5
			C332.8,136.8,326.8,134.1,326.8,132.3z"/>
	</g>
	<g>
		<path class="st0" d="M80.6,105.4c-0.8,7.7-1.7,32.7-1.5,39c0.5,8.1,9.5,31.2,34.8,29.7c25-1.5,30.5-25.5,30.8-31.6
			c0.6-12-6.3-42.5-6.3-42.5c-2.1-7-13-8.4-27-8C98.1,92.5,80.9,96.4,80.6,105.4z"/>
		
			<ellipse transform="matrix(0.9966 -8.260003e-02 8.260003e-02 0.9966 -8.0289 9.3827)" class="st1" cx="109.4" cy="101.7" rx="27" ry="7.9"/>
		<path class="st0" d="M114.2,228c-13.8,2.4-25.4,10.3-25.4,18.9c0,7.8,10.5,18,32.7,15.5c15.6-1.8,28.9-11.6,28.9-21.2
			c0-9-15.5-14.3-29-14"/>
		<path class="st0" d="M114.5,229.8c-0.3,4.7-2.8,5.5-3.9,6c-2.3,1.3,0,6.5,8.4,5.4c6.5-1,10.1-5.9,7.1-7.6c-3-1.7-4.6-1.6-5.1-5.2
			c-0.8-6.4-0.4-21.7,1.4-23.9c1.6-6.7,9.7-14,3.4-22.6c-8.4,6.7-19.8,3.8-22.5,1.2c-4.5,10.3-1.9,11.9,1.4,17
			C112.8,211.6,114.7,226.8,114.5,229.8z"/>
		<path class="st0" d="M103.4,183c-2.7-2.9,5.2-5.6,4.5-9.1"/>
		<path class="st0" d="M125.9,181.8c1.7-3.3-2.1-3.5-5.4-6.7c-1-1-0.7-2-0.7-2"/>
	</g>
	<path class="st2" d="M3.3,188.9c1.1,5.1,15,10.1,32.4,6.9c17.5-3.1,33.8-12.7,32.7-19s-20.4-8.9-35.3-6.4
		C17.5,173,1.6,181.3,3.3,188.9z"/>
	<path class="st3" d="M354.1,80.7c0.1-2.3,9.6-4.7,21.4-4.2c11.8,0.5,22.5,4.3,22.4,6.7c-0.1,2.3-10.1,4.3-21.9,3.8
		C364.2,86.5,354,83,354.1,80.7z"/>
	<path class="st0" d="M127,2.4c-0.3-0.5,6.7-1.5,14.9-1.5c8.3,0,15,0.4,15,0.9s-6.7,1.4-15,1.4S127.3,2.8,127,2.4z"/>
	<path class="st0" d="M200.1,42.6c0,0.5,3.6,1,8,1c4.4,0,8-0.4,8-1c0-0.5-3.6-1.1-8-1.1C203.6,41.5,200.1,42.1,200.1,42.6z"/>
	<path class="st0" d="M26.1,39.9c1.3,1.3,10.9,2.7,24.1,2S73,39,74.3,37.7c1.2-1.2-9.6-3.6-22.8-2.9S24.6,38.4,26.1,39.9z"/>
	<path class="st0" d="M266,37.8c0-1.2,7.3-2.6,16.1-2.4c8.8,0.2,15.7,2,15.7,3.2c0,1.2-7.2,2-15.9,1.8C273,40.1,265.9,38.9,266,37.8
		z"/>
	<path class="st0" d="M167.7,141.9c0,6.7,13.1,12.1,29.2,12.1s29.2-5.4,29.2-12.1s-12.2-11.1-28.3-11.1S167.7,135.2,167.7,141.9z"/>
	<path class="st0" d="M326.8,132.3c0-2,8.8-3.5,16.8-2.4c8,1.2,12.5,4.6,12.2,6.6c-0.3,2-7,2.6-15.1,1.5
		C332.8,136.8,326.8,134.1,326.8,132.3z"/>
	
		<ellipse transform="matrix(0.9966 -8.260003e-02 8.260003e-02 0.9966 -8.0289 9.3827)" class="st0" cx="109.4" cy="101.7" rx="27" ry="7.9"/>
	<path class="st4" d="M3.3,188.9c1.1,5.1,15,10.1,32.4,6.9c17.5-3.1,33.8-12.7,32.7-19s-20.4-8.9-35.3-6.4
		C17.5,173,1.6,181.3,3.3,188.9z"/>
	<path class="st5" d="M354.1,80.7c0.1-2.3,9.6-4.7,21.4-4.2c11.8,0.5,22.5,4.3,22.4,6.7c-0.1,2.3-10.1,4.3-21.9,3.8
		C364.2,86.5,354,83,354.1,80.7z"/>
</g>
</svg>
