<?xml version="1.0" encoding="utf-8"?>
<!-- Generator: Adobe Illustrator 25.3.1, SVG Export Plug-In . SVG Version: 6.00 Build 0)  -->
<svg version="1.1" id="Layer_1" xmlns="http://www.w3.org/2000/svg" xmlns:xlink="http://www.w3.org/1999/xlink" x="0px" y="0px"
	 viewBox="0 0 208 294.8" style="enable-background:new 0 0 208 294.8;" xml:space="preserve">
<style type="text/css">
	.st0{fill:#222222;}
</style>
<g id="Layer_2_1_">
	<g id="Layer_1-2">
		<path class="st0" d="M68.8,3.2h-0.2H68.8L68.8,3.2z M67.2,27.5C67.2,27.5,67.2,27.5,67.2,27.5L67.2,27.5z"/>
		<path class="st0" d="M69.8,98.7V99v-0.2C69.8,98.8,69.8,98.7,69.8,98.7z M68.8,3.2h-0.2H68.8L68.8,3.2z M67.2,27.5
			C67.2,27.5,67.2,27.5,67.2,27.5L67.2,27.5z M67.2,27.5C67.2,27.5,67.2,27.5,67.2,27.5L67.2,27.5z"/>
		<path class="st0" d="M206.4,179.6c-2.1-11.7-6.2-22.9-12.1-33.2c-2.9-5.1-6.3-9.9-10-14.5c-1-1.1-1.9-2.2-2.9-3.3l-1.5-1.6
			c-0.5-0.6-1-1.1-1.5-1.6l-0.3-0.3c-0.9-0.9-1.8-1.9-2.8-2.8l-1.6-1.5l-1.7-1.5c-8.8-7.7-18.9-13.9-29.7-18.3c-0.5-0.2-1-0.6-1.4-1
			c-0.3-0.3-0.4-0.6-0.4-1v-0.2v-0.3c-0.6-4.1-1.1-8.3-1.4-12.4s-0.5-8.5-0.5-12.6c0-7.6,0.3-15.6,1.1-25.3
			c0.3-4.2,0.8-8.5,1.2-12.6l0.8-7.1c0.2-0.1,0.4-0.1,0.6-0.2c0.3-0.1,0.7-0.2,1-0.4c0.3-0.1,0.6-0.3,0.8-0.4l0.1,0
			c2.5-1.4,4.4-3.7,5.3-6.5c0.2-0.7,0.4-1.4,0.5-2.1c0-0.3,0-0.5,0-0.8v-0.2c0-0.3,0-0.5,0-0.6l0.1-2.7v-1
			c-0.5-6.1-5.4-10.8-11.6-11.1c-6.4-0.8-12.1-1.4-17.4-1.7c-5.8-0.4-11.7-0.6-17.6-0.7c-6.2,0-12,0-17.6,0.3S74.8,1,68.6,1.7
			c-6.5,0.1-11.9,5.1-12.5,11.6L56,14.4V18c0,0.3,0,0.6,0.1,0.9c0.1,0.8,0.3,1.5,0.5,2.2c0.9,3,3,5.6,5.7,7.2
			c0.4,0.2,0.7,0.4,1.1,0.6s0.6,0.3,0.9,0.4l0.6,6.4c0.5,4.9,0.8,8.9,1.1,12.6c0.9,9.7,1.2,17.7,1.3,25.2c0.1,8.4-0.5,16.7-1.6,25
			c0,0.2,0,0.4,0,0.6c0,0.1,0,0.1-0.1,0.2c-0.2,0.3-0.4,0.5-0.7,0.6l-0.2,0.1l-3.4,1.5c-1.3,0.7-2.7,1.3-4,2l-1.4,0.7
			c-0.8,0.4-1.7,0.9-2.5,1.4c-5.1,2.9-9.9,6.3-14.5,10c-4.6,3.7-8.8,7.8-12.7,12.3c-0.6,0.7-1.3,1.5-1.9,2.2l-1,1.1
			c-0.7,0.8-1.3,1.6-1.9,2.4l-0.8,1c-1.5,2-3.3,4.6-5,7.3C3.1,162.3-2.1,186.2,0.8,209.8c1.4,11.9,5.1,23.4,10.8,33.9
			c5.8,10.5,13.6,19.8,22.9,27.4c4.6,3.8,9.6,7.2,14.8,10.1c5.2,2.9,10.7,5.3,16.4,7.3c11.3,4,23.1,6.1,35.1,6.4c1.2,0,2.3,0,3.5,0
			c10.8,0,21.5-1.5,31.9-4.5c11.6-3.3,22.5-8.6,32.3-15.6c9.8-7.1,18.2-15.9,24.8-26.1c3.2-5.1,6-10.5,8.2-16.1
			c2.2-5.6,3.8-11.4,4.9-17.3c0.1-0.5,0.2-1,0.3-1.5c0.2-0.9,0.3-1.9,0.4-2.9l0.5-4.4l0.3-4.5c0-0.6,0.1-1.2,0.1-1.9v-2.6
			C207.9,191.4,207.4,185.5,206.4,179.6z M68.8,3.2L68.8,3.2h-0.2H68.8z M67.2,27.5C67.2,27.5,67.2,27.5,67.2,27.5L67.2,27.5
			L67.2,27.5z M200.2,197.2c0,0.5,0,1.1-0.1,1.6c0,0.9-0.1,1.7-0.1,2.5l-0.4,4.2l-0.6,4.1c-0.1,0.8-0.3,1.7-0.5,2.6
			c-0.1,0.5-0.2,1-0.3,1.5c-1.1,5.3-2.8,10.6-4.8,15.6c-2.1,5-4.6,9.9-7.6,14.5c-6,9.1-13.7,17.1-22.6,23.4c-4.5,3.2-9.2,6-14.1,8.4
			c-4.9,2.4-10.1,4.3-15.4,5.9c-5.3,1.5-10.7,2.7-16.1,3.4c-5.5,0.7-11,1-16.5,0.9c-5.5-0.1-11-0.6-16.5-1.5c-5.4-0.9-10.8-2.3-16-4
			c-5.2-1.7-10.3-3.9-15.1-6.5c-4.8-2.6-9.4-5.6-13.8-9c-8.7-6.8-16-15.2-21.6-24.7c-5.6-9.6-9.4-20.1-11-31.1
			c-6.2-39.9,13.3-79.4,48.8-98.7c0.8-0.4,1.6-0.8,2.4-1.2l1.4-0.7c1.2-0.6,2.5-1.2,3.8-1.8l3.5-1.5c0.3-0.1,0.5-0.2,0.8-0.4
			c1-0.5,1.8-1.3,2.5-2.2c0.8-1,1.2-2.2,1.2-3.5c1.4-8.4,2.2-16.9,2.5-25.5c0.3-7.9,0.2-16.3-0.3-25.7c-0.2-3.8-0.4-7.9-0.8-12.8
			c-0.1-2.1-0.3-4.2-0.5-6.4L72.2,27c-0.2-1.8-1.2-3.5-2.7-4.4c-0.4-0.2-0.8-0.4-1.3-0.6l-0.5-0.1c-0.1,0-0.2-0.1-0.3-0.1h-0.1
			l-0.3-0.1l-0.1,0l-0.2-0.1l-0.1-0.1c-1-0.6-1.7-1.5-2-2.6c-0.1-0.3-0.1-0.5-0.2-0.8v-0.1v-0.1c0-0.1,0-0.2,0-0.3v-0.1v-2.8
			c0-0.2,0-0.3,0-0.5c0.3-2.3,2.2-4,4.4-4c0.1,0,0.3,0,0.4,0c5.3-0.5,10.9-1,17.1-1.3s11.8-0.5,17.2-0.6c5.7-0.1,11.5,0,17.2,0.2
			c6.6,0.2,12.1,0.6,17.2,1c0.1,0,0.2,0,0.4,0c1.3,0,2.6,0.4,3.5,1.3c1,0.9,1.7,2.1,1.9,3.4l0.1,1.3v1.9c0,0.1,0,0.3,0,0.4
			s0,0.2,0,0.3c0,0.1,0,0.1,0,0.2v0.1c0,0.3-0.1,0.7-0.2,1c-0.4,1.4-1.2,2.5-2.4,3.3l-0.1,0.1c-0.1,0.1-0.2,0.1-0.3,0.2l-0.1,0
			c-0.1,0.1-0.3,0.1-0.4,0.2h-0.1c-0.1,0.1-0.3,0.1-0.4,0.1l-0.4,0.1c-0.4,0.1-0.7,0.3-1,0.5c-1.2,0.8-2,2.1-2.1,3.5l-0.5,8
			l-0.4,6.4c-0.1,2.1-0.2,4.2-0.3,6.4c-0.2,4.1-0.3,8.4-0.4,12.8s0,9,0,12.8c0.2,8.5,0.9,17,2.2,25.4c0,1.3,0.5,2.5,1.4,3.5
			c0.8,0.8,1.7,1.5,2.8,1.9c21,8.7,38.2,24.5,48.6,44.7C197.3,163.9,200.9,180.5,200.2,197.2L200.2,197.2z M69.8,99v-0.3
			c0,0,0,0.1,0,0.2V99z"/>
	</g>
</g>
</svg>
