<?xml version="1.0" encoding="utf-8"?>
<!-- Generator: Adobe Illustrator 25.3.1, SVG Export Plug-In . SVG Version: 6.00 Build 0)  -->
<svg version="1.1" id="Layer_1" xmlns="http://www.w3.org/2000/svg" xmlns:xlink="http://www.w3.org/1999/xlink" x="0px" y="0px"
	 viewBox="0 0 141.2 294.5" style="enable-background:new 0 0 141.2 294.5;" xml:space="preserve">
<style type="text/css">
	.st0{fill:#222222;}
</style>
<g id="Layer_2_1_">
	<g id="Layer_1-2">
		<path class="st0" d="M70.6,294.5c-3.6,0-6.6-2.7-6.8-6.3l-9.2-129l-6.2,5.2c-2.9,2.4-7.2,2-9.6-0.9c-1.4-1.7-1.9-4-1.3-6.1l9-31.9
			l-23.7-19.9c-2.9-2.4-3.2-6.7-0.8-9.6c1.3-1.5,3.2-2.4,5.2-2.4h22.8l-0.4-5.1H6.8c-3.8,0-6.8-3-6.8-6.8c0-2.2,1-4.2,2.8-5.5
			l35.4-25.7L24.7,8.9c-1.2-3.6,0.8-7.4,4.4-8.6c2.1-0.7,4.3-0.3,6.1,1L70.6,27L106,1.3c3-2.2,7.3-1.6,9.5,1.5c1.3,1.8,1.7,4,1,6.1
			L103,50.6l35.4,25.7c3,2.2,3.7,6.5,1.5,9.5c-1.3,1.8-3.3,2.8-5.5,2.8H91.6l-0.4,5.1H114c3.8,0,6.8,3,6.8,6.8c0,2-0.9,3.9-2.4,5.2
			l0,0l-23.6,19.9l9,31.9c1,3.6-1.2,7.4-4.8,8.3c-2.1,0.6-4.4,0.1-6.1-1.3l-6.2-5.2l-9.2,129C77.2,291.8,74.2,294.6,70.6,294.5z
			 M57.4,146c0.9,0,1.8,0.2,2.7,0.6c2.4,1,4,3.2,4.1,5.8l6.4,90.4l6.4-90.4c0.3-3.8,3.5-6.6,7.3-6.3c1.4,0.1,2.8,0.7,3.9,1.6
			l3.1,2.6l-6.7-23.9c-0.7-2.6,0.1-5.3,2.2-7l18.5-15.5H87.8c-3.8,0-6.8-3-6.8-6.8c0-0.2,0-0.4,0-0.6l0.8-11.5
			c0.3-3.6,3.2-6.3,6.8-6.3h35.9L95.2,57.3c-2.4-1.7-3.4-4.8-2.5-7.6l11.2-34.5L74.6,36.5c-2.4,1.7-5.6,1.7-8,0L37.3,15.2l11.2,34.5
			c0.9,2.8-0.1,5.9-2.5,7.6L16.7,78.6h35.9c3.6,0,6.5,2.8,6.8,6.3l0.8,11.5c0.3,3.7-2.6,7-6.3,7.3c-0.2,0-0.3,0-0.5,0H36l18.5,15.5
			c2,1.7,2.9,4.4,2.2,7l-6.7,23.9l3.1-2.5C54.2,146.6,55.8,146,57.4,146z"/>
	</g>
</g>
</svg>
