<svg xmlns="http://www.w3.org/2000/svg" viewBox="0 0 1035.62 418.67">
  <defs>
    <style>
      .cls-1 {
        fill: none;
      }

      .cls-1, .cls-2 {
        stroke: #222;
        stroke-linecap: round;
        stroke-linejoin: round;
      }

      .cls-2 {
        fill: #333;
        opacity: 0.15;
      }
    </style>
  </defs>
  <g id="Layer_2" data-name="Layer 2">
    <g id="Layer_1-2" data-name="Layer 1">
      <g>
        <g>
          <g>
            <polygon class="cls-1" points="274.35 226.25 274.35 226.24 243.93 208.93 274.35 191.6 304.79 208.93 274.35 226.25"/>
            <polygon class="cls-1" points="274.35 226.24 274.35 260.88 243.93 243.56 243.93 208.93 274.35 226.24"/>
            <polygon class="cls-1" points="304.79 208.93 304.79 243.56 274.35 260.88 274.35 226.25 304.79 208.93"/>
          </g>
          <polygon class="cls-2" points="274.35 226.25 274.35 260.88 243.93 243.56 243.93 208.93 274.35 226.25"/>
        </g>
        <g>
          <g>
            <polygon class="cls-1" points="274.35 191.71 274.35 191.7 243.93 174.39 274.35 157.06 304.79 174.39 274.35 191.71"/>
            <polygon class="cls-1" points="274.35 191.7 274.35 226.34 243.93 209.02 243.93 174.39 274.35 191.7"/>
            <polygon class="cls-1" points="304.79 174.39 304.79 209.02 274.35 226.34 274.35 191.71 304.79 174.39"/>
          </g>
          <polygon class="cls-2" points="274.35 191.71 274.35 226.34 243.93 209.02 243.93 174.39 274.35 191.71"/>
        </g>
        <g>
          <g>
            <polygon class="cls-1" points="518.21 121.65 518.21 121.64 487.78 104.33 518.21 87.01 548.64 104.33 518.21 121.65"/>
            <polygon class="cls-1" points="518.21 121.64 518.21 156.29 487.78 138.96 487.78 104.33 518.21 121.64"/>
            <polygon class="cls-1" points="548.64 104.33 548.64 138.96 518.21 156.29 518.21 121.65 548.64 104.33"/>
          </g>
          <polygon class="cls-2" points="518.21 121.65 518.21 156.29 487.78 138.96 487.78 104.33 518.21 121.65"/>
        </g>
        <g>
          <g>
            <polygon class="cls-1" points="578.66 260.91 578.66 260.9 548.24 243.59 578.66 226.27 609.1 243.59 578.66 260.91"/>
            <polygon class="cls-1" points="578.66 260.9 578.66 295.55 548.24 278.22 548.24 243.59 578.66 260.9"/>
            <polygon class="cls-1" points="609.1 243.59 609.1 278.22 578.66 295.55 578.66 260.91 609.1 243.59"/>
          </g>
          <polygon class="cls-2" points="578.66 260.91 578.66 295.55 548.24 278.22 548.24 243.59 578.66 260.91"/>
        </g>
        <g>
          <g>
            <polygon class="cls-1" points="669.95 35.14 669.95 35.13 639.53 17.82 669.95 0.5 700.39 17.82 669.95 35.14"/>
            <polygon class="cls-1" points="669.95 35.13 669.95 69.78 639.53 52.46 639.53 17.82 669.95 35.13"/>
            <polygon class="cls-1" points="700.39 17.82 700.39 52.46 669.95 69.78 669.95 35.14 700.39 17.82"/>
          </g>
          <polygon class="cls-2" points="669.95 35.14 669.95 69.78 639.53 52.46 639.53 17.82 669.95 35.14"/>
        </g>
        <g>
          <g>
            <polygon class="cls-1" points="304.79 243.56 304.79 243.55 274.36 226.24 304.79 208.92 335.22 226.24 304.79 243.56"/>
            <polygon class="cls-1" points="304.79 243.55 304.79 278.2 274.36 260.87 274.36 226.24 304.79 243.55"/>
            <polygon class="cls-1" points="335.22 226.24 335.22 260.87 304.79 278.2 304.79 243.56 335.22 226.24"/>
          </g>
          <polygon class="cls-2" points="304.79 243.56 304.79 278.2 274.36 260.87 274.36 226.24 304.79 243.56"/>
        </g>
        <g>
          <g>
            <polygon class="cls-1" points="122.08 278.3 122.08 278.29 91.66 260.98 122.08 243.66 152.52 260.98 122.08 278.3"/>
            <polygon class="cls-1" points="122.08 278.29 122.08 312.94 91.66 295.61 91.66 260.98 122.08 278.29"/>
            <polygon class="cls-1" points="152.52 260.98 152.52 295.61 122.08 312.94 122.08 278.3 152.52 260.98"/>
          </g>
          <polygon class="cls-2" points="122.08 278.3 122.08 312.94 91.66 295.61 91.66 260.98 122.08 278.3"/>
        </g>
        <g>
          <g>
            <polygon class="cls-1" points="61.13 208.03 61.13 208.02 30.7 190.71 61.13 173.39 91.56 190.71 61.13 208.03"/>
            <polygon class="cls-1" points="61.13 208.02 61.13 242.67 30.7 225.35 30.7 190.71 61.13 208.02"/>
            <polygon class="cls-1" points="91.56 190.71 91.56 225.35 61.13 242.67 61.13 208.03 91.56 190.71"/>
          </g>
          <polygon class="cls-2" points="61.13 208.03 61.13 242.67 30.7 225.35 30.7 190.71 61.13 208.03"/>
        </g>
        <g>
          <g>
            <polygon class="cls-1" points="943.82 330.57 943.82 330.56 913.4 313.24 943.82 295.92 974.26 313.24 943.82 330.57"/>
            <polygon class="cls-1" points="943.82 330.56 943.82 365.2 913.4 347.88 913.4 313.24 943.82 330.56"/>
            <polygon class="cls-1" points="974.26 313.24 974.26 347.88 943.82 365.2 943.82 330.57 974.26 313.24"/>
          </g>
          <polygon class="cls-2" points="943.82 330.57 943.82 365.2 913.4 347.88 913.4 313.24 943.82 330.57"/>
        </g>
        <g>
          <g>
            <polygon class="cls-1" points="853.58 312.51 853.58 312.5 823.15 295.19 853.58 277.87 884.01 295.19 853.58 312.51"/>
            <polygon class="cls-1" points="853.58 312.5 853.58 347.14 823.15 329.82 823.15 295.19 853.58 312.5"/>
            <polygon class="cls-1" points="884.01 295.19 884.01 329.82 853.58 347.14 853.58 312.51 884.01 295.19"/>
          </g>
          <polygon class="cls-2" points="853.58 312.51 853.58 347.14 823.15 329.82 823.15 295.19 853.58 312.51"/>
        </g>
        <g>
          <g>
            <polygon class="cls-1" points="853.58 243.23 853.58 243.22 823.15 225.91 853.58 208.59 884.01 225.91 853.58 243.23"/>
            <polygon class="cls-1" points="853.58 243.22 853.58 277.87 823.15 260.54 823.15 225.91 853.58 243.22"/>
            <polygon class="cls-1" points="884.01 225.91 884.01 260.54 853.58 277.87 853.58 243.23 884.01 225.91"/>
          </g>
          <polygon class="cls-2" points="853.58 243.23 853.58 277.87 823.15 260.54 823.15 225.91 853.58 243.23"/>
        </g>
        <g>
          <g>
            <polygon class="cls-1" points="1004.68 262.45 1004.68 262.44 974.26 245.13 1004.68 227.81 1035.12 245.13 1004.68 262.45"/>
            <polygon class="cls-1" points="1004.68 262.44 1004.68 297.08 974.26 279.76 974.26 245.13 1004.68 262.44"/>
            <polygon class="cls-1" points="1035.12 245.13 1035.12 279.76 1004.68 297.08 1004.68 262.45 1035.12 245.13"/>
          </g>
          <polygon class="cls-2" points="1004.68 262.45 1004.68 297.08 974.26 279.76 974.26 245.13 1004.68 262.45"/>
        </g>
        <g>
          <g>
            <polygon class="cls-1" points="853.58 277.88 853.58 277.87 823.15 260.55 853.58 243.23 884.01 260.55 853.58 277.88"/>
            <polygon class="cls-1" points="853.58 277.87 853.58 312.51 823.15 295.19 823.15 260.55 853.58 277.87"/>
            <polygon class="cls-1" points="884.01 260.55 884.01 295.19 853.58 312.51 853.58 277.88 884.01 260.55"/>
          </g>
          <polygon class="cls-2" points="853.58 277.88 853.58 312.51 823.15 295.19 823.15 260.55 853.58 277.88"/>
        </g>
        <g>
          <g>
            <polygon class="cls-1" points="669.95 69.79 669.95 69.78 639.53 52.47 669.95 35.14 700.39 52.47 669.95 69.79"/>
            <polygon class="cls-1" points="669.95 69.78 669.95 104.42 639.53 87.1 639.53 52.47 669.95 69.78"/>
            <polygon class="cls-1" points="700.39 52.47 700.39 87.1 669.95 104.42 669.95 69.79 700.39 52.47"/>
          </g>
          <polygon class="cls-2" points="669.95 69.79 669.95 104.42 639.53 87.1 639.53 52.47 669.95 69.79"/>
        </g>
        <g>
          <g>
            <polygon class="cls-1" points="396.08 122.36 396.08 122.35 365.66 105.04 396.08 87.71 426.52 105.04 396.08 122.36"/>
            <polygon class="cls-1" points="396.08 122.35 396.08 156.99 365.66 139.67 365.66 105.04 396.08 122.35"/>
            <polygon class="cls-1" points="426.52 105.04 426.52 139.67 396.08 156.99 396.08 122.36 426.52 105.04"/>
          </g>
          <polygon class="cls-2" points="396.08 122.36 396.08 156.99 365.66 139.67 365.66 105.04 396.08 122.36"/>
        </g>
        <g>
          <g>
            <polygon class="cls-1" points="396.08 87.82 396.08 87.81 365.66 70.5 396.08 53.17 426.52 70.5 396.08 87.82"/>
            <polygon class="cls-1" points="396.08 87.81 396.08 122.45 365.66 105.13 365.66 70.5 396.08 87.81"/>
            <polygon class="cls-1" points="426.52 70.5 426.52 105.13 396.08 122.45 396.08 87.82 426.52 70.5"/>
          </g>
          <polygon class="cls-2" points="396.08 87.82 396.08 122.45 365.66 105.13 365.66 70.5 396.08 87.82"/>
        </g>
        <g>
          <g>
            <polygon class="cls-1" points="700.38 331.63 700.38 331.62 669.96 314.31 700.38 296.99 730.82 314.31 700.38 331.63"/>
            <polygon class="cls-1" points="700.38 331.62 700.38 366.26 669.96 348.94 669.96 314.31 700.38 331.62"/>
            <polygon class="cls-1" points="730.82 314.31 730.82 348.94 700.38 366.26 700.38 331.63 730.82 314.31"/>
          </g>
          <polygon class="cls-2" points="700.38 331.63 700.38 366.26 669.96 348.94 669.96 314.31 700.38 331.63"/>
        </g>
        <g>
          <g>
            <polygon class="cls-1" points="700.38 297.09 700.38 297.08 669.96 279.77 700.38 262.44 730.82 279.77 700.38 297.09"/>
            <polygon class="cls-1" points="700.38 297.08 700.38 331.72 669.96 314.4 669.96 279.77 700.38 297.08"/>
            <polygon class="cls-1" points="730.82 279.77 730.82 314.4 700.38 331.72 700.38 297.09 730.82 279.77"/>
          </g>
          <polygon class="cls-2" points="700.38 297.09 700.38 331.72 669.96 314.4 669.96 279.77 700.38 297.09"/>
        </g>
        <g>
          <g>
            <polygon class="cls-1" points="823.15 119.45 823.15 119.44 792.73 102.13 823.15 84.8 853.59 102.13 823.15 119.45"/>
            <polygon class="cls-1" points="823.15 119.44 823.15 154.08 792.73 136.76 792.73 102.13 823.15 119.44"/>
            <polygon class="cls-1" points="853.59 102.13 853.59 136.76 823.15 154.08 823.15 119.45 853.59 102.13"/>
          </g>
          <polygon class="cls-2" points="823.15 119.45 823.15 154.08 792.73 136.76 792.73 102.13 823.15 119.45"/>
        </g>
        <g>
          <g>
            <polygon class="cls-1" points="823.15 84.91 823.15 84.9 792.73 67.58 823.15 50.26 853.59 67.58 823.15 84.91"/>
            <polygon class="cls-1" points="823.15 84.9 823.15 119.54 792.73 102.22 792.73 67.58 823.15 84.9"/>
            <polygon class="cls-1" points="853.59 67.58 853.59 102.22 823.15 119.54 823.15 84.91 853.59 67.58"/>
          </g>
          <polygon class="cls-2" points="823.15 84.91 823.15 119.54 792.73 102.22 792.73 67.58 823.15 84.91"/>
        </g>
        <g>
          <g>
            <polygon class="cls-1" points="426.51 243.24 426.51 243.22 396.09 225.91 426.51 208.59 456.95 225.91 426.51 243.24"/>
            <polygon class="cls-1" points="426.51 243.22 426.51 277.87 396.09 260.55 396.09 225.91 426.51 243.22"/>
            <polygon class="cls-1" points="456.95 225.91 456.95 260.55 426.51 277.87 426.51 243.24 456.95 225.91"/>
          </g>
          <polygon class="cls-2" points="426.51 243.24 426.51 277.87 396.09 260.55 396.09 225.91 426.51 243.24"/>
        </g>
        <g>
          <g>
            <polygon class="cls-1" points="426.51 208.69 426.51 208.69 396.09 191.37 426.51 174.05 456.95 191.37 426.51 208.69"/>
            <polygon class="cls-1" points="426.51 208.69 426.51 243.33 396.09 226.01 396.09 191.37 426.51 208.69"/>
            <polygon class="cls-1" points="456.95 191.37 456.95 226.01 426.51 243.33 426.51 208.69 456.95 191.37"/>
          </g>
          <polygon class="cls-2" points="426.51 208.69 426.51 243.33 396.09 226.01 396.09 191.37 426.51 208.69"/>
        </g>
        <g>
          <g>
            <polygon class="cls-1" points="243.93 347.84 243.93 347.83 213.51 330.51 243.93 313.19 274.37 330.51 243.93 347.84"/>
            <polygon class="cls-1" points="243.93 347.83 243.93 382.47 213.51 365.15 213.51 330.51 243.93 347.83"/>
            <polygon class="cls-1" points="274.37 330.51 274.37 365.15 243.93 382.47 243.93 347.84 274.37 330.51"/>
          </g>
          <polygon class="cls-2" points="243.93 347.84 243.93 382.47 213.51 365.15 213.51 330.51 243.93 347.84"/>
        </g>
        <g>
          <g>
            <polygon class="cls-1" points="243.93 313.3 243.93 313.29 213.51 295.97 243.93 278.65 274.37 295.97 243.93 313.3"/>
            <polygon class="cls-1" points="243.93 313.29 243.93 347.93 213.51 330.61 213.51 295.97 243.93 313.29"/>
            <polygon class="cls-1" points="274.37 295.97 274.37 330.61 243.93 347.93 243.93 313.3 274.37 295.97"/>
          </g>
          <polygon class="cls-2" points="243.93 313.3 243.93 347.93 213.51 330.61 213.51 295.97 243.93 313.3"/>
        </g>
        <g>
          <g>
            <polygon class="cls-1" points="30.93 329.78 30.93 329.77 0.5 312.46 30.93 295.14 61.36 312.46 30.93 329.78"/>
            <polygon class="cls-1" points="30.93 329.77 30.93 364.42 0.5 347.1 0.5 312.46 30.93 329.77"/>
            <polygon class="cls-1" points="61.36 312.46 61.36 347.1 30.93 364.42 30.93 329.78 61.36 312.46"/>
          </g>
          <polygon class="cls-2" points="30.93 329.78 30.93 364.42 0.5 347.1 0.5 312.46 30.93 329.78"/>
        </g>
        <g>
          <g>
            <polygon class="cls-1" points="30.93 295.24 30.93 295.23 0.5 277.92 30.93 260.6 61.36 277.92 30.93 295.24"/>
            <polygon class="cls-1" points="30.93 295.23 30.93 329.88 0.5 312.56 0.5 277.92 30.93 295.23"/>
            <polygon class="cls-1" points="61.36 277.92 61.36 312.56 30.93 329.88 30.93 295.24 61.36 277.92"/>
          </g>
          <polygon class="cls-2" points="30.93 295.24 30.93 329.88 0.5 312.56 0.5 277.92 30.93 295.24"/>
        </g>
        <g>
          <g>
            <polygon class="cls-1" points="943.82 190.79 943.82 190.78 913.4 173.47 943.82 156.15 974.26 173.47 943.82 190.79"/>
            <polygon class="cls-1" points="943.82 190.78 943.82 225.42 913.4 208.1 913.4 173.47 943.82 190.78"/>
            <polygon class="cls-1" points="974.26 173.47 974.26 208.1 943.82 225.42 943.82 190.79 974.26 173.47"/>
          </g>
          <polygon class="cls-2" points="943.82 190.79 943.82 225.42 913.4 208.1 913.4 173.47 943.82 190.79"/>
        </g>
        <g>
          <g>
            <polygon class="cls-1" points="943.82 156.25 943.82 156.24 913.4 138.93 943.82 121.6 974.26 138.93 943.82 156.25"/>
            <polygon class="cls-1" points="943.82 156.24 943.82 190.88 913.4 173.56 913.4 138.93 943.82 156.24"/>
            <polygon class="cls-1" points="974.26 138.93 974.26 173.56 943.82 190.88 943.82 156.25 974.26 138.93"/>
          </g>
          <polygon class="cls-2" points="943.82 156.25 943.82 190.88 913.4 173.56 913.4 138.93 943.82 156.25"/>
        </g>
        <g>
          <g>
            <polygon class="cls-1" points="761.24 225.97 761.24 225.96 730.82 208.65 761.24 191.33 791.68 208.65 761.24 225.97"/>
            <polygon class="cls-1" points="761.24 225.96 761.24 260.61 730.82 243.28 730.82 208.65 761.24 225.96"/>
            <polygon class="cls-1" points="791.68 208.65 791.68 243.28 761.24 260.61 761.24 225.97 791.68 208.65"/>
          </g>
          <polygon class="cls-2" points="761.24 225.97 761.24 260.61 730.82 243.28 730.82 208.65 761.24 225.97"/>
        </g>
        <g>
          <g>
            <polygon class="cls-1" points="761.24 191.43 761.24 191.42 730.82 174.11 761.24 156.79 791.68 174.11 761.24 191.43"/>
            <polygon class="cls-1" points="761.24 191.42 761.24 226.06 730.82 208.74 730.82 174.11 761.24 191.42"/>
            <polygon class="cls-1" points="791.68 174.11 791.68 208.74 761.24 226.06 761.24 191.43 791.68 174.11"/>
          </g>
          <polygon class="cls-2" points="761.24 191.43 761.24 226.06 730.82 208.74 730.82 174.11 761.24 191.43"/>
        </g>
        <g>
          <g>
            <polygon class="cls-1" points="518.21 190.84 518.21 190.83 487.78 173.51 518.21 156.19 548.64 173.51 518.21 190.84"/>
            <polygon class="cls-1" points="518.21 190.83 518.21 225.47 487.78 208.15 487.78 173.51 518.21 190.83"/>
            <polygon class="cls-1" points="548.64 173.51 548.64 208.15 518.21 225.47 518.21 190.84 548.64 173.51"/>
          </g>
          <polygon class="cls-2" points="518.21 190.84 518.21 225.47 487.78 208.15 487.78 173.51 518.21 190.84"/>
        </g>
        <g>
          <g>
            <polygon class="cls-1" points="518.21 156.3 518.21 156.29 487.78 138.97 518.21 121.65 548.64 138.97 518.21 156.3"/>
            <polygon class="cls-1" points="518.21 156.29 518.21 190.93 487.78 173.61 487.78 138.97 518.21 156.29"/>
            <polygon class="cls-1" points="548.64 138.97 548.64 173.61 518.21 190.93 518.21 156.3 548.64 138.97"/>
          </g>
          <polygon class="cls-2" points="518.21 156.3 518.21 190.93 487.78 173.61 487.78 138.97 518.21 156.3"/>
        </g>
        <g>
          <g>
            <polygon class="cls-1" points="487.78 314.35 487.78 314.34 457.35 297.03 487.78 279.71 518.21 297.03 487.78 314.35"/>
            <polygon class="cls-1" points="487.78 314.34 487.78 348.99 457.35 331.67 457.35 297.03 487.78 314.34"/>
            <polygon class="cls-1" points="518.21 297.03 518.21 331.67 487.78 348.99 487.78 314.35 518.21 297.03"/>
          </g>
          <polygon class="cls-2" points="487.78 314.35 487.78 348.99 457.35 331.67 457.35 297.03 487.78 314.35"/>
        </g>
        <g>
          <g>
            <polygon class="cls-1" points="487.78 383.54 487.78 383.53 457.35 366.22 487.78 348.89 518.21 366.22 487.78 383.54"/>
            <polygon class="cls-1" points="487.78 383.53 487.78 418.17 457.35 400.85 457.35 366.22 487.78 383.53"/>
            <polygon class="cls-1" points="518.21 366.22 518.21 400.85 487.78 418.17 487.78 383.54 518.21 366.22"/>
          </g>
          <polygon class="cls-2" points="487.78 383.54 487.78 418.17 457.35 400.85 457.35 366.22 487.78 383.54"/>
        </g>
        <g>
          <g>
            <polygon class="cls-1" points="487.78 349 487.78 348.99 457.35 331.68 487.78 314.35 518.21 331.68 487.78 349"/>
            <polygon class="cls-1" points="487.78 348.99 487.78 383.63 457.35 366.31 457.35 331.68 487.78 348.99"/>
            <polygon class="cls-1" points="518.21 331.68 518.21 366.31 487.78 383.63 487.78 349 518.21 331.68"/>
          </g>
          <polygon class="cls-2" points="487.78 349 487.78 383.63 457.35 366.31 457.35 331.68 487.78 349"/>
        </g>
        <g>
          <g>
            <polygon class="cls-1" points="853.58 67.59 853.58 67.58 823.15 50.27 853.58 32.95 884.01 50.27 853.58 67.59"/>
            <polygon class="cls-1" points="853.58 67.58 853.58 102.23 823.15 84.91 823.15 50.27 853.58 67.58"/>
            <polygon class="cls-1" points="884.01 50.27 884.01 84.91 853.58 102.23 853.58 67.59 884.01 50.27"/>
          </g>
          <polygon class="cls-2" points="853.58 67.59 853.58 102.23 823.15 84.91 823.15 50.27 853.58 67.59"/>
        </g>
        <g>
          <g>
            <polygon class="cls-1" points="853.58 136.78 853.58 136.77 823.15 119.46 853.58 102.14 884.01 119.46 853.58 136.78"/>
            <polygon class="cls-1" points="853.58 136.77 853.58 171.41 823.15 154.09 823.15 119.46 853.58 136.77"/>
            <polygon class="cls-1" points="884.01 119.46 884.01 154.09 853.58 171.41 853.58 136.78 884.01 119.46"/>
          </g>
          <polygon class="cls-2" points="853.58 136.78 853.58 171.41 823.15 154.09 823.15 119.46 853.58 136.78"/>
        </g>
        <g>
          <g>
            <polygon class="cls-1" points="853.58 102.24 853.58 102.23 823.15 84.92 853.58 67.59 884.01 84.92 853.58 102.24"/>
            <polygon class="cls-1" points="853.58 102.23 853.58 136.87 823.15 119.55 823.15 84.92 853.58 102.23"/>
            <polygon class="cls-1" points="884.01 84.92 884.01 119.55 853.58 136.87 853.58 102.24 884.01 84.92"/>
          </g>
          <polygon class="cls-2" points="853.58 102.24 853.58 136.87 823.15 119.55 823.15 84.92 853.58 102.24"/>
        </g>
        <g>
          <g>
            <polygon class="cls-1" points="669.95 104.43 669.95 104.42 639.53 87.11 669.95 69.79 700.39 87.11 669.95 104.43"/>
            <polygon class="cls-1" points="669.95 104.42 669.95 139.07 639.53 121.75 639.53 87.11 669.95 104.42"/>
            <polygon class="cls-1" points="700.39 87.11 700.39 121.75 669.95 139.07 669.95 104.43 700.39 87.11"/>
          </g>
          <polygon class="cls-2" points="669.95 104.43 669.95 139.07 639.53 121.75 639.53 87.11 669.95 104.43"/>
        </g>
        <g>
          <g>
            <polygon class="cls-1" points="669.95 173.62 669.95 173.61 639.53 156.3 669.95 138.97 700.39 156.3 669.95 173.62"/>
            <polygon class="cls-1" points="669.95 173.61 669.95 208.25 639.53 190.93 639.53 156.3 669.95 173.61"/>
            <polygon class="cls-1" points="700.39 156.3 700.39 190.93 669.95 208.25 669.95 173.62 700.39 156.3"/>
          </g>
          <polygon class="cls-2" points="669.95 173.62 669.95 208.25 639.53 190.93 639.53 156.3 669.95 173.62"/>
        </g>
        <g>
          <g>
            <polygon class="cls-1" points="669.95 139.08 669.95 139.07 639.53 121.75 669.95 104.43 700.39 121.75 669.95 139.08"/>
            <polygon class="cls-1" points="669.95 139.07 669.95 173.71 639.53 156.39 639.53 121.75 669.95 139.07"/>
            <polygon class="cls-1" points="700.39 121.75 700.39 156.39 669.95 173.71 669.95 139.08 700.39 121.75"/>
          </g>
          <polygon class="cls-2" points="669.95 139.08 669.95 173.71 639.53 156.39 639.53 121.75 669.95 139.08"/>
        </g>
        <g>
          <g>
            <polygon class="cls-1" points="183.07 69.69 183.07 69.69 152.65 52.37 183.07 35.05 213.51 52.37 183.07 69.69"/>
            <polygon class="cls-1" points="183.07 69.69 183.07 104.33 152.65 87.01 152.65 52.37 183.07 69.69"/>
            <polygon class="cls-1" points="213.51 52.37 213.51 87.01 183.07 104.33 183.07 69.69 213.51 52.37"/>
          </g>
          <polygon class="cls-2" points="183.07 69.69 183.07 104.33 152.65 87.01 152.65 52.37 183.07 69.69"/>
        </g>
        <g>
          <g>
            <polygon class="cls-1" points="183.07 104.34 183.07 104.33 152.65 87.02 183.07 69.69 213.51 87.02 183.07 104.34"/>
            <polygon class="cls-1" points="183.07 104.33 183.07 138.97 152.65 121.65 152.65 87.02 183.07 104.33"/>
            <polygon class="cls-1" points="213.51 87.02 213.51 121.65 183.07 138.97 183.07 104.34 213.51 87.02"/>
          </g>
          <polygon class="cls-2" points="183.07 104.34 183.07 138.97 152.65 121.65 152.65 87.02 183.07 104.34"/>
        </g>
        <g>
          <g>
            <polygon class="cls-1" points="183.07 173.52 183.07 173.51 152.65 156.2 183.07 138.88 213.51 156.2 183.07 173.52"/>
            <polygon class="cls-1" points="183.07 173.51 183.07 208.16 152.65 190.84 152.65 156.2 183.07 173.51"/>
            <polygon class="cls-1" points="213.51 156.2 213.51 190.84 183.07 208.16 183.07 173.52 213.51 156.2"/>
          </g>
          <polygon class="cls-2" points="183.07 173.52 183.07 208.16 152.65 190.84 152.65 156.2 183.07 173.52"/>
        </g>
        <g>
          <g>
            <polygon class="cls-1" points="183.07 138.98 183.07 138.97 152.65 121.66 183.07 104.34 213.51 121.66 183.07 138.98"/>
            <polygon class="cls-1" points="183.07 138.97 183.07 173.62 152.65 156.3 152.65 121.66 183.07 138.97"/>
            <polygon class="cls-1" points="213.51 121.66 213.51 156.3 183.07 173.62 183.07 138.98 213.51 121.66"/>
          </g>
          <polygon class="cls-2" points="183.07 138.98 183.07 173.62 152.65 156.3 152.65 121.66 183.07 138.98"/>
        </g>
      </g>
    </g>
  </g>
</svg>
